G04 #@! TF.GenerationSoftware,KiCad,Pcbnew,(5.1.5)-3*
G04 #@! TF.CreationDate,2022-01-28T21:11:19+01:00*
G04 #@! TF.ProjectId,fanControl,66616e43-6f6e-4747-926f-6c2e6b696361,rev?*
G04 #@! TF.SameCoordinates,Original*
G04 #@! TF.FileFunction,Soldermask,Bot*
G04 #@! TF.FilePolarity,Negative*
%FSLAX46Y46*%
G04 Gerber Fmt 4.6, Leading zero omitted, Abs format (unit mm)*
G04 Created by KiCad (PCBNEW (5.1.5)-3) date 2022-01-28 21:11:19*
%MOMM*%
%LPD*%
G04 APERTURE LIST*
%ADD10C,0.100000*%
G04 APERTURE END LIST*
D10*
G36*
X193875256Y-89641298D02*
G01*
X193981579Y-89662447D01*
X194282042Y-89786903D01*
X194552451Y-89967585D01*
X194782415Y-90197549D01*
X194963097Y-90467958D01*
X195087553Y-90768421D01*
X195151000Y-91087391D01*
X195151000Y-91412609D01*
X195087553Y-91731579D01*
X194963097Y-92032042D01*
X194782415Y-92302451D01*
X194552451Y-92532415D01*
X194282042Y-92713097D01*
X193981579Y-92837553D01*
X193875256Y-92858702D01*
X193662611Y-92901000D01*
X193337389Y-92901000D01*
X193124744Y-92858702D01*
X193018421Y-92837553D01*
X192717958Y-92713097D01*
X192447549Y-92532415D01*
X192217585Y-92302451D01*
X192036903Y-92032042D01*
X191912447Y-91731579D01*
X191849000Y-91412609D01*
X191849000Y-91087391D01*
X191912447Y-90768421D01*
X192036903Y-90467958D01*
X192217585Y-90197549D01*
X192447549Y-89967585D01*
X192717958Y-89786903D01*
X193018421Y-89662447D01*
X193124744Y-89641298D01*
X193337389Y-89599000D01*
X193662611Y-89599000D01*
X193875256Y-89641298D01*
G37*
G36*
X179810548Y-90362326D02*
G01*
X179984157Y-90414990D01*
X180144156Y-90500511D01*
X180158612Y-90512375D01*
X180284397Y-90615603D01*
X180363729Y-90712271D01*
X180399489Y-90755844D01*
X180485010Y-90915843D01*
X180537674Y-91089452D01*
X180551000Y-91224757D01*
X180551000Y-91775244D01*
X180537674Y-91910548D01*
X180485010Y-92084157D01*
X180399489Y-92244156D01*
X180363729Y-92287729D01*
X180284397Y-92384397D01*
X180144155Y-92499489D01*
X179984156Y-92585010D01*
X179810547Y-92637674D01*
X179630000Y-92655456D01*
X179449452Y-92637674D01*
X179275843Y-92585010D01*
X179115844Y-92499489D01*
X179072271Y-92463729D01*
X178975603Y-92384397D01*
X178860511Y-92244155D01*
X178774991Y-92084158D01*
X178774990Y-92084156D01*
X178722326Y-91910547D01*
X178709000Y-91775243D01*
X178709000Y-91224756D01*
X178722326Y-91089452D01*
X178774990Y-90915843D01*
X178860512Y-90755844D01*
X178870832Y-90743269D01*
X178975604Y-90615603D01*
X179101389Y-90512375D01*
X179115845Y-90500511D01*
X179275844Y-90414990D01*
X179449453Y-90362326D01*
X179630000Y-90344544D01*
X179810548Y-90362326D01*
G37*
G36*
X184890548Y-90362326D02*
G01*
X185064157Y-90414990D01*
X185224156Y-90500511D01*
X185238612Y-90512375D01*
X185364397Y-90615603D01*
X185443729Y-90712271D01*
X185479489Y-90755844D01*
X185565010Y-90915843D01*
X185617674Y-91089452D01*
X185631000Y-91224757D01*
X185631000Y-91775244D01*
X185617674Y-91910548D01*
X185565010Y-92084157D01*
X185479489Y-92244156D01*
X185443729Y-92287729D01*
X185364397Y-92384397D01*
X185224155Y-92499489D01*
X185064156Y-92585010D01*
X184890547Y-92637674D01*
X184710000Y-92655456D01*
X184529452Y-92637674D01*
X184355843Y-92585010D01*
X184195844Y-92499489D01*
X184152271Y-92463729D01*
X184055603Y-92384397D01*
X183940511Y-92244155D01*
X183854991Y-92084158D01*
X183854990Y-92084156D01*
X183802326Y-91910547D01*
X183789000Y-91775243D01*
X183789000Y-91224756D01*
X183802326Y-91089452D01*
X183854990Y-90915843D01*
X183940512Y-90755844D01*
X183950832Y-90743269D01*
X184055604Y-90615603D01*
X184181389Y-90512375D01*
X184195845Y-90500511D01*
X184355844Y-90414990D01*
X184529453Y-90362326D01*
X184710000Y-90344544D01*
X184890548Y-90362326D01*
G37*
G36*
X182350548Y-90362326D02*
G01*
X182524157Y-90414990D01*
X182684156Y-90500511D01*
X182698612Y-90512375D01*
X182824397Y-90615603D01*
X182903729Y-90712271D01*
X182939489Y-90755844D01*
X183025010Y-90915843D01*
X183077674Y-91089452D01*
X183091000Y-91224757D01*
X183091000Y-91775244D01*
X183077674Y-91910548D01*
X183025010Y-92084157D01*
X182939489Y-92244156D01*
X182903729Y-92287729D01*
X182824397Y-92384397D01*
X182684155Y-92499489D01*
X182524156Y-92585010D01*
X182350547Y-92637674D01*
X182170000Y-92655456D01*
X181989452Y-92637674D01*
X181815843Y-92585010D01*
X181655844Y-92499489D01*
X181612271Y-92463729D01*
X181515603Y-92384397D01*
X181400511Y-92244155D01*
X181314991Y-92084158D01*
X181314990Y-92084156D01*
X181262326Y-91910547D01*
X181249000Y-91775243D01*
X181249000Y-91224756D01*
X181262326Y-91089452D01*
X181314990Y-90915843D01*
X181400512Y-90755844D01*
X181410832Y-90743269D01*
X181515604Y-90615603D01*
X181641389Y-90512375D01*
X181655845Y-90500511D01*
X181815844Y-90414990D01*
X181989453Y-90362326D01*
X182170000Y-90344544D01*
X182350548Y-90362326D01*
G37*
G36*
X199350548Y-90362326D02*
G01*
X199524157Y-90414990D01*
X199684156Y-90500511D01*
X199698612Y-90512375D01*
X199824397Y-90615603D01*
X199903729Y-90712271D01*
X199939489Y-90755844D01*
X200025010Y-90915843D01*
X200077674Y-91089452D01*
X200091000Y-91224757D01*
X200091000Y-91775244D01*
X200077674Y-91910548D01*
X200025010Y-92084157D01*
X199939489Y-92244156D01*
X199903729Y-92287729D01*
X199824397Y-92384397D01*
X199684155Y-92499489D01*
X199524156Y-92585010D01*
X199350547Y-92637674D01*
X199170000Y-92655456D01*
X198989452Y-92637674D01*
X198815843Y-92585010D01*
X198655844Y-92499489D01*
X198612271Y-92463729D01*
X198515603Y-92384397D01*
X198400511Y-92244155D01*
X198314991Y-92084158D01*
X198314990Y-92084156D01*
X198262326Y-91910547D01*
X198249000Y-91775243D01*
X198249000Y-91224756D01*
X198262326Y-91089452D01*
X198314990Y-90915843D01*
X198400512Y-90755844D01*
X198410832Y-90743269D01*
X198515604Y-90615603D01*
X198641389Y-90512375D01*
X198655845Y-90500511D01*
X198815844Y-90414990D01*
X198989453Y-90362326D01*
X199170000Y-90344544D01*
X199350548Y-90362326D01*
G37*
G36*
X201890548Y-90362326D02*
G01*
X202064157Y-90414990D01*
X202224156Y-90500511D01*
X202238612Y-90512375D01*
X202364397Y-90615603D01*
X202443729Y-90712271D01*
X202479489Y-90755844D01*
X202565010Y-90915843D01*
X202617674Y-91089452D01*
X202631000Y-91224757D01*
X202631000Y-91775244D01*
X202617674Y-91910548D01*
X202565010Y-92084157D01*
X202479489Y-92244156D01*
X202443729Y-92287729D01*
X202364397Y-92384397D01*
X202224155Y-92499489D01*
X202064156Y-92585010D01*
X201890547Y-92637674D01*
X201710000Y-92655456D01*
X201529452Y-92637674D01*
X201355843Y-92585010D01*
X201195844Y-92499489D01*
X201152271Y-92463729D01*
X201055603Y-92384397D01*
X200940511Y-92244155D01*
X200854991Y-92084158D01*
X200854990Y-92084156D01*
X200802326Y-91910547D01*
X200789000Y-91775243D01*
X200789000Y-91224756D01*
X200802326Y-91089452D01*
X200854990Y-90915843D01*
X200940512Y-90755844D01*
X200950832Y-90743269D01*
X201055604Y-90615603D01*
X201181389Y-90512375D01*
X201195845Y-90500511D01*
X201355844Y-90414990D01*
X201529453Y-90362326D01*
X201710000Y-90344544D01*
X201890548Y-90362326D01*
G37*
G36*
X205029561Y-90352966D02*
G01*
X205062383Y-90362923D01*
X205092632Y-90379092D01*
X205119148Y-90400852D01*
X205140908Y-90427368D01*
X205157077Y-90457617D01*
X205167034Y-90490439D01*
X205171000Y-90530713D01*
X205171000Y-92469287D01*
X205167034Y-92509561D01*
X205157077Y-92542383D01*
X205140908Y-92572632D01*
X205119148Y-92599148D01*
X205092632Y-92620908D01*
X205062383Y-92637077D01*
X205029561Y-92647034D01*
X204989287Y-92651000D01*
X203510713Y-92651000D01*
X203470439Y-92647034D01*
X203437617Y-92637077D01*
X203407368Y-92620908D01*
X203380852Y-92599148D01*
X203359092Y-92572632D01*
X203342923Y-92542383D01*
X203332966Y-92509561D01*
X203329000Y-92469287D01*
X203329000Y-90530713D01*
X203332966Y-90490439D01*
X203342923Y-90457617D01*
X203359092Y-90427368D01*
X203380852Y-90400852D01*
X203407368Y-90379092D01*
X203437617Y-90362923D01*
X203470439Y-90352966D01*
X203510713Y-90349000D01*
X204989287Y-90349000D01*
X205029561Y-90352966D01*
G37*
G36*
X188029561Y-90352966D02*
G01*
X188062383Y-90362923D01*
X188092632Y-90379092D01*
X188119148Y-90400852D01*
X188140908Y-90427368D01*
X188157077Y-90457617D01*
X188167034Y-90490439D01*
X188171000Y-90530713D01*
X188171000Y-92469287D01*
X188167034Y-92509561D01*
X188157077Y-92542383D01*
X188140908Y-92572632D01*
X188119148Y-92599148D01*
X188092632Y-92620908D01*
X188062383Y-92637077D01*
X188029561Y-92647034D01*
X187989287Y-92651000D01*
X186510713Y-92651000D01*
X186470439Y-92647034D01*
X186437617Y-92637077D01*
X186407368Y-92620908D01*
X186380852Y-92599148D01*
X186359092Y-92572632D01*
X186342923Y-92542383D01*
X186332966Y-92509561D01*
X186329000Y-92469287D01*
X186329000Y-90530713D01*
X186332966Y-90490439D01*
X186342923Y-90457617D01*
X186359092Y-90427368D01*
X186380852Y-90400852D01*
X186407368Y-90379092D01*
X186437617Y-90362923D01*
X186470439Y-90352966D01*
X186510713Y-90349000D01*
X187989287Y-90349000D01*
X188029561Y-90352966D01*
G37*
G36*
X146894072Y-86950918D02*
G01*
X147139939Y-87052759D01*
X147361212Y-87200610D01*
X147549390Y-87388788D01*
X147697241Y-87610061D01*
X147799082Y-87855928D01*
X147851000Y-88116938D01*
X147851000Y-88383062D01*
X147799082Y-88644072D01*
X147697241Y-88889939D01*
X147549390Y-89111212D01*
X147361212Y-89299390D01*
X147139939Y-89447241D01*
X147139938Y-89447242D01*
X147139937Y-89447242D01*
X146894072Y-89549082D01*
X146633063Y-89601000D01*
X146366937Y-89601000D01*
X146105928Y-89549082D01*
X145860063Y-89447242D01*
X145860062Y-89447242D01*
X145860061Y-89447241D01*
X145638788Y-89299390D01*
X145450610Y-89111212D01*
X145302759Y-88889939D01*
X145200918Y-88644072D01*
X145149000Y-88383062D01*
X145149000Y-88116938D01*
X145200918Y-87855928D01*
X145302759Y-87610061D01*
X145450610Y-87388788D01*
X145638788Y-87200610D01*
X145860061Y-87052759D01*
X146105928Y-86950918D01*
X146366937Y-86899000D01*
X146633063Y-86899000D01*
X146894072Y-86950918D01*
G37*
G36*
X151894072Y-86950918D02*
G01*
X152139939Y-87052759D01*
X152361212Y-87200610D01*
X152549390Y-87388788D01*
X152697241Y-87610061D01*
X152799082Y-87855928D01*
X152851000Y-88116938D01*
X152851000Y-88383062D01*
X152799082Y-88644072D01*
X152697241Y-88889939D01*
X152549390Y-89111212D01*
X152361212Y-89299390D01*
X152139939Y-89447241D01*
X152139938Y-89447242D01*
X152139937Y-89447242D01*
X151894072Y-89549082D01*
X151633063Y-89601000D01*
X151366937Y-89601000D01*
X151105928Y-89549082D01*
X150860063Y-89447242D01*
X150860062Y-89447242D01*
X150860061Y-89447241D01*
X150638788Y-89299390D01*
X150450610Y-89111212D01*
X150302759Y-88889939D01*
X150200918Y-88644072D01*
X150149000Y-88383062D01*
X150149000Y-88116938D01*
X150200918Y-87855928D01*
X150302759Y-87610061D01*
X150450610Y-87388788D01*
X150638788Y-87200610D01*
X150860061Y-87052759D01*
X151105928Y-86950918D01*
X151366937Y-86899000D01*
X151633063Y-86899000D01*
X151894072Y-86950918D01*
G37*
G36*
X203342916Y-84457334D02*
G01*
X203451492Y-84490271D01*
X203451495Y-84490272D01*
X203487601Y-84509571D01*
X203551557Y-84543756D01*
X203639264Y-84615736D01*
X203702383Y-84692646D01*
X203719702Y-84709965D01*
X203740077Y-84723579D01*
X203762716Y-84732957D01*
X203786749Y-84737737D01*
X203811253Y-84737737D01*
X203835286Y-84732957D01*
X203857925Y-84723579D01*
X203878299Y-84709966D01*
X203895626Y-84692639D01*
X203909240Y-84672264D01*
X203918618Y-84649625D01*
X203923398Y-84625592D01*
X203924000Y-84613340D01*
X203924000Y-84449000D01*
X205076000Y-84449000D01*
X205076000Y-86051000D01*
X203924000Y-86051000D01*
X203924000Y-85886660D01*
X203921598Y-85862274D01*
X203914485Y-85838825D01*
X203902934Y-85817214D01*
X203887389Y-85798272D01*
X203868447Y-85782727D01*
X203846836Y-85771176D01*
X203823387Y-85764063D01*
X203799001Y-85761661D01*
X203774615Y-85764063D01*
X203751166Y-85771176D01*
X203729555Y-85782727D01*
X203702381Y-85807356D01*
X203639264Y-85884264D01*
X203551556Y-85956244D01*
X203487600Y-85990429D01*
X203451494Y-86009728D01*
X203451491Y-86009729D01*
X203342915Y-86042666D01*
X203230000Y-86053787D01*
X203117084Y-86042666D01*
X203008508Y-86009729D01*
X203008505Y-86009728D01*
X202972399Y-85990429D01*
X202908443Y-85956244D01*
X202820736Y-85884264D01*
X202748756Y-85796556D01*
X202705239Y-85715140D01*
X202691625Y-85694766D01*
X202674298Y-85677439D01*
X202653924Y-85663825D01*
X202631285Y-85654448D01*
X202607251Y-85649668D01*
X202582747Y-85649668D01*
X202558714Y-85654449D01*
X202536075Y-85663826D01*
X202515701Y-85677440D01*
X202498374Y-85694767D01*
X202484762Y-85715140D01*
X202441244Y-85796557D01*
X202369264Y-85884264D01*
X202281556Y-85956244D01*
X202217600Y-85990429D01*
X202181494Y-86009728D01*
X202181491Y-86009729D01*
X202072915Y-86042666D01*
X201960000Y-86053787D01*
X201847084Y-86042666D01*
X201738508Y-86009729D01*
X201738505Y-86009728D01*
X201702399Y-85990429D01*
X201638443Y-85956244D01*
X201550736Y-85884264D01*
X201478756Y-85796556D01*
X201435239Y-85715140D01*
X201425272Y-85696494D01*
X201419492Y-85677440D01*
X201392334Y-85587915D01*
X201384000Y-85503297D01*
X201384000Y-84996702D01*
X201392334Y-84912084D01*
X201425271Y-84803508D01*
X201425272Y-84803505D01*
X201478756Y-84703445D01*
X201478757Y-84703443D01*
X201550737Y-84615736D01*
X201638444Y-84543756D01*
X201702400Y-84509571D01*
X201738506Y-84490272D01*
X201738509Y-84490271D01*
X201847085Y-84457334D01*
X201960000Y-84446213D01*
X202072916Y-84457334D01*
X202181492Y-84490271D01*
X202181495Y-84490272D01*
X202217601Y-84509571D01*
X202281557Y-84543756D01*
X202369264Y-84615736D01*
X202441244Y-84703443D01*
X202457019Y-84732957D01*
X202484761Y-84784859D01*
X202498375Y-84805234D01*
X202515702Y-84822561D01*
X202536076Y-84836174D01*
X202558715Y-84845552D01*
X202582748Y-84850332D01*
X202607252Y-84850332D01*
X202631285Y-84845552D01*
X202653924Y-84836174D01*
X202674299Y-84822560D01*
X202691626Y-84805233D01*
X202705239Y-84784859D01*
X202748756Y-84703445D01*
X202748757Y-84703443D01*
X202820737Y-84615736D01*
X202908444Y-84543756D01*
X202972400Y-84509571D01*
X203008506Y-84490272D01*
X203008509Y-84490271D01*
X203117085Y-84457334D01*
X203230000Y-84446213D01*
X203342916Y-84457334D01*
G37*
G36*
X157748228Y-83931703D02*
G01*
X157903100Y-83995853D01*
X158042481Y-84088985D01*
X158161015Y-84207519D01*
X158254147Y-84346900D01*
X158318297Y-84501772D01*
X158351000Y-84666184D01*
X158351000Y-84833816D01*
X158318297Y-84998228D01*
X158254147Y-85153100D01*
X158161015Y-85292481D01*
X158042481Y-85411015D01*
X157903100Y-85504147D01*
X157748228Y-85568297D01*
X157583816Y-85601000D01*
X157416184Y-85601000D01*
X157251772Y-85568297D01*
X157096900Y-85504147D01*
X156957519Y-85411015D01*
X156838985Y-85292481D01*
X156745853Y-85153100D01*
X156681703Y-84998228D01*
X156649000Y-84833816D01*
X156649000Y-84666184D01*
X156681703Y-84501772D01*
X156745853Y-84346900D01*
X156838985Y-84207519D01*
X156957519Y-84088985D01*
X157096900Y-83995853D01*
X157251772Y-83931703D01*
X157416184Y-83899000D01*
X157583816Y-83899000D01*
X157748228Y-83931703D01*
G37*
G36*
X192607817Y-80407696D02*
G01*
X192721104Y-80442062D01*
X192825511Y-80497869D01*
X192825513Y-80497870D01*
X192825512Y-80497870D01*
X192917027Y-80572973D01*
X192960254Y-80625646D01*
X192992131Y-80664488D01*
X193047938Y-80768895D01*
X193082304Y-80882182D01*
X193091000Y-80970481D01*
X193091000Y-82429519D01*
X193082304Y-82517818D01*
X193047938Y-82631105D01*
X192992131Y-82735512D01*
X192917027Y-82827027D01*
X192825512Y-82902131D01*
X192721105Y-82957938D01*
X192607818Y-82992304D01*
X192490000Y-83003907D01*
X192372183Y-82992304D01*
X192258896Y-82957938D01*
X192154489Y-82902131D01*
X192062974Y-82827027D01*
X191987870Y-82735512D01*
X191932063Y-82631105D01*
X191897697Y-82517818D01*
X191889001Y-82429519D01*
X191889000Y-80970482D01*
X191897696Y-80882183D01*
X191932062Y-80768896D01*
X191987869Y-80664489D01*
X192001338Y-80648077D01*
X192062973Y-80572973D01*
X192154487Y-80497870D01*
X192154486Y-80497870D01*
X192154488Y-80497869D01*
X192258895Y-80442062D01*
X192372182Y-80407696D01*
X192490000Y-80396093D01*
X192607817Y-80407696D01*
G37*
G36*
X184607817Y-80407696D02*
G01*
X184721104Y-80442062D01*
X184825511Y-80497869D01*
X184825513Y-80497870D01*
X184825512Y-80497870D01*
X184917027Y-80572973D01*
X184960254Y-80625646D01*
X184992131Y-80664488D01*
X185047938Y-80768895D01*
X185082304Y-80882182D01*
X185091000Y-80970481D01*
X185091000Y-82429519D01*
X185082304Y-82517818D01*
X185047938Y-82631105D01*
X184992131Y-82735512D01*
X184917027Y-82827027D01*
X184825512Y-82902131D01*
X184721105Y-82957938D01*
X184607818Y-82992304D01*
X184490000Y-83003907D01*
X184372183Y-82992304D01*
X184258896Y-82957938D01*
X184154489Y-82902131D01*
X184062974Y-82827027D01*
X183987870Y-82735512D01*
X183932063Y-82631105D01*
X183897697Y-82517818D01*
X183889001Y-82429519D01*
X183889000Y-80970482D01*
X183897696Y-80882183D01*
X183932062Y-80768896D01*
X183987869Y-80664489D01*
X184001338Y-80648077D01*
X184062973Y-80572973D01*
X184154487Y-80497870D01*
X184154486Y-80497870D01*
X184154488Y-80497869D01*
X184258895Y-80442062D01*
X184372182Y-80407696D01*
X184490000Y-80396093D01*
X184607817Y-80407696D01*
G37*
G36*
X182607817Y-80407696D02*
G01*
X182721104Y-80442062D01*
X182825511Y-80497869D01*
X182825513Y-80497870D01*
X182825512Y-80497870D01*
X182917027Y-80572973D01*
X182960254Y-80625646D01*
X182992131Y-80664488D01*
X183047938Y-80768895D01*
X183082304Y-80882182D01*
X183091000Y-80970481D01*
X183091000Y-82429519D01*
X183082304Y-82517818D01*
X183047938Y-82631105D01*
X182992131Y-82735512D01*
X182917027Y-82827027D01*
X182825512Y-82902131D01*
X182721105Y-82957938D01*
X182607818Y-82992304D01*
X182490000Y-83003907D01*
X182372183Y-82992304D01*
X182258896Y-82957938D01*
X182154489Y-82902131D01*
X182062974Y-82827027D01*
X181987870Y-82735512D01*
X181932063Y-82631105D01*
X181897697Y-82517818D01*
X181889001Y-82429519D01*
X181889000Y-80970482D01*
X181897696Y-80882183D01*
X181932062Y-80768896D01*
X181987869Y-80664489D01*
X182001338Y-80648077D01*
X182062973Y-80572973D01*
X182154487Y-80497870D01*
X182154486Y-80497870D01*
X182154488Y-80497869D01*
X182258895Y-80442062D01*
X182372182Y-80407696D01*
X182490000Y-80396093D01*
X182607817Y-80407696D01*
G37*
G36*
X186607817Y-80407696D02*
G01*
X186721104Y-80442062D01*
X186825511Y-80497869D01*
X186825513Y-80497870D01*
X186825512Y-80497870D01*
X186917027Y-80572973D01*
X186960254Y-80625646D01*
X186992131Y-80664488D01*
X187047938Y-80768895D01*
X187082304Y-80882182D01*
X187091000Y-80970481D01*
X187091000Y-82429519D01*
X187082304Y-82517818D01*
X187047938Y-82631105D01*
X186992131Y-82735512D01*
X186917027Y-82827027D01*
X186825512Y-82902131D01*
X186721105Y-82957938D01*
X186607818Y-82992304D01*
X186490000Y-83003907D01*
X186372183Y-82992304D01*
X186258896Y-82957938D01*
X186154489Y-82902131D01*
X186062974Y-82827027D01*
X185987870Y-82735512D01*
X185932063Y-82631105D01*
X185897697Y-82517818D01*
X185889001Y-82429519D01*
X185889000Y-80970482D01*
X185897696Y-80882183D01*
X185932062Y-80768896D01*
X185987869Y-80664489D01*
X186001338Y-80648077D01*
X186062973Y-80572973D01*
X186154487Y-80497870D01*
X186154486Y-80497870D01*
X186154488Y-80497869D01*
X186258895Y-80442062D01*
X186372182Y-80407696D01*
X186490000Y-80396093D01*
X186607817Y-80407696D01*
G37*
G36*
X190607817Y-80407696D02*
G01*
X190721104Y-80442062D01*
X190825511Y-80497869D01*
X190825513Y-80497870D01*
X190825512Y-80497870D01*
X190917027Y-80572973D01*
X190960254Y-80625646D01*
X190992131Y-80664488D01*
X191047938Y-80768895D01*
X191082304Y-80882182D01*
X191091000Y-80970481D01*
X191091000Y-82429519D01*
X191082304Y-82517818D01*
X191047938Y-82631105D01*
X190992131Y-82735512D01*
X190917027Y-82827027D01*
X190825512Y-82902131D01*
X190721105Y-82957938D01*
X190607818Y-82992304D01*
X190490000Y-83003907D01*
X190372183Y-82992304D01*
X190258896Y-82957938D01*
X190154489Y-82902131D01*
X190062974Y-82827027D01*
X189987870Y-82735512D01*
X189932063Y-82631105D01*
X189897697Y-82517818D01*
X189889001Y-82429519D01*
X189889000Y-80970482D01*
X189897696Y-80882183D01*
X189932062Y-80768896D01*
X189987869Y-80664489D01*
X190001338Y-80648077D01*
X190062973Y-80572973D01*
X190154487Y-80497870D01*
X190154486Y-80497870D01*
X190154488Y-80497869D01*
X190258895Y-80442062D01*
X190372182Y-80407696D01*
X190490000Y-80396093D01*
X190607817Y-80407696D01*
G37*
G36*
X188607817Y-80407696D02*
G01*
X188721104Y-80442062D01*
X188825511Y-80497869D01*
X188825513Y-80497870D01*
X188825512Y-80497870D01*
X188917027Y-80572973D01*
X188960254Y-80625646D01*
X188992131Y-80664488D01*
X189047938Y-80768895D01*
X189082304Y-80882182D01*
X189091000Y-80970481D01*
X189091000Y-82429519D01*
X189082304Y-82517818D01*
X189047938Y-82631105D01*
X188992131Y-82735512D01*
X188917027Y-82827027D01*
X188825512Y-82902131D01*
X188721105Y-82957938D01*
X188607818Y-82992304D01*
X188490000Y-83003907D01*
X188372183Y-82992304D01*
X188258896Y-82957938D01*
X188154489Y-82902131D01*
X188062974Y-82827027D01*
X187987870Y-82735512D01*
X187932063Y-82631105D01*
X187897697Y-82517818D01*
X187889001Y-82429519D01*
X187889000Y-80970482D01*
X187897696Y-80882183D01*
X187932062Y-80768896D01*
X187987869Y-80664489D01*
X188001338Y-80648077D01*
X188062973Y-80572973D01*
X188154487Y-80497870D01*
X188154486Y-80497870D01*
X188154488Y-80497869D01*
X188258895Y-80442062D01*
X188372182Y-80407696D01*
X188490000Y-80396093D01*
X188607817Y-80407696D01*
G37*
G36*
X157748228Y-80431703D02*
G01*
X157903100Y-80495853D01*
X158042481Y-80588985D01*
X158161015Y-80707519D01*
X158254147Y-80846900D01*
X158318297Y-81001772D01*
X158351000Y-81166184D01*
X158351000Y-81333816D01*
X158318297Y-81498228D01*
X158254147Y-81653100D01*
X158161015Y-81792481D01*
X158042481Y-81911015D01*
X157903100Y-82004147D01*
X157748228Y-82068297D01*
X157583816Y-82101000D01*
X157416184Y-82101000D01*
X157251772Y-82068297D01*
X157096900Y-82004147D01*
X156957519Y-81911015D01*
X156838985Y-81792481D01*
X156745853Y-81653100D01*
X156681703Y-81498228D01*
X156649000Y-81333816D01*
X156649000Y-81166184D01*
X156681703Y-81001772D01*
X156745853Y-80846900D01*
X156838985Y-80707519D01*
X156957519Y-80588985D01*
X157096900Y-80495853D01*
X157251772Y-80431703D01*
X157416184Y-80399000D01*
X157583816Y-80399000D01*
X157748228Y-80431703D01*
G37*
G36*
X204313512Y-80303927D02*
G01*
X204462812Y-80333624D01*
X204626784Y-80401544D01*
X204774354Y-80500147D01*
X204899853Y-80625646D01*
X204998456Y-80773216D01*
X205066376Y-80937188D01*
X205101000Y-81111259D01*
X205101000Y-81288741D01*
X205066376Y-81462812D01*
X204998456Y-81626784D01*
X204899853Y-81774354D01*
X204774354Y-81899853D01*
X204626784Y-81998456D01*
X204462812Y-82066376D01*
X204313512Y-82096073D01*
X204288742Y-82101000D01*
X204111258Y-82101000D01*
X204086488Y-82096073D01*
X203937188Y-82066376D01*
X203773216Y-81998456D01*
X203625646Y-81899853D01*
X203500147Y-81774354D01*
X203401544Y-81626784D01*
X203333624Y-81462812D01*
X203299000Y-81288741D01*
X203299000Y-81111259D01*
X203333624Y-80937188D01*
X203401544Y-80773216D01*
X203500147Y-80625646D01*
X203625646Y-80500147D01*
X203773216Y-80401544D01*
X203937188Y-80333624D01*
X204086488Y-80303927D01*
X204111258Y-80299000D01*
X204288742Y-80299000D01*
X204313512Y-80303927D01*
G37*
G36*
X196017818Y-79407696D02*
G01*
X196131105Y-79442062D01*
X196235512Y-79497869D01*
X196327027Y-79572973D01*
X196402131Y-79664488D01*
X196457938Y-79768895D01*
X196492304Y-79882182D01*
X196503907Y-80000000D01*
X196492304Y-80117818D01*
X196457938Y-80231105D01*
X196402131Y-80335512D01*
X196327027Y-80427027D01*
X196235512Y-80502131D01*
X196131105Y-80557938D01*
X196017818Y-80592304D01*
X195929519Y-80601000D01*
X194470481Y-80601000D01*
X194382182Y-80592304D01*
X194268895Y-80557938D01*
X194164488Y-80502131D01*
X194072973Y-80427027D01*
X193997869Y-80335512D01*
X193942062Y-80231105D01*
X193907696Y-80117818D01*
X193896093Y-80000000D01*
X193907696Y-79882182D01*
X193942062Y-79768895D01*
X193997869Y-79664488D01*
X194072973Y-79572973D01*
X194164488Y-79497869D01*
X194268895Y-79442062D01*
X194382182Y-79407696D01*
X194470481Y-79399000D01*
X195929519Y-79399000D01*
X196017818Y-79407696D01*
G37*
G36*
X180617818Y-79407696D02*
G01*
X180731105Y-79442062D01*
X180835512Y-79497869D01*
X180927027Y-79572973D01*
X181002131Y-79664488D01*
X181057938Y-79768895D01*
X181092304Y-79882182D01*
X181103907Y-80000000D01*
X181092304Y-80117818D01*
X181057938Y-80231105D01*
X181002131Y-80335512D01*
X180927027Y-80427027D01*
X180835512Y-80502131D01*
X180731105Y-80557938D01*
X180617818Y-80592304D01*
X180529519Y-80601000D01*
X179070481Y-80601000D01*
X178982182Y-80592304D01*
X178868895Y-80557938D01*
X178764488Y-80502131D01*
X178672973Y-80427027D01*
X178597869Y-80335512D01*
X178542062Y-80231105D01*
X178507696Y-80117818D01*
X178496093Y-80000000D01*
X178507696Y-79882182D01*
X178542062Y-79768895D01*
X178597869Y-79664488D01*
X178672973Y-79572973D01*
X178764488Y-79497869D01*
X178868895Y-79442062D01*
X178982182Y-79407696D01*
X179070481Y-79399000D01*
X180529519Y-79399000D01*
X180617818Y-79407696D01*
G37*
G36*
X204313512Y-77763927D02*
G01*
X204462812Y-77793624D01*
X204626784Y-77861544D01*
X204774354Y-77960147D01*
X204899853Y-78085646D01*
X204998456Y-78233216D01*
X205066376Y-78397188D01*
X205101000Y-78571259D01*
X205101000Y-78748741D01*
X205066376Y-78922812D01*
X204998456Y-79086784D01*
X204899853Y-79234354D01*
X204774354Y-79359853D01*
X204626784Y-79458456D01*
X204462812Y-79526376D01*
X204313512Y-79556073D01*
X204288742Y-79561000D01*
X204111258Y-79561000D01*
X204086488Y-79556073D01*
X203937188Y-79526376D01*
X203773216Y-79458456D01*
X203625646Y-79359853D01*
X203500147Y-79234354D01*
X203401544Y-79086784D01*
X203333624Y-78922812D01*
X203299000Y-78748741D01*
X203299000Y-78571259D01*
X203333624Y-78397188D01*
X203401544Y-78233216D01*
X203500147Y-78085646D01*
X203625646Y-77960147D01*
X203773216Y-77861544D01*
X203937188Y-77793624D01*
X204086488Y-77763927D01*
X204111258Y-77759000D01*
X204288742Y-77759000D01*
X204313512Y-77763927D01*
G37*
G36*
X150734969Y-77308962D02*
G01*
X150864751Y-77348331D01*
X150914144Y-77374733D01*
X150984359Y-77412263D01*
X151089199Y-77498302D01*
X151175237Y-77603140D01*
X151208028Y-77664487D01*
X151239169Y-77722748D01*
X151278538Y-77852530D01*
X151288500Y-77953679D01*
X151288500Y-78546321D01*
X151278538Y-78647470D01*
X151239169Y-78777252D01*
X151239166Y-78777257D01*
X151175237Y-78896860D01*
X151089199Y-79001699D01*
X150984360Y-79087737D01*
X150914145Y-79125267D01*
X150864752Y-79151669D01*
X150734970Y-79191038D01*
X150600000Y-79204331D01*
X150465031Y-79191038D01*
X150335249Y-79151669D01*
X150285856Y-79125267D01*
X150215641Y-79087737D01*
X150110802Y-79001699D01*
X150024765Y-78896862D01*
X150024764Y-78896861D01*
X149960831Y-78777252D01*
X149921462Y-78647470D01*
X149911500Y-78546321D01*
X149911500Y-77953680D01*
X149921462Y-77852531D01*
X149960831Y-77722749D01*
X150024764Y-77603140D01*
X150024765Y-77603139D01*
X150110802Y-77498301D01*
X150215640Y-77412263D01*
X150285855Y-77374733D01*
X150335248Y-77348331D01*
X150465030Y-77308962D01*
X150600000Y-77295669D01*
X150734969Y-77308962D01*
G37*
G36*
X152434969Y-77308962D02*
G01*
X152564751Y-77348331D01*
X152614144Y-77374733D01*
X152684359Y-77412263D01*
X152789199Y-77498302D01*
X152875237Y-77603140D01*
X152908028Y-77664487D01*
X152939169Y-77722748D01*
X152978538Y-77852530D01*
X152988500Y-77953679D01*
X152988500Y-78546321D01*
X152978538Y-78647470D01*
X152939169Y-78777252D01*
X152939166Y-78777257D01*
X152875237Y-78896860D01*
X152789199Y-79001699D01*
X152684360Y-79087737D01*
X152614145Y-79125267D01*
X152564752Y-79151669D01*
X152434970Y-79191038D01*
X152300000Y-79204331D01*
X152165031Y-79191038D01*
X152035249Y-79151669D01*
X151985856Y-79125267D01*
X151915641Y-79087737D01*
X151810802Y-79001699D01*
X151724765Y-78896862D01*
X151724764Y-78896861D01*
X151660831Y-78777252D01*
X151621462Y-78647470D01*
X151611500Y-78546321D01*
X151611500Y-77953680D01*
X151621462Y-77852531D01*
X151660831Y-77722749D01*
X151724764Y-77603140D01*
X151724765Y-77603139D01*
X151810802Y-77498301D01*
X151915640Y-77412263D01*
X151985855Y-77374733D01*
X152035248Y-77348331D01*
X152165030Y-77308962D01*
X152300000Y-77295669D01*
X152434969Y-77308962D01*
G37*
G36*
X149034969Y-77308962D02*
G01*
X149164751Y-77348331D01*
X149214144Y-77374733D01*
X149284359Y-77412263D01*
X149389199Y-77498302D01*
X149475237Y-77603140D01*
X149508028Y-77664487D01*
X149539169Y-77722748D01*
X149578538Y-77852530D01*
X149588500Y-77953679D01*
X149588500Y-78546321D01*
X149578538Y-78647470D01*
X149539169Y-78777252D01*
X149539166Y-78777257D01*
X149475237Y-78896860D01*
X149389199Y-79001699D01*
X149284360Y-79087737D01*
X149214145Y-79125267D01*
X149164752Y-79151669D01*
X149034970Y-79191038D01*
X148900000Y-79204331D01*
X148765031Y-79191038D01*
X148635249Y-79151669D01*
X148585856Y-79125267D01*
X148515641Y-79087737D01*
X148410802Y-79001699D01*
X148324765Y-78896862D01*
X148324764Y-78896861D01*
X148260831Y-78777252D01*
X148221462Y-78647470D01*
X148211500Y-78546321D01*
X148211500Y-77953680D01*
X148221462Y-77852531D01*
X148260831Y-77722749D01*
X148324764Y-77603140D01*
X148324765Y-77603139D01*
X148410802Y-77498301D01*
X148515640Y-77412263D01*
X148585855Y-77374733D01*
X148635248Y-77348331D01*
X148765030Y-77308962D01*
X148900000Y-77295669D01*
X149034969Y-77308962D01*
G37*
G36*
X147334969Y-77308962D02*
G01*
X147464751Y-77348331D01*
X147514144Y-77374733D01*
X147584359Y-77412263D01*
X147689199Y-77498302D01*
X147775237Y-77603140D01*
X147808028Y-77664487D01*
X147839169Y-77722748D01*
X147878538Y-77852530D01*
X147888500Y-77953679D01*
X147888500Y-78546321D01*
X147878538Y-78647470D01*
X147839169Y-78777252D01*
X147839166Y-78777257D01*
X147775237Y-78896860D01*
X147689199Y-79001699D01*
X147584360Y-79087737D01*
X147514145Y-79125267D01*
X147464752Y-79151669D01*
X147334970Y-79191038D01*
X147200000Y-79204331D01*
X147065031Y-79191038D01*
X146935249Y-79151669D01*
X146885856Y-79125267D01*
X146815641Y-79087737D01*
X146710802Y-79001699D01*
X146624765Y-78896862D01*
X146624764Y-78896861D01*
X146560831Y-78777252D01*
X146521462Y-78647470D01*
X146511500Y-78546321D01*
X146511500Y-77953680D01*
X146521462Y-77852531D01*
X146560831Y-77722749D01*
X146624764Y-77603140D01*
X146624765Y-77603139D01*
X146710802Y-77498301D01*
X146815640Y-77412263D01*
X146885855Y-77374733D01*
X146935248Y-77348331D01*
X147065030Y-77308962D01*
X147200000Y-77295669D01*
X147334969Y-77308962D01*
G37*
G36*
X146188500Y-79201000D02*
G01*
X144811500Y-79201000D01*
X144811500Y-77299000D01*
X146188500Y-77299000D01*
X146188500Y-79201000D01*
G37*
G36*
X180617818Y-77407696D02*
G01*
X180731105Y-77442062D01*
X180835512Y-77497869D01*
X180927027Y-77572973D01*
X181002131Y-77664488D01*
X181057938Y-77768895D01*
X181092304Y-77882182D01*
X181103907Y-78000000D01*
X181092304Y-78117818D01*
X181057938Y-78231105D01*
X181002131Y-78335512D01*
X180927027Y-78427027D01*
X180835512Y-78502131D01*
X180731105Y-78557938D01*
X180617818Y-78592304D01*
X180529519Y-78601000D01*
X179070481Y-78601000D01*
X178982182Y-78592304D01*
X178868895Y-78557938D01*
X178764488Y-78502131D01*
X178672973Y-78427027D01*
X178597869Y-78335512D01*
X178542062Y-78231105D01*
X178507696Y-78117818D01*
X178496093Y-78000000D01*
X178507696Y-77882182D01*
X178542062Y-77768895D01*
X178597869Y-77664488D01*
X178672973Y-77572973D01*
X178764488Y-77497869D01*
X178868895Y-77442062D01*
X178982182Y-77407696D01*
X179070481Y-77399000D01*
X180529519Y-77399000D01*
X180617818Y-77407696D01*
G37*
G36*
X195917818Y-77407696D02*
G01*
X196031105Y-77442062D01*
X196135512Y-77497869D01*
X196227027Y-77572973D01*
X196302131Y-77664488D01*
X196357938Y-77768895D01*
X196392304Y-77882182D01*
X196403907Y-78000000D01*
X196392304Y-78117818D01*
X196357938Y-78231105D01*
X196302131Y-78335512D01*
X196227027Y-78427027D01*
X196135512Y-78502131D01*
X196031105Y-78557938D01*
X195917818Y-78592304D01*
X195829519Y-78601000D01*
X194370481Y-78601000D01*
X194282182Y-78592304D01*
X194168895Y-78557938D01*
X194064488Y-78502131D01*
X193972973Y-78427027D01*
X193897869Y-78335512D01*
X193842062Y-78231105D01*
X193807696Y-78117818D01*
X193796093Y-78000000D01*
X193807696Y-77882182D01*
X193842062Y-77768895D01*
X193897869Y-77664488D01*
X193972973Y-77572973D01*
X194064488Y-77497869D01*
X194168895Y-77442062D01*
X194282182Y-77407696D01*
X194370481Y-77399000D01*
X195829519Y-77399000D01*
X195917818Y-77407696D01*
G37*
G36*
X171375256Y-74141298D02*
G01*
X171481579Y-74162447D01*
X171647334Y-74231105D01*
X171765020Y-74279852D01*
X171782042Y-74286903D01*
X172052451Y-74467585D01*
X172282415Y-74697549D01*
X172463097Y-74967958D01*
X172581424Y-75253624D01*
X172587553Y-75268422D01*
X172642697Y-75545646D01*
X172651000Y-75587391D01*
X172651000Y-75912609D01*
X172587553Y-76231579D01*
X172463097Y-76532042D01*
X172282415Y-76802451D01*
X172052451Y-77032415D01*
X171782042Y-77213097D01*
X171481579Y-77337553D01*
X171427394Y-77348331D01*
X171162611Y-77401000D01*
X170837389Y-77401000D01*
X170572606Y-77348331D01*
X170518421Y-77337553D01*
X170217958Y-77213097D01*
X169947549Y-77032415D01*
X169717585Y-76802451D01*
X169536903Y-76532042D01*
X169412447Y-76231579D01*
X169349000Y-75912609D01*
X169349000Y-75587391D01*
X169357304Y-75545646D01*
X169412447Y-75268422D01*
X169418577Y-75253624D01*
X169536903Y-74967958D01*
X169717585Y-74697549D01*
X169947549Y-74467585D01*
X170217958Y-74286903D01*
X170234981Y-74279852D01*
X170352666Y-74231105D01*
X170518421Y-74162447D01*
X170624744Y-74141298D01*
X170837389Y-74099000D01*
X171162611Y-74099000D01*
X171375256Y-74141298D01*
G37*
G36*
X204313512Y-75223927D02*
G01*
X204462812Y-75253624D01*
X204626784Y-75321544D01*
X204774354Y-75420147D01*
X204899853Y-75545646D01*
X204998456Y-75693216D01*
X205066376Y-75857188D01*
X205101000Y-76031259D01*
X205101000Y-76208741D01*
X205066376Y-76382812D01*
X204998456Y-76546784D01*
X204899853Y-76694354D01*
X204774354Y-76819853D01*
X204626784Y-76918456D01*
X204462812Y-76986376D01*
X204313512Y-77016073D01*
X204288742Y-77021000D01*
X204111258Y-77021000D01*
X204086488Y-77016073D01*
X203937188Y-76986376D01*
X203773216Y-76918456D01*
X203625646Y-76819853D01*
X203500147Y-76694354D01*
X203401544Y-76546784D01*
X203333624Y-76382812D01*
X203299000Y-76208741D01*
X203299000Y-76031259D01*
X203333624Y-75857188D01*
X203401544Y-75693216D01*
X203500147Y-75545646D01*
X203625646Y-75420147D01*
X203773216Y-75321544D01*
X203937188Y-75253624D01*
X204086488Y-75223927D01*
X204111258Y-75219000D01*
X204288742Y-75219000D01*
X204313512Y-75223927D01*
G37*
G36*
X180617818Y-75407696D02*
G01*
X180731105Y-75442062D01*
X180835512Y-75497869D01*
X180927027Y-75572973D01*
X181002131Y-75664488D01*
X181057938Y-75768895D01*
X181092304Y-75882182D01*
X181103907Y-76000000D01*
X181092304Y-76117818D01*
X181057938Y-76231105D01*
X181002131Y-76335512D01*
X180927027Y-76427027D01*
X180835512Y-76502131D01*
X180731105Y-76557938D01*
X180617818Y-76592304D01*
X180529519Y-76601000D01*
X179070481Y-76601000D01*
X178982182Y-76592304D01*
X178868895Y-76557938D01*
X178764488Y-76502131D01*
X178672973Y-76427027D01*
X178597869Y-76335512D01*
X178542062Y-76231105D01*
X178507696Y-76117818D01*
X178496093Y-76000000D01*
X178507696Y-75882182D01*
X178542062Y-75768895D01*
X178597869Y-75664488D01*
X178672973Y-75572973D01*
X178764488Y-75497869D01*
X178868895Y-75442062D01*
X178982182Y-75407696D01*
X179070481Y-75399000D01*
X180529519Y-75399000D01*
X180617818Y-75407696D01*
G37*
G36*
X196017818Y-75407696D02*
G01*
X196131105Y-75442062D01*
X196235512Y-75497869D01*
X196327027Y-75572973D01*
X196402131Y-75664488D01*
X196457938Y-75768895D01*
X196492304Y-75882182D01*
X196503907Y-76000000D01*
X196492304Y-76117818D01*
X196457938Y-76231105D01*
X196402131Y-76335512D01*
X196327027Y-76427027D01*
X196235512Y-76502131D01*
X196131105Y-76557938D01*
X196017818Y-76592304D01*
X195929519Y-76601000D01*
X194470481Y-76601000D01*
X194382182Y-76592304D01*
X194268895Y-76557938D01*
X194164488Y-76502131D01*
X194072973Y-76427027D01*
X193997869Y-76335512D01*
X193942062Y-76231105D01*
X193907696Y-76117818D01*
X193896093Y-76000000D01*
X193907696Y-75882182D01*
X193942062Y-75768895D01*
X193997869Y-75664488D01*
X194072973Y-75572973D01*
X194164488Y-75497869D01*
X194268895Y-75442062D01*
X194382182Y-75407696D01*
X194470481Y-75399000D01*
X195929519Y-75399000D01*
X196017818Y-75407696D01*
G37*
G36*
X180617818Y-73407696D02*
G01*
X180731105Y-73442062D01*
X180835512Y-73497869D01*
X180927027Y-73572973D01*
X181002131Y-73664488D01*
X181057938Y-73768895D01*
X181092304Y-73882182D01*
X181103907Y-74000000D01*
X181092304Y-74117818D01*
X181057938Y-74231105D01*
X181002131Y-74335512D01*
X180927027Y-74427027D01*
X180835512Y-74502131D01*
X180731105Y-74557938D01*
X180617818Y-74592304D01*
X180529519Y-74601000D01*
X179070481Y-74601000D01*
X178982182Y-74592304D01*
X178868895Y-74557938D01*
X178764488Y-74502131D01*
X178672973Y-74427027D01*
X178597869Y-74335512D01*
X178542062Y-74231105D01*
X178507696Y-74117818D01*
X178496093Y-74000000D01*
X178507696Y-73882182D01*
X178542062Y-73768895D01*
X178597869Y-73664488D01*
X178672973Y-73572973D01*
X178764488Y-73497869D01*
X178868895Y-73442062D01*
X178982182Y-73407696D01*
X179070481Y-73399000D01*
X180529519Y-73399000D01*
X180617818Y-73407696D01*
G37*
G36*
X196017818Y-73407696D02*
G01*
X196131105Y-73442062D01*
X196235512Y-73497869D01*
X196327027Y-73572973D01*
X196402131Y-73664488D01*
X196457938Y-73768895D01*
X196492304Y-73882182D01*
X196503907Y-74000000D01*
X196492304Y-74117818D01*
X196457938Y-74231105D01*
X196402131Y-74335512D01*
X196327027Y-74427027D01*
X196235512Y-74502131D01*
X196131105Y-74557938D01*
X196017818Y-74592304D01*
X195929519Y-74601000D01*
X194470481Y-74601000D01*
X194382182Y-74592304D01*
X194268895Y-74557938D01*
X194164488Y-74502131D01*
X194072973Y-74427027D01*
X193997869Y-74335512D01*
X193942062Y-74231105D01*
X193907696Y-74117818D01*
X193896093Y-74000000D01*
X193907696Y-73882182D01*
X193942062Y-73768895D01*
X193997869Y-73664488D01*
X194072973Y-73572973D01*
X194164488Y-73497869D01*
X194268895Y-73442062D01*
X194382182Y-73407696D01*
X194470481Y-73399000D01*
X195929519Y-73399000D01*
X196017818Y-73407696D01*
G37*
G36*
X204313512Y-72683927D02*
G01*
X204462812Y-72713624D01*
X204626784Y-72781544D01*
X204774354Y-72880147D01*
X204899853Y-73005646D01*
X204998456Y-73153216D01*
X205066376Y-73317188D01*
X205101000Y-73491259D01*
X205101000Y-73668741D01*
X205066376Y-73842812D01*
X204998456Y-74006784D01*
X204899853Y-74154354D01*
X204774354Y-74279853D01*
X204626784Y-74378456D01*
X204462812Y-74446376D01*
X204313512Y-74476073D01*
X204288742Y-74481000D01*
X204111258Y-74481000D01*
X204086488Y-74476073D01*
X203937188Y-74446376D01*
X203773216Y-74378456D01*
X203625646Y-74279853D01*
X203500147Y-74154354D01*
X203401544Y-74006784D01*
X203333624Y-73842812D01*
X203299000Y-73668741D01*
X203299000Y-73491259D01*
X203333624Y-73317188D01*
X203401544Y-73153216D01*
X203500147Y-73005646D01*
X203625646Y-72880147D01*
X203773216Y-72781544D01*
X203937188Y-72713624D01*
X204086488Y-72683927D01*
X204111258Y-72679000D01*
X204288742Y-72679000D01*
X204313512Y-72683927D01*
G37*
G36*
X180617818Y-71407696D02*
G01*
X180731105Y-71442062D01*
X180835512Y-71497869D01*
X180927027Y-71572973D01*
X181002131Y-71664488D01*
X181057938Y-71768895D01*
X181092304Y-71882182D01*
X181103907Y-72000000D01*
X181092304Y-72117818D01*
X181057938Y-72231105D01*
X181002131Y-72335512D01*
X180927027Y-72427027D01*
X180835512Y-72502131D01*
X180731105Y-72557938D01*
X180617818Y-72592304D01*
X180529519Y-72601000D01*
X179070481Y-72601000D01*
X178982182Y-72592304D01*
X178868895Y-72557938D01*
X178764488Y-72502131D01*
X178672973Y-72427027D01*
X178597869Y-72335512D01*
X178542062Y-72231105D01*
X178507696Y-72117818D01*
X178496093Y-72000000D01*
X178507696Y-71882182D01*
X178542062Y-71768895D01*
X178597869Y-71664488D01*
X178672973Y-71572973D01*
X178764488Y-71497869D01*
X178868895Y-71442062D01*
X178982182Y-71407696D01*
X179070481Y-71399000D01*
X180529519Y-71399000D01*
X180617818Y-71407696D01*
G37*
G36*
X196017818Y-71407696D02*
G01*
X196131105Y-71442062D01*
X196235512Y-71497869D01*
X196327027Y-71572973D01*
X196402131Y-71664488D01*
X196457938Y-71768895D01*
X196492304Y-71882182D01*
X196503907Y-72000000D01*
X196492304Y-72117818D01*
X196457938Y-72231105D01*
X196402131Y-72335512D01*
X196327027Y-72427027D01*
X196235512Y-72502131D01*
X196131105Y-72557938D01*
X196017818Y-72592304D01*
X195929519Y-72601000D01*
X194470481Y-72601000D01*
X194382182Y-72592304D01*
X194268895Y-72557938D01*
X194164488Y-72502131D01*
X194072973Y-72427027D01*
X193997869Y-72335512D01*
X193942062Y-72231105D01*
X193907696Y-72117818D01*
X193896093Y-72000000D01*
X193907696Y-71882182D01*
X193942062Y-71768895D01*
X193997869Y-71664488D01*
X194072973Y-71572973D01*
X194164488Y-71497869D01*
X194268895Y-71442062D01*
X194382182Y-71407696D01*
X194470481Y-71399000D01*
X195929519Y-71399000D01*
X196017818Y-71407696D01*
G37*
G36*
X160582915Y-70687334D02*
G01*
X160691491Y-70720271D01*
X160691494Y-70720272D01*
X160727600Y-70739571D01*
X160791556Y-70773756D01*
X160879264Y-70845736D01*
X160951244Y-70933443D01*
X160985429Y-70997399D01*
X161004728Y-71033505D01*
X161004729Y-71033508D01*
X161037666Y-71142084D01*
X161046000Y-71226702D01*
X161046000Y-71733297D01*
X161037666Y-71817916D01*
X161005252Y-71924767D01*
X161004728Y-71926495D01*
X160994761Y-71945141D01*
X160951244Y-72026557D01*
X160879264Y-72114264D01*
X160791557Y-72186244D01*
X160727601Y-72220429D01*
X160691495Y-72239728D01*
X160691492Y-72239729D01*
X160582916Y-72272666D01*
X160470000Y-72283787D01*
X160357085Y-72272666D01*
X160248509Y-72239729D01*
X160248506Y-72239728D01*
X160212400Y-72220429D01*
X160148444Y-72186244D01*
X160060737Y-72114264D01*
X159988757Y-72026557D01*
X159945239Y-71945141D01*
X159931625Y-71924766D01*
X159914298Y-71907439D01*
X159893924Y-71893826D01*
X159871285Y-71884448D01*
X159847252Y-71879668D01*
X159822748Y-71879668D01*
X159798715Y-71884448D01*
X159776076Y-71893826D01*
X159755701Y-71907440D01*
X159738374Y-71924767D01*
X159724761Y-71945141D01*
X159681244Y-72026557D01*
X159609264Y-72114264D01*
X159521557Y-72186244D01*
X159457601Y-72220429D01*
X159421495Y-72239728D01*
X159421492Y-72239729D01*
X159312916Y-72272666D01*
X159200000Y-72283787D01*
X159087085Y-72272666D01*
X158978509Y-72239729D01*
X158978506Y-72239728D01*
X158942400Y-72220429D01*
X158878444Y-72186244D01*
X158790737Y-72114264D01*
X158727622Y-72037359D01*
X158710297Y-72020034D01*
X158689923Y-72006420D01*
X158667284Y-71997043D01*
X158643250Y-71992263D01*
X158618746Y-71992263D01*
X158594713Y-71997044D01*
X158572074Y-72006421D01*
X158551700Y-72020035D01*
X158534373Y-72037362D01*
X158520759Y-72057736D01*
X158511382Y-72080375D01*
X158506000Y-72116660D01*
X158506000Y-72281000D01*
X157354000Y-72281000D01*
X157354000Y-70679000D01*
X158506000Y-70679000D01*
X158506000Y-70843341D01*
X158508402Y-70867727D01*
X158515515Y-70891176D01*
X158527066Y-70912787D01*
X158542611Y-70931729D01*
X158561553Y-70947274D01*
X158583164Y-70958825D01*
X158606613Y-70965938D01*
X158630999Y-70968340D01*
X158655385Y-70965938D01*
X158678834Y-70958825D01*
X158700445Y-70947274D01*
X158719387Y-70931729D01*
X158727608Y-70922657D01*
X158790736Y-70845736D01*
X158878443Y-70773756D01*
X158942399Y-70739571D01*
X158978505Y-70720272D01*
X158978508Y-70720271D01*
X159087084Y-70687334D01*
X159200000Y-70676213D01*
X159312915Y-70687334D01*
X159421491Y-70720271D01*
X159421494Y-70720272D01*
X159457600Y-70739571D01*
X159521556Y-70773756D01*
X159609264Y-70845736D01*
X159681244Y-70933443D01*
X159724761Y-71014859D01*
X159738375Y-71035234D01*
X159755702Y-71052561D01*
X159776076Y-71066174D01*
X159798715Y-71075552D01*
X159822748Y-71080332D01*
X159847252Y-71080332D01*
X159871285Y-71075552D01*
X159893924Y-71066174D01*
X159914299Y-71052560D01*
X159931626Y-71035233D01*
X159945239Y-71014860D01*
X159988756Y-70933444D01*
X160060736Y-70845736D01*
X160148443Y-70773756D01*
X160212399Y-70739571D01*
X160248505Y-70720272D01*
X160248508Y-70720271D01*
X160357084Y-70687334D01*
X160470000Y-70676213D01*
X160582915Y-70687334D01*
G37*
G36*
X204313512Y-70143927D02*
G01*
X204462812Y-70173624D01*
X204626784Y-70241544D01*
X204774354Y-70340147D01*
X204899853Y-70465646D01*
X204998456Y-70613216D01*
X205066376Y-70777188D01*
X205095307Y-70922639D01*
X205100208Y-70947274D01*
X205101000Y-70951259D01*
X205101000Y-71128741D01*
X205066376Y-71302812D01*
X204998456Y-71466784D01*
X204899853Y-71614354D01*
X204774354Y-71739853D01*
X204626784Y-71838456D01*
X204462812Y-71906376D01*
X204313512Y-71936073D01*
X204288742Y-71941000D01*
X204111258Y-71941000D01*
X204086488Y-71936073D01*
X203937188Y-71906376D01*
X203773216Y-71838456D01*
X203625646Y-71739853D01*
X203500147Y-71614354D01*
X203401544Y-71466784D01*
X203333624Y-71302812D01*
X203299000Y-71128741D01*
X203299000Y-70951259D01*
X203299793Y-70947274D01*
X203304693Y-70922639D01*
X203333624Y-70777188D01*
X203401544Y-70613216D01*
X203500147Y-70465646D01*
X203625646Y-70340147D01*
X203773216Y-70241544D01*
X203937188Y-70173624D01*
X204086488Y-70143927D01*
X204111258Y-70139000D01*
X204288742Y-70139000D01*
X204313512Y-70143927D01*
G37*
G36*
X145998228Y-70181703D02*
G01*
X146153100Y-70245853D01*
X146292481Y-70338985D01*
X146411015Y-70457519D01*
X146504147Y-70596900D01*
X146568297Y-70751772D01*
X146601000Y-70916184D01*
X146601000Y-71083816D01*
X146568297Y-71248228D01*
X146504147Y-71403100D01*
X146411015Y-71542481D01*
X146292481Y-71661015D01*
X146153100Y-71754147D01*
X145998228Y-71818297D01*
X145833816Y-71851000D01*
X145666184Y-71851000D01*
X145501772Y-71818297D01*
X145346900Y-71754147D01*
X145207519Y-71661015D01*
X145088985Y-71542481D01*
X144995853Y-71403100D01*
X144931703Y-71248228D01*
X144899000Y-71083816D01*
X144899000Y-70916184D01*
X144931703Y-70751772D01*
X144995853Y-70596900D01*
X145088985Y-70457519D01*
X145207519Y-70338985D01*
X145346900Y-70245853D01*
X145501772Y-70181703D01*
X145666184Y-70149000D01*
X145833816Y-70149000D01*
X145998228Y-70181703D01*
G37*
G36*
X148498228Y-70181703D02*
G01*
X148653100Y-70245853D01*
X148792481Y-70338985D01*
X148911015Y-70457519D01*
X149004147Y-70596900D01*
X149068297Y-70751772D01*
X149101000Y-70916184D01*
X149101000Y-71083816D01*
X149068297Y-71248228D01*
X149004147Y-71403100D01*
X148911015Y-71542481D01*
X148792481Y-71661015D01*
X148653100Y-71754147D01*
X148498228Y-71818297D01*
X148333816Y-71851000D01*
X148166184Y-71851000D01*
X148001772Y-71818297D01*
X147846900Y-71754147D01*
X147707519Y-71661015D01*
X147588985Y-71542481D01*
X147495853Y-71403100D01*
X147431703Y-71248228D01*
X147399000Y-71083816D01*
X147399000Y-70916184D01*
X147431703Y-70751772D01*
X147495853Y-70596900D01*
X147588985Y-70457519D01*
X147707519Y-70338985D01*
X147846900Y-70245853D01*
X148001772Y-70181703D01*
X148166184Y-70149000D01*
X148333816Y-70149000D01*
X148498228Y-70181703D01*
G37*
G36*
X196017818Y-69407696D02*
G01*
X196131105Y-69442062D01*
X196235512Y-69497869D01*
X196327027Y-69572973D01*
X196402131Y-69664488D01*
X196457938Y-69768895D01*
X196492304Y-69882182D01*
X196503907Y-70000000D01*
X196492304Y-70117818D01*
X196457938Y-70231105D01*
X196402131Y-70335512D01*
X196327027Y-70427027D01*
X196235512Y-70502131D01*
X196131105Y-70557938D01*
X196017818Y-70592304D01*
X195929519Y-70601000D01*
X194470481Y-70601000D01*
X194382182Y-70592304D01*
X194268895Y-70557938D01*
X194164488Y-70502131D01*
X194072973Y-70427027D01*
X193997869Y-70335512D01*
X193942062Y-70231105D01*
X193907696Y-70117818D01*
X193896093Y-70000000D01*
X193907696Y-69882182D01*
X193942062Y-69768895D01*
X193997869Y-69664488D01*
X194072973Y-69572973D01*
X194164488Y-69497869D01*
X194268895Y-69442062D01*
X194382182Y-69407696D01*
X194470481Y-69399000D01*
X195929519Y-69399000D01*
X196017818Y-69407696D01*
G37*
G36*
X180617818Y-69407696D02*
G01*
X180731105Y-69442062D01*
X180835512Y-69497869D01*
X180927027Y-69572973D01*
X181002131Y-69664488D01*
X181057938Y-69768895D01*
X181092304Y-69882182D01*
X181103907Y-70000000D01*
X181092304Y-70117818D01*
X181057938Y-70231105D01*
X181002131Y-70335512D01*
X180927027Y-70427027D01*
X180835512Y-70502131D01*
X180731105Y-70557938D01*
X180617818Y-70592304D01*
X180529519Y-70601000D01*
X179070481Y-70601000D01*
X178982182Y-70592304D01*
X178868895Y-70557938D01*
X178764488Y-70502131D01*
X178672973Y-70427027D01*
X178597869Y-70335512D01*
X178542062Y-70231105D01*
X178507696Y-70117818D01*
X178496093Y-70000000D01*
X178507696Y-69882182D01*
X178542062Y-69768895D01*
X178597869Y-69664488D01*
X178672973Y-69572973D01*
X178764488Y-69497869D01*
X178868895Y-69442062D01*
X178982182Y-69407696D01*
X179070481Y-69399000D01*
X180529519Y-69399000D01*
X180617818Y-69407696D01*
G37*
G36*
X205101000Y-69401000D02*
G01*
X203299000Y-69401000D01*
X203299000Y-67599000D01*
X205101000Y-67599000D01*
X205101000Y-69401000D01*
G37*
G36*
X196017818Y-67407696D02*
G01*
X196131105Y-67442062D01*
X196235512Y-67497869D01*
X196327027Y-67572973D01*
X196402131Y-67664488D01*
X196457938Y-67768895D01*
X196492304Y-67882182D01*
X196503907Y-68000000D01*
X196492304Y-68117818D01*
X196457938Y-68231105D01*
X196402131Y-68335512D01*
X196327027Y-68427027D01*
X196235512Y-68502131D01*
X196131105Y-68557938D01*
X196017818Y-68592304D01*
X195929519Y-68601000D01*
X194470481Y-68601000D01*
X194382182Y-68592304D01*
X194268895Y-68557938D01*
X194164488Y-68502131D01*
X194072973Y-68427027D01*
X193997869Y-68335512D01*
X193942062Y-68231105D01*
X193907696Y-68117818D01*
X193896093Y-68000000D01*
X193907696Y-67882182D01*
X193942062Y-67768895D01*
X193997869Y-67664488D01*
X194072973Y-67572973D01*
X194164488Y-67497869D01*
X194268895Y-67442062D01*
X194382182Y-67407696D01*
X194470481Y-67399000D01*
X195929519Y-67399000D01*
X196017818Y-67407696D01*
G37*
G36*
X180617818Y-67407696D02*
G01*
X180731105Y-67442062D01*
X180835512Y-67497869D01*
X180927027Y-67572973D01*
X181002131Y-67664488D01*
X181057938Y-67768895D01*
X181092304Y-67882182D01*
X181103907Y-68000000D01*
X181092304Y-68117818D01*
X181057938Y-68231105D01*
X181002131Y-68335512D01*
X180927027Y-68427027D01*
X180835512Y-68502131D01*
X180731105Y-68557938D01*
X180617818Y-68592304D01*
X180529519Y-68601000D01*
X179070481Y-68601000D01*
X178982182Y-68592304D01*
X178868895Y-68557938D01*
X178764488Y-68502131D01*
X178672973Y-68427027D01*
X178597869Y-68335512D01*
X178542062Y-68231105D01*
X178507696Y-68117818D01*
X178496093Y-68000000D01*
X178507696Y-67882182D01*
X178542062Y-67768895D01*
X178597869Y-67664488D01*
X178672973Y-67572973D01*
X178764488Y-67497869D01*
X178868895Y-67442062D01*
X178982182Y-67407696D01*
X179070481Y-67399000D01*
X180529519Y-67399000D01*
X180617818Y-67407696D01*
G37*
G36*
X155536425Y-66112760D02*
G01*
X155536428Y-66112761D01*
X155536429Y-66112761D01*
X155715693Y-66167140D01*
X155715696Y-66167142D01*
X155715697Y-66167142D01*
X155880903Y-66255446D01*
X156025712Y-66374288D01*
X156144554Y-66519097D01*
X156232858Y-66684303D01*
X156232860Y-66684307D01*
X156287239Y-66863571D01*
X156287240Y-66863575D01*
X156305601Y-67050000D01*
X156287240Y-67236425D01*
X156287239Y-67236428D01*
X156287239Y-67236429D01*
X156232860Y-67415693D01*
X156232858Y-67415696D01*
X156232858Y-67415697D01*
X156144554Y-67580903D01*
X156025712Y-67725712D01*
X155880903Y-67844554D01*
X155715697Y-67932858D01*
X155715693Y-67932860D01*
X155536429Y-67987239D01*
X155536428Y-67987239D01*
X155536425Y-67987240D01*
X155396718Y-68001000D01*
X153103282Y-68001000D01*
X152963575Y-67987240D01*
X152963572Y-67987239D01*
X152963571Y-67987239D01*
X152784307Y-67932860D01*
X152784303Y-67932858D01*
X152619097Y-67844554D01*
X152474288Y-67725712D01*
X152355446Y-67580903D01*
X152267142Y-67415697D01*
X152267142Y-67415696D01*
X152267140Y-67415693D01*
X152212761Y-67236429D01*
X152212761Y-67236428D01*
X152212760Y-67236425D01*
X152194399Y-67050000D01*
X152212760Y-66863575D01*
X152212761Y-66863571D01*
X152267140Y-66684307D01*
X152267142Y-66684303D01*
X152355446Y-66519097D01*
X152474288Y-66374288D01*
X152619097Y-66255446D01*
X152784303Y-66167142D01*
X152784304Y-66167142D01*
X152784307Y-66167140D01*
X152963571Y-66112761D01*
X152963572Y-66112761D01*
X152963575Y-66112760D01*
X153103282Y-66099000D01*
X155396718Y-66099000D01*
X155536425Y-66112760D01*
G37*
G36*
X196017818Y-65407696D02*
G01*
X196131105Y-65442062D01*
X196235512Y-65497869D01*
X196327027Y-65572973D01*
X196402131Y-65664488D01*
X196457938Y-65768895D01*
X196492304Y-65882182D01*
X196503907Y-66000000D01*
X196492304Y-66117818D01*
X196457938Y-66231105D01*
X196402131Y-66335512D01*
X196327027Y-66427027D01*
X196235512Y-66502131D01*
X196131105Y-66557938D01*
X196017818Y-66592304D01*
X195929519Y-66601000D01*
X194470481Y-66601000D01*
X194382182Y-66592304D01*
X194268895Y-66557938D01*
X194164488Y-66502131D01*
X194072973Y-66427027D01*
X193997869Y-66335512D01*
X193942062Y-66231105D01*
X193907696Y-66117818D01*
X193896093Y-66000000D01*
X193907696Y-65882182D01*
X193942062Y-65768895D01*
X193997869Y-65664488D01*
X194072973Y-65572973D01*
X194164488Y-65497869D01*
X194268895Y-65442062D01*
X194382182Y-65407696D01*
X194470481Y-65399000D01*
X195929519Y-65399000D01*
X196017818Y-65407696D01*
G37*
G36*
X181101000Y-66601000D02*
G01*
X178499000Y-66601000D01*
X178499000Y-65399000D01*
X181101000Y-65399000D01*
X181101000Y-66601000D01*
G37*
G36*
X158201000Y-64501000D02*
G01*
X156299000Y-64501000D01*
X156299000Y-59999000D01*
X158201000Y-59999000D01*
X158201000Y-64501000D01*
G37*
G36*
X151636425Y-60212760D02*
G01*
X151636428Y-60212761D01*
X151636429Y-60212761D01*
X151815693Y-60267140D01*
X151815696Y-60267142D01*
X151815697Y-60267142D01*
X151980903Y-60355446D01*
X152125712Y-60474288D01*
X152244554Y-60619097D01*
X152332858Y-60784303D01*
X152332860Y-60784307D01*
X152387239Y-60963571D01*
X152387240Y-60963575D01*
X152401000Y-61103282D01*
X152401000Y-63396718D01*
X152387240Y-63536425D01*
X152387239Y-63536428D01*
X152387239Y-63536429D01*
X152332860Y-63715693D01*
X152332858Y-63715696D01*
X152332858Y-63715697D01*
X152244554Y-63880903D01*
X152125712Y-64025712D01*
X151980903Y-64144554D01*
X151815696Y-64232858D01*
X151815692Y-64232860D01*
X151636428Y-64287239D01*
X151636427Y-64287239D01*
X151636424Y-64287240D01*
X151450000Y-64305601D01*
X151263575Y-64287240D01*
X151263572Y-64287239D01*
X151263571Y-64287239D01*
X151084307Y-64232860D01*
X151084303Y-64232858D01*
X150919097Y-64144554D01*
X150774288Y-64025712D01*
X150655446Y-63880903D01*
X150567142Y-63715696D01*
X150567141Y-63715693D01*
X150567140Y-63715692D01*
X150512761Y-63536428D01*
X150512761Y-63536427D01*
X150512760Y-63536424D01*
X150499000Y-63396717D01*
X150499001Y-61103282D01*
X150512761Y-60963575D01*
X150512762Y-60963571D01*
X150567141Y-60784307D01*
X150567143Y-60784303D01*
X150655447Y-60619097D01*
X150774289Y-60474288D01*
X150919098Y-60355446D01*
X151084304Y-60267142D01*
X151084305Y-60267142D01*
X151084308Y-60267140D01*
X151263572Y-60212761D01*
X151263573Y-60212761D01*
X151263576Y-60212760D01*
X151450000Y-60194399D01*
X151636425Y-60212760D01*
G37*
G36*
X205187915Y-57557334D02*
G01*
X205296491Y-57590271D01*
X205296494Y-57590272D01*
X205332600Y-57609571D01*
X205396556Y-57643756D01*
X205484264Y-57715736D01*
X205556244Y-57803443D01*
X205590429Y-57867399D01*
X205609728Y-57903505D01*
X205609728Y-57903506D01*
X205609729Y-57903508D01*
X205642666Y-58012084D01*
X205651000Y-58096702D01*
X205651000Y-59003298D01*
X205642666Y-59087916D01*
X205609729Y-59196491D01*
X205609728Y-59196495D01*
X205590429Y-59232601D01*
X205556244Y-59296557D01*
X205484264Y-59384264D01*
X205396557Y-59456244D01*
X205332601Y-59490429D01*
X205296495Y-59509728D01*
X205296492Y-59509729D01*
X205187916Y-59542666D01*
X205075000Y-59553787D01*
X204962085Y-59542666D01*
X204853509Y-59509729D01*
X204853506Y-59509728D01*
X204817400Y-59490429D01*
X204753444Y-59456244D01*
X204665737Y-59384264D01*
X204593757Y-59296557D01*
X204559572Y-59232601D01*
X204540273Y-59196495D01*
X204540272Y-59196491D01*
X204507335Y-59087916D01*
X204499000Y-59003298D01*
X204499000Y-58096703D01*
X204507334Y-58012085D01*
X204540271Y-57903509D01*
X204540272Y-57903506D01*
X204559571Y-57867400D01*
X204593756Y-57803444D01*
X204665736Y-57715736D01*
X204753443Y-57643756D01*
X204817399Y-57609571D01*
X204853505Y-57590272D01*
X204853508Y-57590271D01*
X204962084Y-57557334D01*
X205075000Y-57546213D01*
X205187915Y-57557334D01*
G37*
G36*
X198037916Y-57557334D02*
G01*
X198146492Y-57590271D01*
X198146495Y-57590272D01*
X198182601Y-57609571D01*
X198246557Y-57643756D01*
X198334264Y-57715736D01*
X198406244Y-57803443D01*
X198440429Y-57867399D01*
X198459728Y-57903505D01*
X198459728Y-57903506D01*
X198459729Y-57903508D01*
X198492666Y-58012084D01*
X198501000Y-58096702D01*
X198501000Y-59003298D01*
X198492666Y-59087916D01*
X198459729Y-59196491D01*
X198459728Y-59196495D01*
X198440429Y-59232601D01*
X198406244Y-59296557D01*
X198334264Y-59384264D01*
X198246556Y-59456244D01*
X198182600Y-59490429D01*
X198146494Y-59509728D01*
X198146491Y-59509729D01*
X198037915Y-59542666D01*
X197925000Y-59553787D01*
X197812084Y-59542666D01*
X197703508Y-59509729D01*
X197703505Y-59509728D01*
X197667399Y-59490429D01*
X197603443Y-59456244D01*
X197515736Y-59384264D01*
X197443756Y-59296556D01*
X197390273Y-59196495D01*
X197390272Y-59196494D01*
X197390271Y-59196491D01*
X197357334Y-59087915D01*
X197349000Y-59003297D01*
X197349000Y-58096702D01*
X197357335Y-58012084D01*
X197390272Y-57903508D01*
X197390273Y-57903506D01*
X197390273Y-57903505D01*
X197409572Y-57867399D01*
X197443757Y-57803443D01*
X197515737Y-57715736D01*
X197603444Y-57643756D01*
X197667400Y-57609571D01*
X197703506Y-57590272D01*
X197703509Y-57590271D01*
X197812085Y-57557334D01*
X197925000Y-57546213D01*
X198037916Y-57557334D01*
G37*
M02*
