G04 #@! TF.GenerationSoftware,KiCad,Pcbnew,(5.1.5)-3*
G04 #@! TF.CreationDate,2022-01-28T21:11:19+01:00*
G04 #@! TF.ProjectId,fanControl,66616e43-6f6e-4747-926f-6c2e6b696361,rev?*
G04 #@! TF.SameCoordinates,Original*
G04 #@! TF.FileFunction,Copper,L2,Bot*
G04 #@! TF.FilePolarity,Positive*
%FSLAX46Y46*%
G04 Gerber Fmt 4.6, Leading zero omitted, Abs format (unit mm)*
G04 Created by KiCad (PCBNEW (5.1.5)-3) date 2022-01-28 21:11:19*
%MOMM*%
%LPD*%
G04 APERTURE LIST*
%ADD10R,1.050000X1.500000*%
%ADD11O,1.050000X1.500000*%
%ADD12O,1.050000X1.900000*%
%ADD13O,1.740000X2.200000*%
%ADD14C,0.100000*%
%ADD15C,1.600000*%
%ADD16R,2.500000X1.100000*%
%ADD17O,2.500000X1.100000*%
%ADD18O,1.100000X2.500000*%
%ADD19O,1.700000X1.700000*%
%ADD20R,1.700000X1.700000*%
%ADD21C,2.600000*%
%ADD22O,4.000000X1.800000*%
%ADD23O,1.800000X4.000000*%
%ADD24R,1.800000X4.400000*%
%ADD25O,1.275000X1.800000*%
%ADD26R,1.275000X1.800000*%
%ADD27C,0.800000*%
%ADD28C,0.250000*%
%ADD29C,0.254000*%
G04 APERTURE END LIST*
D10*
X204500000Y-85250000D03*
D11*
X201960000Y-85250000D03*
X203230000Y-85250000D03*
D10*
X157930000Y-71480000D03*
D11*
X160470000Y-71480000D03*
X159200000Y-71480000D03*
D12*
X197925000Y-58550000D03*
X205075000Y-58550000D03*
D13*
X199170000Y-91500000D03*
X201710000Y-91500000D03*
G04 #@! TA.AperFunction,ComponentPad*
D14*
G36*
X204894505Y-90401204D02*
G01*
X204918773Y-90404804D01*
X204942572Y-90410765D01*
X204965671Y-90419030D01*
X204987850Y-90429520D01*
X205008893Y-90442132D01*
X205028599Y-90456747D01*
X205046777Y-90473223D01*
X205063253Y-90491401D01*
X205077868Y-90511107D01*
X205090480Y-90532150D01*
X205100970Y-90554329D01*
X205109235Y-90577428D01*
X205115196Y-90601227D01*
X205118796Y-90625495D01*
X205120000Y-90649999D01*
X205120000Y-92350001D01*
X205118796Y-92374505D01*
X205115196Y-92398773D01*
X205109235Y-92422572D01*
X205100970Y-92445671D01*
X205090480Y-92467850D01*
X205077868Y-92488893D01*
X205063253Y-92508599D01*
X205046777Y-92526777D01*
X205028599Y-92543253D01*
X205008893Y-92557868D01*
X204987850Y-92570480D01*
X204965671Y-92580970D01*
X204942572Y-92589235D01*
X204918773Y-92595196D01*
X204894505Y-92598796D01*
X204870001Y-92600000D01*
X203629999Y-92600000D01*
X203605495Y-92598796D01*
X203581227Y-92595196D01*
X203557428Y-92589235D01*
X203534329Y-92580970D01*
X203512150Y-92570480D01*
X203491107Y-92557868D01*
X203471401Y-92543253D01*
X203453223Y-92526777D01*
X203436747Y-92508599D01*
X203422132Y-92488893D01*
X203409520Y-92467850D01*
X203399030Y-92445671D01*
X203390765Y-92422572D01*
X203384804Y-92398773D01*
X203381204Y-92374505D01*
X203380000Y-92350001D01*
X203380000Y-90649999D01*
X203381204Y-90625495D01*
X203384804Y-90601227D01*
X203390765Y-90577428D01*
X203399030Y-90554329D01*
X203409520Y-90532150D01*
X203422132Y-90511107D01*
X203436747Y-90491401D01*
X203453223Y-90473223D01*
X203471401Y-90456747D01*
X203491107Y-90442132D01*
X203512150Y-90429520D01*
X203534329Y-90419030D01*
X203557428Y-90410765D01*
X203581227Y-90404804D01*
X203605495Y-90401204D01*
X203629999Y-90400000D01*
X204870001Y-90400000D01*
X204894505Y-90401204D01*
G37*
G04 #@! TD.AperFunction*
D13*
X179630000Y-91500000D03*
X182170000Y-91500000D03*
X184710000Y-91500000D03*
G04 #@! TA.AperFunction,ComponentPad*
D14*
G36*
X187894505Y-90401204D02*
G01*
X187918773Y-90404804D01*
X187942572Y-90410765D01*
X187965671Y-90419030D01*
X187987850Y-90429520D01*
X188008893Y-90442132D01*
X188028599Y-90456747D01*
X188046777Y-90473223D01*
X188063253Y-90491401D01*
X188077868Y-90511107D01*
X188090480Y-90532150D01*
X188100970Y-90554329D01*
X188109235Y-90577428D01*
X188115196Y-90601227D01*
X188118796Y-90625495D01*
X188120000Y-90649999D01*
X188120000Y-92350001D01*
X188118796Y-92374505D01*
X188115196Y-92398773D01*
X188109235Y-92422572D01*
X188100970Y-92445671D01*
X188090480Y-92467850D01*
X188077868Y-92488893D01*
X188063253Y-92508599D01*
X188046777Y-92526777D01*
X188028599Y-92543253D01*
X188008893Y-92557868D01*
X187987850Y-92570480D01*
X187965671Y-92580970D01*
X187942572Y-92589235D01*
X187918773Y-92595196D01*
X187894505Y-92598796D01*
X187870001Y-92600000D01*
X186629999Y-92600000D01*
X186605495Y-92598796D01*
X186581227Y-92595196D01*
X186557428Y-92589235D01*
X186534329Y-92580970D01*
X186512150Y-92570480D01*
X186491107Y-92557868D01*
X186471401Y-92543253D01*
X186453223Y-92526777D01*
X186436747Y-92508599D01*
X186422132Y-92488893D01*
X186409520Y-92467850D01*
X186399030Y-92445671D01*
X186390765Y-92422572D01*
X186384804Y-92398773D01*
X186381204Y-92374505D01*
X186380000Y-92350001D01*
X186380000Y-90649999D01*
X186381204Y-90625495D01*
X186384804Y-90601227D01*
X186390765Y-90577428D01*
X186399030Y-90554329D01*
X186409520Y-90532150D01*
X186422132Y-90511107D01*
X186436747Y-90491401D01*
X186453223Y-90473223D01*
X186471401Y-90456747D01*
X186491107Y-90442132D01*
X186512150Y-90429520D01*
X186534329Y-90419030D01*
X186557428Y-90410765D01*
X186581227Y-90404804D01*
X186605495Y-90401204D01*
X186629999Y-90400000D01*
X187870001Y-90400000D01*
X187894505Y-90401204D01*
G37*
G04 #@! TD.AperFunction*
D15*
X157500000Y-84750000D03*
X157500000Y-81250000D03*
D16*
X179800000Y-66000000D03*
D17*
X179800000Y-68000000D03*
X179800000Y-70000000D03*
X179800000Y-72000000D03*
X179800000Y-74000000D03*
X179800000Y-76000000D03*
X179800000Y-78000000D03*
X179800000Y-80000000D03*
X195200000Y-80000000D03*
X195100000Y-78000000D03*
X195200000Y-76000000D03*
X195200000Y-74000000D03*
X195200000Y-72000000D03*
X195200000Y-70000000D03*
X195200000Y-68000000D03*
X195200000Y-66000000D03*
D18*
X182490000Y-81700000D03*
X184490000Y-81700000D03*
X186490000Y-81700000D03*
X188490000Y-81700000D03*
X190490000Y-81700000D03*
X192490000Y-81700000D03*
D19*
X204200000Y-81200000D03*
X204200000Y-78660000D03*
X204200000Y-76120000D03*
X204200000Y-73580000D03*
X204200000Y-71040000D03*
D20*
X204200000Y-68500000D03*
D21*
X146500000Y-88250000D03*
X151500000Y-88250000D03*
D15*
X148250000Y-71000000D03*
X145750000Y-71000000D03*
D22*
X154250000Y-67050000D03*
D23*
X151450000Y-62250000D03*
D24*
X157250000Y-62250000D03*
D25*
X152300000Y-78250000D03*
X150600000Y-78250000D03*
X148900000Y-78250000D03*
X147200000Y-78250000D03*
D26*
X145500000Y-78250000D03*
D27*
X171362500Y-58062500D03*
X174550000Y-65200000D03*
X173400000Y-86000000D03*
X167500000Y-90500000D03*
X199250000Y-71040000D03*
X171300000Y-65750000D03*
X185000000Y-84250000D03*
D28*
X204200000Y-81200000D02*
X199700000Y-81200000D01*
X198500000Y-80000000D02*
X194500000Y-80000000D01*
X199700000Y-81200000D02*
X198500000Y-80000000D01*
X193524990Y-72975010D02*
X194500000Y-72000000D01*
X193524990Y-80262441D02*
X193524990Y-72975010D01*
X201742441Y-82762441D02*
X196024990Y-82762441D01*
X196024990Y-82762441D02*
X193524990Y-80262441D01*
X203230000Y-84250000D02*
X201742441Y-82762441D01*
X203230000Y-85250000D02*
X203230000Y-84250000D01*
X199110000Y-92600000D02*
X199110000Y-91500000D01*
X197210000Y-94500000D02*
X199110000Y-92600000D01*
X167500000Y-90500000D02*
X171500000Y-94500000D01*
X171500000Y-94500000D02*
X197210000Y-94500000D01*
X189250000Y-66000000D02*
X194290000Y-71040000D01*
X180500000Y-66000000D02*
X189250000Y-66000000D01*
X194290000Y-71040000D02*
X199250000Y-71040000D01*
X199250000Y-71040000D02*
X199250000Y-71040000D01*
X171300000Y-65750000D02*
X171300000Y-68300000D01*
X171300000Y-68300000D02*
X175250000Y-72250000D01*
X175250000Y-72250000D02*
X175250000Y-83250000D01*
X175250000Y-83250000D02*
X176250000Y-84250000D01*
X176250000Y-84250000D02*
X185000000Y-84250000D01*
X185000000Y-84250000D02*
X185000000Y-84250000D01*
D29*
G36*
X203962066Y-57774135D02*
G01*
X203915000Y-57998000D01*
X203915000Y-58423000D01*
X204948000Y-58423000D01*
X204948000Y-58403000D01*
X205202000Y-58403000D01*
X205202000Y-58423000D01*
X205222000Y-58423000D01*
X205222000Y-58677000D01*
X205202000Y-58677000D01*
X205202000Y-59968163D01*
X205380810Y-60093964D01*
X205565000Y-60027654D01*
X205565000Y-67276574D01*
X205501185Y-67198815D01*
X205404494Y-67119463D01*
X205294180Y-67060498D01*
X205174482Y-67024188D01*
X205050000Y-67011928D01*
X203350000Y-67011928D01*
X203225518Y-67024188D01*
X203105820Y-67060498D01*
X202995506Y-67119463D01*
X202898815Y-67198815D01*
X202819463Y-67295506D01*
X202760498Y-67405820D01*
X202724188Y-67525518D01*
X202711928Y-67650000D01*
X202711928Y-69350000D01*
X202724188Y-69474482D01*
X202760498Y-69594180D01*
X202819463Y-69704494D01*
X202898815Y-69801185D01*
X202995506Y-69880537D01*
X203105820Y-69939502D01*
X203178380Y-69961513D01*
X203046525Y-70093368D01*
X202884010Y-70336589D01*
X202772068Y-70606842D01*
X202715000Y-70893740D01*
X202715000Y-71186260D01*
X202772068Y-71473158D01*
X202884010Y-71743411D01*
X203046525Y-71986632D01*
X203253368Y-72193475D01*
X203427760Y-72310000D01*
X203253368Y-72426525D01*
X203046525Y-72633368D01*
X202884010Y-72876589D01*
X202772068Y-73146842D01*
X202715000Y-73433740D01*
X202715000Y-73726260D01*
X202772068Y-74013158D01*
X202884010Y-74283411D01*
X203046525Y-74526632D01*
X203253368Y-74733475D01*
X203427760Y-74850000D01*
X203253368Y-74966525D01*
X203046525Y-75173368D01*
X202884010Y-75416589D01*
X202772068Y-75686842D01*
X202715000Y-75973740D01*
X202715000Y-76266260D01*
X202772068Y-76553158D01*
X202884010Y-76823411D01*
X203046525Y-77066632D01*
X203253368Y-77273475D01*
X203427760Y-77390000D01*
X203253368Y-77506525D01*
X203046525Y-77713368D01*
X202884010Y-77956589D01*
X202772068Y-78226842D01*
X202715000Y-78513740D01*
X202715000Y-78806260D01*
X202772068Y-79093158D01*
X202884010Y-79363411D01*
X203046525Y-79606632D01*
X203253368Y-79813475D01*
X203435534Y-79935195D01*
X203318645Y-80004822D01*
X203102412Y-80199731D01*
X202928359Y-80433080D01*
X202803175Y-80695901D01*
X202758524Y-80843110D01*
X202879845Y-81073000D01*
X204073000Y-81073000D01*
X204073000Y-81053000D01*
X204327000Y-81053000D01*
X204327000Y-81073000D01*
X204347000Y-81073000D01*
X204347000Y-81327000D01*
X204327000Y-81327000D01*
X204327000Y-82520814D01*
X204556891Y-82641481D01*
X204831252Y-82544157D01*
X205081355Y-82395178D01*
X205297588Y-82200269D01*
X205471641Y-81966920D01*
X205565001Y-81770914D01*
X205565001Y-84163211D01*
X205555537Y-84145506D01*
X205476185Y-84048815D01*
X205379494Y-83969463D01*
X205269180Y-83910498D01*
X205149482Y-83874188D01*
X205025000Y-83861928D01*
X204785750Y-83865000D01*
X204627000Y-84023750D01*
X204627000Y-85123000D01*
X204647000Y-85123000D01*
X204647000Y-85377000D01*
X204627000Y-85377000D01*
X204627000Y-86476250D01*
X204785750Y-86635000D01*
X205025000Y-86638072D01*
X205149482Y-86625812D01*
X205269180Y-86589502D01*
X205379494Y-86530537D01*
X205476185Y-86451185D01*
X205555537Y-86354494D01*
X205565001Y-86336789D01*
X205565001Y-89943740D01*
X205474494Y-89869463D01*
X205364180Y-89810498D01*
X205244482Y-89774188D01*
X205120000Y-89761928D01*
X204535750Y-89765000D01*
X204377000Y-89923750D01*
X204377000Y-91373000D01*
X204397000Y-91373000D01*
X204397000Y-91627000D01*
X204377000Y-91627000D01*
X204377000Y-91647000D01*
X204123000Y-91647000D01*
X204123000Y-91627000D01*
X204103000Y-91627000D01*
X204103000Y-91373000D01*
X204123000Y-91373000D01*
X204123000Y-89923750D01*
X203964250Y-89765000D01*
X203380000Y-89761928D01*
X203255518Y-89774188D01*
X203135820Y-89810498D01*
X203025506Y-89869463D01*
X202928815Y-89948815D01*
X202849463Y-90045506D01*
X202790498Y-90155820D01*
X202777385Y-90199047D01*
X202550179Y-90012583D01*
X202288725Y-89872834D01*
X202005032Y-89786776D01*
X201710000Y-89757718D01*
X201414969Y-89786776D01*
X201131276Y-89872834D01*
X200869822Y-90012583D01*
X200640655Y-90200655D01*
X200452583Y-90429821D01*
X200440000Y-90453362D01*
X200427417Y-90429821D01*
X200239345Y-90200655D01*
X200010179Y-90012583D01*
X199748725Y-89872834D01*
X199465032Y-89786776D01*
X199170000Y-89757718D01*
X198874969Y-89786776D01*
X198591276Y-89872834D01*
X198329822Y-90012583D01*
X198100655Y-90200655D01*
X197912583Y-90429821D01*
X197772834Y-90691275D01*
X197686776Y-90974968D01*
X197665000Y-91196064D01*
X197665000Y-91803935D01*
X197686776Y-92025031D01*
X197772834Y-92308724D01*
X197912583Y-92570178D01*
X197981295Y-92653904D01*
X197761967Y-92873232D01*
X195037603Y-92873164D01*
X195236038Y-92674729D01*
X195480631Y-92308669D01*
X195649110Y-91901925D01*
X195735000Y-91470128D01*
X195735000Y-91029872D01*
X195649110Y-90598075D01*
X195480631Y-90191331D01*
X195236038Y-89825271D01*
X194924729Y-89513962D01*
X194558669Y-89269369D01*
X194151925Y-89100890D01*
X193720128Y-89015000D01*
X193279872Y-89015000D01*
X192848075Y-89100890D01*
X192441331Y-89269369D01*
X192075271Y-89513962D01*
X191763962Y-89825271D01*
X191519369Y-90191331D01*
X191350890Y-90598075D01*
X191265000Y-91029872D01*
X191265000Y-91470128D01*
X191350890Y-91901925D01*
X191519369Y-92308669D01*
X191763962Y-92674729D01*
X191962320Y-92873087D01*
X188694095Y-92873005D01*
X188709502Y-92844180D01*
X188745812Y-92724482D01*
X188758072Y-92600000D01*
X188755000Y-91785750D01*
X188596250Y-91627000D01*
X187377000Y-91627000D01*
X187377000Y-91647000D01*
X187123000Y-91647000D01*
X187123000Y-91627000D01*
X187103000Y-91627000D01*
X187103000Y-91373000D01*
X187123000Y-91373000D01*
X187123000Y-89923750D01*
X187377000Y-89923750D01*
X187377000Y-91373000D01*
X188596250Y-91373000D01*
X188755000Y-91214250D01*
X188758072Y-90400000D01*
X188745812Y-90275518D01*
X188709502Y-90155820D01*
X188650537Y-90045506D01*
X188571185Y-89948815D01*
X188474494Y-89869463D01*
X188364180Y-89810498D01*
X188244482Y-89774188D01*
X188120000Y-89761928D01*
X187535750Y-89765000D01*
X187377000Y-89923750D01*
X187123000Y-89923750D01*
X186964250Y-89765000D01*
X186380000Y-89761928D01*
X186255518Y-89774188D01*
X186135820Y-89810498D01*
X186025506Y-89869463D01*
X185928815Y-89948815D01*
X185849463Y-90045506D01*
X185790498Y-90155820D01*
X185777385Y-90199047D01*
X185550179Y-90012583D01*
X185288725Y-89872834D01*
X185005032Y-89786776D01*
X184710000Y-89757718D01*
X184414969Y-89786776D01*
X184131276Y-89872834D01*
X183869822Y-90012583D01*
X183640655Y-90200655D01*
X183452583Y-90429821D01*
X183440000Y-90453362D01*
X183427417Y-90429821D01*
X183239345Y-90200655D01*
X183010179Y-90012583D01*
X182748725Y-89872834D01*
X182465032Y-89786776D01*
X182170000Y-89757718D01*
X181874969Y-89786776D01*
X181591276Y-89872834D01*
X181329822Y-90012583D01*
X181100655Y-90200655D01*
X180912583Y-90429821D01*
X180900000Y-90453362D01*
X180887417Y-90429821D01*
X180699345Y-90200655D01*
X180470179Y-90012583D01*
X180208725Y-89872834D01*
X179925032Y-89786776D01*
X179630000Y-89757718D01*
X179334969Y-89786776D01*
X179051276Y-89872834D01*
X178789822Y-90012583D01*
X178560655Y-90200655D01*
X178372583Y-90429821D01*
X178232834Y-90691275D01*
X178146776Y-90974968D01*
X178125000Y-91196064D01*
X178125000Y-91803935D01*
X178146776Y-92025031D01*
X178182472Y-92142703D01*
X178179444Y-92144321D01*
X178160199Y-92160115D01*
X178144404Y-92179360D01*
X178132668Y-92201316D01*
X178125441Y-92225141D01*
X178123000Y-92249919D01*
X178123000Y-93740000D01*
X171814802Y-93740000D01*
X168535000Y-90460199D01*
X168535000Y-90398061D01*
X168495226Y-90198102D01*
X168417205Y-90009744D01*
X168303937Y-89840226D01*
X168159774Y-89696063D01*
X167990256Y-89582795D01*
X167801898Y-89504774D01*
X167601939Y-89465000D01*
X167398061Y-89465000D01*
X167198102Y-89504774D01*
X167009744Y-89582795D01*
X166840226Y-89696063D01*
X166696063Y-89840226D01*
X166582795Y-90009744D01*
X166504774Y-90198102D01*
X166465000Y-90398061D01*
X166465000Y-90601939D01*
X166504774Y-90801898D01*
X166582795Y-90990256D01*
X166696063Y-91159774D01*
X166840226Y-91303937D01*
X167009744Y-91417205D01*
X167198102Y-91495226D01*
X167398061Y-91535000D01*
X167460199Y-91535000D01*
X170048198Y-94123000D01*
X143685000Y-94123000D01*
X143685000Y-88059419D01*
X144565000Y-88059419D01*
X144565000Y-88440581D01*
X144639361Y-88814419D01*
X144785225Y-89166566D01*
X144996987Y-89483491D01*
X145266509Y-89753013D01*
X145583434Y-89964775D01*
X145935581Y-90110639D01*
X146309419Y-90185000D01*
X146690581Y-90185000D01*
X147064419Y-90110639D01*
X147416566Y-89964775D01*
X147733491Y-89753013D01*
X148003013Y-89483491D01*
X148214775Y-89166566D01*
X148360639Y-88814419D01*
X148435000Y-88440581D01*
X148435000Y-88059419D01*
X149565000Y-88059419D01*
X149565000Y-88440581D01*
X149639361Y-88814419D01*
X149785225Y-89166566D01*
X149996987Y-89483491D01*
X150266509Y-89753013D01*
X150583434Y-89964775D01*
X150935581Y-90110639D01*
X151309419Y-90185000D01*
X151690581Y-90185000D01*
X152064419Y-90110639D01*
X152416566Y-89964775D01*
X152733491Y-89753013D01*
X153003013Y-89483491D01*
X153214775Y-89166566D01*
X153360639Y-88814419D01*
X153435000Y-88440581D01*
X153435000Y-88059419D01*
X153360639Y-87685581D01*
X153214775Y-87333434D01*
X153003013Y-87016509D01*
X152733491Y-86746987D01*
X152416566Y-86535225D01*
X152064419Y-86389361D01*
X151690581Y-86315000D01*
X151309419Y-86315000D01*
X150935581Y-86389361D01*
X150583434Y-86535225D01*
X150266509Y-86746987D01*
X149996987Y-87016509D01*
X149785225Y-87333434D01*
X149639361Y-87685581D01*
X149565000Y-88059419D01*
X148435000Y-88059419D01*
X148360639Y-87685581D01*
X148214775Y-87333434D01*
X148003013Y-87016509D01*
X147733491Y-86746987D01*
X147416566Y-86535225D01*
X147064419Y-86389361D01*
X146690581Y-86315000D01*
X146309419Y-86315000D01*
X145935581Y-86389361D01*
X145583434Y-86535225D01*
X145266509Y-86746987D01*
X144996987Y-87016509D01*
X144785225Y-87333434D01*
X144639361Y-87685581D01*
X144565000Y-88059419D01*
X143685000Y-88059419D01*
X143685000Y-85742702D01*
X156686903Y-85742702D01*
X156758486Y-85986671D01*
X157013996Y-86107571D01*
X157288184Y-86176300D01*
X157570512Y-86190217D01*
X157850130Y-86148787D01*
X158116292Y-86053603D01*
X158241514Y-85986671D01*
X158313097Y-85742702D01*
X157500000Y-84929605D01*
X156686903Y-85742702D01*
X143685000Y-85742702D01*
X143685000Y-84820512D01*
X156059783Y-84820512D01*
X156101213Y-85100130D01*
X156196397Y-85366292D01*
X156263329Y-85491514D01*
X156507298Y-85563097D01*
X157320395Y-84750000D01*
X157679605Y-84750000D01*
X158492702Y-85563097D01*
X158736671Y-85491514D01*
X158857571Y-85236004D01*
X158926300Y-84961816D01*
X158940217Y-84679488D01*
X158898787Y-84399870D01*
X158803603Y-84133708D01*
X158736671Y-84008486D01*
X158492702Y-83936903D01*
X157679605Y-84750000D01*
X157320395Y-84750000D01*
X156507298Y-83936903D01*
X156263329Y-84008486D01*
X156142429Y-84263996D01*
X156073700Y-84538184D01*
X156059783Y-84820512D01*
X143685000Y-84820512D01*
X143685000Y-83757298D01*
X156686903Y-83757298D01*
X157500000Y-84570395D01*
X158313097Y-83757298D01*
X158241514Y-83513329D01*
X157986004Y-83392429D01*
X157711816Y-83323700D01*
X157429488Y-83309783D01*
X157149870Y-83351213D01*
X156883708Y-83446397D01*
X156758486Y-83513329D01*
X156686903Y-83757298D01*
X143685000Y-83757298D01*
X143685000Y-81108665D01*
X156065000Y-81108665D01*
X156065000Y-81391335D01*
X156120147Y-81668574D01*
X156228320Y-81929727D01*
X156385363Y-82164759D01*
X156585241Y-82364637D01*
X156820273Y-82521680D01*
X157081426Y-82629853D01*
X157358665Y-82685000D01*
X157641335Y-82685000D01*
X157918574Y-82629853D01*
X158179727Y-82521680D01*
X158414759Y-82364637D01*
X158614637Y-82164759D01*
X158771680Y-81929727D01*
X158879853Y-81668574D01*
X158935000Y-81391335D01*
X158935000Y-81108665D01*
X158879853Y-80831426D01*
X158771680Y-80570273D01*
X158614637Y-80335241D01*
X158414759Y-80135363D01*
X158179727Y-79978320D01*
X157918574Y-79870147D01*
X157641335Y-79815000D01*
X157358665Y-79815000D01*
X157081426Y-79870147D01*
X156820273Y-79978320D01*
X156585241Y-80135363D01*
X156385363Y-80335241D01*
X156228320Y-80570273D01*
X156120147Y-80831426D01*
X156065000Y-81108665D01*
X143685000Y-81108665D01*
X143685000Y-77350000D01*
X144224428Y-77350000D01*
X144224428Y-79150000D01*
X144236688Y-79274482D01*
X144272998Y-79394180D01*
X144331963Y-79504494D01*
X144411315Y-79601185D01*
X144508006Y-79680537D01*
X144618320Y-79739502D01*
X144738018Y-79775812D01*
X144862500Y-79788072D01*
X146137500Y-79788072D01*
X146261982Y-79775812D01*
X146381680Y-79739502D01*
X146491994Y-79680537D01*
X146568443Y-79617797D01*
X146710680Y-79693825D01*
X146950547Y-79766588D01*
X147200000Y-79791157D01*
X147449454Y-79766588D01*
X147689321Y-79693825D01*
X147910384Y-79575664D01*
X148049392Y-79461583D01*
X148090009Y-79502095D01*
X148298633Y-79641102D01*
X148530367Y-79736737D01*
X148576495Y-79743191D01*
X148773000Y-79618985D01*
X148773000Y-78377000D01*
X148753000Y-78377000D01*
X148753000Y-78123000D01*
X148773000Y-78123000D01*
X148773000Y-76881015D01*
X149027000Y-76881015D01*
X149027000Y-78123000D01*
X149047000Y-78123000D01*
X149047000Y-78377000D01*
X149027000Y-78377000D01*
X149027000Y-79618985D01*
X149223505Y-79743191D01*
X149269633Y-79736737D01*
X149501367Y-79641102D01*
X149709991Y-79502095D01*
X149750609Y-79461583D01*
X149889617Y-79575664D01*
X150110680Y-79693825D01*
X150350547Y-79766588D01*
X150600000Y-79791157D01*
X150849454Y-79766588D01*
X151089321Y-79693825D01*
X151310384Y-79575664D01*
X151450001Y-79461084D01*
X151589617Y-79575664D01*
X151810680Y-79693825D01*
X152050547Y-79766588D01*
X152300000Y-79791157D01*
X152549454Y-79766588D01*
X152789321Y-79693825D01*
X153010384Y-79575664D01*
X153204147Y-79416647D01*
X153363164Y-79222884D01*
X153481325Y-79001820D01*
X153554088Y-78761953D01*
X153572500Y-78575012D01*
X153572500Y-77924987D01*
X153554088Y-77738046D01*
X153481325Y-77498179D01*
X153363164Y-77277116D01*
X153204147Y-77083353D01*
X153010383Y-76924336D01*
X152789320Y-76806175D01*
X152549453Y-76733412D01*
X152300000Y-76708843D01*
X152050546Y-76733412D01*
X151810679Y-76806175D01*
X151589616Y-76924336D01*
X151450000Y-77038916D01*
X151310383Y-76924336D01*
X151089320Y-76806175D01*
X150849453Y-76733412D01*
X150600000Y-76708843D01*
X150350546Y-76733412D01*
X150110679Y-76806175D01*
X149889616Y-76924336D01*
X149750608Y-77038417D01*
X149709991Y-76997905D01*
X149501367Y-76858898D01*
X149269633Y-76763263D01*
X149223505Y-76756809D01*
X149027000Y-76881015D01*
X148773000Y-76881015D01*
X148576495Y-76756809D01*
X148530367Y-76763263D01*
X148298633Y-76858898D01*
X148090009Y-76997905D01*
X148049392Y-77038417D01*
X147910383Y-76924336D01*
X147689320Y-76806175D01*
X147449453Y-76733412D01*
X147200000Y-76708843D01*
X146950546Y-76733412D01*
X146710679Y-76806175D01*
X146568442Y-76882202D01*
X146491994Y-76819463D01*
X146381680Y-76760498D01*
X146261982Y-76724188D01*
X146137500Y-76711928D01*
X144862500Y-76711928D01*
X144738018Y-76724188D01*
X144618320Y-76760498D01*
X144508006Y-76819463D01*
X144411315Y-76898815D01*
X144331963Y-76995506D01*
X144272998Y-77105820D01*
X144236688Y-77225518D01*
X144224428Y-77350000D01*
X143685000Y-77350000D01*
X143685000Y-75529872D01*
X168765000Y-75529872D01*
X168765000Y-75970128D01*
X168850890Y-76401925D01*
X169019369Y-76808669D01*
X169263962Y-77174729D01*
X169575271Y-77486038D01*
X169941331Y-77730631D01*
X170348075Y-77899110D01*
X170779872Y-77985000D01*
X171220128Y-77985000D01*
X171651925Y-77899110D01*
X172058669Y-77730631D01*
X172424729Y-77486038D01*
X172736038Y-77174729D01*
X172980631Y-76808669D01*
X173149110Y-76401925D01*
X173235000Y-75970128D01*
X173235000Y-75529872D01*
X173149110Y-75098075D01*
X172980631Y-74691331D01*
X172736038Y-74325271D01*
X172424729Y-74013962D01*
X172058669Y-73769369D01*
X171651925Y-73600890D01*
X171220128Y-73515000D01*
X170779872Y-73515000D01*
X170348075Y-73600890D01*
X169941331Y-73769369D01*
X169575271Y-74013962D01*
X169263962Y-74325271D01*
X169019369Y-74691331D01*
X168850890Y-75098075D01*
X168765000Y-75529872D01*
X143685000Y-75529872D01*
X143685000Y-70858665D01*
X144315000Y-70858665D01*
X144315000Y-71141335D01*
X144370147Y-71418574D01*
X144478320Y-71679727D01*
X144635363Y-71914759D01*
X144835241Y-72114637D01*
X145070273Y-72271680D01*
X145331426Y-72379853D01*
X145608665Y-72435000D01*
X145891335Y-72435000D01*
X146168574Y-72379853D01*
X146429727Y-72271680D01*
X146664759Y-72114637D01*
X146786694Y-71992702D01*
X147436903Y-71992702D01*
X147508486Y-72236671D01*
X147763996Y-72357571D01*
X148038184Y-72426300D01*
X148320512Y-72440217D01*
X148600130Y-72398787D01*
X148866292Y-72303603D01*
X148991514Y-72236671D01*
X149063097Y-71992702D01*
X148250000Y-71179605D01*
X147436903Y-71992702D01*
X146786694Y-71992702D01*
X146864637Y-71914759D01*
X146998692Y-71714131D01*
X147013329Y-71741514D01*
X147257298Y-71813097D01*
X148070395Y-71000000D01*
X148429605Y-71000000D01*
X149242702Y-71813097D01*
X149486671Y-71741514D01*
X149607571Y-71486004D01*
X149676300Y-71211816D01*
X149690217Y-70929488D01*
X149660660Y-70730000D01*
X156766928Y-70730000D01*
X156766928Y-72230000D01*
X156779188Y-72354482D01*
X156815498Y-72474180D01*
X156874463Y-72584494D01*
X156953815Y-72681185D01*
X157050506Y-72760537D01*
X157160820Y-72819502D01*
X157280518Y-72855812D01*
X157405000Y-72868072D01*
X158455000Y-72868072D01*
X158579482Y-72855812D01*
X158699180Y-72819502D01*
X158763902Y-72784907D01*
X158972601Y-72848215D01*
X159200000Y-72870612D01*
X159427400Y-72848215D01*
X159646060Y-72781885D01*
X159834669Y-72681071D01*
X159893118Y-72722275D01*
X160102663Y-72815272D01*
X160164190Y-72823964D01*
X160343000Y-72698163D01*
X160343000Y-71933108D01*
X160343215Y-71932399D01*
X160360000Y-71761978D01*
X160360000Y-71607000D01*
X160597000Y-71607000D01*
X160597000Y-72698163D01*
X160775810Y-72823964D01*
X160837337Y-72815272D01*
X161046882Y-72722275D01*
X161234258Y-72590184D01*
X161392264Y-72424076D01*
X161514828Y-72230334D01*
X161597239Y-72016404D01*
X161636331Y-71790507D01*
X161476598Y-71607000D01*
X160597000Y-71607000D01*
X160360000Y-71607000D01*
X160360000Y-71198021D01*
X160343215Y-71027600D01*
X160343000Y-71026891D01*
X160343000Y-70261837D01*
X160597000Y-70261837D01*
X160597000Y-71353000D01*
X161476598Y-71353000D01*
X161636331Y-71169493D01*
X161597239Y-70943596D01*
X161514828Y-70729666D01*
X161392264Y-70535924D01*
X161234258Y-70369816D01*
X161046882Y-70237725D01*
X160837337Y-70144728D01*
X160775810Y-70136036D01*
X160597000Y-70261837D01*
X160343000Y-70261837D01*
X160164190Y-70136036D01*
X160102663Y-70144728D01*
X159893118Y-70237725D01*
X159834669Y-70278929D01*
X159646059Y-70178115D01*
X159427399Y-70111785D01*
X159200000Y-70089388D01*
X158972600Y-70111785D01*
X158763902Y-70175093D01*
X158699180Y-70140498D01*
X158579482Y-70104188D01*
X158455000Y-70091928D01*
X157405000Y-70091928D01*
X157280518Y-70104188D01*
X157160820Y-70140498D01*
X157050506Y-70199463D01*
X156953815Y-70278815D01*
X156874463Y-70375506D01*
X156815498Y-70485820D01*
X156779188Y-70605518D01*
X156766928Y-70730000D01*
X149660660Y-70730000D01*
X149648787Y-70649870D01*
X149553603Y-70383708D01*
X149486671Y-70258486D01*
X149242702Y-70186903D01*
X148429605Y-71000000D01*
X148070395Y-71000000D01*
X147257298Y-70186903D01*
X147013329Y-70258486D01*
X146999676Y-70287341D01*
X146864637Y-70085241D01*
X146786694Y-70007298D01*
X147436903Y-70007298D01*
X148250000Y-70820395D01*
X149063097Y-70007298D01*
X148991514Y-69763329D01*
X148736004Y-69642429D01*
X148461816Y-69573700D01*
X148179488Y-69559783D01*
X147899870Y-69601213D01*
X147633708Y-69696397D01*
X147508486Y-69763329D01*
X147436903Y-70007298D01*
X146786694Y-70007298D01*
X146664759Y-69885363D01*
X146429727Y-69728320D01*
X146168574Y-69620147D01*
X145891335Y-69565000D01*
X145608665Y-69565000D01*
X145331426Y-69620147D01*
X145070273Y-69728320D01*
X144835241Y-69885363D01*
X144635363Y-70085241D01*
X144478320Y-70320273D01*
X144370147Y-70581426D01*
X144315000Y-70858665D01*
X143685000Y-70858665D01*
X143685000Y-67414740D01*
X151658964Y-67414740D01*
X151683245Y-67520087D01*
X151803138Y-67797204D01*
X151974790Y-68045606D01*
X152191604Y-68255748D01*
X152445249Y-68419554D01*
X152725977Y-68530729D01*
X153023000Y-68585000D01*
X154123000Y-68585000D01*
X154123000Y-67177000D01*
X154377000Y-67177000D01*
X154377000Y-68585000D01*
X155477000Y-68585000D01*
X155774023Y-68530729D01*
X156054751Y-68419554D01*
X156308396Y-68255748D01*
X156525210Y-68045606D01*
X156696862Y-67797204D01*
X156816755Y-67520087D01*
X156841036Y-67414740D01*
X156720378Y-67177000D01*
X154377000Y-67177000D01*
X154123000Y-67177000D01*
X151779622Y-67177000D01*
X151658964Y-67414740D01*
X143685000Y-67414740D01*
X143685000Y-66685260D01*
X151658964Y-66685260D01*
X151779622Y-66923000D01*
X154123000Y-66923000D01*
X154123000Y-65515000D01*
X154377000Y-65515000D01*
X154377000Y-66923000D01*
X156720378Y-66923000D01*
X156841036Y-66685260D01*
X156816755Y-66579913D01*
X156696862Y-66302796D01*
X156525210Y-66054394D01*
X156308396Y-65844252D01*
X156054751Y-65680446D01*
X155774023Y-65569271D01*
X155477000Y-65515000D01*
X154377000Y-65515000D01*
X154123000Y-65515000D01*
X153023000Y-65515000D01*
X152725977Y-65569271D01*
X152445249Y-65680446D01*
X152191604Y-65844252D01*
X151974790Y-66054394D01*
X151803138Y-66302796D01*
X151683245Y-66579913D01*
X151658964Y-66685260D01*
X143685000Y-66685260D01*
X143685000Y-62377000D01*
X149915000Y-62377000D01*
X149915000Y-63477000D01*
X149969271Y-63774023D01*
X150080446Y-64054751D01*
X150244252Y-64308396D01*
X150454394Y-64525210D01*
X150702796Y-64696862D01*
X150979913Y-64816755D01*
X151085260Y-64841036D01*
X151323000Y-64720378D01*
X151323000Y-62377000D01*
X151577000Y-62377000D01*
X151577000Y-64720378D01*
X151814740Y-64841036D01*
X151920087Y-64816755D01*
X152197204Y-64696862D01*
X152445606Y-64525210D01*
X152655748Y-64308396D01*
X152819554Y-64054751D01*
X152930729Y-63774023D01*
X152985000Y-63477000D01*
X152985000Y-62377000D01*
X151577000Y-62377000D01*
X151323000Y-62377000D01*
X149915000Y-62377000D01*
X143685000Y-62377000D01*
X143685000Y-61023000D01*
X149915000Y-61023000D01*
X149915000Y-62123000D01*
X151323000Y-62123000D01*
X151323000Y-59779622D01*
X151577000Y-59779622D01*
X151577000Y-62123000D01*
X152985000Y-62123000D01*
X152985000Y-61023000D01*
X152930729Y-60725977D01*
X152819554Y-60445249D01*
X152655748Y-60191604D01*
X152518502Y-60050000D01*
X155711928Y-60050000D01*
X155711928Y-64450000D01*
X155724188Y-64574482D01*
X155760498Y-64694180D01*
X155819463Y-64804494D01*
X155898815Y-64901185D01*
X155995506Y-64980537D01*
X156105820Y-65039502D01*
X156225518Y-65075812D01*
X156350000Y-65088072D01*
X158150000Y-65088072D01*
X158274482Y-65075812D01*
X158394180Y-65039502D01*
X158504494Y-64980537D01*
X158601185Y-64901185D01*
X158680537Y-64804494D01*
X158739502Y-64694180D01*
X158775812Y-64574482D01*
X158788072Y-64450000D01*
X158788072Y-60050000D01*
X158775812Y-59925518D01*
X158739502Y-59805820D01*
X158680537Y-59695506D01*
X158601185Y-59598815D01*
X158504494Y-59519463D01*
X158394180Y-59460498D01*
X158274482Y-59424188D01*
X158150000Y-59411928D01*
X156350000Y-59411928D01*
X156225518Y-59424188D01*
X156105820Y-59460498D01*
X155995506Y-59519463D01*
X155898815Y-59598815D01*
X155819463Y-59695506D01*
X155760498Y-59805820D01*
X155724188Y-59925518D01*
X155711928Y-60050000D01*
X152518502Y-60050000D01*
X152445606Y-59974790D01*
X152197204Y-59803138D01*
X151920087Y-59683245D01*
X151814740Y-59658964D01*
X151577000Y-59779622D01*
X151323000Y-59779622D01*
X151085260Y-59658964D01*
X150979913Y-59683245D01*
X150702796Y-59803138D01*
X150454394Y-59974790D01*
X150244252Y-60191604D01*
X150080446Y-60445249D01*
X149969271Y-60725977D01*
X149915000Y-61023000D01*
X143685000Y-61023000D01*
X143685000Y-57685000D01*
X177873000Y-57685000D01*
X177873000Y-82250000D01*
X177875440Y-82274776D01*
X177882667Y-82298601D01*
X177894403Y-82320557D01*
X177910197Y-82339803D01*
X177929443Y-82355597D01*
X177951399Y-82367333D01*
X177975224Y-82374560D01*
X178000000Y-82377000D01*
X181305000Y-82377000D01*
X181305000Y-82458207D01*
X181322147Y-82632300D01*
X181389906Y-82855674D01*
X181499943Y-83061536D01*
X181648026Y-83241975D01*
X181828465Y-83390058D01*
X182015443Y-83490000D01*
X176564802Y-83490000D01*
X176010000Y-82935199D01*
X176010000Y-72287333D01*
X176013677Y-72250000D01*
X175999003Y-72101014D01*
X175955546Y-71957753D01*
X175884974Y-71825724D01*
X175819173Y-71745545D01*
X175790001Y-71709999D01*
X175761004Y-71686202D01*
X172060000Y-67985199D01*
X172060000Y-66453711D01*
X172103937Y-66409774D01*
X172217205Y-66240256D01*
X172295226Y-66051898D01*
X172335000Y-65851939D01*
X172335000Y-65648061D01*
X172295226Y-65448102D01*
X172217205Y-65259744D01*
X172103937Y-65090226D01*
X171959774Y-64946063D01*
X171790256Y-64832795D01*
X171601898Y-64754774D01*
X171401939Y-64715000D01*
X171198061Y-64715000D01*
X170998102Y-64754774D01*
X170809744Y-64832795D01*
X170640226Y-64946063D01*
X170496063Y-65090226D01*
X170382795Y-65259744D01*
X170304774Y-65448102D01*
X170265000Y-65648061D01*
X170265000Y-65851939D01*
X170304774Y-66051898D01*
X170382795Y-66240256D01*
X170496063Y-66409774D01*
X170540000Y-66453711D01*
X170540001Y-68262668D01*
X170536324Y-68300000D01*
X170550998Y-68448985D01*
X170594454Y-68592246D01*
X170665026Y-68724276D01*
X170736201Y-68811002D01*
X170760000Y-68840001D01*
X170788998Y-68863799D01*
X174490000Y-72564802D01*
X174490001Y-83212668D01*
X174486324Y-83250000D01*
X174500998Y-83398985D01*
X174544454Y-83542246D01*
X174615026Y-83674276D01*
X174668142Y-83738997D01*
X174710000Y-83790001D01*
X174738998Y-83813799D01*
X175686201Y-84761003D01*
X175709999Y-84790001D01*
X175738997Y-84813799D01*
X175825724Y-84884974D01*
X175957753Y-84955546D01*
X176101014Y-84999003D01*
X176250000Y-85013677D01*
X176287333Y-85010000D01*
X184296289Y-85010000D01*
X184340226Y-85053937D01*
X184509744Y-85167205D01*
X184698102Y-85245226D01*
X184898061Y-85285000D01*
X185101939Y-85285000D01*
X185301898Y-85245226D01*
X185490256Y-85167205D01*
X185659774Y-85053937D01*
X185803937Y-84909774D01*
X185917205Y-84740256D01*
X185995226Y-84551898D01*
X186035000Y-84351939D01*
X186035000Y-84148061D01*
X185995226Y-83948102D01*
X185917205Y-83759744D01*
X185803937Y-83590226D01*
X185659774Y-83446063D01*
X185490256Y-83332795D01*
X185311522Y-83258760D01*
X185331975Y-83241975D01*
X185480058Y-83061536D01*
X185490000Y-83042935D01*
X185499943Y-83061536D01*
X185648026Y-83241975D01*
X185828465Y-83390058D01*
X186034327Y-83500094D01*
X186257701Y-83567853D01*
X186490000Y-83590733D01*
X186722300Y-83567853D01*
X186945674Y-83500094D01*
X187151536Y-83390058D01*
X187331975Y-83241975D01*
X187480058Y-83061536D01*
X187490000Y-83042935D01*
X187499943Y-83061536D01*
X187648026Y-83241975D01*
X187828465Y-83390058D01*
X188034327Y-83500094D01*
X188257701Y-83567853D01*
X188490000Y-83590733D01*
X188722300Y-83567853D01*
X188945674Y-83500094D01*
X189151536Y-83390058D01*
X189331975Y-83241975D01*
X189480058Y-83061536D01*
X189490000Y-83042935D01*
X189499943Y-83061536D01*
X189648026Y-83241975D01*
X189828465Y-83390058D01*
X190034327Y-83500094D01*
X190257701Y-83567853D01*
X190490000Y-83590733D01*
X190722300Y-83567853D01*
X190945674Y-83500094D01*
X191151536Y-83390058D01*
X191331975Y-83241975D01*
X191480058Y-83061536D01*
X191490000Y-83042935D01*
X191499943Y-83061536D01*
X191648026Y-83241975D01*
X191828465Y-83390058D01*
X192034327Y-83500094D01*
X192257701Y-83567853D01*
X192490000Y-83590733D01*
X192722300Y-83567853D01*
X192945674Y-83500094D01*
X193151536Y-83390058D01*
X193331975Y-83241975D01*
X193480058Y-83061536D01*
X193590094Y-82855674D01*
X193657853Y-82632300D01*
X193675000Y-82458207D01*
X193675000Y-81487252D01*
X195461190Y-83273443D01*
X195484989Y-83302442D01*
X195513987Y-83326240D01*
X195600713Y-83397415D01*
X195732743Y-83467987D01*
X195876004Y-83511444D01*
X195987657Y-83522441D01*
X195987667Y-83522441D01*
X196024990Y-83526117D01*
X196062313Y-83522441D01*
X201427640Y-83522441D01*
X201782108Y-83876909D01*
X201732601Y-83881785D01*
X201513941Y-83948115D01*
X201312422Y-84055829D01*
X201135789Y-84200788D01*
X200990830Y-84377421D01*
X200883115Y-84578940D01*
X200816785Y-84797600D01*
X200800000Y-84968021D01*
X200800000Y-85531978D01*
X200816785Y-85702399D01*
X200883115Y-85921059D01*
X200990829Y-86122578D01*
X201135788Y-86299212D01*
X201312421Y-86444171D01*
X201513940Y-86551885D01*
X201732600Y-86618215D01*
X201960000Y-86640612D01*
X202187399Y-86618215D01*
X202406059Y-86551885D01*
X202595000Y-86450894D01*
X202783940Y-86551885D01*
X203002600Y-86618215D01*
X203230000Y-86640612D01*
X203457399Y-86618215D01*
X203666098Y-86554907D01*
X203730820Y-86589502D01*
X203850518Y-86625812D01*
X203975000Y-86638072D01*
X204214250Y-86635000D01*
X204373000Y-86476250D01*
X204373000Y-85703109D01*
X204373215Y-85702400D01*
X204390000Y-85531979D01*
X204390000Y-84968022D01*
X204373215Y-84797601D01*
X204373000Y-84796892D01*
X204373000Y-84023750D01*
X204214250Y-83865000D01*
X203975000Y-83861928D01*
X203888861Y-83870412D01*
X203864974Y-83825723D01*
X203793799Y-83738997D01*
X203770001Y-83709999D01*
X203741003Y-83686201D01*
X202306245Y-82251444D01*
X202282442Y-82222440D01*
X202166717Y-82127467D01*
X202034688Y-82056895D01*
X201891427Y-82013438D01*
X201779774Y-82002441D01*
X201779763Y-82002441D01*
X201742441Y-81998765D01*
X201705119Y-82002441D01*
X196339792Y-82002441D01*
X195894241Y-81556890D01*
X202758524Y-81556890D01*
X202803175Y-81704099D01*
X202928359Y-81966920D01*
X203102412Y-82200269D01*
X203318645Y-82395178D01*
X203568748Y-82544157D01*
X203843109Y-82641481D01*
X204073000Y-82520814D01*
X204073000Y-81327000D01*
X202879845Y-81327000D01*
X202758524Y-81556890D01*
X195894241Y-81556890D01*
X195522351Y-81185000D01*
X196027000Y-81185000D01*
X196255742Y-81137454D01*
X196470813Y-81046196D01*
X196663948Y-80914734D01*
X196827725Y-80748119D01*
X196955850Y-80552754D01*
X197043399Y-80336147D01*
X197043803Y-80309744D01*
X196918361Y-80127000D01*
X195327000Y-80127000D01*
X195327000Y-80147000D01*
X195073000Y-80147000D01*
X195073000Y-80127000D01*
X195053000Y-80127000D01*
X195053000Y-79873000D01*
X195073000Y-79873000D01*
X195073000Y-79853000D01*
X195327000Y-79853000D01*
X195327000Y-79873000D01*
X196918361Y-79873000D01*
X197043803Y-79690256D01*
X197043399Y-79663853D01*
X196955850Y-79447246D01*
X196827725Y-79251881D01*
X196704971Y-79127000D01*
X197000000Y-79127000D01*
X197024776Y-79124560D01*
X197048601Y-79117333D01*
X197070557Y-79105597D01*
X197089803Y-79089803D01*
X197105597Y-79070557D01*
X197117333Y-79048601D01*
X197124560Y-79024776D01*
X197127000Y-79000000D01*
X197127000Y-71800000D01*
X198546289Y-71800000D01*
X198590226Y-71843937D01*
X198759744Y-71957205D01*
X198948102Y-72035226D01*
X199148061Y-72075000D01*
X199351939Y-72075000D01*
X199551898Y-72035226D01*
X199740256Y-71957205D01*
X199909774Y-71843937D01*
X200053937Y-71699774D01*
X200167205Y-71530256D01*
X200245226Y-71341898D01*
X200285000Y-71141939D01*
X200285000Y-70938061D01*
X200245226Y-70738102D01*
X200167205Y-70549744D01*
X200053937Y-70380226D01*
X199909774Y-70236063D01*
X199740256Y-70122795D01*
X199551898Y-70044774D01*
X199351939Y-70005000D01*
X199148061Y-70005000D01*
X198948102Y-70044774D01*
X198759744Y-70122795D01*
X198590226Y-70236063D01*
X198546289Y-70280000D01*
X197127000Y-70280000D01*
X197127000Y-59818942D01*
X197194559Y-59885047D01*
X197386136Y-60010063D01*
X197619190Y-60093964D01*
X197798000Y-59968163D01*
X197798000Y-58677000D01*
X198052000Y-58677000D01*
X198052000Y-59968163D01*
X198230810Y-60093964D01*
X198463864Y-60010063D01*
X198655441Y-59885047D01*
X198818947Y-59725059D01*
X198948099Y-59536246D01*
X199037934Y-59325865D01*
X199085000Y-59102000D01*
X199085000Y-58677000D01*
X203915000Y-58677000D01*
X203915000Y-59102000D01*
X203962066Y-59325865D01*
X204051901Y-59536246D01*
X204181053Y-59725059D01*
X204344559Y-59885047D01*
X204536136Y-60010063D01*
X204769190Y-60093964D01*
X204948000Y-59968163D01*
X204948000Y-58677000D01*
X203915000Y-58677000D01*
X199085000Y-58677000D01*
X198052000Y-58677000D01*
X197798000Y-58677000D01*
X197778000Y-58677000D01*
X197778000Y-58423000D01*
X197798000Y-58423000D01*
X197798000Y-58403000D01*
X198052000Y-58403000D01*
X198052000Y-58423000D01*
X199085000Y-58423000D01*
X199085000Y-57998000D01*
X199037934Y-57774135D01*
X198989197Y-57660000D01*
X204010803Y-57660000D01*
X203962066Y-57774135D01*
G37*
X203962066Y-57774135D02*
X203915000Y-57998000D01*
X203915000Y-58423000D01*
X204948000Y-58423000D01*
X204948000Y-58403000D01*
X205202000Y-58403000D01*
X205202000Y-58423000D01*
X205222000Y-58423000D01*
X205222000Y-58677000D01*
X205202000Y-58677000D01*
X205202000Y-59968163D01*
X205380810Y-60093964D01*
X205565000Y-60027654D01*
X205565000Y-67276574D01*
X205501185Y-67198815D01*
X205404494Y-67119463D01*
X205294180Y-67060498D01*
X205174482Y-67024188D01*
X205050000Y-67011928D01*
X203350000Y-67011928D01*
X203225518Y-67024188D01*
X203105820Y-67060498D01*
X202995506Y-67119463D01*
X202898815Y-67198815D01*
X202819463Y-67295506D01*
X202760498Y-67405820D01*
X202724188Y-67525518D01*
X202711928Y-67650000D01*
X202711928Y-69350000D01*
X202724188Y-69474482D01*
X202760498Y-69594180D01*
X202819463Y-69704494D01*
X202898815Y-69801185D01*
X202995506Y-69880537D01*
X203105820Y-69939502D01*
X203178380Y-69961513D01*
X203046525Y-70093368D01*
X202884010Y-70336589D01*
X202772068Y-70606842D01*
X202715000Y-70893740D01*
X202715000Y-71186260D01*
X202772068Y-71473158D01*
X202884010Y-71743411D01*
X203046525Y-71986632D01*
X203253368Y-72193475D01*
X203427760Y-72310000D01*
X203253368Y-72426525D01*
X203046525Y-72633368D01*
X202884010Y-72876589D01*
X202772068Y-73146842D01*
X202715000Y-73433740D01*
X202715000Y-73726260D01*
X202772068Y-74013158D01*
X202884010Y-74283411D01*
X203046525Y-74526632D01*
X203253368Y-74733475D01*
X203427760Y-74850000D01*
X203253368Y-74966525D01*
X203046525Y-75173368D01*
X202884010Y-75416589D01*
X202772068Y-75686842D01*
X202715000Y-75973740D01*
X202715000Y-76266260D01*
X202772068Y-76553158D01*
X202884010Y-76823411D01*
X203046525Y-77066632D01*
X203253368Y-77273475D01*
X203427760Y-77390000D01*
X203253368Y-77506525D01*
X203046525Y-77713368D01*
X202884010Y-77956589D01*
X202772068Y-78226842D01*
X202715000Y-78513740D01*
X202715000Y-78806260D01*
X202772068Y-79093158D01*
X202884010Y-79363411D01*
X203046525Y-79606632D01*
X203253368Y-79813475D01*
X203435534Y-79935195D01*
X203318645Y-80004822D01*
X203102412Y-80199731D01*
X202928359Y-80433080D01*
X202803175Y-80695901D01*
X202758524Y-80843110D01*
X202879845Y-81073000D01*
X204073000Y-81073000D01*
X204073000Y-81053000D01*
X204327000Y-81053000D01*
X204327000Y-81073000D01*
X204347000Y-81073000D01*
X204347000Y-81327000D01*
X204327000Y-81327000D01*
X204327000Y-82520814D01*
X204556891Y-82641481D01*
X204831252Y-82544157D01*
X205081355Y-82395178D01*
X205297588Y-82200269D01*
X205471641Y-81966920D01*
X205565001Y-81770914D01*
X205565001Y-84163211D01*
X205555537Y-84145506D01*
X205476185Y-84048815D01*
X205379494Y-83969463D01*
X205269180Y-83910498D01*
X205149482Y-83874188D01*
X205025000Y-83861928D01*
X204785750Y-83865000D01*
X204627000Y-84023750D01*
X204627000Y-85123000D01*
X204647000Y-85123000D01*
X204647000Y-85377000D01*
X204627000Y-85377000D01*
X204627000Y-86476250D01*
X204785750Y-86635000D01*
X205025000Y-86638072D01*
X205149482Y-86625812D01*
X205269180Y-86589502D01*
X205379494Y-86530537D01*
X205476185Y-86451185D01*
X205555537Y-86354494D01*
X205565001Y-86336789D01*
X205565001Y-89943740D01*
X205474494Y-89869463D01*
X205364180Y-89810498D01*
X205244482Y-89774188D01*
X205120000Y-89761928D01*
X204535750Y-89765000D01*
X204377000Y-89923750D01*
X204377000Y-91373000D01*
X204397000Y-91373000D01*
X204397000Y-91627000D01*
X204377000Y-91627000D01*
X204377000Y-91647000D01*
X204123000Y-91647000D01*
X204123000Y-91627000D01*
X204103000Y-91627000D01*
X204103000Y-91373000D01*
X204123000Y-91373000D01*
X204123000Y-89923750D01*
X203964250Y-89765000D01*
X203380000Y-89761928D01*
X203255518Y-89774188D01*
X203135820Y-89810498D01*
X203025506Y-89869463D01*
X202928815Y-89948815D01*
X202849463Y-90045506D01*
X202790498Y-90155820D01*
X202777385Y-90199047D01*
X202550179Y-90012583D01*
X202288725Y-89872834D01*
X202005032Y-89786776D01*
X201710000Y-89757718D01*
X201414969Y-89786776D01*
X201131276Y-89872834D01*
X200869822Y-90012583D01*
X200640655Y-90200655D01*
X200452583Y-90429821D01*
X200440000Y-90453362D01*
X200427417Y-90429821D01*
X200239345Y-90200655D01*
X200010179Y-90012583D01*
X199748725Y-89872834D01*
X199465032Y-89786776D01*
X199170000Y-89757718D01*
X198874969Y-89786776D01*
X198591276Y-89872834D01*
X198329822Y-90012583D01*
X198100655Y-90200655D01*
X197912583Y-90429821D01*
X197772834Y-90691275D01*
X197686776Y-90974968D01*
X197665000Y-91196064D01*
X197665000Y-91803935D01*
X197686776Y-92025031D01*
X197772834Y-92308724D01*
X197912583Y-92570178D01*
X197981295Y-92653904D01*
X197761967Y-92873232D01*
X195037603Y-92873164D01*
X195236038Y-92674729D01*
X195480631Y-92308669D01*
X195649110Y-91901925D01*
X195735000Y-91470128D01*
X195735000Y-91029872D01*
X195649110Y-90598075D01*
X195480631Y-90191331D01*
X195236038Y-89825271D01*
X194924729Y-89513962D01*
X194558669Y-89269369D01*
X194151925Y-89100890D01*
X193720128Y-89015000D01*
X193279872Y-89015000D01*
X192848075Y-89100890D01*
X192441331Y-89269369D01*
X192075271Y-89513962D01*
X191763962Y-89825271D01*
X191519369Y-90191331D01*
X191350890Y-90598075D01*
X191265000Y-91029872D01*
X191265000Y-91470128D01*
X191350890Y-91901925D01*
X191519369Y-92308669D01*
X191763962Y-92674729D01*
X191962320Y-92873087D01*
X188694095Y-92873005D01*
X188709502Y-92844180D01*
X188745812Y-92724482D01*
X188758072Y-92600000D01*
X188755000Y-91785750D01*
X188596250Y-91627000D01*
X187377000Y-91627000D01*
X187377000Y-91647000D01*
X187123000Y-91647000D01*
X187123000Y-91627000D01*
X187103000Y-91627000D01*
X187103000Y-91373000D01*
X187123000Y-91373000D01*
X187123000Y-89923750D01*
X187377000Y-89923750D01*
X187377000Y-91373000D01*
X188596250Y-91373000D01*
X188755000Y-91214250D01*
X188758072Y-90400000D01*
X188745812Y-90275518D01*
X188709502Y-90155820D01*
X188650537Y-90045506D01*
X188571185Y-89948815D01*
X188474494Y-89869463D01*
X188364180Y-89810498D01*
X188244482Y-89774188D01*
X188120000Y-89761928D01*
X187535750Y-89765000D01*
X187377000Y-89923750D01*
X187123000Y-89923750D01*
X186964250Y-89765000D01*
X186380000Y-89761928D01*
X186255518Y-89774188D01*
X186135820Y-89810498D01*
X186025506Y-89869463D01*
X185928815Y-89948815D01*
X185849463Y-90045506D01*
X185790498Y-90155820D01*
X185777385Y-90199047D01*
X185550179Y-90012583D01*
X185288725Y-89872834D01*
X185005032Y-89786776D01*
X184710000Y-89757718D01*
X184414969Y-89786776D01*
X184131276Y-89872834D01*
X183869822Y-90012583D01*
X183640655Y-90200655D01*
X183452583Y-90429821D01*
X183440000Y-90453362D01*
X183427417Y-90429821D01*
X183239345Y-90200655D01*
X183010179Y-90012583D01*
X182748725Y-89872834D01*
X182465032Y-89786776D01*
X182170000Y-89757718D01*
X181874969Y-89786776D01*
X181591276Y-89872834D01*
X181329822Y-90012583D01*
X181100655Y-90200655D01*
X180912583Y-90429821D01*
X180900000Y-90453362D01*
X180887417Y-90429821D01*
X180699345Y-90200655D01*
X180470179Y-90012583D01*
X180208725Y-89872834D01*
X179925032Y-89786776D01*
X179630000Y-89757718D01*
X179334969Y-89786776D01*
X179051276Y-89872834D01*
X178789822Y-90012583D01*
X178560655Y-90200655D01*
X178372583Y-90429821D01*
X178232834Y-90691275D01*
X178146776Y-90974968D01*
X178125000Y-91196064D01*
X178125000Y-91803935D01*
X178146776Y-92025031D01*
X178182472Y-92142703D01*
X178179444Y-92144321D01*
X178160199Y-92160115D01*
X178144404Y-92179360D01*
X178132668Y-92201316D01*
X178125441Y-92225141D01*
X178123000Y-92249919D01*
X178123000Y-93740000D01*
X171814802Y-93740000D01*
X168535000Y-90460199D01*
X168535000Y-90398061D01*
X168495226Y-90198102D01*
X168417205Y-90009744D01*
X168303937Y-89840226D01*
X168159774Y-89696063D01*
X167990256Y-89582795D01*
X167801898Y-89504774D01*
X167601939Y-89465000D01*
X167398061Y-89465000D01*
X167198102Y-89504774D01*
X167009744Y-89582795D01*
X166840226Y-89696063D01*
X166696063Y-89840226D01*
X166582795Y-90009744D01*
X166504774Y-90198102D01*
X166465000Y-90398061D01*
X166465000Y-90601939D01*
X166504774Y-90801898D01*
X166582795Y-90990256D01*
X166696063Y-91159774D01*
X166840226Y-91303937D01*
X167009744Y-91417205D01*
X167198102Y-91495226D01*
X167398061Y-91535000D01*
X167460199Y-91535000D01*
X170048198Y-94123000D01*
X143685000Y-94123000D01*
X143685000Y-88059419D01*
X144565000Y-88059419D01*
X144565000Y-88440581D01*
X144639361Y-88814419D01*
X144785225Y-89166566D01*
X144996987Y-89483491D01*
X145266509Y-89753013D01*
X145583434Y-89964775D01*
X145935581Y-90110639D01*
X146309419Y-90185000D01*
X146690581Y-90185000D01*
X147064419Y-90110639D01*
X147416566Y-89964775D01*
X147733491Y-89753013D01*
X148003013Y-89483491D01*
X148214775Y-89166566D01*
X148360639Y-88814419D01*
X148435000Y-88440581D01*
X148435000Y-88059419D01*
X149565000Y-88059419D01*
X149565000Y-88440581D01*
X149639361Y-88814419D01*
X149785225Y-89166566D01*
X149996987Y-89483491D01*
X150266509Y-89753013D01*
X150583434Y-89964775D01*
X150935581Y-90110639D01*
X151309419Y-90185000D01*
X151690581Y-90185000D01*
X152064419Y-90110639D01*
X152416566Y-89964775D01*
X152733491Y-89753013D01*
X153003013Y-89483491D01*
X153214775Y-89166566D01*
X153360639Y-88814419D01*
X153435000Y-88440581D01*
X153435000Y-88059419D01*
X153360639Y-87685581D01*
X153214775Y-87333434D01*
X153003013Y-87016509D01*
X152733491Y-86746987D01*
X152416566Y-86535225D01*
X152064419Y-86389361D01*
X151690581Y-86315000D01*
X151309419Y-86315000D01*
X150935581Y-86389361D01*
X150583434Y-86535225D01*
X150266509Y-86746987D01*
X149996987Y-87016509D01*
X149785225Y-87333434D01*
X149639361Y-87685581D01*
X149565000Y-88059419D01*
X148435000Y-88059419D01*
X148360639Y-87685581D01*
X148214775Y-87333434D01*
X148003013Y-87016509D01*
X147733491Y-86746987D01*
X147416566Y-86535225D01*
X147064419Y-86389361D01*
X146690581Y-86315000D01*
X146309419Y-86315000D01*
X145935581Y-86389361D01*
X145583434Y-86535225D01*
X145266509Y-86746987D01*
X144996987Y-87016509D01*
X144785225Y-87333434D01*
X144639361Y-87685581D01*
X144565000Y-88059419D01*
X143685000Y-88059419D01*
X143685000Y-85742702D01*
X156686903Y-85742702D01*
X156758486Y-85986671D01*
X157013996Y-86107571D01*
X157288184Y-86176300D01*
X157570512Y-86190217D01*
X157850130Y-86148787D01*
X158116292Y-86053603D01*
X158241514Y-85986671D01*
X158313097Y-85742702D01*
X157500000Y-84929605D01*
X156686903Y-85742702D01*
X143685000Y-85742702D01*
X143685000Y-84820512D01*
X156059783Y-84820512D01*
X156101213Y-85100130D01*
X156196397Y-85366292D01*
X156263329Y-85491514D01*
X156507298Y-85563097D01*
X157320395Y-84750000D01*
X157679605Y-84750000D01*
X158492702Y-85563097D01*
X158736671Y-85491514D01*
X158857571Y-85236004D01*
X158926300Y-84961816D01*
X158940217Y-84679488D01*
X158898787Y-84399870D01*
X158803603Y-84133708D01*
X158736671Y-84008486D01*
X158492702Y-83936903D01*
X157679605Y-84750000D01*
X157320395Y-84750000D01*
X156507298Y-83936903D01*
X156263329Y-84008486D01*
X156142429Y-84263996D01*
X156073700Y-84538184D01*
X156059783Y-84820512D01*
X143685000Y-84820512D01*
X143685000Y-83757298D01*
X156686903Y-83757298D01*
X157500000Y-84570395D01*
X158313097Y-83757298D01*
X158241514Y-83513329D01*
X157986004Y-83392429D01*
X157711816Y-83323700D01*
X157429488Y-83309783D01*
X157149870Y-83351213D01*
X156883708Y-83446397D01*
X156758486Y-83513329D01*
X156686903Y-83757298D01*
X143685000Y-83757298D01*
X143685000Y-81108665D01*
X156065000Y-81108665D01*
X156065000Y-81391335D01*
X156120147Y-81668574D01*
X156228320Y-81929727D01*
X156385363Y-82164759D01*
X156585241Y-82364637D01*
X156820273Y-82521680D01*
X157081426Y-82629853D01*
X157358665Y-82685000D01*
X157641335Y-82685000D01*
X157918574Y-82629853D01*
X158179727Y-82521680D01*
X158414759Y-82364637D01*
X158614637Y-82164759D01*
X158771680Y-81929727D01*
X158879853Y-81668574D01*
X158935000Y-81391335D01*
X158935000Y-81108665D01*
X158879853Y-80831426D01*
X158771680Y-80570273D01*
X158614637Y-80335241D01*
X158414759Y-80135363D01*
X158179727Y-79978320D01*
X157918574Y-79870147D01*
X157641335Y-79815000D01*
X157358665Y-79815000D01*
X157081426Y-79870147D01*
X156820273Y-79978320D01*
X156585241Y-80135363D01*
X156385363Y-80335241D01*
X156228320Y-80570273D01*
X156120147Y-80831426D01*
X156065000Y-81108665D01*
X143685000Y-81108665D01*
X143685000Y-77350000D01*
X144224428Y-77350000D01*
X144224428Y-79150000D01*
X144236688Y-79274482D01*
X144272998Y-79394180D01*
X144331963Y-79504494D01*
X144411315Y-79601185D01*
X144508006Y-79680537D01*
X144618320Y-79739502D01*
X144738018Y-79775812D01*
X144862500Y-79788072D01*
X146137500Y-79788072D01*
X146261982Y-79775812D01*
X146381680Y-79739502D01*
X146491994Y-79680537D01*
X146568443Y-79617797D01*
X146710680Y-79693825D01*
X146950547Y-79766588D01*
X147200000Y-79791157D01*
X147449454Y-79766588D01*
X147689321Y-79693825D01*
X147910384Y-79575664D01*
X148049392Y-79461583D01*
X148090009Y-79502095D01*
X148298633Y-79641102D01*
X148530367Y-79736737D01*
X148576495Y-79743191D01*
X148773000Y-79618985D01*
X148773000Y-78377000D01*
X148753000Y-78377000D01*
X148753000Y-78123000D01*
X148773000Y-78123000D01*
X148773000Y-76881015D01*
X149027000Y-76881015D01*
X149027000Y-78123000D01*
X149047000Y-78123000D01*
X149047000Y-78377000D01*
X149027000Y-78377000D01*
X149027000Y-79618985D01*
X149223505Y-79743191D01*
X149269633Y-79736737D01*
X149501367Y-79641102D01*
X149709991Y-79502095D01*
X149750609Y-79461583D01*
X149889617Y-79575664D01*
X150110680Y-79693825D01*
X150350547Y-79766588D01*
X150600000Y-79791157D01*
X150849454Y-79766588D01*
X151089321Y-79693825D01*
X151310384Y-79575664D01*
X151450001Y-79461084D01*
X151589617Y-79575664D01*
X151810680Y-79693825D01*
X152050547Y-79766588D01*
X152300000Y-79791157D01*
X152549454Y-79766588D01*
X152789321Y-79693825D01*
X153010384Y-79575664D01*
X153204147Y-79416647D01*
X153363164Y-79222884D01*
X153481325Y-79001820D01*
X153554088Y-78761953D01*
X153572500Y-78575012D01*
X153572500Y-77924987D01*
X153554088Y-77738046D01*
X153481325Y-77498179D01*
X153363164Y-77277116D01*
X153204147Y-77083353D01*
X153010383Y-76924336D01*
X152789320Y-76806175D01*
X152549453Y-76733412D01*
X152300000Y-76708843D01*
X152050546Y-76733412D01*
X151810679Y-76806175D01*
X151589616Y-76924336D01*
X151450000Y-77038916D01*
X151310383Y-76924336D01*
X151089320Y-76806175D01*
X150849453Y-76733412D01*
X150600000Y-76708843D01*
X150350546Y-76733412D01*
X150110679Y-76806175D01*
X149889616Y-76924336D01*
X149750608Y-77038417D01*
X149709991Y-76997905D01*
X149501367Y-76858898D01*
X149269633Y-76763263D01*
X149223505Y-76756809D01*
X149027000Y-76881015D01*
X148773000Y-76881015D01*
X148576495Y-76756809D01*
X148530367Y-76763263D01*
X148298633Y-76858898D01*
X148090009Y-76997905D01*
X148049392Y-77038417D01*
X147910383Y-76924336D01*
X147689320Y-76806175D01*
X147449453Y-76733412D01*
X147200000Y-76708843D01*
X146950546Y-76733412D01*
X146710679Y-76806175D01*
X146568442Y-76882202D01*
X146491994Y-76819463D01*
X146381680Y-76760498D01*
X146261982Y-76724188D01*
X146137500Y-76711928D01*
X144862500Y-76711928D01*
X144738018Y-76724188D01*
X144618320Y-76760498D01*
X144508006Y-76819463D01*
X144411315Y-76898815D01*
X144331963Y-76995506D01*
X144272998Y-77105820D01*
X144236688Y-77225518D01*
X144224428Y-77350000D01*
X143685000Y-77350000D01*
X143685000Y-75529872D01*
X168765000Y-75529872D01*
X168765000Y-75970128D01*
X168850890Y-76401925D01*
X169019369Y-76808669D01*
X169263962Y-77174729D01*
X169575271Y-77486038D01*
X169941331Y-77730631D01*
X170348075Y-77899110D01*
X170779872Y-77985000D01*
X171220128Y-77985000D01*
X171651925Y-77899110D01*
X172058669Y-77730631D01*
X172424729Y-77486038D01*
X172736038Y-77174729D01*
X172980631Y-76808669D01*
X173149110Y-76401925D01*
X173235000Y-75970128D01*
X173235000Y-75529872D01*
X173149110Y-75098075D01*
X172980631Y-74691331D01*
X172736038Y-74325271D01*
X172424729Y-74013962D01*
X172058669Y-73769369D01*
X171651925Y-73600890D01*
X171220128Y-73515000D01*
X170779872Y-73515000D01*
X170348075Y-73600890D01*
X169941331Y-73769369D01*
X169575271Y-74013962D01*
X169263962Y-74325271D01*
X169019369Y-74691331D01*
X168850890Y-75098075D01*
X168765000Y-75529872D01*
X143685000Y-75529872D01*
X143685000Y-70858665D01*
X144315000Y-70858665D01*
X144315000Y-71141335D01*
X144370147Y-71418574D01*
X144478320Y-71679727D01*
X144635363Y-71914759D01*
X144835241Y-72114637D01*
X145070273Y-72271680D01*
X145331426Y-72379853D01*
X145608665Y-72435000D01*
X145891335Y-72435000D01*
X146168574Y-72379853D01*
X146429727Y-72271680D01*
X146664759Y-72114637D01*
X146786694Y-71992702D01*
X147436903Y-71992702D01*
X147508486Y-72236671D01*
X147763996Y-72357571D01*
X148038184Y-72426300D01*
X148320512Y-72440217D01*
X148600130Y-72398787D01*
X148866292Y-72303603D01*
X148991514Y-72236671D01*
X149063097Y-71992702D01*
X148250000Y-71179605D01*
X147436903Y-71992702D01*
X146786694Y-71992702D01*
X146864637Y-71914759D01*
X146998692Y-71714131D01*
X147013329Y-71741514D01*
X147257298Y-71813097D01*
X148070395Y-71000000D01*
X148429605Y-71000000D01*
X149242702Y-71813097D01*
X149486671Y-71741514D01*
X149607571Y-71486004D01*
X149676300Y-71211816D01*
X149690217Y-70929488D01*
X149660660Y-70730000D01*
X156766928Y-70730000D01*
X156766928Y-72230000D01*
X156779188Y-72354482D01*
X156815498Y-72474180D01*
X156874463Y-72584494D01*
X156953815Y-72681185D01*
X157050506Y-72760537D01*
X157160820Y-72819502D01*
X157280518Y-72855812D01*
X157405000Y-72868072D01*
X158455000Y-72868072D01*
X158579482Y-72855812D01*
X158699180Y-72819502D01*
X158763902Y-72784907D01*
X158972601Y-72848215D01*
X159200000Y-72870612D01*
X159427400Y-72848215D01*
X159646060Y-72781885D01*
X159834669Y-72681071D01*
X159893118Y-72722275D01*
X160102663Y-72815272D01*
X160164190Y-72823964D01*
X160343000Y-72698163D01*
X160343000Y-71933108D01*
X160343215Y-71932399D01*
X160360000Y-71761978D01*
X160360000Y-71607000D01*
X160597000Y-71607000D01*
X160597000Y-72698163D01*
X160775810Y-72823964D01*
X160837337Y-72815272D01*
X161046882Y-72722275D01*
X161234258Y-72590184D01*
X161392264Y-72424076D01*
X161514828Y-72230334D01*
X161597239Y-72016404D01*
X161636331Y-71790507D01*
X161476598Y-71607000D01*
X160597000Y-71607000D01*
X160360000Y-71607000D01*
X160360000Y-71198021D01*
X160343215Y-71027600D01*
X160343000Y-71026891D01*
X160343000Y-70261837D01*
X160597000Y-70261837D01*
X160597000Y-71353000D01*
X161476598Y-71353000D01*
X161636331Y-71169493D01*
X161597239Y-70943596D01*
X161514828Y-70729666D01*
X161392264Y-70535924D01*
X161234258Y-70369816D01*
X161046882Y-70237725D01*
X160837337Y-70144728D01*
X160775810Y-70136036D01*
X160597000Y-70261837D01*
X160343000Y-70261837D01*
X160164190Y-70136036D01*
X160102663Y-70144728D01*
X159893118Y-70237725D01*
X159834669Y-70278929D01*
X159646059Y-70178115D01*
X159427399Y-70111785D01*
X159200000Y-70089388D01*
X158972600Y-70111785D01*
X158763902Y-70175093D01*
X158699180Y-70140498D01*
X158579482Y-70104188D01*
X158455000Y-70091928D01*
X157405000Y-70091928D01*
X157280518Y-70104188D01*
X157160820Y-70140498D01*
X157050506Y-70199463D01*
X156953815Y-70278815D01*
X156874463Y-70375506D01*
X156815498Y-70485820D01*
X156779188Y-70605518D01*
X156766928Y-70730000D01*
X149660660Y-70730000D01*
X149648787Y-70649870D01*
X149553603Y-70383708D01*
X149486671Y-70258486D01*
X149242702Y-70186903D01*
X148429605Y-71000000D01*
X148070395Y-71000000D01*
X147257298Y-70186903D01*
X147013329Y-70258486D01*
X146999676Y-70287341D01*
X146864637Y-70085241D01*
X146786694Y-70007298D01*
X147436903Y-70007298D01*
X148250000Y-70820395D01*
X149063097Y-70007298D01*
X148991514Y-69763329D01*
X148736004Y-69642429D01*
X148461816Y-69573700D01*
X148179488Y-69559783D01*
X147899870Y-69601213D01*
X147633708Y-69696397D01*
X147508486Y-69763329D01*
X147436903Y-70007298D01*
X146786694Y-70007298D01*
X146664759Y-69885363D01*
X146429727Y-69728320D01*
X146168574Y-69620147D01*
X145891335Y-69565000D01*
X145608665Y-69565000D01*
X145331426Y-69620147D01*
X145070273Y-69728320D01*
X144835241Y-69885363D01*
X144635363Y-70085241D01*
X144478320Y-70320273D01*
X144370147Y-70581426D01*
X144315000Y-70858665D01*
X143685000Y-70858665D01*
X143685000Y-67414740D01*
X151658964Y-67414740D01*
X151683245Y-67520087D01*
X151803138Y-67797204D01*
X151974790Y-68045606D01*
X152191604Y-68255748D01*
X152445249Y-68419554D01*
X152725977Y-68530729D01*
X153023000Y-68585000D01*
X154123000Y-68585000D01*
X154123000Y-67177000D01*
X154377000Y-67177000D01*
X154377000Y-68585000D01*
X155477000Y-68585000D01*
X155774023Y-68530729D01*
X156054751Y-68419554D01*
X156308396Y-68255748D01*
X156525210Y-68045606D01*
X156696862Y-67797204D01*
X156816755Y-67520087D01*
X156841036Y-67414740D01*
X156720378Y-67177000D01*
X154377000Y-67177000D01*
X154123000Y-67177000D01*
X151779622Y-67177000D01*
X151658964Y-67414740D01*
X143685000Y-67414740D01*
X143685000Y-66685260D01*
X151658964Y-66685260D01*
X151779622Y-66923000D01*
X154123000Y-66923000D01*
X154123000Y-65515000D01*
X154377000Y-65515000D01*
X154377000Y-66923000D01*
X156720378Y-66923000D01*
X156841036Y-66685260D01*
X156816755Y-66579913D01*
X156696862Y-66302796D01*
X156525210Y-66054394D01*
X156308396Y-65844252D01*
X156054751Y-65680446D01*
X155774023Y-65569271D01*
X155477000Y-65515000D01*
X154377000Y-65515000D01*
X154123000Y-65515000D01*
X153023000Y-65515000D01*
X152725977Y-65569271D01*
X152445249Y-65680446D01*
X152191604Y-65844252D01*
X151974790Y-66054394D01*
X151803138Y-66302796D01*
X151683245Y-66579913D01*
X151658964Y-66685260D01*
X143685000Y-66685260D01*
X143685000Y-62377000D01*
X149915000Y-62377000D01*
X149915000Y-63477000D01*
X149969271Y-63774023D01*
X150080446Y-64054751D01*
X150244252Y-64308396D01*
X150454394Y-64525210D01*
X150702796Y-64696862D01*
X150979913Y-64816755D01*
X151085260Y-64841036D01*
X151323000Y-64720378D01*
X151323000Y-62377000D01*
X151577000Y-62377000D01*
X151577000Y-64720378D01*
X151814740Y-64841036D01*
X151920087Y-64816755D01*
X152197204Y-64696862D01*
X152445606Y-64525210D01*
X152655748Y-64308396D01*
X152819554Y-64054751D01*
X152930729Y-63774023D01*
X152985000Y-63477000D01*
X152985000Y-62377000D01*
X151577000Y-62377000D01*
X151323000Y-62377000D01*
X149915000Y-62377000D01*
X143685000Y-62377000D01*
X143685000Y-61023000D01*
X149915000Y-61023000D01*
X149915000Y-62123000D01*
X151323000Y-62123000D01*
X151323000Y-59779622D01*
X151577000Y-59779622D01*
X151577000Y-62123000D01*
X152985000Y-62123000D01*
X152985000Y-61023000D01*
X152930729Y-60725977D01*
X152819554Y-60445249D01*
X152655748Y-60191604D01*
X152518502Y-60050000D01*
X155711928Y-60050000D01*
X155711928Y-64450000D01*
X155724188Y-64574482D01*
X155760498Y-64694180D01*
X155819463Y-64804494D01*
X155898815Y-64901185D01*
X155995506Y-64980537D01*
X156105820Y-65039502D01*
X156225518Y-65075812D01*
X156350000Y-65088072D01*
X158150000Y-65088072D01*
X158274482Y-65075812D01*
X158394180Y-65039502D01*
X158504494Y-64980537D01*
X158601185Y-64901185D01*
X158680537Y-64804494D01*
X158739502Y-64694180D01*
X158775812Y-64574482D01*
X158788072Y-64450000D01*
X158788072Y-60050000D01*
X158775812Y-59925518D01*
X158739502Y-59805820D01*
X158680537Y-59695506D01*
X158601185Y-59598815D01*
X158504494Y-59519463D01*
X158394180Y-59460498D01*
X158274482Y-59424188D01*
X158150000Y-59411928D01*
X156350000Y-59411928D01*
X156225518Y-59424188D01*
X156105820Y-59460498D01*
X155995506Y-59519463D01*
X155898815Y-59598815D01*
X155819463Y-59695506D01*
X155760498Y-59805820D01*
X155724188Y-59925518D01*
X155711928Y-60050000D01*
X152518502Y-60050000D01*
X152445606Y-59974790D01*
X152197204Y-59803138D01*
X151920087Y-59683245D01*
X151814740Y-59658964D01*
X151577000Y-59779622D01*
X151323000Y-59779622D01*
X151085260Y-59658964D01*
X150979913Y-59683245D01*
X150702796Y-59803138D01*
X150454394Y-59974790D01*
X150244252Y-60191604D01*
X150080446Y-60445249D01*
X149969271Y-60725977D01*
X149915000Y-61023000D01*
X143685000Y-61023000D01*
X143685000Y-57685000D01*
X177873000Y-57685000D01*
X177873000Y-82250000D01*
X177875440Y-82274776D01*
X177882667Y-82298601D01*
X177894403Y-82320557D01*
X177910197Y-82339803D01*
X177929443Y-82355597D01*
X177951399Y-82367333D01*
X177975224Y-82374560D01*
X178000000Y-82377000D01*
X181305000Y-82377000D01*
X181305000Y-82458207D01*
X181322147Y-82632300D01*
X181389906Y-82855674D01*
X181499943Y-83061536D01*
X181648026Y-83241975D01*
X181828465Y-83390058D01*
X182015443Y-83490000D01*
X176564802Y-83490000D01*
X176010000Y-82935199D01*
X176010000Y-72287333D01*
X176013677Y-72250000D01*
X175999003Y-72101014D01*
X175955546Y-71957753D01*
X175884974Y-71825724D01*
X175819173Y-71745545D01*
X175790001Y-71709999D01*
X175761004Y-71686202D01*
X172060000Y-67985199D01*
X172060000Y-66453711D01*
X172103937Y-66409774D01*
X172217205Y-66240256D01*
X172295226Y-66051898D01*
X172335000Y-65851939D01*
X172335000Y-65648061D01*
X172295226Y-65448102D01*
X172217205Y-65259744D01*
X172103937Y-65090226D01*
X171959774Y-64946063D01*
X171790256Y-64832795D01*
X171601898Y-64754774D01*
X171401939Y-64715000D01*
X171198061Y-64715000D01*
X170998102Y-64754774D01*
X170809744Y-64832795D01*
X170640226Y-64946063D01*
X170496063Y-65090226D01*
X170382795Y-65259744D01*
X170304774Y-65448102D01*
X170265000Y-65648061D01*
X170265000Y-65851939D01*
X170304774Y-66051898D01*
X170382795Y-66240256D01*
X170496063Y-66409774D01*
X170540000Y-66453711D01*
X170540001Y-68262668D01*
X170536324Y-68300000D01*
X170550998Y-68448985D01*
X170594454Y-68592246D01*
X170665026Y-68724276D01*
X170736201Y-68811002D01*
X170760000Y-68840001D01*
X170788998Y-68863799D01*
X174490000Y-72564802D01*
X174490001Y-83212668D01*
X174486324Y-83250000D01*
X174500998Y-83398985D01*
X174544454Y-83542246D01*
X174615026Y-83674276D01*
X174668142Y-83738997D01*
X174710000Y-83790001D01*
X174738998Y-83813799D01*
X175686201Y-84761003D01*
X175709999Y-84790001D01*
X175738997Y-84813799D01*
X175825724Y-84884974D01*
X175957753Y-84955546D01*
X176101014Y-84999003D01*
X176250000Y-85013677D01*
X176287333Y-85010000D01*
X184296289Y-85010000D01*
X184340226Y-85053937D01*
X184509744Y-85167205D01*
X184698102Y-85245226D01*
X184898061Y-85285000D01*
X185101939Y-85285000D01*
X185301898Y-85245226D01*
X185490256Y-85167205D01*
X185659774Y-85053937D01*
X185803937Y-84909774D01*
X185917205Y-84740256D01*
X185995226Y-84551898D01*
X186035000Y-84351939D01*
X186035000Y-84148061D01*
X185995226Y-83948102D01*
X185917205Y-83759744D01*
X185803937Y-83590226D01*
X185659774Y-83446063D01*
X185490256Y-83332795D01*
X185311522Y-83258760D01*
X185331975Y-83241975D01*
X185480058Y-83061536D01*
X185490000Y-83042935D01*
X185499943Y-83061536D01*
X185648026Y-83241975D01*
X185828465Y-83390058D01*
X186034327Y-83500094D01*
X186257701Y-83567853D01*
X186490000Y-83590733D01*
X186722300Y-83567853D01*
X186945674Y-83500094D01*
X187151536Y-83390058D01*
X187331975Y-83241975D01*
X187480058Y-83061536D01*
X187490000Y-83042935D01*
X187499943Y-83061536D01*
X187648026Y-83241975D01*
X187828465Y-83390058D01*
X188034327Y-83500094D01*
X188257701Y-83567853D01*
X188490000Y-83590733D01*
X188722300Y-83567853D01*
X188945674Y-83500094D01*
X189151536Y-83390058D01*
X189331975Y-83241975D01*
X189480058Y-83061536D01*
X189490000Y-83042935D01*
X189499943Y-83061536D01*
X189648026Y-83241975D01*
X189828465Y-83390058D01*
X190034327Y-83500094D01*
X190257701Y-83567853D01*
X190490000Y-83590733D01*
X190722300Y-83567853D01*
X190945674Y-83500094D01*
X191151536Y-83390058D01*
X191331975Y-83241975D01*
X191480058Y-83061536D01*
X191490000Y-83042935D01*
X191499943Y-83061536D01*
X191648026Y-83241975D01*
X191828465Y-83390058D01*
X192034327Y-83500094D01*
X192257701Y-83567853D01*
X192490000Y-83590733D01*
X192722300Y-83567853D01*
X192945674Y-83500094D01*
X193151536Y-83390058D01*
X193331975Y-83241975D01*
X193480058Y-83061536D01*
X193590094Y-82855674D01*
X193657853Y-82632300D01*
X193675000Y-82458207D01*
X193675000Y-81487252D01*
X195461190Y-83273443D01*
X195484989Y-83302442D01*
X195513987Y-83326240D01*
X195600713Y-83397415D01*
X195732743Y-83467987D01*
X195876004Y-83511444D01*
X195987657Y-83522441D01*
X195987667Y-83522441D01*
X196024990Y-83526117D01*
X196062313Y-83522441D01*
X201427640Y-83522441D01*
X201782108Y-83876909D01*
X201732601Y-83881785D01*
X201513941Y-83948115D01*
X201312422Y-84055829D01*
X201135789Y-84200788D01*
X200990830Y-84377421D01*
X200883115Y-84578940D01*
X200816785Y-84797600D01*
X200800000Y-84968021D01*
X200800000Y-85531978D01*
X200816785Y-85702399D01*
X200883115Y-85921059D01*
X200990829Y-86122578D01*
X201135788Y-86299212D01*
X201312421Y-86444171D01*
X201513940Y-86551885D01*
X201732600Y-86618215D01*
X201960000Y-86640612D01*
X202187399Y-86618215D01*
X202406059Y-86551885D01*
X202595000Y-86450894D01*
X202783940Y-86551885D01*
X203002600Y-86618215D01*
X203230000Y-86640612D01*
X203457399Y-86618215D01*
X203666098Y-86554907D01*
X203730820Y-86589502D01*
X203850518Y-86625812D01*
X203975000Y-86638072D01*
X204214250Y-86635000D01*
X204373000Y-86476250D01*
X204373000Y-85703109D01*
X204373215Y-85702400D01*
X204390000Y-85531979D01*
X204390000Y-84968022D01*
X204373215Y-84797601D01*
X204373000Y-84796892D01*
X204373000Y-84023750D01*
X204214250Y-83865000D01*
X203975000Y-83861928D01*
X203888861Y-83870412D01*
X203864974Y-83825723D01*
X203793799Y-83738997D01*
X203770001Y-83709999D01*
X203741003Y-83686201D01*
X202306245Y-82251444D01*
X202282442Y-82222440D01*
X202166717Y-82127467D01*
X202034688Y-82056895D01*
X201891427Y-82013438D01*
X201779774Y-82002441D01*
X201779763Y-82002441D01*
X201742441Y-81998765D01*
X201705119Y-82002441D01*
X196339792Y-82002441D01*
X195894241Y-81556890D01*
X202758524Y-81556890D01*
X202803175Y-81704099D01*
X202928359Y-81966920D01*
X203102412Y-82200269D01*
X203318645Y-82395178D01*
X203568748Y-82544157D01*
X203843109Y-82641481D01*
X204073000Y-82520814D01*
X204073000Y-81327000D01*
X202879845Y-81327000D01*
X202758524Y-81556890D01*
X195894241Y-81556890D01*
X195522351Y-81185000D01*
X196027000Y-81185000D01*
X196255742Y-81137454D01*
X196470813Y-81046196D01*
X196663948Y-80914734D01*
X196827725Y-80748119D01*
X196955850Y-80552754D01*
X197043399Y-80336147D01*
X197043803Y-80309744D01*
X196918361Y-80127000D01*
X195327000Y-80127000D01*
X195327000Y-80147000D01*
X195073000Y-80147000D01*
X195073000Y-80127000D01*
X195053000Y-80127000D01*
X195053000Y-79873000D01*
X195073000Y-79873000D01*
X195073000Y-79853000D01*
X195327000Y-79853000D01*
X195327000Y-79873000D01*
X196918361Y-79873000D01*
X197043803Y-79690256D01*
X197043399Y-79663853D01*
X196955850Y-79447246D01*
X196827725Y-79251881D01*
X196704971Y-79127000D01*
X197000000Y-79127000D01*
X197024776Y-79124560D01*
X197048601Y-79117333D01*
X197070557Y-79105597D01*
X197089803Y-79089803D01*
X197105597Y-79070557D01*
X197117333Y-79048601D01*
X197124560Y-79024776D01*
X197127000Y-79000000D01*
X197127000Y-71800000D01*
X198546289Y-71800000D01*
X198590226Y-71843937D01*
X198759744Y-71957205D01*
X198948102Y-72035226D01*
X199148061Y-72075000D01*
X199351939Y-72075000D01*
X199551898Y-72035226D01*
X199740256Y-71957205D01*
X199909774Y-71843937D01*
X200053937Y-71699774D01*
X200167205Y-71530256D01*
X200245226Y-71341898D01*
X200285000Y-71141939D01*
X200285000Y-70938061D01*
X200245226Y-70738102D01*
X200167205Y-70549744D01*
X200053937Y-70380226D01*
X199909774Y-70236063D01*
X199740256Y-70122795D01*
X199551898Y-70044774D01*
X199351939Y-70005000D01*
X199148061Y-70005000D01*
X198948102Y-70044774D01*
X198759744Y-70122795D01*
X198590226Y-70236063D01*
X198546289Y-70280000D01*
X197127000Y-70280000D01*
X197127000Y-59818942D01*
X197194559Y-59885047D01*
X197386136Y-60010063D01*
X197619190Y-60093964D01*
X197798000Y-59968163D01*
X197798000Y-58677000D01*
X198052000Y-58677000D01*
X198052000Y-59968163D01*
X198230810Y-60093964D01*
X198463864Y-60010063D01*
X198655441Y-59885047D01*
X198818947Y-59725059D01*
X198948099Y-59536246D01*
X199037934Y-59325865D01*
X199085000Y-59102000D01*
X199085000Y-58677000D01*
X203915000Y-58677000D01*
X203915000Y-59102000D01*
X203962066Y-59325865D01*
X204051901Y-59536246D01*
X204181053Y-59725059D01*
X204344559Y-59885047D01*
X204536136Y-60010063D01*
X204769190Y-60093964D01*
X204948000Y-59968163D01*
X204948000Y-58677000D01*
X203915000Y-58677000D01*
X199085000Y-58677000D01*
X198052000Y-58677000D01*
X197798000Y-58677000D01*
X197778000Y-58677000D01*
X197778000Y-58423000D01*
X197798000Y-58423000D01*
X197798000Y-58403000D01*
X198052000Y-58403000D01*
X198052000Y-58423000D01*
X199085000Y-58423000D01*
X199085000Y-57998000D01*
X199037934Y-57774135D01*
X198989197Y-57660000D01*
X204010803Y-57660000D01*
X203962066Y-57774135D01*
M02*
