G04 #@! TF.GenerationSoftware,KiCad,Pcbnew,(5.1.5)-3*
G04 #@! TF.CreationDate,2022-01-28T21:11:19+01:00*
G04 #@! TF.ProjectId,fanControl,66616e43-6f6e-4747-926f-6c2e6b696361,rev?*
G04 #@! TF.SameCoordinates,Original*
G04 #@! TF.FileFunction,Soldermask,Top*
G04 #@! TF.FilePolarity,Negative*
%FSLAX46Y46*%
G04 Gerber Fmt 4.6, Leading zero omitted, Abs format (unit mm)*
G04 Created by KiCad (PCBNEW (5.1.5)-3) date 2022-01-28 21:11:19*
%MOMM*%
%LPD*%
G04 APERTURE LIST*
%ADD10C,0.100000*%
G04 APERTURE END LIST*
D10*
G36*
X158951000Y-94551000D02*
G01*
X156549000Y-94551000D01*
X156549000Y-91949000D01*
X158951000Y-91949000D01*
X158951000Y-94551000D01*
G37*
G36*
X165151000Y-93601000D02*
G01*
X163049000Y-93601000D01*
X163049000Y-91999000D01*
X165151000Y-91999000D01*
X165151000Y-93601000D01*
G37*
G36*
X193875256Y-89641298D02*
G01*
X193981579Y-89662447D01*
X194139002Y-89727654D01*
X194229169Y-89765002D01*
X194282042Y-89786903D01*
X194552451Y-89967585D01*
X194782415Y-90197549D01*
X194963097Y-90467958D01*
X195087553Y-90768421D01*
X195094534Y-90803516D01*
X195149752Y-91081113D01*
X195151000Y-91087391D01*
X195151000Y-91412609D01*
X195087553Y-91731579D01*
X194999550Y-91944037D01*
X194976784Y-91999000D01*
X194963097Y-92032042D01*
X194782415Y-92302451D01*
X194552451Y-92532415D01*
X194282042Y-92713097D01*
X193981579Y-92837553D01*
X193913976Y-92851000D01*
X193662611Y-92901000D01*
X193337389Y-92901000D01*
X193086024Y-92851000D01*
X193018421Y-92837553D01*
X192717958Y-92713097D01*
X192447549Y-92532415D01*
X192217585Y-92302451D01*
X192036903Y-92032042D01*
X192023217Y-91999000D01*
X192000450Y-91944037D01*
X191912447Y-91731579D01*
X191849000Y-91412609D01*
X191849000Y-91087391D01*
X191850249Y-91081113D01*
X191905466Y-90803516D01*
X191912447Y-90768421D01*
X192036903Y-90467958D01*
X192217585Y-90197549D01*
X192447549Y-89967585D01*
X192717958Y-89786903D01*
X192770832Y-89765002D01*
X192860998Y-89727654D01*
X193018421Y-89662447D01*
X193124744Y-89641298D01*
X193337389Y-89599000D01*
X193662611Y-89599000D01*
X193875256Y-89641298D01*
G37*
G36*
X154460721Y-91770174D02*
G01*
X154560995Y-91811709D01*
X154560996Y-91811710D01*
X154651242Y-91872010D01*
X154727990Y-91948758D01*
X154733330Y-91956750D01*
X154788291Y-92039005D01*
X154829826Y-92139279D01*
X154851000Y-92245730D01*
X154851000Y-92354270D01*
X154829826Y-92460721D01*
X154788291Y-92560995D01*
X154762798Y-92599148D01*
X154727990Y-92651242D01*
X154651242Y-92727990D01*
X154605812Y-92758345D01*
X154560995Y-92788291D01*
X154460721Y-92829826D01*
X154354270Y-92851000D01*
X154245730Y-92851000D01*
X154139279Y-92829826D01*
X154039005Y-92788291D01*
X153994188Y-92758345D01*
X153948758Y-92727990D01*
X153872010Y-92651242D01*
X153837202Y-92599148D01*
X153811709Y-92560995D01*
X153770174Y-92460721D01*
X153749000Y-92354270D01*
X153749000Y-92245730D01*
X153770174Y-92139279D01*
X153811709Y-92039005D01*
X153866670Y-91956750D01*
X153872010Y-91948758D01*
X153948758Y-91872010D01*
X154039004Y-91811710D01*
X154039005Y-91811709D01*
X154139279Y-91770174D01*
X154245730Y-91749000D01*
X154354270Y-91749000D01*
X154460721Y-91770174D01*
G37*
G36*
X179810548Y-90362326D02*
G01*
X179984157Y-90414990D01*
X180144156Y-90500511D01*
X180158612Y-90512375D01*
X180284397Y-90615603D01*
X180363729Y-90712271D01*
X180399489Y-90755844D01*
X180485010Y-90915843D01*
X180537674Y-91089452D01*
X180537674Y-91089455D01*
X180551000Y-91224756D01*
X180551000Y-91775245D01*
X180546558Y-91820345D01*
X180537674Y-91910548D01*
X180485010Y-92084157D01*
X180399489Y-92244156D01*
X180376354Y-92272346D01*
X180284397Y-92384397D01*
X180144155Y-92499489D01*
X179984156Y-92585010D01*
X179810547Y-92637674D01*
X179630000Y-92655456D01*
X179449452Y-92637674D01*
X179275843Y-92585010D01*
X179115844Y-92499489D01*
X179056760Y-92451000D01*
X178975603Y-92384397D01*
X178860511Y-92244155D01*
X178774991Y-92084158D01*
X178761294Y-92039005D01*
X178722326Y-91910547D01*
X178712592Y-91811710D01*
X178709000Y-91775244D01*
X178709000Y-91224755D01*
X178722326Y-91089454D01*
X178722326Y-91089452D01*
X178774990Y-90915843D01*
X178860512Y-90755844D01*
X178870832Y-90743269D01*
X178975604Y-90615603D01*
X179101389Y-90512375D01*
X179115845Y-90500511D01*
X179275844Y-90414990D01*
X179449453Y-90362326D01*
X179630000Y-90344544D01*
X179810548Y-90362326D01*
G37*
G36*
X184890548Y-90362326D02*
G01*
X185064157Y-90414990D01*
X185224156Y-90500511D01*
X185238612Y-90512375D01*
X185364397Y-90615603D01*
X185443729Y-90712271D01*
X185479489Y-90755844D01*
X185565010Y-90915843D01*
X185617674Y-91089452D01*
X185617674Y-91089455D01*
X185631000Y-91224756D01*
X185631000Y-91775245D01*
X185626558Y-91820345D01*
X185617674Y-91910548D01*
X185565010Y-92084157D01*
X185479489Y-92244156D01*
X185456354Y-92272346D01*
X185364397Y-92384397D01*
X185224155Y-92499489D01*
X185064156Y-92585010D01*
X184890547Y-92637674D01*
X184710000Y-92655456D01*
X184529452Y-92637674D01*
X184355843Y-92585010D01*
X184195844Y-92499489D01*
X184136760Y-92451000D01*
X184055603Y-92384397D01*
X183940511Y-92244155D01*
X183854991Y-92084158D01*
X183841294Y-92039005D01*
X183802326Y-91910547D01*
X183792592Y-91811710D01*
X183789000Y-91775244D01*
X183789000Y-91224755D01*
X183802326Y-91089454D01*
X183802326Y-91089452D01*
X183854990Y-90915843D01*
X183940512Y-90755844D01*
X183950832Y-90743269D01*
X184055604Y-90615603D01*
X184181389Y-90512375D01*
X184195845Y-90500511D01*
X184355844Y-90414990D01*
X184529453Y-90362326D01*
X184710000Y-90344544D01*
X184890548Y-90362326D01*
G37*
G36*
X182350548Y-90362326D02*
G01*
X182524157Y-90414990D01*
X182684156Y-90500511D01*
X182698612Y-90512375D01*
X182824397Y-90615603D01*
X182903729Y-90712271D01*
X182939489Y-90755844D01*
X183025010Y-90915843D01*
X183077674Y-91089452D01*
X183077674Y-91089455D01*
X183091000Y-91224756D01*
X183091000Y-91775245D01*
X183086558Y-91820345D01*
X183077674Y-91910548D01*
X183025010Y-92084157D01*
X182939489Y-92244156D01*
X182916354Y-92272346D01*
X182824397Y-92384397D01*
X182684155Y-92499489D01*
X182524156Y-92585010D01*
X182350547Y-92637674D01*
X182170000Y-92655456D01*
X181989452Y-92637674D01*
X181815843Y-92585010D01*
X181655844Y-92499489D01*
X181596760Y-92451000D01*
X181515603Y-92384397D01*
X181400511Y-92244155D01*
X181314991Y-92084158D01*
X181301294Y-92039005D01*
X181262326Y-91910547D01*
X181252592Y-91811710D01*
X181249000Y-91775244D01*
X181249000Y-91224755D01*
X181262326Y-91089454D01*
X181262326Y-91089452D01*
X181314990Y-90915843D01*
X181400512Y-90755844D01*
X181410832Y-90743269D01*
X181515604Y-90615603D01*
X181641389Y-90512375D01*
X181655845Y-90500511D01*
X181815844Y-90414990D01*
X181989453Y-90362326D01*
X182170000Y-90344544D01*
X182350548Y-90362326D01*
G37*
G36*
X201890548Y-90362326D02*
G01*
X202064157Y-90414990D01*
X202224156Y-90500511D01*
X202238612Y-90512375D01*
X202364397Y-90615603D01*
X202443729Y-90712271D01*
X202479489Y-90755844D01*
X202565010Y-90915843D01*
X202617674Y-91089452D01*
X202617674Y-91089455D01*
X202631000Y-91224756D01*
X202631000Y-91775245D01*
X202626558Y-91820345D01*
X202617674Y-91910548D01*
X202565010Y-92084157D01*
X202479489Y-92244156D01*
X202456354Y-92272346D01*
X202364397Y-92384397D01*
X202224155Y-92499489D01*
X202064156Y-92585010D01*
X201890547Y-92637674D01*
X201710000Y-92655456D01*
X201529452Y-92637674D01*
X201355843Y-92585010D01*
X201195844Y-92499489D01*
X201136760Y-92451000D01*
X201055603Y-92384397D01*
X200940511Y-92244155D01*
X200854991Y-92084158D01*
X200841294Y-92039005D01*
X200802326Y-91910547D01*
X200792592Y-91811710D01*
X200789000Y-91775244D01*
X200789000Y-91224755D01*
X200802326Y-91089454D01*
X200802326Y-91089452D01*
X200854990Y-90915843D01*
X200940512Y-90755844D01*
X200950832Y-90743269D01*
X201055604Y-90615603D01*
X201181389Y-90512375D01*
X201195845Y-90500511D01*
X201355844Y-90414990D01*
X201529453Y-90362326D01*
X201710000Y-90344544D01*
X201890548Y-90362326D01*
G37*
G36*
X199350548Y-90362326D02*
G01*
X199524157Y-90414990D01*
X199684156Y-90500511D01*
X199698612Y-90512375D01*
X199824397Y-90615603D01*
X199903729Y-90712271D01*
X199939489Y-90755844D01*
X200025010Y-90915843D01*
X200077674Y-91089452D01*
X200077674Y-91089455D01*
X200091000Y-91224756D01*
X200091000Y-91775245D01*
X200086558Y-91820345D01*
X200077674Y-91910548D01*
X200025010Y-92084157D01*
X199939489Y-92244156D01*
X199916354Y-92272346D01*
X199824397Y-92384397D01*
X199684155Y-92499489D01*
X199524156Y-92585010D01*
X199350547Y-92637674D01*
X199170000Y-92655456D01*
X198989452Y-92637674D01*
X198815843Y-92585010D01*
X198655844Y-92499489D01*
X198596760Y-92451000D01*
X198515603Y-92384397D01*
X198400511Y-92244155D01*
X198314991Y-92084158D01*
X198301294Y-92039005D01*
X198262326Y-91910547D01*
X198252592Y-91811710D01*
X198249000Y-91775244D01*
X198249000Y-91224755D01*
X198262326Y-91089454D01*
X198262326Y-91089452D01*
X198314990Y-90915843D01*
X198400512Y-90755844D01*
X198410832Y-90743269D01*
X198515604Y-90615603D01*
X198641389Y-90512375D01*
X198655845Y-90500511D01*
X198815844Y-90414990D01*
X198989453Y-90362326D01*
X199170000Y-90344544D01*
X199350548Y-90362326D01*
G37*
G36*
X188029561Y-90352966D02*
G01*
X188062383Y-90362923D01*
X188092632Y-90379092D01*
X188119148Y-90400852D01*
X188140908Y-90427368D01*
X188157077Y-90457617D01*
X188167034Y-90490439D01*
X188171000Y-90530713D01*
X188171000Y-92469287D01*
X188167034Y-92509561D01*
X188157077Y-92542383D01*
X188140908Y-92572632D01*
X188119148Y-92599148D01*
X188092632Y-92620908D01*
X188062383Y-92637077D01*
X188029561Y-92647034D01*
X187989287Y-92651000D01*
X186510713Y-92651000D01*
X186470439Y-92647034D01*
X186437617Y-92637077D01*
X186407368Y-92620908D01*
X186380852Y-92599148D01*
X186359092Y-92572632D01*
X186342923Y-92542383D01*
X186332966Y-92509561D01*
X186329000Y-92469287D01*
X186329000Y-90530713D01*
X186332966Y-90490439D01*
X186342923Y-90457617D01*
X186359092Y-90427368D01*
X186380852Y-90400852D01*
X186407368Y-90379092D01*
X186437617Y-90362923D01*
X186470439Y-90352966D01*
X186510713Y-90349000D01*
X187989287Y-90349000D01*
X188029561Y-90352966D01*
G37*
G36*
X205029561Y-90352966D02*
G01*
X205062383Y-90362923D01*
X205092632Y-90379092D01*
X205119148Y-90400852D01*
X205140908Y-90427368D01*
X205157077Y-90457617D01*
X205167034Y-90490439D01*
X205171000Y-90530713D01*
X205171000Y-92469287D01*
X205167034Y-92509561D01*
X205157077Y-92542383D01*
X205140908Y-92572632D01*
X205119148Y-92599148D01*
X205092632Y-92620908D01*
X205062383Y-92637077D01*
X205029561Y-92647034D01*
X204989287Y-92651000D01*
X203510713Y-92651000D01*
X203470439Y-92647034D01*
X203437617Y-92637077D01*
X203407368Y-92620908D01*
X203380852Y-92599148D01*
X203359092Y-92572632D01*
X203342923Y-92542383D01*
X203332966Y-92509561D01*
X203329000Y-92469287D01*
X203329000Y-90530713D01*
X203332966Y-90490439D01*
X203342923Y-90457617D01*
X203359092Y-90427368D01*
X203380852Y-90400852D01*
X203407368Y-90379092D01*
X203437617Y-90362923D01*
X203470439Y-90352966D01*
X203510713Y-90349000D01*
X204989287Y-90349000D01*
X205029561Y-90352966D01*
G37*
G36*
X171451000Y-92451000D02*
G01*
X169349000Y-92451000D01*
X169349000Y-88549000D01*
X171451000Y-88549000D01*
X171451000Y-92451000D01*
G37*
G36*
X177259999Y-89724737D02*
G01*
X177269608Y-89727652D01*
X177278472Y-89732390D01*
X177286237Y-89738763D01*
X177292610Y-89746528D01*
X177297348Y-89755392D01*
X177300263Y-89765001D01*
X177301852Y-89781140D01*
X177301852Y-90768860D01*
X177300263Y-90784999D01*
X177297348Y-90794608D01*
X177292610Y-90803472D01*
X177286258Y-90811212D01*
X177286237Y-90811237D01*
X177278427Y-90817640D01*
X177278372Y-90817677D01*
X177268853Y-90825480D01*
X177268878Y-90825511D01*
X177255028Y-90836853D01*
X177239463Y-90855779D01*
X177227889Y-90877377D01*
X177220751Y-90900819D01*
X177218324Y-90925202D01*
X177220700Y-90949591D01*
X177227789Y-90973047D01*
X177239318Y-90994670D01*
X177254843Y-91013628D01*
X177273769Y-91029193D01*
X177276825Y-91031029D01*
X177278514Y-91032418D01*
X177278516Y-91032419D01*
X177284712Y-91037515D01*
X177286274Y-91038800D01*
X177292642Y-91046575D01*
X177295791Y-91052483D01*
X177297367Y-91055438D01*
X177300257Y-91065001D01*
X177300282Y-91065085D01*
X177301852Y-91081113D01*
X177301852Y-92218860D01*
X177300263Y-92234999D01*
X177297348Y-92244608D01*
X177292610Y-92253472D01*
X177286237Y-92261237D01*
X177278472Y-92267610D01*
X177269608Y-92272348D01*
X177259999Y-92275263D01*
X177243860Y-92276852D01*
X175756140Y-92276852D01*
X175740001Y-92275263D01*
X175730392Y-92272348D01*
X175721528Y-92267610D01*
X175713763Y-92261237D01*
X175707390Y-92253472D01*
X175702652Y-92244608D01*
X175699737Y-92234999D01*
X175698148Y-92218860D01*
X175698148Y-91081140D01*
X175699737Y-91065001D01*
X175702652Y-91055392D01*
X175707390Y-91046528D01*
X175713763Y-91038763D01*
X175726737Y-91028116D01*
X175735968Y-91021947D01*
X175753294Y-91004619D01*
X175766907Y-90984244D01*
X175776283Y-90961605D01*
X175781063Y-90937572D01*
X175781062Y-90913068D01*
X175776280Y-90889035D01*
X175766902Y-90866396D01*
X175753287Y-90846022D01*
X175735959Y-90828696D01*
X175726683Y-90821825D01*
X175713800Y-90811274D01*
X175712668Y-90809897D01*
X175707419Y-90803516D01*
X175702674Y-90794661D01*
X175701749Y-90791623D01*
X175699758Y-90785085D01*
X175699758Y-90785082D01*
X175699748Y-90785050D01*
X175698753Y-90775000D01*
X175698753Y-90774935D01*
X175698148Y-90768825D01*
X175698148Y-89781140D01*
X175699737Y-89765001D01*
X175702652Y-89755392D01*
X175707390Y-89746528D01*
X175713763Y-89738763D01*
X175721528Y-89732390D01*
X175730392Y-89727652D01*
X175740001Y-89724737D01*
X175756140Y-89723148D01*
X177243860Y-89723148D01*
X177259999Y-89724737D01*
G37*
G36*
X162334468Y-91153565D02*
G01*
X162373138Y-91165296D01*
X162408777Y-91184346D01*
X162440017Y-91209983D01*
X162465654Y-91241223D01*
X162484704Y-91276862D01*
X162496435Y-91315532D01*
X162501000Y-91361888D01*
X162501000Y-92013112D01*
X162496435Y-92059468D01*
X162484704Y-92098138D01*
X162465654Y-92133777D01*
X162440017Y-92165017D01*
X162408777Y-92190654D01*
X162373138Y-92209704D01*
X162334468Y-92221435D01*
X162288112Y-92226000D01*
X161211888Y-92226000D01*
X161165532Y-92221435D01*
X161126862Y-92209704D01*
X161091223Y-92190654D01*
X161059983Y-92165017D01*
X161034346Y-92133777D01*
X161015296Y-92098138D01*
X161003565Y-92059468D01*
X160999000Y-92013112D01*
X160999000Y-91361888D01*
X161003565Y-91315532D01*
X161015296Y-91276862D01*
X161034346Y-91241223D01*
X161059983Y-91209983D01*
X161091223Y-91184346D01*
X161126862Y-91165296D01*
X161165532Y-91153565D01*
X161211888Y-91149000D01*
X162288112Y-91149000D01*
X162334468Y-91153565D01*
G37*
G36*
X165151000Y-91301000D02*
G01*
X163049000Y-91301000D01*
X163049000Y-89699000D01*
X165151000Y-89699000D01*
X165151000Y-91301000D01*
G37*
G36*
X162334468Y-89278565D02*
G01*
X162373138Y-89290296D01*
X162408777Y-89309346D01*
X162440017Y-89334983D01*
X162465654Y-89366223D01*
X162484704Y-89401862D01*
X162496435Y-89440532D01*
X162501000Y-89486888D01*
X162501000Y-90138112D01*
X162496435Y-90184468D01*
X162484704Y-90223138D01*
X162465654Y-90258777D01*
X162440017Y-90290017D01*
X162408777Y-90315654D01*
X162373138Y-90334704D01*
X162334468Y-90346435D01*
X162288112Y-90351000D01*
X161211888Y-90351000D01*
X161165532Y-90346435D01*
X161126862Y-90334704D01*
X161091223Y-90315654D01*
X161059983Y-90290017D01*
X161034346Y-90258777D01*
X161015296Y-90223138D01*
X161003565Y-90184468D01*
X160999000Y-90138112D01*
X160999000Y-89486888D01*
X161003565Y-89440532D01*
X161015296Y-89401862D01*
X161034346Y-89366223D01*
X161059983Y-89334983D01*
X161091223Y-89309346D01*
X161126862Y-89290296D01*
X161165532Y-89278565D01*
X161211888Y-89274000D01*
X162288112Y-89274000D01*
X162334468Y-89278565D01*
G37*
G36*
X158951000Y-90251000D02*
G01*
X156549000Y-90251000D01*
X156549000Y-87649000D01*
X158951000Y-87649000D01*
X158951000Y-90251000D01*
G37*
G36*
X146894072Y-86950918D02*
G01*
X147050524Y-87015722D01*
X147139939Y-87052759D01*
X147251328Y-87127187D01*
X147361211Y-87200609D01*
X147549391Y-87388789D01*
X147574342Y-87426131D01*
X147695029Y-87606750D01*
X147697242Y-87610063D01*
X147799082Y-87855928D01*
X147844163Y-88082563D01*
X147851000Y-88116938D01*
X147851000Y-88383062D01*
X147799082Y-88644072D01*
X147697241Y-88889939D01*
X147549390Y-89111212D01*
X147361212Y-89299390D01*
X147139939Y-89447241D01*
X147139938Y-89447242D01*
X147139937Y-89447242D01*
X146894072Y-89549082D01*
X146633063Y-89601000D01*
X146366937Y-89601000D01*
X146105928Y-89549082D01*
X145860063Y-89447242D01*
X145860062Y-89447242D01*
X145860061Y-89447241D01*
X145638788Y-89299390D01*
X145450610Y-89111212D01*
X145302759Y-88889939D01*
X145200918Y-88644072D01*
X145149000Y-88383062D01*
X145149000Y-88116938D01*
X145155838Y-88082563D01*
X145200918Y-87855928D01*
X145302758Y-87610063D01*
X145304972Y-87606750D01*
X145425658Y-87426131D01*
X145450609Y-87388789D01*
X145638789Y-87200609D01*
X145748672Y-87127187D01*
X145860061Y-87052759D01*
X145949477Y-87015722D01*
X146105928Y-86950918D01*
X146366937Y-86899000D01*
X146633063Y-86899000D01*
X146894072Y-86950918D01*
G37*
G36*
X151894072Y-86950918D02*
G01*
X152050524Y-87015722D01*
X152139939Y-87052759D01*
X152251328Y-87127187D01*
X152361211Y-87200609D01*
X152549391Y-87388789D01*
X152574342Y-87426131D01*
X152695029Y-87606750D01*
X152697242Y-87610063D01*
X152799082Y-87855928D01*
X152844163Y-88082563D01*
X152851000Y-88116938D01*
X152851000Y-88383062D01*
X152799082Y-88644072D01*
X152697241Y-88889939D01*
X152549390Y-89111212D01*
X152361212Y-89299390D01*
X152139939Y-89447241D01*
X152139938Y-89447242D01*
X152139937Y-89447242D01*
X151894072Y-89549082D01*
X151633063Y-89601000D01*
X151366937Y-89601000D01*
X151105928Y-89549082D01*
X150860063Y-89447242D01*
X150860062Y-89447242D01*
X150860061Y-89447241D01*
X150638788Y-89299390D01*
X150450610Y-89111212D01*
X150302759Y-88889939D01*
X150200918Y-88644072D01*
X150149000Y-88383062D01*
X150149000Y-88116938D01*
X150155838Y-88082563D01*
X150200918Y-87855928D01*
X150302758Y-87610063D01*
X150304972Y-87606750D01*
X150425658Y-87426131D01*
X150450609Y-87388789D01*
X150638789Y-87200609D01*
X150748672Y-87127187D01*
X150860061Y-87052759D01*
X150949477Y-87015722D01*
X151105928Y-86950918D01*
X151366937Y-86899000D01*
X151633063Y-86899000D01*
X151894072Y-86950918D01*
G37*
G36*
X165151000Y-89001000D02*
G01*
X163049000Y-89001000D01*
X163049000Y-87399000D01*
X165151000Y-87399000D01*
X165151000Y-89001000D01*
G37*
G36*
X161718766Y-86778821D02*
G01*
X161855257Y-86835358D01*
X161978097Y-86917437D01*
X162082563Y-87021903D01*
X162164642Y-87144743D01*
X162221179Y-87281234D01*
X162250000Y-87426130D01*
X162250000Y-87573870D01*
X162221179Y-87718766D01*
X162164642Y-87855257D01*
X162082563Y-87978097D01*
X161978097Y-88082563D01*
X161855257Y-88164642D01*
X161718766Y-88221179D01*
X161573870Y-88250000D01*
X161426130Y-88250000D01*
X161281234Y-88221179D01*
X161144743Y-88164642D01*
X161021903Y-88082563D01*
X160917437Y-87978097D01*
X160835358Y-87855257D01*
X160778821Y-87718766D01*
X160750000Y-87573870D01*
X160750000Y-87426130D01*
X160778821Y-87281234D01*
X160835358Y-87144743D01*
X160917437Y-87021903D01*
X161021903Y-86917437D01*
X161144743Y-86835358D01*
X161281234Y-86778821D01*
X161426130Y-86750000D01*
X161573870Y-86750000D01*
X161718766Y-86778821D01*
G37*
G36*
X185976000Y-87901000D02*
G01*
X185074000Y-87901000D01*
X185074000Y-86899000D01*
X185976000Y-86899000D01*
X185976000Y-87901000D01*
G37*
G36*
X188984468Y-86803565D02*
G01*
X189023138Y-86815296D01*
X189058777Y-86834346D01*
X189090017Y-86859983D01*
X189115654Y-86891223D01*
X189134704Y-86926862D01*
X189146435Y-86965532D01*
X189151000Y-87011888D01*
X189151000Y-87663112D01*
X189146435Y-87709468D01*
X189134704Y-87748138D01*
X189115654Y-87783777D01*
X189090017Y-87815017D01*
X189058777Y-87840654D01*
X189023138Y-87859704D01*
X188984468Y-87871435D01*
X188938112Y-87876000D01*
X187861888Y-87876000D01*
X187815532Y-87871435D01*
X187776862Y-87859704D01*
X187741223Y-87840654D01*
X187709983Y-87815017D01*
X187684346Y-87783777D01*
X187665296Y-87748138D01*
X187653565Y-87709468D01*
X187649000Y-87663112D01*
X187649000Y-87011888D01*
X187653565Y-86965532D01*
X187665296Y-86926862D01*
X187684346Y-86891223D01*
X187709983Y-86859983D01*
X187741223Y-86834346D01*
X187776862Y-86815296D01*
X187815532Y-86803565D01*
X187861888Y-86799000D01*
X188938112Y-86799000D01*
X188984468Y-86803565D01*
G37*
G36*
X183234468Y-86803565D02*
G01*
X183273138Y-86815296D01*
X183308777Y-86834346D01*
X183340017Y-86859983D01*
X183365654Y-86891223D01*
X183384704Y-86926862D01*
X183396435Y-86965532D01*
X183401000Y-87011888D01*
X183401000Y-87663112D01*
X183396435Y-87709468D01*
X183384704Y-87748138D01*
X183365654Y-87783777D01*
X183340017Y-87815017D01*
X183308777Y-87840654D01*
X183273138Y-87859704D01*
X183234468Y-87871435D01*
X183188112Y-87876000D01*
X182111888Y-87876000D01*
X182065532Y-87871435D01*
X182026862Y-87859704D01*
X181991223Y-87840654D01*
X181959983Y-87815017D01*
X181934346Y-87783777D01*
X181915296Y-87748138D01*
X181903565Y-87709468D01*
X181899000Y-87663112D01*
X181899000Y-87011888D01*
X181903565Y-86965532D01*
X181915296Y-86926862D01*
X181934346Y-86891223D01*
X181959983Y-86859983D01*
X181991223Y-86834346D01*
X182026862Y-86815296D01*
X182065532Y-86803565D01*
X182111888Y-86799000D01*
X183188112Y-86799000D01*
X183234468Y-86803565D01*
G37*
G36*
X179084468Y-86803565D02*
G01*
X179123138Y-86815296D01*
X179158777Y-86834346D01*
X179190017Y-86859983D01*
X179215654Y-86891223D01*
X179234704Y-86926862D01*
X179246435Y-86965532D01*
X179251000Y-87011888D01*
X179251000Y-87663112D01*
X179246435Y-87709468D01*
X179234704Y-87748138D01*
X179215654Y-87783777D01*
X179190017Y-87815017D01*
X179158777Y-87840654D01*
X179123138Y-87859704D01*
X179084468Y-87871435D01*
X179038112Y-87876000D01*
X177961888Y-87876000D01*
X177915532Y-87871435D01*
X177876862Y-87859704D01*
X177841223Y-87840654D01*
X177809983Y-87815017D01*
X177784346Y-87783777D01*
X177765296Y-87748138D01*
X177753565Y-87709468D01*
X177749000Y-87663112D01*
X177749000Y-87011888D01*
X177753565Y-86965532D01*
X177765296Y-86926862D01*
X177784346Y-86891223D01*
X177809983Y-86859983D01*
X177841223Y-86834346D01*
X177876862Y-86815296D01*
X177915532Y-86803565D01*
X177961888Y-86799000D01*
X179038112Y-86799000D01*
X179084468Y-86803565D01*
G37*
G36*
X176984468Y-86803565D02*
G01*
X177023138Y-86815296D01*
X177058777Y-86834346D01*
X177090017Y-86859983D01*
X177115654Y-86891223D01*
X177134704Y-86926862D01*
X177146435Y-86965532D01*
X177151000Y-87011888D01*
X177151000Y-87663112D01*
X177146435Y-87709468D01*
X177134704Y-87748138D01*
X177115654Y-87783777D01*
X177090017Y-87815017D01*
X177058777Y-87840654D01*
X177023138Y-87859704D01*
X176984468Y-87871435D01*
X176938112Y-87876000D01*
X175861888Y-87876000D01*
X175815532Y-87871435D01*
X175776862Y-87859704D01*
X175741223Y-87840654D01*
X175709983Y-87815017D01*
X175684346Y-87783777D01*
X175665296Y-87748138D01*
X175653565Y-87709468D01*
X175649000Y-87663112D01*
X175649000Y-87011888D01*
X175653565Y-86965532D01*
X175665296Y-86926862D01*
X175684346Y-86891223D01*
X175709983Y-86859983D01*
X175741223Y-86834346D01*
X175776862Y-86815296D01*
X175815532Y-86803565D01*
X175861888Y-86799000D01*
X176938112Y-86799000D01*
X176984468Y-86803565D01*
G37*
G36*
X181159468Y-86803565D02*
G01*
X181198138Y-86815296D01*
X181233777Y-86834346D01*
X181265017Y-86859983D01*
X181290654Y-86891223D01*
X181309704Y-86926862D01*
X181321435Y-86965532D01*
X181326000Y-87011888D01*
X181326000Y-87663112D01*
X181321435Y-87709468D01*
X181309704Y-87748138D01*
X181290654Y-87783777D01*
X181265017Y-87815017D01*
X181233777Y-87840654D01*
X181198138Y-87859704D01*
X181159468Y-87871435D01*
X181113112Y-87876000D01*
X180036888Y-87876000D01*
X179990532Y-87871435D01*
X179951862Y-87859704D01*
X179916223Y-87840654D01*
X179884983Y-87815017D01*
X179859346Y-87783777D01*
X179840296Y-87748138D01*
X179828565Y-87709468D01*
X179824000Y-87663112D01*
X179824000Y-87011888D01*
X179828565Y-86965532D01*
X179840296Y-86926862D01*
X179859346Y-86891223D01*
X179884983Y-86859983D01*
X179916223Y-86834346D01*
X179951862Y-86815296D01*
X179990532Y-86803565D01*
X180036888Y-86799000D01*
X181113112Y-86799000D01*
X181159468Y-86803565D01*
G37*
G36*
X200059468Y-86283565D02*
G01*
X200098138Y-86295296D01*
X200133777Y-86314346D01*
X200165017Y-86339983D01*
X200190654Y-86371223D01*
X200209704Y-86406862D01*
X200221435Y-86445532D01*
X200226000Y-86491888D01*
X200226000Y-87568112D01*
X200221435Y-87614468D01*
X200209704Y-87653138D01*
X200190654Y-87688777D01*
X200165017Y-87720017D01*
X200133777Y-87745654D01*
X200098138Y-87764704D01*
X200059468Y-87776435D01*
X200013112Y-87781000D01*
X199361888Y-87781000D01*
X199315532Y-87776435D01*
X199276862Y-87764704D01*
X199241223Y-87745654D01*
X199209983Y-87720017D01*
X199184346Y-87688777D01*
X199165296Y-87653138D01*
X199153565Y-87614468D01*
X199149000Y-87568112D01*
X199149000Y-86491888D01*
X199153565Y-86445532D01*
X199165296Y-86406862D01*
X199184346Y-86371223D01*
X199209983Y-86339983D01*
X199241223Y-86314346D01*
X199276862Y-86295296D01*
X199315532Y-86283565D01*
X199361888Y-86279000D01*
X200013112Y-86279000D01*
X200059468Y-86283565D01*
G37*
G36*
X198184468Y-86283565D02*
G01*
X198223138Y-86295296D01*
X198258777Y-86314346D01*
X198290017Y-86339983D01*
X198315654Y-86371223D01*
X198334704Y-86406862D01*
X198346435Y-86445532D01*
X198351000Y-86491888D01*
X198351000Y-87568112D01*
X198346435Y-87614468D01*
X198334704Y-87653138D01*
X198315654Y-87688777D01*
X198290017Y-87720017D01*
X198258777Y-87745654D01*
X198223138Y-87764704D01*
X198184468Y-87776435D01*
X198138112Y-87781000D01*
X197486888Y-87781000D01*
X197440532Y-87776435D01*
X197401862Y-87764704D01*
X197366223Y-87745654D01*
X197334983Y-87720017D01*
X197309346Y-87688777D01*
X197290296Y-87653138D01*
X197278565Y-87614468D01*
X197274000Y-87568112D01*
X197274000Y-86491888D01*
X197278565Y-86445532D01*
X197290296Y-86406862D01*
X197309346Y-86371223D01*
X197334983Y-86339983D01*
X197366223Y-86314346D01*
X197401862Y-86295296D01*
X197440532Y-86283565D01*
X197486888Y-86279000D01*
X198138112Y-86279000D01*
X198184468Y-86283565D01*
G37*
G36*
X168872798Y-85028247D02*
G01*
X168908367Y-85039037D01*
X168941139Y-85056554D01*
X168969869Y-85080131D01*
X168993446Y-85108861D01*
X169010963Y-85141633D01*
X169021753Y-85177202D01*
X169026000Y-85220325D01*
X169026000Y-86279675D01*
X169021753Y-86322798D01*
X169010963Y-86358367D01*
X168993446Y-86391139D01*
X168969869Y-86419869D01*
X168941139Y-86443446D01*
X168908367Y-86460963D01*
X168872798Y-86471753D01*
X168829675Y-86476000D01*
X167545325Y-86476000D01*
X167502202Y-86471753D01*
X167466633Y-86460963D01*
X167433861Y-86443446D01*
X167405131Y-86419869D01*
X167381554Y-86391139D01*
X167364037Y-86358367D01*
X167353247Y-86322798D01*
X167349000Y-86279675D01*
X167349000Y-85220325D01*
X167353247Y-85177202D01*
X167364037Y-85141633D01*
X167381554Y-85108861D01*
X167405131Y-85080131D01*
X167433861Y-85056554D01*
X167466633Y-85039037D01*
X167502202Y-85028247D01*
X167545325Y-85024000D01*
X168829675Y-85024000D01*
X168872798Y-85028247D01*
G37*
G36*
X165997798Y-85028247D02*
G01*
X166033367Y-85039037D01*
X166066139Y-85056554D01*
X166094869Y-85080131D01*
X166118446Y-85108861D01*
X166135963Y-85141633D01*
X166146753Y-85177202D01*
X166151000Y-85220325D01*
X166151000Y-86279675D01*
X166146753Y-86322798D01*
X166135963Y-86358367D01*
X166118446Y-86391139D01*
X166094869Y-86419869D01*
X166066139Y-86443446D01*
X166033367Y-86460963D01*
X165997798Y-86471753D01*
X165954675Y-86476000D01*
X164670325Y-86476000D01*
X164627202Y-86471753D01*
X164591633Y-86460963D01*
X164558861Y-86443446D01*
X164530131Y-86419869D01*
X164506554Y-86391139D01*
X164489037Y-86358367D01*
X164478247Y-86322798D01*
X164474000Y-86279675D01*
X164474000Y-85220325D01*
X164478247Y-85177202D01*
X164489037Y-85141633D01*
X164506554Y-85108861D01*
X164530131Y-85080131D01*
X164558861Y-85056554D01*
X164591633Y-85039037D01*
X164627202Y-85028247D01*
X164670325Y-85024000D01*
X165954675Y-85024000D01*
X165997798Y-85028247D01*
G37*
G36*
X203342916Y-84457334D02*
G01*
X203451492Y-84490271D01*
X203451495Y-84490272D01*
X203487601Y-84509571D01*
X203551557Y-84543756D01*
X203639264Y-84615736D01*
X203702383Y-84692646D01*
X203719702Y-84709965D01*
X203740077Y-84723579D01*
X203762716Y-84732957D01*
X203786749Y-84737737D01*
X203811253Y-84737737D01*
X203835286Y-84732957D01*
X203857925Y-84723579D01*
X203878299Y-84709966D01*
X203895626Y-84692639D01*
X203909240Y-84672264D01*
X203918618Y-84649625D01*
X203923398Y-84625592D01*
X203924000Y-84613340D01*
X203924000Y-84449000D01*
X205076000Y-84449000D01*
X205076000Y-86051000D01*
X203924000Y-86051000D01*
X203924000Y-85886660D01*
X203921598Y-85862274D01*
X203914485Y-85838825D01*
X203902934Y-85817214D01*
X203887389Y-85798272D01*
X203868447Y-85782727D01*
X203846836Y-85771176D01*
X203823387Y-85764063D01*
X203799001Y-85761661D01*
X203774615Y-85764063D01*
X203751166Y-85771176D01*
X203729555Y-85782727D01*
X203702381Y-85807356D01*
X203639264Y-85884264D01*
X203551556Y-85956244D01*
X203506166Y-85980505D01*
X203451494Y-86009728D01*
X203451491Y-86009729D01*
X203342915Y-86042666D01*
X203230000Y-86053787D01*
X203117084Y-86042666D01*
X203008508Y-86009729D01*
X203008505Y-86009728D01*
X202953833Y-85980505D01*
X202908443Y-85956244D01*
X202820736Y-85884264D01*
X202748756Y-85796556D01*
X202705239Y-85715140D01*
X202691625Y-85694766D01*
X202674298Y-85677439D01*
X202653924Y-85663825D01*
X202631285Y-85654448D01*
X202607251Y-85649668D01*
X202582747Y-85649668D01*
X202558714Y-85654449D01*
X202536075Y-85663826D01*
X202515701Y-85677440D01*
X202498374Y-85694767D01*
X202484762Y-85715140D01*
X202441244Y-85796557D01*
X202369264Y-85884264D01*
X202281556Y-85956244D01*
X202236166Y-85980505D01*
X202181494Y-86009728D01*
X202181491Y-86009729D01*
X202072915Y-86042666D01*
X201960000Y-86053787D01*
X201847084Y-86042666D01*
X201738508Y-86009729D01*
X201738505Y-86009728D01*
X201683833Y-85980505D01*
X201638443Y-85956244D01*
X201550736Y-85884264D01*
X201478756Y-85796556D01*
X201435239Y-85715140D01*
X201425272Y-85696494D01*
X201419492Y-85677440D01*
X201392334Y-85587915D01*
X201384000Y-85503297D01*
X201384000Y-84996702D01*
X201392334Y-84912084D01*
X201425271Y-84803508D01*
X201425272Y-84803505D01*
X201478756Y-84703445D01*
X201478757Y-84703443D01*
X201550737Y-84615736D01*
X201638444Y-84543756D01*
X201702400Y-84509571D01*
X201738506Y-84490272D01*
X201738509Y-84490271D01*
X201847085Y-84457334D01*
X201960000Y-84446213D01*
X202072916Y-84457334D01*
X202181492Y-84490271D01*
X202181495Y-84490272D01*
X202217601Y-84509571D01*
X202281557Y-84543756D01*
X202369264Y-84615736D01*
X202441244Y-84703443D01*
X202457019Y-84732957D01*
X202484761Y-84784859D01*
X202498375Y-84805234D01*
X202515702Y-84822561D01*
X202536076Y-84836174D01*
X202558715Y-84845552D01*
X202582748Y-84850332D01*
X202607252Y-84850332D01*
X202631285Y-84845552D01*
X202653924Y-84836174D01*
X202674299Y-84822560D01*
X202691626Y-84805233D01*
X202705239Y-84784859D01*
X202748756Y-84703445D01*
X202748757Y-84703443D01*
X202820737Y-84615736D01*
X202908444Y-84543756D01*
X202972400Y-84509571D01*
X203008506Y-84490272D01*
X203008509Y-84490271D01*
X203117085Y-84457334D01*
X203230000Y-84446213D01*
X203342916Y-84457334D01*
G37*
G36*
X183234468Y-84928565D02*
G01*
X183273138Y-84940296D01*
X183308777Y-84959346D01*
X183340017Y-84984983D01*
X183365654Y-85016223D01*
X183384704Y-85051862D01*
X183396435Y-85090532D01*
X183401000Y-85136888D01*
X183401000Y-85788112D01*
X183396435Y-85834468D01*
X183384704Y-85873138D01*
X183365654Y-85908777D01*
X183340017Y-85940017D01*
X183308777Y-85965654D01*
X183273138Y-85984704D01*
X183234468Y-85996435D01*
X183188112Y-86001000D01*
X182111888Y-86001000D01*
X182065532Y-85996435D01*
X182026862Y-85984704D01*
X181991223Y-85965654D01*
X181959983Y-85940017D01*
X181934346Y-85908777D01*
X181915296Y-85873138D01*
X181903565Y-85834468D01*
X181899000Y-85788112D01*
X181899000Y-85136888D01*
X181903565Y-85090532D01*
X181915296Y-85051862D01*
X181934346Y-85016223D01*
X181959983Y-84984983D01*
X181991223Y-84959346D01*
X182026862Y-84940296D01*
X182065532Y-84928565D01*
X182111888Y-84924000D01*
X183188112Y-84924000D01*
X183234468Y-84928565D01*
G37*
G36*
X188984468Y-84928565D02*
G01*
X189023138Y-84940296D01*
X189058777Y-84959346D01*
X189090017Y-84984983D01*
X189115654Y-85016223D01*
X189134704Y-85051862D01*
X189146435Y-85090532D01*
X189151000Y-85136888D01*
X189151000Y-85788112D01*
X189146435Y-85834468D01*
X189134704Y-85873138D01*
X189115654Y-85908777D01*
X189090017Y-85940017D01*
X189058777Y-85965654D01*
X189023138Y-85984704D01*
X188984468Y-85996435D01*
X188938112Y-86001000D01*
X187861888Y-86001000D01*
X187815532Y-85996435D01*
X187776862Y-85984704D01*
X187741223Y-85965654D01*
X187709983Y-85940017D01*
X187684346Y-85908777D01*
X187665296Y-85873138D01*
X187653565Y-85834468D01*
X187649000Y-85788112D01*
X187649000Y-85136888D01*
X187653565Y-85090532D01*
X187665296Y-85051862D01*
X187684346Y-85016223D01*
X187709983Y-84984983D01*
X187741223Y-84959346D01*
X187776862Y-84940296D01*
X187815532Y-84928565D01*
X187861888Y-84924000D01*
X188938112Y-84924000D01*
X188984468Y-84928565D01*
G37*
G36*
X181159468Y-84928565D02*
G01*
X181198138Y-84940296D01*
X181233777Y-84959346D01*
X181265017Y-84984983D01*
X181290654Y-85016223D01*
X181309704Y-85051862D01*
X181321435Y-85090532D01*
X181326000Y-85136888D01*
X181326000Y-85788112D01*
X181321435Y-85834468D01*
X181309704Y-85873138D01*
X181290654Y-85908777D01*
X181265017Y-85940017D01*
X181233777Y-85965654D01*
X181198138Y-85984704D01*
X181159468Y-85996435D01*
X181113112Y-86001000D01*
X180036888Y-86001000D01*
X179990532Y-85996435D01*
X179951862Y-85984704D01*
X179916223Y-85965654D01*
X179884983Y-85940017D01*
X179859346Y-85908777D01*
X179840296Y-85873138D01*
X179828565Y-85834468D01*
X179824000Y-85788112D01*
X179824000Y-85136888D01*
X179828565Y-85090532D01*
X179840296Y-85051862D01*
X179859346Y-85016223D01*
X179884983Y-84984983D01*
X179916223Y-84959346D01*
X179951862Y-84940296D01*
X179990532Y-84928565D01*
X180036888Y-84924000D01*
X181113112Y-84924000D01*
X181159468Y-84928565D01*
G37*
G36*
X179084468Y-84928565D02*
G01*
X179123138Y-84940296D01*
X179158777Y-84959346D01*
X179190017Y-84984983D01*
X179215654Y-85016223D01*
X179234704Y-85051862D01*
X179246435Y-85090532D01*
X179251000Y-85136888D01*
X179251000Y-85788112D01*
X179246435Y-85834468D01*
X179234704Y-85873138D01*
X179215654Y-85908777D01*
X179190017Y-85940017D01*
X179158777Y-85965654D01*
X179123138Y-85984704D01*
X179084468Y-85996435D01*
X179038112Y-86001000D01*
X177961888Y-86001000D01*
X177915532Y-85996435D01*
X177876862Y-85984704D01*
X177841223Y-85965654D01*
X177809983Y-85940017D01*
X177784346Y-85908777D01*
X177765296Y-85873138D01*
X177753565Y-85834468D01*
X177749000Y-85788112D01*
X177749000Y-85136888D01*
X177753565Y-85090532D01*
X177765296Y-85051862D01*
X177784346Y-85016223D01*
X177809983Y-84984983D01*
X177841223Y-84959346D01*
X177876862Y-84940296D01*
X177915532Y-84928565D01*
X177961888Y-84924000D01*
X179038112Y-84924000D01*
X179084468Y-84928565D01*
G37*
G36*
X176984468Y-84928565D02*
G01*
X177023138Y-84940296D01*
X177058777Y-84959346D01*
X177090017Y-84984983D01*
X177115654Y-85016223D01*
X177134704Y-85051862D01*
X177146435Y-85090532D01*
X177151000Y-85136888D01*
X177151000Y-85788112D01*
X177146435Y-85834468D01*
X177134704Y-85873138D01*
X177115654Y-85908777D01*
X177090017Y-85940017D01*
X177058777Y-85965654D01*
X177023138Y-85984704D01*
X176984468Y-85996435D01*
X176938112Y-86001000D01*
X175861888Y-86001000D01*
X175815532Y-85996435D01*
X175776862Y-85984704D01*
X175741223Y-85965654D01*
X175709983Y-85940017D01*
X175684346Y-85908777D01*
X175665296Y-85873138D01*
X175653565Y-85834468D01*
X175649000Y-85788112D01*
X175649000Y-85136888D01*
X175653565Y-85090532D01*
X175665296Y-85051862D01*
X175684346Y-85016223D01*
X175709983Y-84984983D01*
X175741223Y-84959346D01*
X175776862Y-84940296D01*
X175815532Y-84928565D01*
X175861888Y-84924000D01*
X176938112Y-84924000D01*
X176984468Y-84928565D01*
G37*
G36*
X186926000Y-85901000D02*
G01*
X186024000Y-85901000D01*
X186024000Y-84899000D01*
X186926000Y-84899000D01*
X186926000Y-85901000D01*
G37*
G36*
X185026000Y-85901000D02*
G01*
X184124000Y-85901000D01*
X184124000Y-84899000D01*
X185026000Y-84899000D01*
X185026000Y-85901000D01*
G37*
G36*
X157748228Y-83931703D02*
G01*
X157903100Y-83995853D01*
X158042481Y-84088985D01*
X158161015Y-84207519D01*
X158254147Y-84346900D01*
X158318297Y-84501772D01*
X158351000Y-84666184D01*
X158351000Y-84833816D01*
X158318297Y-84998228D01*
X158254147Y-85153100D01*
X158161015Y-85292481D01*
X158042481Y-85411015D01*
X157903100Y-85504147D01*
X157748228Y-85568297D01*
X157583816Y-85601000D01*
X157416184Y-85601000D01*
X157251772Y-85568297D01*
X157096900Y-85504147D01*
X156957519Y-85411015D01*
X156838985Y-85292481D01*
X156745853Y-85153100D01*
X156681703Y-84998228D01*
X156649000Y-84833816D01*
X156649000Y-84666184D01*
X156681703Y-84501772D01*
X156745853Y-84346900D01*
X156838985Y-84207519D01*
X156957519Y-84088985D01*
X157096900Y-83995853D01*
X157251772Y-83931703D01*
X157416184Y-83899000D01*
X157583816Y-83899000D01*
X157748228Y-83931703D01*
G37*
G36*
X172660721Y-82220174D02*
G01*
X172760995Y-82261709D01*
X172760996Y-82261710D01*
X172851242Y-82322010D01*
X172927990Y-82398758D01*
X172927991Y-82398760D01*
X172988291Y-82489005D01*
X173029826Y-82589279D01*
X173051000Y-82695730D01*
X173051000Y-82804270D01*
X173029826Y-82910721D01*
X172988291Y-83010995D01*
X172988290Y-83010996D01*
X172927990Y-83101242D01*
X172851242Y-83177990D01*
X172805812Y-83208345D01*
X172760995Y-83238291D01*
X172660721Y-83279826D01*
X172554270Y-83301000D01*
X172445730Y-83301000D01*
X172339279Y-83279826D01*
X172239005Y-83238291D01*
X172194188Y-83208345D01*
X172148758Y-83177990D01*
X172072010Y-83101242D01*
X172011710Y-83010996D01*
X172011709Y-83010995D01*
X171970174Y-82910721D01*
X171949000Y-82804270D01*
X171949000Y-82695730D01*
X171970174Y-82589279D01*
X172011709Y-82489005D01*
X172072009Y-82398760D01*
X172072010Y-82398758D01*
X172148758Y-82322010D01*
X172239004Y-82261710D01*
X172239005Y-82261709D01*
X172339279Y-82220174D01*
X172445730Y-82199000D01*
X172554270Y-82199000D01*
X172660721Y-82220174D01*
G37*
G36*
X192607817Y-80407696D02*
G01*
X192721104Y-80442062D01*
X192825511Y-80497869D01*
X192825513Y-80497870D01*
X192825512Y-80497870D01*
X192917027Y-80572973D01*
X192980711Y-80650572D01*
X192992131Y-80664488D01*
X193047938Y-80768895D01*
X193082304Y-80882182D01*
X193091000Y-80970481D01*
X193091000Y-82429519D01*
X193082304Y-82517818D01*
X193047938Y-82631105D01*
X192992131Y-82735512D01*
X192917027Y-82827027D01*
X192825512Y-82902131D01*
X192721105Y-82957938D01*
X192607818Y-82992304D01*
X192490000Y-83003907D01*
X192372183Y-82992304D01*
X192258896Y-82957938D01*
X192154489Y-82902131D01*
X192062974Y-82827027D01*
X191987870Y-82735512D01*
X191932063Y-82631105D01*
X191897697Y-82517818D01*
X191889001Y-82429519D01*
X191889000Y-80970482D01*
X191897696Y-80882183D01*
X191932062Y-80768896D01*
X191987869Y-80664489D01*
X192015076Y-80631337D01*
X192062973Y-80572973D01*
X192154487Y-80497870D01*
X192154486Y-80497870D01*
X192154488Y-80497869D01*
X192258895Y-80442062D01*
X192372182Y-80407696D01*
X192490000Y-80396093D01*
X192607817Y-80407696D01*
G37*
G36*
X182607817Y-80407696D02*
G01*
X182721104Y-80442062D01*
X182825511Y-80497869D01*
X182825513Y-80497870D01*
X182825512Y-80497870D01*
X182917027Y-80572973D01*
X182980711Y-80650572D01*
X182992131Y-80664488D01*
X183047938Y-80768895D01*
X183082304Y-80882182D01*
X183091000Y-80970481D01*
X183091000Y-82429519D01*
X183082304Y-82517818D01*
X183047938Y-82631105D01*
X182992131Y-82735512D01*
X182917027Y-82827027D01*
X182825512Y-82902131D01*
X182721105Y-82957938D01*
X182607818Y-82992304D01*
X182490000Y-83003907D01*
X182372183Y-82992304D01*
X182258896Y-82957938D01*
X182154489Y-82902131D01*
X182062974Y-82827027D01*
X181987870Y-82735512D01*
X181932063Y-82631105D01*
X181897697Y-82517818D01*
X181889001Y-82429519D01*
X181889000Y-80970482D01*
X181897696Y-80882183D01*
X181932062Y-80768896D01*
X181987869Y-80664489D01*
X182015076Y-80631337D01*
X182062973Y-80572973D01*
X182154487Y-80497870D01*
X182154486Y-80497870D01*
X182154488Y-80497869D01*
X182258895Y-80442062D01*
X182372182Y-80407696D01*
X182490000Y-80396093D01*
X182607817Y-80407696D01*
G37*
G36*
X184607817Y-80407696D02*
G01*
X184721104Y-80442062D01*
X184825511Y-80497869D01*
X184825513Y-80497870D01*
X184825512Y-80497870D01*
X184917027Y-80572973D01*
X184980711Y-80650572D01*
X184992131Y-80664488D01*
X185047938Y-80768895D01*
X185082304Y-80882182D01*
X185091000Y-80970481D01*
X185091000Y-82429519D01*
X185082304Y-82517818D01*
X185047938Y-82631105D01*
X184992131Y-82735512D01*
X184917027Y-82827027D01*
X184825512Y-82902131D01*
X184721105Y-82957938D01*
X184607818Y-82992304D01*
X184490000Y-83003907D01*
X184372183Y-82992304D01*
X184258896Y-82957938D01*
X184154489Y-82902131D01*
X184062974Y-82827027D01*
X183987870Y-82735512D01*
X183932063Y-82631105D01*
X183897697Y-82517818D01*
X183889001Y-82429519D01*
X183889000Y-80970482D01*
X183897696Y-80882183D01*
X183932062Y-80768896D01*
X183987869Y-80664489D01*
X184015076Y-80631337D01*
X184062973Y-80572973D01*
X184154487Y-80497870D01*
X184154486Y-80497870D01*
X184154488Y-80497869D01*
X184258895Y-80442062D01*
X184372182Y-80407696D01*
X184490000Y-80396093D01*
X184607817Y-80407696D01*
G37*
G36*
X188607817Y-80407696D02*
G01*
X188721104Y-80442062D01*
X188825511Y-80497869D01*
X188825513Y-80497870D01*
X188825512Y-80497870D01*
X188917027Y-80572973D01*
X188980711Y-80650572D01*
X188992131Y-80664488D01*
X189047938Y-80768895D01*
X189082304Y-80882182D01*
X189091000Y-80970481D01*
X189091000Y-82429519D01*
X189082304Y-82517818D01*
X189047938Y-82631105D01*
X188992131Y-82735512D01*
X188917027Y-82827027D01*
X188825512Y-82902131D01*
X188721105Y-82957938D01*
X188607818Y-82992304D01*
X188490000Y-83003907D01*
X188372183Y-82992304D01*
X188258896Y-82957938D01*
X188154489Y-82902131D01*
X188062974Y-82827027D01*
X187987870Y-82735512D01*
X187932063Y-82631105D01*
X187897697Y-82517818D01*
X187889001Y-82429519D01*
X187889000Y-80970482D01*
X187897696Y-80882183D01*
X187932062Y-80768896D01*
X187987869Y-80664489D01*
X188015076Y-80631337D01*
X188062973Y-80572973D01*
X188154487Y-80497870D01*
X188154486Y-80497870D01*
X188154488Y-80497869D01*
X188258895Y-80442062D01*
X188372182Y-80407696D01*
X188490000Y-80396093D01*
X188607817Y-80407696D01*
G37*
G36*
X190607817Y-80407696D02*
G01*
X190721104Y-80442062D01*
X190825511Y-80497869D01*
X190825513Y-80497870D01*
X190825512Y-80497870D01*
X190917027Y-80572973D01*
X190980711Y-80650572D01*
X190992131Y-80664488D01*
X191047938Y-80768895D01*
X191082304Y-80882182D01*
X191091000Y-80970481D01*
X191091000Y-82429519D01*
X191082304Y-82517818D01*
X191047938Y-82631105D01*
X190992131Y-82735512D01*
X190917027Y-82827027D01*
X190825512Y-82902131D01*
X190721105Y-82957938D01*
X190607818Y-82992304D01*
X190490000Y-83003907D01*
X190372183Y-82992304D01*
X190258896Y-82957938D01*
X190154489Y-82902131D01*
X190062974Y-82827027D01*
X189987870Y-82735512D01*
X189932063Y-82631105D01*
X189897697Y-82517818D01*
X189889001Y-82429519D01*
X189889000Y-80970482D01*
X189897696Y-80882183D01*
X189932062Y-80768896D01*
X189987869Y-80664489D01*
X190015076Y-80631337D01*
X190062973Y-80572973D01*
X190154487Y-80497870D01*
X190154486Y-80497870D01*
X190154488Y-80497869D01*
X190258895Y-80442062D01*
X190372182Y-80407696D01*
X190490000Y-80396093D01*
X190607817Y-80407696D01*
G37*
G36*
X186607817Y-80407696D02*
G01*
X186721104Y-80442062D01*
X186825511Y-80497869D01*
X186825513Y-80497870D01*
X186825512Y-80497870D01*
X186917027Y-80572973D01*
X186980711Y-80650572D01*
X186992131Y-80664488D01*
X187047938Y-80768895D01*
X187082304Y-80882182D01*
X187091000Y-80970481D01*
X187091000Y-82429519D01*
X187082304Y-82517818D01*
X187047938Y-82631105D01*
X186992131Y-82735512D01*
X186917027Y-82827027D01*
X186825512Y-82902131D01*
X186721105Y-82957938D01*
X186607818Y-82992304D01*
X186490000Y-83003907D01*
X186372183Y-82992304D01*
X186258896Y-82957938D01*
X186154489Y-82902131D01*
X186062974Y-82827027D01*
X185987870Y-82735512D01*
X185932063Y-82631105D01*
X185897697Y-82517818D01*
X185889001Y-82429519D01*
X185889000Y-80970482D01*
X185897696Y-80882183D01*
X185932062Y-80768896D01*
X185987869Y-80664489D01*
X186015076Y-80631337D01*
X186062973Y-80572973D01*
X186154487Y-80497870D01*
X186154486Y-80497870D01*
X186154488Y-80497869D01*
X186258895Y-80442062D01*
X186372182Y-80407696D01*
X186490000Y-80396093D01*
X186607817Y-80407696D01*
G37*
G36*
X157748228Y-80431703D02*
G01*
X157903100Y-80495853D01*
X158042481Y-80588985D01*
X158161015Y-80707519D01*
X158254147Y-80846900D01*
X158318297Y-81001772D01*
X158351000Y-81166184D01*
X158351000Y-81333816D01*
X158318297Y-81498228D01*
X158254147Y-81653100D01*
X158161015Y-81792481D01*
X158042481Y-81911015D01*
X157903100Y-82004147D01*
X157748228Y-82068297D01*
X157583816Y-82101000D01*
X157416184Y-82101000D01*
X157251772Y-82068297D01*
X157096900Y-82004147D01*
X156957519Y-81911015D01*
X156838985Y-81792481D01*
X156745853Y-81653100D01*
X156681703Y-81498228D01*
X156649000Y-81333816D01*
X156649000Y-81166184D01*
X156681703Y-81001772D01*
X156745853Y-80846900D01*
X156838985Y-80707519D01*
X156957519Y-80588985D01*
X157096900Y-80495853D01*
X157251772Y-80431703D01*
X157416184Y-80399000D01*
X157583816Y-80399000D01*
X157748228Y-80431703D01*
G37*
G36*
X204313512Y-80303927D02*
G01*
X204462812Y-80333624D01*
X204626784Y-80401544D01*
X204774354Y-80500147D01*
X204899853Y-80625646D01*
X204998456Y-80773216D01*
X205066376Y-80937188D01*
X205101000Y-81111259D01*
X205101000Y-81288741D01*
X205066376Y-81462812D01*
X204998456Y-81626784D01*
X204899853Y-81774354D01*
X204774354Y-81899853D01*
X204626784Y-81998456D01*
X204462812Y-82066376D01*
X204313512Y-82096073D01*
X204288742Y-82101000D01*
X204111258Y-82101000D01*
X204086488Y-82096073D01*
X203937188Y-82066376D01*
X203773216Y-81998456D01*
X203625646Y-81899853D01*
X203500147Y-81774354D01*
X203401544Y-81626784D01*
X203333624Y-81462812D01*
X203299000Y-81288741D01*
X203299000Y-81111259D01*
X203333624Y-80937188D01*
X203401544Y-80773216D01*
X203500147Y-80625646D01*
X203625646Y-80500147D01*
X203773216Y-80401544D01*
X203937188Y-80333624D01*
X204086488Y-80303927D01*
X204111258Y-80299000D01*
X204288742Y-80299000D01*
X204313512Y-80303927D01*
G37*
G36*
X198584468Y-80903565D02*
G01*
X198623138Y-80915296D01*
X198658777Y-80934346D01*
X198690017Y-80959983D01*
X198715654Y-80991223D01*
X198734704Y-81026862D01*
X198746435Y-81065532D01*
X198751000Y-81111888D01*
X198751000Y-81763112D01*
X198746435Y-81809468D01*
X198734704Y-81848138D01*
X198715654Y-81883777D01*
X198690017Y-81915017D01*
X198658777Y-81940654D01*
X198623138Y-81959704D01*
X198584468Y-81971435D01*
X198538112Y-81976000D01*
X197461888Y-81976000D01*
X197415532Y-81971435D01*
X197376862Y-81959704D01*
X197341223Y-81940654D01*
X197309983Y-81915017D01*
X197284346Y-81883777D01*
X197265296Y-81848138D01*
X197253565Y-81809468D01*
X197249000Y-81763112D01*
X197249000Y-81111888D01*
X197253565Y-81065532D01*
X197265296Y-81026862D01*
X197284346Y-80991223D01*
X197309983Y-80959983D01*
X197341223Y-80934346D01*
X197376862Y-80915296D01*
X197415532Y-80903565D01*
X197461888Y-80899000D01*
X198538112Y-80899000D01*
X198584468Y-80903565D01*
G37*
G36*
X200684468Y-80903565D02*
G01*
X200723138Y-80915296D01*
X200758777Y-80934346D01*
X200790017Y-80959983D01*
X200815654Y-80991223D01*
X200834704Y-81026862D01*
X200846435Y-81065532D01*
X200851000Y-81111888D01*
X200851000Y-81763112D01*
X200846435Y-81809468D01*
X200834704Y-81848138D01*
X200815654Y-81883777D01*
X200790017Y-81915017D01*
X200758777Y-81940654D01*
X200723138Y-81959704D01*
X200684468Y-81971435D01*
X200638112Y-81976000D01*
X199561888Y-81976000D01*
X199515532Y-81971435D01*
X199476862Y-81959704D01*
X199441223Y-81940654D01*
X199409983Y-81915017D01*
X199384346Y-81883777D01*
X199365296Y-81848138D01*
X199353565Y-81809468D01*
X199349000Y-81763112D01*
X199349000Y-81111888D01*
X199353565Y-81065532D01*
X199365296Y-81026862D01*
X199384346Y-80991223D01*
X199409983Y-80959983D01*
X199441223Y-80934346D01*
X199476862Y-80915296D01*
X199515532Y-80903565D01*
X199561888Y-80899000D01*
X200638112Y-80899000D01*
X200684468Y-80903565D01*
G37*
G36*
X168101000Y-81751000D02*
G01*
X167199000Y-81751000D01*
X167199000Y-81049000D01*
X168101000Y-81049000D01*
X168101000Y-81751000D01*
G37*
G36*
X146601000Y-81651000D02*
G01*
X145599000Y-81651000D01*
X145599000Y-80349000D01*
X146601000Y-80349000D01*
X146601000Y-81651000D01*
G37*
G36*
X149901000Y-81651000D02*
G01*
X148899000Y-81651000D01*
X148899000Y-80349000D01*
X149901000Y-80349000D01*
X149901000Y-81651000D01*
G37*
G36*
X165701000Y-81301000D02*
G01*
X164899000Y-81301000D01*
X164899000Y-80199000D01*
X165701000Y-80199000D01*
X165701000Y-81301000D01*
G37*
G36*
X177609468Y-79253565D02*
G01*
X177648138Y-79265296D01*
X177683777Y-79284346D01*
X177715017Y-79309983D01*
X177740654Y-79341223D01*
X177759704Y-79376862D01*
X177771435Y-79415532D01*
X177776000Y-79461888D01*
X177776000Y-80538112D01*
X177771435Y-80584468D01*
X177759704Y-80623138D01*
X177740654Y-80658777D01*
X177715017Y-80690017D01*
X177683777Y-80715654D01*
X177648138Y-80734704D01*
X177609468Y-80746435D01*
X177563112Y-80751000D01*
X176911888Y-80751000D01*
X176865532Y-80746435D01*
X176826862Y-80734704D01*
X176791223Y-80715654D01*
X176759983Y-80690017D01*
X176734346Y-80658777D01*
X176715296Y-80623138D01*
X176703565Y-80584468D01*
X176699000Y-80538112D01*
X176699000Y-79461888D01*
X176703565Y-79415532D01*
X176715296Y-79376862D01*
X176734346Y-79341223D01*
X176759983Y-79309983D01*
X176791223Y-79284346D01*
X176826862Y-79265296D01*
X176865532Y-79253565D01*
X176911888Y-79249000D01*
X177563112Y-79249000D01*
X177609468Y-79253565D01*
G37*
G36*
X175734468Y-79253565D02*
G01*
X175773138Y-79265296D01*
X175808777Y-79284346D01*
X175840017Y-79309983D01*
X175865654Y-79341223D01*
X175884704Y-79376862D01*
X175896435Y-79415532D01*
X175901000Y-79461888D01*
X175901000Y-80538112D01*
X175896435Y-80584468D01*
X175884704Y-80623138D01*
X175865654Y-80658777D01*
X175840017Y-80690017D01*
X175808777Y-80715654D01*
X175773138Y-80734704D01*
X175734468Y-80746435D01*
X175688112Y-80751000D01*
X175036888Y-80751000D01*
X174990532Y-80746435D01*
X174951862Y-80734704D01*
X174916223Y-80715654D01*
X174884983Y-80690017D01*
X174859346Y-80658777D01*
X174840296Y-80623138D01*
X174828565Y-80584468D01*
X174824000Y-80538112D01*
X174824000Y-79461888D01*
X174828565Y-79415532D01*
X174840296Y-79376862D01*
X174859346Y-79341223D01*
X174884983Y-79309983D01*
X174916223Y-79284346D01*
X174951862Y-79265296D01*
X174990532Y-79253565D01*
X175036888Y-79249000D01*
X175688112Y-79249000D01*
X175734468Y-79253565D01*
G37*
G36*
X196017818Y-79407696D02*
G01*
X196131105Y-79442062D01*
X196235512Y-79497869D01*
X196327027Y-79572973D01*
X196402131Y-79664488D01*
X196457938Y-79768895D01*
X196492304Y-79882182D01*
X196503907Y-80000000D01*
X196492304Y-80117818D01*
X196457938Y-80231105D01*
X196402131Y-80335512D01*
X196327027Y-80427027D01*
X196235512Y-80502131D01*
X196131105Y-80557938D01*
X196017818Y-80592304D01*
X195929519Y-80601000D01*
X194470481Y-80601000D01*
X194382182Y-80592304D01*
X194268895Y-80557938D01*
X194164488Y-80502131D01*
X194072973Y-80427027D01*
X193997869Y-80335512D01*
X193942062Y-80231105D01*
X193907696Y-80117818D01*
X193896093Y-80000000D01*
X193907696Y-79882182D01*
X193942062Y-79768895D01*
X193997869Y-79664488D01*
X194072973Y-79572973D01*
X194164488Y-79497869D01*
X194268895Y-79442062D01*
X194382182Y-79407696D01*
X194470481Y-79399000D01*
X195929519Y-79399000D01*
X196017818Y-79407696D01*
G37*
G36*
X180617818Y-79407696D02*
G01*
X180731105Y-79442062D01*
X180835512Y-79497869D01*
X180927027Y-79572973D01*
X181002131Y-79664488D01*
X181057938Y-79768895D01*
X181092304Y-79882182D01*
X181103907Y-80000000D01*
X181092304Y-80117818D01*
X181057938Y-80231105D01*
X181002131Y-80335512D01*
X180927027Y-80427027D01*
X180835512Y-80502131D01*
X180731105Y-80557938D01*
X180617818Y-80592304D01*
X180529519Y-80601000D01*
X179070481Y-80601000D01*
X178982182Y-80592304D01*
X178868895Y-80557938D01*
X178764488Y-80502131D01*
X178672973Y-80427027D01*
X178597869Y-80335512D01*
X178542062Y-80231105D01*
X178507696Y-80117818D01*
X178496093Y-80000000D01*
X178507696Y-79882182D01*
X178542062Y-79768895D01*
X178597869Y-79664488D01*
X178672973Y-79572973D01*
X178764488Y-79497869D01*
X178868895Y-79442062D01*
X178982182Y-79407696D01*
X179070481Y-79399000D01*
X180529519Y-79399000D01*
X180617818Y-79407696D01*
G37*
G36*
X168101000Y-80451000D02*
G01*
X167199000Y-80451000D01*
X167199000Y-79749000D01*
X168101000Y-79749000D01*
X168101000Y-80451000D01*
G37*
G36*
X198584468Y-79028565D02*
G01*
X198623138Y-79040296D01*
X198658777Y-79059346D01*
X198690017Y-79084983D01*
X198715654Y-79116223D01*
X198734704Y-79151862D01*
X198746435Y-79190532D01*
X198751000Y-79236888D01*
X198751000Y-79888112D01*
X198746435Y-79934468D01*
X198734704Y-79973138D01*
X198715654Y-80008777D01*
X198690017Y-80040017D01*
X198658777Y-80065654D01*
X198623138Y-80084704D01*
X198584468Y-80096435D01*
X198538112Y-80101000D01*
X197461888Y-80101000D01*
X197415532Y-80096435D01*
X197376862Y-80084704D01*
X197341223Y-80065654D01*
X197309983Y-80040017D01*
X197284346Y-80008777D01*
X197265296Y-79973138D01*
X197253565Y-79934468D01*
X197249000Y-79888112D01*
X197249000Y-79236888D01*
X197253565Y-79190532D01*
X197265296Y-79151862D01*
X197284346Y-79116223D01*
X197309983Y-79084983D01*
X197341223Y-79059346D01*
X197376862Y-79040296D01*
X197415532Y-79028565D01*
X197461888Y-79024000D01*
X198538112Y-79024000D01*
X198584468Y-79028565D01*
G37*
G36*
X200684468Y-79028565D02*
G01*
X200723138Y-79040296D01*
X200758777Y-79059346D01*
X200790017Y-79084983D01*
X200815654Y-79116223D01*
X200834704Y-79151862D01*
X200846435Y-79190532D01*
X200851000Y-79236888D01*
X200851000Y-79888112D01*
X200846435Y-79934468D01*
X200834704Y-79973138D01*
X200815654Y-80008777D01*
X200790017Y-80040017D01*
X200758777Y-80065654D01*
X200723138Y-80084704D01*
X200684468Y-80096435D01*
X200638112Y-80101000D01*
X199561888Y-80101000D01*
X199515532Y-80096435D01*
X199476862Y-80084704D01*
X199441223Y-80065654D01*
X199409983Y-80040017D01*
X199384346Y-80008777D01*
X199365296Y-79973138D01*
X199353565Y-79934468D01*
X199349000Y-79888112D01*
X199349000Y-79236888D01*
X199353565Y-79190532D01*
X199365296Y-79151862D01*
X199384346Y-79116223D01*
X199409983Y-79084983D01*
X199441223Y-79059346D01*
X199476862Y-79040296D01*
X199515532Y-79028565D01*
X199561888Y-79024000D01*
X200638112Y-79024000D01*
X200684468Y-79028565D01*
G37*
G36*
X204313512Y-77763927D02*
G01*
X204462812Y-77793624D01*
X204626784Y-77861544D01*
X204774354Y-77960147D01*
X204899853Y-78085646D01*
X204998456Y-78233216D01*
X205066376Y-78397188D01*
X205101000Y-78571259D01*
X205101000Y-78748741D01*
X205066376Y-78922812D01*
X204998456Y-79086784D01*
X204899853Y-79234354D01*
X204774354Y-79359853D01*
X204626784Y-79458456D01*
X204462812Y-79526376D01*
X204313512Y-79556073D01*
X204288742Y-79561000D01*
X204111258Y-79561000D01*
X204086488Y-79556073D01*
X203937188Y-79526376D01*
X203773216Y-79458456D01*
X203625646Y-79359853D01*
X203500147Y-79234354D01*
X203401544Y-79086784D01*
X203333624Y-78922812D01*
X203299000Y-78748741D01*
X203299000Y-78571259D01*
X203333624Y-78397188D01*
X203401544Y-78233216D01*
X203500147Y-78085646D01*
X203625646Y-77960147D01*
X203773216Y-77861544D01*
X203937188Y-77793624D01*
X204086488Y-77763927D01*
X204111258Y-77759000D01*
X204288742Y-77759000D01*
X204313512Y-77763927D01*
G37*
G36*
X149034969Y-77308962D02*
G01*
X149164751Y-77348331D01*
X149202789Y-77368663D01*
X149284359Y-77412263D01*
X149389199Y-77498302D01*
X149475237Y-77603140D01*
X149508028Y-77664487D01*
X149539169Y-77722748D01*
X149578538Y-77852530D01*
X149588500Y-77953679D01*
X149588500Y-78546321D01*
X149578538Y-78647470D01*
X149539169Y-78777252D01*
X149539166Y-78777257D01*
X149475237Y-78896860D01*
X149389199Y-79001699D01*
X149284360Y-79087737D01*
X149231066Y-79116223D01*
X149164752Y-79151669D01*
X149034970Y-79191038D01*
X148900000Y-79204331D01*
X148765031Y-79191038D01*
X148635249Y-79151669D01*
X148568935Y-79116223D01*
X148515641Y-79087737D01*
X148410802Y-79001699D01*
X148324765Y-78896862D01*
X148324764Y-78896861D01*
X148260831Y-78777252D01*
X148221462Y-78647470D01*
X148211500Y-78546321D01*
X148211500Y-77953680D01*
X148221462Y-77852531D01*
X148260831Y-77722749D01*
X148312084Y-77626862D01*
X148324763Y-77603141D01*
X148410802Y-77498301D01*
X148515640Y-77412263D01*
X148597210Y-77368663D01*
X148635248Y-77348331D01*
X148765030Y-77308962D01*
X148900000Y-77295669D01*
X149034969Y-77308962D01*
G37*
G36*
X147334969Y-77308962D02*
G01*
X147464751Y-77348331D01*
X147502789Y-77368663D01*
X147584359Y-77412263D01*
X147689199Y-77498302D01*
X147775237Y-77603140D01*
X147808028Y-77664487D01*
X147839169Y-77722748D01*
X147878538Y-77852530D01*
X147888500Y-77953679D01*
X147888500Y-78546321D01*
X147878538Y-78647470D01*
X147839169Y-78777252D01*
X147839166Y-78777257D01*
X147775237Y-78896860D01*
X147689199Y-79001699D01*
X147584360Y-79087737D01*
X147531066Y-79116223D01*
X147464752Y-79151669D01*
X147334970Y-79191038D01*
X147200000Y-79204331D01*
X147065031Y-79191038D01*
X146935249Y-79151669D01*
X146868935Y-79116223D01*
X146815641Y-79087737D01*
X146710802Y-79001699D01*
X146624765Y-78896862D01*
X146624764Y-78896861D01*
X146560831Y-78777252D01*
X146521462Y-78647470D01*
X146511500Y-78546321D01*
X146511500Y-77953680D01*
X146521462Y-77852531D01*
X146560831Y-77722749D01*
X146612084Y-77626862D01*
X146624763Y-77603141D01*
X146710802Y-77498301D01*
X146815640Y-77412263D01*
X146897210Y-77368663D01*
X146935248Y-77348331D01*
X147065030Y-77308962D01*
X147200000Y-77295669D01*
X147334969Y-77308962D01*
G37*
G36*
X150734969Y-77308962D02*
G01*
X150864751Y-77348331D01*
X150902789Y-77368663D01*
X150984359Y-77412263D01*
X151089199Y-77498302D01*
X151175237Y-77603140D01*
X151208028Y-77664487D01*
X151239169Y-77722748D01*
X151278538Y-77852530D01*
X151288500Y-77953679D01*
X151288500Y-78546321D01*
X151278538Y-78647470D01*
X151239169Y-78777252D01*
X151239166Y-78777257D01*
X151175237Y-78896860D01*
X151089199Y-79001699D01*
X150984360Y-79087737D01*
X150931066Y-79116223D01*
X150864752Y-79151669D01*
X150734970Y-79191038D01*
X150600000Y-79204331D01*
X150465031Y-79191038D01*
X150335249Y-79151669D01*
X150268935Y-79116223D01*
X150215641Y-79087737D01*
X150110802Y-79001699D01*
X150024765Y-78896862D01*
X150024764Y-78896861D01*
X149960831Y-78777252D01*
X149921462Y-78647470D01*
X149911500Y-78546321D01*
X149911500Y-77953680D01*
X149921462Y-77852531D01*
X149960831Y-77722749D01*
X150012084Y-77626862D01*
X150024763Y-77603141D01*
X150110802Y-77498301D01*
X150215640Y-77412263D01*
X150297210Y-77368663D01*
X150335248Y-77348331D01*
X150465030Y-77308962D01*
X150600000Y-77295669D01*
X150734969Y-77308962D01*
G37*
G36*
X152434969Y-77308962D02*
G01*
X152564751Y-77348331D01*
X152602789Y-77368663D01*
X152684359Y-77412263D01*
X152789199Y-77498302D01*
X152875237Y-77603140D01*
X152908028Y-77664487D01*
X152939169Y-77722748D01*
X152978538Y-77852530D01*
X152988500Y-77953679D01*
X152988500Y-78546321D01*
X152978538Y-78647470D01*
X152939169Y-78777252D01*
X152939166Y-78777257D01*
X152875237Y-78896860D01*
X152789199Y-79001699D01*
X152684360Y-79087737D01*
X152631066Y-79116223D01*
X152564752Y-79151669D01*
X152434970Y-79191038D01*
X152300000Y-79204331D01*
X152165031Y-79191038D01*
X152035249Y-79151669D01*
X151968935Y-79116223D01*
X151915641Y-79087737D01*
X151810802Y-79001699D01*
X151724765Y-78896862D01*
X151724764Y-78896861D01*
X151660831Y-78777252D01*
X151621462Y-78647470D01*
X151611500Y-78546321D01*
X151611500Y-77953680D01*
X151621462Y-77852531D01*
X151660831Y-77722749D01*
X151712084Y-77626862D01*
X151724763Y-77603141D01*
X151810802Y-77498301D01*
X151915640Y-77412263D01*
X151997210Y-77368663D01*
X152035248Y-77348331D01*
X152165030Y-77308962D01*
X152300000Y-77295669D01*
X152434969Y-77308962D01*
G37*
G36*
X146188500Y-79201000D02*
G01*
X144811500Y-79201000D01*
X144811500Y-77299000D01*
X146188500Y-77299000D01*
X146188500Y-79201000D01*
G37*
G36*
X166559468Y-77503565D02*
G01*
X166598138Y-77515296D01*
X166633777Y-77534346D01*
X166665017Y-77559983D01*
X166690654Y-77591223D01*
X166709704Y-77626862D01*
X166721435Y-77665532D01*
X166726000Y-77711888D01*
X166726000Y-78788112D01*
X166721435Y-78834468D01*
X166709704Y-78873138D01*
X166690654Y-78908777D01*
X166665017Y-78940017D01*
X166633777Y-78965654D01*
X166598138Y-78984704D01*
X166559468Y-78996435D01*
X166513112Y-79001000D01*
X165861888Y-79001000D01*
X165815532Y-78996435D01*
X165776862Y-78984704D01*
X165741223Y-78965654D01*
X165709983Y-78940017D01*
X165684346Y-78908777D01*
X165665296Y-78873138D01*
X165653565Y-78834468D01*
X165649000Y-78788112D01*
X165649000Y-77711888D01*
X165653565Y-77665532D01*
X165665296Y-77626862D01*
X165684346Y-77591223D01*
X165709983Y-77559983D01*
X165741223Y-77534346D01*
X165776862Y-77515296D01*
X165815532Y-77503565D01*
X165861888Y-77499000D01*
X166513112Y-77499000D01*
X166559468Y-77503565D01*
G37*
G36*
X164684468Y-77503565D02*
G01*
X164723138Y-77515296D01*
X164758777Y-77534346D01*
X164790017Y-77559983D01*
X164815654Y-77591223D01*
X164834704Y-77626862D01*
X164846435Y-77665532D01*
X164851000Y-77711888D01*
X164851000Y-78788112D01*
X164846435Y-78834468D01*
X164834704Y-78873138D01*
X164815654Y-78908777D01*
X164790017Y-78940017D01*
X164758777Y-78965654D01*
X164723138Y-78984704D01*
X164684468Y-78996435D01*
X164638112Y-79001000D01*
X163986888Y-79001000D01*
X163940532Y-78996435D01*
X163901862Y-78984704D01*
X163866223Y-78965654D01*
X163834983Y-78940017D01*
X163809346Y-78908777D01*
X163790296Y-78873138D01*
X163778565Y-78834468D01*
X163774000Y-78788112D01*
X163774000Y-77711888D01*
X163778565Y-77665532D01*
X163790296Y-77626862D01*
X163809346Y-77591223D01*
X163834983Y-77559983D01*
X163866223Y-77534346D01*
X163901862Y-77515296D01*
X163940532Y-77503565D01*
X163986888Y-77499000D01*
X164638112Y-77499000D01*
X164684468Y-77503565D01*
G37*
G36*
X175734468Y-77253565D02*
G01*
X175773138Y-77265296D01*
X175808777Y-77284346D01*
X175840017Y-77309983D01*
X175865654Y-77341223D01*
X175884704Y-77376862D01*
X175896435Y-77415532D01*
X175901000Y-77461888D01*
X175901000Y-78538112D01*
X175896435Y-78584468D01*
X175884704Y-78623138D01*
X175865654Y-78658777D01*
X175840017Y-78690017D01*
X175808777Y-78715654D01*
X175773138Y-78734704D01*
X175734468Y-78746435D01*
X175688112Y-78751000D01*
X175036888Y-78751000D01*
X174990532Y-78746435D01*
X174951862Y-78734704D01*
X174916223Y-78715654D01*
X174884983Y-78690017D01*
X174859346Y-78658777D01*
X174840296Y-78623138D01*
X174828565Y-78584468D01*
X174824000Y-78538112D01*
X174824000Y-77461888D01*
X174828565Y-77415532D01*
X174840296Y-77376862D01*
X174859346Y-77341223D01*
X174884983Y-77309983D01*
X174916223Y-77284346D01*
X174951862Y-77265296D01*
X174990532Y-77253565D01*
X175036888Y-77249000D01*
X175688112Y-77249000D01*
X175734468Y-77253565D01*
G37*
G36*
X177609468Y-77253565D02*
G01*
X177648138Y-77265296D01*
X177683777Y-77284346D01*
X177715017Y-77309983D01*
X177740654Y-77341223D01*
X177759704Y-77376862D01*
X177771435Y-77415532D01*
X177776000Y-77461888D01*
X177776000Y-78538112D01*
X177771435Y-78584468D01*
X177759704Y-78623138D01*
X177740654Y-78658777D01*
X177715017Y-78690017D01*
X177683777Y-78715654D01*
X177648138Y-78734704D01*
X177609468Y-78746435D01*
X177563112Y-78751000D01*
X176911888Y-78751000D01*
X176865532Y-78746435D01*
X176826862Y-78734704D01*
X176791223Y-78715654D01*
X176759983Y-78690017D01*
X176734346Y-78658777D01*
X176715296Y-78623138D01*
X176703565Y-78584468D01*
X176699000Y-78538112D01*
X176699000Y-77461888D01*
X176703565Y-77415532D01*
X176715296Y-77376862D01*
X176734346Y-77341223D01*
X176759983Y-77309983D01*
X176791223Y-77284346D01*
X176826862Y-77265296D01*
X176865532Y-77253565D01*
X176911888Y-77249000D01*
X177563112Y-77249000D01*
X177609468Y-77253565D01*
G37*
G36*
X180617818Y-77407696D02*
G01*
X180731105Y-77442062D01*
X180835512Y-77497869D01*
X180927027Y-77572973D01*
X181002131Y-77664488D01*
X181057938Y-77768895D01*
X181092304Y-77882182D01*
X181103907Y-78000000D01*
X181092304Y-78117818D01*
X181057938Y-78231105D01*
X181002131Y-78335512D01*
X180927027Y-78427027D01*
X180835512Y-78502131D01*
X180731105Y-78557938D01*
X180617818Y-78592304D01*
X180529519Y-78601000D01*
X179070481Y-78601000D01*
X178982182Y-78592304D01*
X178868895Y-78557938D01*
X178764488Y-78502131D01*
X178672973Y-78427027D01*
X178597869Y-78335512D01*
X178542062Y-78231105D01*
X178507696Y-78117818D01*
X178496093Y-78000000D01*
X178507696Y-77882182D01*
X178542062Y-77768895D01*
X178597869Y-77664488D01*
X178672973Y-77572973D01*
X178764488Y-77497869D01*
X178868895Y-77442062D01*
X178982182Y-77407696D01*
X179070481Y-77399000D01*
X180529519Y-77399000D01*
X180617818Y-77407696D01*
G37*
G36*
X195917818Y-77407696D02*
G01*
X196031105Y-77442062D01*
X196135512Y-77497869D01*
X196227027Y-77572973D01*
X196302131Y-77664488D01*
X196357938Y-77768895D01*
X196392304Y-77882182D01*
X196403907Y-78000000D01*
X196392304Y-78117818D01*
X196357938Y-78231105D01*
X196302131Y-78335512D01*
X196227027Y-78427027D01*
X196135512Y-78502131D01*
X196031105Y-78557938D01*
X195917818Y-78592304D01*
X195829519Y-78601000D01*
X194370481Y-78601000D01*
X194282182Y-78592304D01*
X194168895Y-78557938D01*
X194064488Y-78502131D01*
X193972973Y-78427027D01*
X193897869Y-78335512D01*
X193842062Y-78231105D01*
X193807696Y-78117818D01*
X193796093Y-78000000D01*
X193807696Y-77882182D01*
X193842062Y-77768895D01*
X193897869Y-77664488D01*
X193972973Y-77572973D01*
X194064488Y-77497869D01*
X194168895Y-77442062D01*
X194282182Y-77407696D01*
X194370481Y-77399000D01*
X195829519Y-77399000D01*
X195917818Y-77407696D01*
G37*
G36*
X198584468Y-77403565D02*
G01*
X198623138Y-77415296D01*
X198658777Y-77434346D01*
X198690017Y-77459983D01*
X198715654Y-77491223D01*
X198734704Y-77526862D01*
X198746435Y-77565532D01*
X198751000Y-77611888D01*
X198751000Y-78263112D01*
X198746435Y-78309468D01*
X198734704Y-78348138D01*
X198715654Y-78383777D01*
X198690017Y-78415017D01*
X198658777Y-78440654D01*
X198623138Y-78459704D01*
X198584468Y-78471435D01*
X198538112Y-78476000D01*
X197461888Y-78476000D01*
X197415532Y-78471435D01*
X197376862Y-78459704D01*
X197341223Y-78440654D01*
X197309983Y-78415017D01*
X197284346Y-78383777D01*
X197265296Y-78348138D01*
X197253565Y-78309468D01*
X197249000Y-78263112D01*
X197249000Y-77611888D01*
X197253565Y-77565532D01*
X197265296Y-77526862D01*
X197284346Y-77491223D01*
X197309983Y-77459983D01*
X197341223Y-77434346D01*
X197376862Y-77415296D01*
X197415532Y-77403565D01*
X197461888Y-77399000D01*
X198538112Y-77399000D01*
X198584468Y-77403565D01*
G37*
G36*
X200684468Y-77403565D02*
G01*
X200723138Y-77415296D01*
X200758777Y-77434346D01*
X200790017Y-77459983D01*
X200815654Y-77491223D01*
X200834704Y-77526862D01*
X200846435Y-77565532D01*
X200851000Y-77611888D01*
X200851000Y-78263112D01*
X200846435Y-78309468D01*
X200834704Y-78348138D01*
X200815654Y-78383777D01*
X200790017Y-78415017D01*
X200758777Y-78440654D01*
X200723138Y-78459704D01*
X200684468Y-78471435D01*
X200638112Y-78476000D01*
X199561888Y-78476000D01*
X199515532Y-78471435D01*
X199476862Y-78459704D01*
X199441223Y-78440654D01*
X199409983Y-78415017D01*
X199384346Y-78383777D01*
X199365296Y-78348138D01*
X199353565Y-78309468D01*
X199349000Y-78263112D01*
X199349000Y-77611888D01*
X199353565Y-77565532D01*
X199365296Y-77526862D01*
X199384346Y-77491223D01*
X199409983Y-77459983D01*
X199441223Y-77434346D01*
X199476862Y-77415296D01*
X199515532Y-77403565D01*
X199561888Y-77399000D01*
X200638112Y-77399000D01*
X200684468Y-77403565D01*
G37*
G36*
X171375256Y-74141298D02*
G01*
X171481579Y-74162447D01*
X171647334Y-74231105D01*
X171765020Y-74279852D01*
X171782042Y-74286903D01*
X172052451Y-74467585D01*
X172282415Y-74697549D01*
X172463097Y-74967958D01*
X172463098Y-74967960D01*
X172490568Y-75034278D01*
X172581424Y-75253624D01*
X172587553Y-75268422D01*
X172649105Y-75577861D01*
X172651000Y-75587391D01*
X172651000Y-75912609D01*
X172587553Y-76231579D01*
X172463097Y-76532042D01*
X172282415Y-76802451D01*
X172052451Y-77032415D01*
X171782042Y-77213097D01*
X171481579Y-77337553D01*
X171427394Y-77348331D01*
X171162611Y-77401000D01*
X170837389Y-77401000D01*
X170572606Y-77348331D01*
X170518421Y-77337553D01*
X170217958Y-77213097D01*
X169947549Y-77032415D01*
X169717585Y-76802451D01*
X169536903Y-76532042D01*
X169412447Y-76231579D01*
X169349000Y-75912609D01*
X169349000Y-75587391D01*
X169350896Y-75577861D01*
X169412447Y-75268422D01*
X169418577Y-75253624D01*
X169509432Y-75034278D01*
X169536902Y-74967960D01*
X169536903Y-74967958D01*
X169717585Y-74697549D01*
X169947549Y-74467585D01*
X170217958Y-74286903D01*
X170234981Y-74279852D01*
X170352666Y-74231105D01*
X170518421Y-74162447D01*
X170624744Y-74141298D01*
X170837389Y-74099000D01*
X171162611Y-74099000D01*
X171375256Y-74141298D01*
G37*
G36*
X204313512Y-75223927D02*
G01*
X204462812Y-75253624D01*
X204626784Y-75321544D01*
X204774354Y-75420147D01*
X204899853Y-75545646D01*
X204998456Y-75693216D01*
X205066376Y-75857188D01*
X205101000Y-76031259D01*
X205101000Y-76208741D01*
X205066376Y-76382812D01*
X204998456Y-76546784D01*
X204899853Y-76694354D01*
X204774354Y-76819853D01*
X204626784Y-76918456D01*
X204462812Y-76986376D01*
X204313512Y-77016073D01*
X204288742Y-77021000D01*
X204111258Y-77021000D01*
X204086488Y-77016073D01*
X203937188Y-76986376D01*
X203773216Y-76918456D01*
X203625646Y-76819853D01*
X203500147Y-76694354D01*
X203401544Y-76546784D01*
X203333624Y-76382812D01*
X203299000Y-76208741D01*
X203299000Y-76031259D01*
X203333624Y-75857188D01*
X203401544Y-75693216D01*
X203500147Y-75545646D01*
X203625646Y-75420147D01*
X203773216Y-75321544D01*
X203937188Y-75253624D01*
X204086488Y-75223927D01*
X204111258Y-75219000D01*
X204288742Y-75219000D01*
X204313512Y-75223927D01*
G37*
G36*
X164684468Y-75503565D02*
G01*
X164723138Y-75515296D01*
X164758777Y-75534346D01*
X164790017Y-75559983D01*
X164815654Y-75591223D01*
X164834704Y-75626862D01*
X164846435Y-75665532D01*
X164851000Y-75711888D01*
X164851000Y-76788112D01*
X164846435Y-76834468D01*
X164834704Y-76873138D01*
X164815654Y-76908777D01*
X164790017Y-76940017D01*
X164758777Y-76965654D01*
X164723138Y-76984704D01*
X164684468Y-76996435D01*
X164638112Y-77001000D01*
X163986888Y-77001000D01*
X163940532Y-76996435D01*
X163901862Y-76984704D01*
X163866223Y-76965654D01*
X163834983Y-76940017D01*
X163809346Y-76908777D01*
X163790296Y-76873138D01*
X163778565Y-76834468D01*
X163774000Y-76788112D01*
X163774000Y-75711888D01*
X163778565Y-75665532D01*
X163790296Y-75626862D01*
X163809346Y-75591223D01*
X163834983Y-75559983D01*
X163866223Y-75534346D01*
X163901862Y-75515296D01*
X163940532Y-75503565D01*
X163986888Y-75499000D01*
X164638112Y-75499000D01*
X164684468Y-75503565D01*
G37*
G36*
X166559468Y-75503565D02*
G01*
X166598138Y-75515296D01*
X166633777Y-75534346D01*
X166665017Y-75559983D01*
X166690654Y-75591223D01*
X166709704Y-75626862D01*
X166721435Y-75665532D01*
X166726000Y-75711888D01*
X166726000Y-76788112D01*
X166721435Y-76834468D01*
X166709704Y-76873138D01*
X166690654Y-76908777D01*
X166665017Y-76940017D01*
X166633777Y-76965654D01*
X166598138Y-76984704D01*
X166559468Y-76996435D01*
X166513112Y-77001000D01*
X165861888Y-77001000D01*
X165815532Y-76996435D01*
X165776862Y-76984704D01*
X165741223Y-76965654D01*
X165709983Y-76940017D01*
X165684346Y-76908777D01*
X165665296Y-76873138D01*
X165653565Y-76834468D01*
X165649000Y-76788112D01*
X165649000Y-75711888D01*
X165653565Y-75665532D01*
X165665296Y-75626862D01*
X165684346Y-75591223D01*
X165709983Y-75559983D01*
X165741223Y-75534346D01*
X165776862Y-75515296D01*
X165815532Y-75503565D01*
X165861888Y-75499000D01*
X166513112Y-75499000D01*
X166559468Y-75503565D01*
G37*
G36*
X196017818Y-75407696D02*
G01*
X196131105Y-75442062D01*
X196235512Y-75497869D01*
X196327027Y-75572973D01*
X196402131Y-75664488D01*
X196457938Y-75768895D01*
X196492304Y-75882182D01*
X196503907Y-76000000D01*
X196492304Y-76117818D01*
X196457938Y-76231105D01*
X196402131Y-76335512D01*
X196327027Y-76427027D01*
X196235512Y-76502131D01*
X196131105Y-76557938D01*
X196017818Y-76592304D01*
X195929519Y-76601000D01*
X194470481Y-76601000D01*
X194382182Y-76592304D01*
X194268895Y-76557938D01*
X194164488Y-76502131D01*
X194072973Y-76427027D01*
X193997869Y-76335512D01*
X193942062Y-76231105D01*
X193907696Y-76117818D01*
X193896093Y-76000000D01*
X193907696Y-75882182D01*
X193942062Y-75768895D01*
X193997869Y-75664488D01*
X194072973Y-75572973D01*
X194164488Y-75497869D01*
X194268895Y-75442062D01*
X194382182Y-75407696D01*
X194470481Y-75399000D01*
X195929519Y-75399000D01*
X196017818Y-75407696D01*
G37*
G36*
X180617818Y-75407696D02*
G01*
X180731105Y-75442062D01*
X180835512Y-75497869D01*
X180927027Y-75572973D01*
X181002131Y-75664488D01*
X181057938Y-75768895D01*
X181092304Y-75882182D01*
X181103907Y-76000000D01*
X181092304Y-76117818D01*
X181057938Y-76231105D01*
X181002131Y-76335512D01*
X180927027Y-76427027D01*
X180835512Y-76502131D01*
X180731105Y-76557938D01*
X180617818Y-76592304D01*
X180529519Y-76601000D01*
X179070481Y-76601000D01*
X178982182Y-76592304D01*
X178868895Y-76557938D01*
X178764488Y-76502131D01*
X178672973Y-76427027D01*
X178597869Y-76335512D01*
X178542062Y-76231105D01*
X178507696Y-76117818D01*
X178496093Y-76000000D01*
X178507696Y-75882182D01*
X178542062Y-75768895D01*
X178597869Y-75664488D01*
X178672973Y-75572973D01*
X178764488Y-75497869D01*
X178868895Y-75442062D01*
X178982182Y-75407696D01*
X179070481Y-75399000D01*
X180529519Y-75399000D01*
X180617818Y-75407696D01*
G37*
G36*
X200684468Y-75528565D02*
G01*
X200723138Y-75540296D01*
X200758777Y-75559346D01*
X200790017Y-75584983D01*
X200815654Y-75616223D01*
X200834704Y-75651862D01*
X200846435Y-75690532D01*
X200851000Y-75736888D01*
X200851000Y-76388112D01*
X200846435Y-76434468D01*
X200834704Y-76473138D01*
X200815654Y-76508777D01*
X200790017Y-76540017D01*
X200758777Y-76565654D01*
X200723138Y-76584704D01*
X200684468Y-76596435D01*
X200638112Y-76601000D01*
X199561888Y-76601000D01*
X199515532Y-76596435D01*
X199476862Y-76584704D01*
X199441223Y-76565654D01*
X199409983Y-76540017D01*
X199384346Y-76508777D01*
X199365296Y-76473138D01*
X199353565Y-76434468D01*
X199349000Y-76388112D01*
X199349000Y-75736888D01*
X199353565Y-75690532D01*
X199365296Y-75651862D01*
X199384346Y-75616223D01*
X199409983Y-75584983D01*
X199441223Y-75559346D01*
X199476862Y-75540296D01*
X199515532Y-75528565D01*
X199561888Y-75524000D01*
X200638112Y-75524000D01*
X200684468Y-75528565D01*
G37*
G36*
X198584468Y-75528565D02*
G01*
X198623138Y-75540296D01*
X198658777Y-75559346D01*
X198690017Y-75584983D01*
X198715654Y-75616223D01*
X198734704Y-75651862D01*
X198746435Y-75690532D01*
X198751000Y-75736888D01*
X198751000Y-76388112D01*
X198746435Y-76434468D01*
X198734704Y-76473138D01*
X198715654Y-76508777D01*
X198690017Y-76540017D01*
X198658777Y-76565654D01*
X198623138Y-76584704D01*
X198584468Y-76596435D01*
X198538112Y-76601000D01*
X197461888Y-76601000D01*
X197415532Y-76596435D01*
X197376862Y-76584704D01*
X197341223Y-76565654D01*
X197309983Y-76540017D01*
X197284346Y-76508777D01*
X197265296Y-76473138D01*
X197253565Y-76434468D01*
X197249000Y-76388112D01*
X197249000Y-75736888D01*
X197253565Y-75690532D01*
X197265296Y-75651862D01*
X197284346Y-75616223D01*
X197309983Y-75584983D01*
X197341223Y-75559346D01*
X197376862Y-75540296D01*
X197415532Y-75528565D01*
X197461888Y-75524000D01*
X198538112Y-75524000D01*
X198584468Y-75528565D01*
G37*
G36*
X159459468Y-73753565D02*
G01*
X159498138Y-73765296D01*
X159533777Y-73784346D01*
X159565017Y-73809983D01*
X159590654Y-73841223D01*
X159609704Y-73876862D01*
X159621435Y-73915532D01*
X159626000Y-73961888D01*
X159626000Y-75038112D01*
X159621435Y-75084468D01*
X159609704Y-75123138D01*
X159590654Y-75158777D01*
X159565017Y-75190017D01*
X159533777Y-75215654D01*
X159498138Y-75234704D01*
X159459468Y-75246435D01*
X159413112Y-75251000D01*
X158761888Y-75251000D01*
X158715532Y-75246435D01*
X158676862Y-75234704D01*
X158641223Y-75215654D01*
X158609983Y-75190017D01*
X158584346Y-75158777D01*
X158565296Y-75123138D01*
X158553565Y-75084468D01*
X158549000Y-75038112D01*
X158549000Y-73961888D01*
X158553565Y-73915532D01*
X158565296Y-73876862D01*
X158584346Y-73841223D01*
X158609983Y-73809983D01*
X158641223Y-73784346D01*
X158676862Y-73765296D01*
X158715532Y-73753565D01*
X158761888Y-73749000D01*
X159413112Y-73749000D01*
X159459468Y-73753565D01*
G37*
G36*
X157584468Y-73753565D02*
G01*
X157623138Y-73765296D01*
X157658777Y-73784346D01*
X157690017Y-73809983D01*
X157715654Y-73841223D01*
X157734704Y-73876862D01*
X157746435Y-73915532D01*
X157751000Y-73961888D01*
X157751000Y-75038112D01*
X157746435Y-75084468D01*
X157734704Y-75123138D01*
X157715654Y-75158777D01*
X157690017Y-75190017D01*
X157658777Y-75215654D01*
X157623138Y-75234704D01*
X157584468Y-75246435D01*
X157538112Y-75251000D01*
X156886888Y-75251000D01*
X156840532Y-75246435D01*
X156801862Y-75234704D01*
X156766223Y-75215654D01*
X156734983Y-75190017D01*
X156709346Y-75158777D01*
X156690296Y-75123138D01*
X156678565Y-75084468D01*
X156674000Y-75038112D01*
X156674000Y-73961888D01*
X156678565Y-73915532D01*
X156690296Y-73876862D01*
X156709346Y-73841223D01*
X156734983Y-73809983D01*
X156766223Y-73784346D01*
X156801862Y-73765296D01*
X156840532Y-73753565D01*
X156886888Y-73749000D01*
X157538112Y-73749000D01*
X157584468Y-73753565D01*
G37*
G36*
X164684468Y-73503565D02*
G01*
X164723138Y-73515296D01*
X164758777Y-73534346D01*
X164790017Y-73559983D01*
X164815654Y-73591223D01*
X164834704Y-73626862D01*
X164846435Y-73665532D01*
X164851000Y-73711888D01*
X164851000Y-74788112D01*
X164846435Y-74834468D01*
X164834704Y-74873138D01*
X164815654Y-74908777D01*
X164790017Y-74940017D01*
X164758777Y-74965654D01*
X164723138Y-74984704D01*
X164684468Y-74996435D01*
X164638112Y-75001000D01*
X163986888Y-75001000D01*
X163940532Y-74996435D01*
X163901862Y-74984704D01*
X163866223Y-74965654D01*
X163834983Y-74940017D01*
X163809346Y-74908777D01*
X163790296Y-74873138D01*
X163778565Y-74834468D01*
X163774000Y-74788112D01*
X163774000Y-73711888D01*
X163778565Y-73665532D01*
X163790296Y-73626862D01*
X163809346Y-73591223D01*
X163834983Y-73559983D01*
X163866223Y-73534346D01*
X163901862Y-73515296D01*
X163940532Y-73503565D01*
X163986888Y-73499000D01*
X164638112Y-73499000D01*
X164684468Y-73503565D01*
G37*
G36*
X166559468Y-73503565D02*
G01*
X166598138Y-73515296D01*
X166633777Y-73534346D01*
X166665017Y-73559983D01*
X166690654Y-73591223D01*
X166709704Y-73626862D01*
X166721435Y-73665532D01*
X166726000Y-73711888D01*
X166726000Y-74788112D01*
X166721435Y-74834468D01*
X166709704Y-74873138D01*
X166690654Y-74908777D01*
X166665017Y-74940017D01*
X166633777Y-74965654D01*
X166598138Y-74984704D01*
X166559468Y-74996435D01*
X166513112Y-75001000D01*
X165861888Y-75001000D01*
X165815532Y-74996435D01*
X165776862Y-74984704D01*
X165741223Y-74965654D01*
X165709983Y-74940017D01*
X165684346Y-74908777D01*
X165665296Y-74873138D01*
X165653565Y-74834468D01*
X165649000Y-74788112D01*
X165649000Y-73711888D01*
X165653565Y-73665532D01*
X165665296Y-73626862D01*
X165684346Y-73591223D01*
X165709983Y-73559983D01*
X165741223Y-73534346D01*
X165776862Y-73515296D01*
X165815532Y-73503565D01*
X165861888Y-73499000D01*
X166513112Y-73499000D01*
X166559468Y-73503565D01*
G37*
G36*
X196017818Y-73407696D02*
G01*
X196131105Y-73442062D01*
X196235512Y-73497869D01*
X196327027Y-73572973D01*
X196402131Y-73664488D01*
X196457938Y-73768895D01*
X196492304Y-73882182D01*
X196503907Y-74000000D01*
X196492304Y-74117818D01*
X196457938Y-74231105D01*
X196402131Y-74335512D01*
X196327027Y-74427027D01*
X196235512Y-74502131D01*
X196131105Y-74557938D01*
X196017818Y-74592304D01*
X195929519Y-74601000D01*
X194470481Y-74601000D01*
X194382182Y-74592304D01*
X194268895Y-74557938D01*
X194164488Y-74502131D01*
X194072973Y-74427027D01*
X193997869Y-74335512D01*
X193942062Y-74231105D01*
X193907696Y-74117818D01*
X193896093Y-74000000D01*
X193907696Y-73882182D01*
X193942062Y-73768895D01*
X193997869Y-73664488D01*
X194072973Y-73572973D01*
X194164488Y-73497869D01*
X194268895Y-73442062D01*
X194382182Y-73407696D01*
X194470481Y-73399000D01*
X195929519Y-73399000D01*
X196017818Y-73407696D01*
G37*
G36*
X180617818Y-73407696D02*
G01*
X180731105Y-73442062D01*
X180835512Y-73497869D01*
X180927027Y-73572973D01*
X181002131Y-73664488D01*
X181057938Y-73768895D01*
X181092304Y-73882182D01*
X181103907Y-74000000D01*
X181092304Y-74117818D01*
X181057938Y-74231105D01*
X181002131Y-74335512D01*
X180927027Y-74427027D01*
X180835512Y-74502131D01*
X180731105Y-74557938D01*
X180617818Y-74592304D01*
X180529519Y-74601000D01*
X179070481Y-74601000D01*
X178982182Y-74592304D01*
X178868895Y-74557938D01*
X178764488Y-74502131D01*
X178672973Y-74427027D01*
X178597869Y-74335512D01*
X178542062Y-74231105D01*
X178507696Y-74117818D01*
X178496093Y-74000000D01*
X178507696Y-73882182D01*
X178542062Y-73768895D01*
X178597869Y-73664488D01*
X178672973Y-73572973D01*
X178764488Y-73497869D01*
X178868895Y-73442062D01*
X178982182Y-73407696D01*
X179070481Y-73399000D01*
X180529519Y-73399000D01*
X180617818Y-73407696D01*
G37*
G36*
X204313512Y-72683927D02*
G01*
X204462812Y-72713624D01*
X204626784Y-72781544D01*
X204774354Y-72880147D01*
X204899853Y-73005646D01*
X204998456Y-73153216D01*
X205066376Y-73317188D01*
X205101000Y-73491259D01*
X205101000Y-73668741D01*
X205066376Y-73842812D01*
X204998456Y-74006784D01*
X204899853Y-74154354D01*
X204774354Y-74279853D01*
X204626784Y-74378456D01*
X204462812Y-74446376D01*
X204313512Y-74476073D01*
X204288742Y-74481000D01*
X204111258Y-74481000D01*
X204086488Y-74476073D01*
X203937188Y-74446376D01*
X203773216Y-74378456D01*
X203625646Y-74279853D01*
X203500147Y-74154354D01*
X203401544Y-74006784D01*
X203333624Y-73842812D01*
X203299000Y-73668741D01*
X203299000Y-73491259D01*
X203333624Y-73317188D01*
X203401544Y-73153216D01*
X203500147Y-73005646D01*
X203625646Y-72880147D01*
X203773216Y-72781544D01*
X203937188Y-72713624D01*
X204086488Y-72683927D01*
X204111258Y-72679000D01*
X204288742Y-72679000D01*
X204313512Y-72683927D01*
G37*
G36*
X154184468Y-72503565D02*
G01*
X154223138Y-72515296D01*
X154258777Y-72534346D01*
X154290017Y-72559983D01*
X154315654Y-72591223D01*
X154334704Y-72626862D01*
X154346435Y-72665532D01*
X154351000Y-72711888D01*
X154351000Y-73788112D01*
X154346435Y-73834468D01*
X154334704Y-73873138D01*
X154315654Y-73908777D01*
X154290017Y-73940017D01*
X154258777Y-73965654D01*
X154223138Y-73984704D01*
X154184468Y-73996435D01*
X154138112Y-74001000D01*
X153486888Y-74001000D01*
X153440532Y-73996435D01*
X153401862Y-73984704D01*
X153366223Y-73965654D01*
X153334983Y-73940017D01*
X153309346Y-73908777D01*
X153290296Y-73873138D01*
X153278565Y-73834468D01*
X153274000Y-73788112D01*
X153274000Y-72711888D01*
X153278565Y-72665532D01*
X153290296Y-72626862D01*
X153309346Y-72591223D01*
X153334983Y-72559983D01*
X153366223Y-72534346D01*
X153401862Y-72515296D01*
X153440532Y-72503565D01*
X153486888Y-72499000D01*
X154138112Y-72499000D01*
X154184468Y-72503565D01*
G37*
G36*
X156059468Y-72503565D02*
G01*
X156098138Y-72515296D01*
X156133777Y-72534346D01*
X156165017Y-72559983D01*
X156190654Y-72591223D01*
X156209704Y-72626862D01*
X156221435Y-72665532D01*
X156226000Y-72711888D01*
X156226000Y-73788112D01*
X156221435Y-73834468D01*
X156209704Y-73873138D01*
X156190654Y-73908777D01*
X156165017Y-73940017D01*
X156133777Y-73965654D01*
X156098138Y-73984704D01*
X156059468Y-73996435D01*
X156013112Y-74001000D01*
X155361888Y-74001000D01*
X155315532Y-73996435D01*
X155276862Y-73984704D01*
X155241223Y-73965654D01*
X155209983Y-73940017D01*
X155184346Y-73908777D01*
X155165296Y-73873138D01*
X155153565Y-73834468D01*
X155149000Y-73788112D01*
X155149000Y-72711888D01*
X155153565Y-72665532D01*
X155165296Y-72626862D01*
X155184346Y-72591223D01*
X155209983Y-72559983D01*
X155241223Y-72534346D01*
X155276862Y-72515296D01*
X155315532Y-72503565D01*
X155361888Y-72499000D01*
X156013112Y-72499000D01*
X156059468Y-72503565D01*
G37*
G36*
X177784468Y-72803565D02*
G01*
X177823138Y-72815296D01*
X177858777Y-72834346D01*
X177890017Y-72859983D01*
X177915654Y-72891223D01*
X177934704Y-72926862D01*
X177946435Y-72965532D01*
X177951000Y-73011888D01*
X177951000Y-73663112D01*
X177946435Y-73709468D01*
X177934704Y-73748138D01*
X177915654Y-73783777D01*
X177890017Y-73815017D01*
X177858777Y-73840654D01*
X177823138Y-73859704D01*
X177784468Y-73871435D01*
X177738112Y-73876000D01*
X176661888Y-73876000D01*
X176615532Y-73871435D01*
X176576862Y-73859704D01*
X176541223Y-73840654D01*
X176509983Y-73815017D01*
X176484346Y-73783777D01*
X176465296Y-73748138D01*
X176453565Y-73709468D01*
X176449000Y-73663112D01*
X176449000Y-73011888D01*
X176453565Y-72965532D01*
X176465296Y-72926862D01*
X176484346Y-72891223D01*
X176509983Y-72859983D01*
X176541223Y-72834346D01*
X176576862Y-72815296D01*
X176615532Y-72803565D01*
X176661888Y-72799000D01*
X177738112Y-72799000D01*
X177784468Y-72803565D01*
G37*
G36*
X196017818Y-71407696D02*
G01*
X196131105Y-71442062D01*
X196235512Y-71497869D01*
X196327027Y-71572973D01*
X196402131Y-71664488D01*
X196457938Y-71768895D01*
X196492304Y-71882182D01*
X196503907Y-72000000D01*
X196492304Y-72117818D01*
X196457938Y-72231105D01*
X196402131Y-72335512D01*
X196327027Y-72427027D01*
X196235512Y-72502131D01*
X196131105Y-72557938D01*
X196017818Y-72592304D01*
X195929519Y-72601000D01*
X194470481Y-72601000D01*
X194382182Y-72592304D01*
X194268895Y-72557938D01*
X194164488Y-72502131D01*
X194072973Y-72427027D01*
X193997869Y-72335512D01*
X193942062Y-72231105D01*
X193907696Y-72117818D01*
X193896093Y-72000000D01*
X193907696Y-71882182D01*
X193942062Y-71768895D01*
X193997869Y-71664488D01*
X194072973Y-71572973D01*
X194164488Y-71497869D01*
X194268895Y-71442062D01*
X194382182Y-71407696D01*
X194470481Y-71399000D01*
X195929519Y-71399000D01*
X196017818Y-71407696D01*
G37*
G36*
X180617818Y-71407696D02*
G01*
X180731105Y-71442062D01*
X180835512Y-71497869D01*
X180927027Y-71572973D01*
X181002131Y-71664488D01*
X181057938Y-71768895D01*
X181092304Y-71882182D01*
X181103907Y-72000000D01*
X181092304Y-72117818D01*
X181057938Y-72231105D01*
X181002131Y-72335512D01*
X180927027Y-72427027D01*
X180835512Y-72502131D01*
X180731105Y-72557938D01*
X180617818Y-72592304D01*
X180529519Y-72601000D01*
X179070481Y-72601000D01*
X178982182Y-72592304D01*
X178868895Y-72557938D01*
X178764488Y-72502131D01*
X178672973Y-72427027D01*
X178597869Y-72335512D01*
X178542062Y-72231105D01*
X178507696Y-72117818D01*
X178496093Y-72000000D01*
X178507696Y-71882182D01*
X178542062Y-71768895D01*
X178597869Y-71664488D01*
X178672973Y-71572973D01*
X178764488Y-71497869D01*
X178868895Y-71442062D01*
X178982182Y-71407696D01*
X179070481Y-71399000D01*
X180529519Y-71399000D01*
X180617818Y-71407696D01*
G37*
G36*
X160582915Y-70687334D02*
G01*
X160691491Y-70720271D01*
X160691494Y-70720272D01*
X160725203Y-70738290D01*
X160791556Y-70773756D01*
X160879264Y-70845736D01*
X160951244Y-70933443D01*
X160978792Y-70984983D01*
X161004728Y-71033505D01*
X161004729Y-71033508D01*
X161037666Y-71142084D01*
X161046000Y-71226702D01*
X161046000Y-71733297D01*
X161037666Y-71817916D01*
X161005252Y-71924767D01*
X161004728Y-71926495D01*
X160985429Y-71962601D01*
X160951244Y-72026557D01*
X160879264Y-72114264D01*
X160791557Y-72186244D01*
X160727601Y-72220429D01*
X160691495Y-72239728D01*
X160691492Y-72239729D01*
X160582916Y-72272666D01*
X160470000Y-72283787D01*
X160357085Y-72272666D01*
X160248509Y-72239729D01*
X160248506Y-72239728D01*
X160212400Y-72220429D01*
X160148444Y-72186244D01*
X160060737Y-72114264D01*
X159988757Y-72026557D01*
X159945239Y-71945141D01*
X159931625Y-71924766D01*
X159914298Y-71907439D01*
X159893924Y-71893826D01*
X159871285Y-71884448D01*
X159847252Y-71879668D01*
X159822748Y-71879668D01*
X159798715Y-71884448D01*
X159776076Y-71893826D01*
X159755701Y-71907440D01*
X159738374Y-71924767D01*
X159724761Y-71945141D01*
X159681244Y-72026557D01*
X159609264Y-72114264D01*
X159521557Y-72186244D01*
X159457601Y-72220429D01*
X159421495Y-72239728D01*
X159421492Y-72239729D01*
X159312916Y-72272666D01*
X159200000Y-72283787D01*
X159087085Y-72272666D01*
X158978509Y-72239729D01*
X158978506Y-72239728D01*
X158942400Y-72220429D01*
X158878444Y-72186244D01*
X158790737Y-72114264D01*
X158727622Y-72037359D01*
X158710297Y-72020034D01*
X158689923Y-72006420D01*
X158667284Y-71997043D01*
X158643250Y-71992263D01*
X158618746Y-71992263D01*
X158594713Y-71997044D01*
X158572074Y-72006421D01*
X158551700Y-72020035D01*
X158534373Y-72037362D01*
X158520759Y-72057736D01*
X158511382Y-72080375D01*
X158506000Y-72116660D01*
X158506000Y-72281000D01*
X157354000Y-72281000D01*
X157354000Y-70679000D01*
X158506000Y-70679000D01*
X158506000Y-70843341D01*
X158508402Y-70867727D01*
X158515515Y-70891176D01*
X158527066Y-70912787D01*
X158542611Y-70931729D01*
X158561553Y-70947274D01*
X158583164Y-70958825D01*
X158606613Y-70965938D01*
X158630999Y-70968340D01*
X158655385Y-70965938D01*
X158678834Y-70958825D01*
X158700445Y-70947274D01*
X158719387Y-70931729D01*
X158727608Y-70922657D01*
X158790736Y-70845736D01*
X158878443Y-70773756D01*
X158944796Y-70738290D01*
X158978505Y-70720272D01*
X158978508Y-70720271D01*
X159087084Y-70687334D01*
X159200000Y-70676213D01*
X159312915Y-70687334D01*
X159421491Y-70720271D01*
X159421494Y-70720272D01*
X159455203Y-70738290D01*
X159521556Y-70773756D01*
X159609264Y-70845736D01*
X159681244Y-70933443D01*
X159716284Y-70999000D01*
X159724761Y-71014859D01*
X159738375Y-71035234D01*
X159755702Y-71052561D01*
X159776076Y-71066174D01*
X159798715Y-71075552D01*
X159822748Y-71080332D01*
X159847252Y-71080332D01*
X159871285Y-71075552D01*
X159893924Y-71066174D01*
X159914299Y-71052560D01*
X159931626Y-71035233D01*
X159945239Y-71014860D01*
X159988756Y-70933444D01*
X160060736Y-70845736D01*
X160148443Y-70773756D01*
X160214796Y-70738290D01*
X160248505Y-70720272D01*
X160248508Y-70720271D01*
X160357084Y-70687334D01*
X160470000Y-70676213D01*
X160582915Y-70687334D01*
G37*
G36*
X177784468Y-70928565D02*
G01*
X177823138Y-70940296D01*
X177858777Y-70959346D01*
X177890017Y-70984983D01*
X177915654Y-71016223D01*
X177934704Y-71051862D01*
X177946435Y-71090532D01*
X177951000Y-71136888D01*
X177951000Y-71788112D01*
X177946435Y-71834468D01*
X177934704Y-71873138D01*
X177915654Y-71908777D01*
X177890017Y-71940017D01*
X177858777Y-71965654D01*
X177823138Y-71984704D01*
X177784468Y-71996435D01*
X177738112Y-72001000D01*
X176661888Y-72001000D01*
X176615532Y-71996435D01*
X176576862Y-71984704D01*
X176541223Y-71965654D01*
X176509983Y-71940017D01*
X176484346Y-71908777D01*
X176465296Y-71873138D01*
X176453565Y-71834468D01*
X176449000Y-71788112D01*
X176449000Y-71136888D01*
X176453565Y-71090532D01*
X176465296Y-71051862D01*
X176484346Y-71016223D01*
X176509983Y-70984983D01*
X176541223Y-70959346D01*
X176576862Y-70940296D01*
X176615532Y-70928565D01*
X176661888Y-70924000D01*
X177738112Y-70924000D01*
X177784468Y-70928565D01*
G37*
G36*
X204313512Y-70143927D02*
G01*
X204462812Y-70173624D01*
X204626784Y-70241544D01*
X204774354Y-70340147D01*
X204899853Y-70465646D01*
X204998456Y-70613216D01*
X205066376Y-70777188D01*
X205095026Y-70921223D01*
X205100949Y-70951000D01*
X205101000Y-70951259D01*
X205101000Y-71128741D01*
X205066376Y-71302812D01*
X204998456Y-71466784D01*
X204899853Y-71614354D01*
X204774354Y-71739853D01*
X204626784Y-71838456D01*
X204462812Y-71906376D01*
X204313512Y-71936073D01*
X204288742Y-71941000D01*
X204111258Y-71941000D01*
X204086488Y-71936073D01*
X203937188Y-71906376D01*
X203773216Y-71838456D01*
X203625646Y-71739853D01*
X203500147Y-71614354D01*
X203401544Y-71466784D01*
X203333624Y-71302812D01*
X203299000Y-71128741D01*
X203299000Y-70951259D01*
X203299052Y-70951000D01*
X203304974Y-70921223D01*
X203333624Y-70777188D01*
X203401544Y-70613216D01*
X203500147Y-70465646D01*
X203625646Y-70340147D01*
X203773216Y-70241544D01*
X203937188Y-70173624D01*
X204086488Y-70143927D01*
X204111258Y-70139000D01*
X204288742Y-70139000D01*
X204313512Y-70143927D01*
G37*
G36*
X163584468Y-70833565D02*
G01*
X163623138Y-70845296D01*
X163658777Y-70864346D01*
X163690017Y-70889983D01*
X163715654Y-70921223D01*
X163734704Y-70956862D01*
X163746435Y-70995532D01*
X163751000Y-71041888D01*
X163751000Y-71693112D01*
X163746435Y-71739468D01*
X163734704Y-71778138D01*
X163715654Y-71813777D01*
X163690017Y-71845017D01*
X163658777Y-71870654D01*
X163623138Y-71889704D01*
X163584468Y-71901435D01*
X163538112Y-71906000D01*
X162461888Y-71906000D01*
X162415532Y-71901435D01*
X162376862Y-71889704D01*
X162341223Y-71870654D01*
X162309983Y-71845017D01*
X162284346Y-71813777D01*
X162265296Y-71778138D01*
X162253565Y-71739468D01*
X162249000Y-71693112D01*
X162249000Y-71041888D01*
X162253565Y-70995532D01*
X162265296Y-70956862D01*
X162284346Y-70921223D01*
X162309983Y-70889983D01*
X162341223Y-70864346D01*
X162376862Y-70845296D01*
X162415532Y-70833565D01*
X162461888Y-70829000D01*
X163538112Y-70829000D01*
X163584468Y-70833565D01*
G37*
G36*
X156251000Y-71901000D02*
G01*
X155249000Y-71901000D01*
X155249000Y-70999000D01*
X156251000Y-70999000D01*
X156251000Y-71901000D01*
G37*
G36*
X145998228Y-70181703D02*
G01*
X146153100Y-70245853D01*
X146292481Y-70338985D01*
X146411015Y-70457519D01*
X146504147Y-70596900D01*
X146568297Y-70751772D01*
X146601000Y-70916184D01*
X146601000Y-71083816D01*
X146568297Y-71248228D01*
X146504147Y-71403100D01*
X146411015Y-71542481D01*
X146292481Y-71661015D01*
X146153100Y-71754147D01*
X145998228Y-71818297D01*
X145833816Y-71851000D01*
X145666184Y-71851000D01*
X145501772Y-71818297D01*
X145346900Y-71754147D01*
X145207519Y-71661015D01*
X145088985Y-71542481D01*
X144995853Y-71403100D01*
X144931703Y-71248228D01*
X144899000Y-71083816D01*
X144899000Y-70916184D01*
X144931703Y-70751772D01*
X144995853Y-70596900D01*
X145088985Y-70457519D01*
X145207519Y-70338985D01*
X145346900Y-70245853D01*
X145501772Y-70181703D01*
X145666184Y-70149000D01*
X145833816Y-70149000D01*
X145998228Y-70181703D01*
G37*
G36*
X148498228Y-70181703D02*
G01*
X148653100Y-70245853D01*
X148792481Y-70338985D01*
X148911015Y-70457519D01*
X149004147Y-70596900D01*
X149068297Y-70751772D01*
X149101000Y-70916184D01*
X149101000Y-71083816D01*
X149068297Y-71248228D01*
X149004147Y-71403100D01*
X148911015Y-71542481D01*
X148792481Y-71661015D01*
X148653100Y-71754147D01*
X148498228Y-71818297D01*
X148333816Y-71851000D01*
X148166184Y-71851000D01*
X148001772Y-71818297D01*
X147846900Y-71754147D01*
X147707519Y-71661015D01*
X147588985Y-71542481D01*
X147495853Y-71403100D01*
X147431703Y-71248228D01*
X147399000Y-71083816D01*
X147399000Y-70916184D01*
X147431703Y-70751772D01*
X147495853Y-70596900D01*
X147588985Y-70457519D01*
X147707519Y-70338985D01*
X147846900Y-70245853D01*
X148001772Y-70181703D01*
X148166184Y-70149000D01*
X148333816Y-70149000D01*
X148498228Y-70181703D01*
G37*
G36*
X166001000Y-71701000D02*
G01*
X164999000Y-71701000D01*
X164999000Y-70799000D01*
X166001000Y-70799000D01*
X166001000Y-71701000D01*
G37*
G36*
X154251000Y-70951000D02*
G01*
X153249000Y-70951000D01*
X153249000Y-70049000D01*
X154251000Y-70049000D01*
X154251000Y-70951000D01*
G37*
G36*
X170910721Y-69720174D02*
G01*
X171010995Y-69761709D01*
X171055812Y-69791655D01*
X171101242Y-69822010D01*
X171177990Y-69898758D01*
X171204285Y-69938112D01*
X171238291Y-69989005D01*
X171279826Y-70089279D01*
X171301000Y-70195730D01*
X171301000Y-70304270D01*
X171279826Y-70410721D01*
X171238291Y-70510995D01*
X171238290Y-70510996D01*
X171177990Y-70601242D01*
X171101242Y-70677990D01*
X171087256Y-70687335D01*
X171010995Y-70738291D01*
X170910721Y-70779826D01*
X170804270Y-70801000D01*
X170695730Y-70801000D01*
X170589279Y-70779826D01*
X170489005Y-70738291D01*
X170412744Y-70687335D01*
X170398758Y-70677990D01*
X170322010Y-70601242D01*
X170261710Y-70510996D01*
X170261709Y-70510995D01*
X170220174Y-70410721D01*
X170199000Y-70304270D01*
X170199000Y-70195730D01*
X170220174Y-70089279D01*
X170261709Y-69989005D01*
X170295715Y-69938112D01*
X170322010Y-69898758D01*
X170398758Y-69822010D01*
X170444188Y-69791655D01*
X170489005Y-69761709D01*
X170589279Y-69720174D01*
X170695730Y-69699000D01*
X170804270Y-69699000D01*
X170910721Y-69720174D01*
G37*
G36*
X168001000Y-70751000D02*
G01*
X166999000Y-70751000D01*
X166999000Y-69849000D01*
X168001000Y-69849000D01*
X168001000Y-70751000D01*
G37*
G36*
X180617818Y-69407696D02*
G01*
X180731105Y-69442062D01*
X180835512Y-69497869D01*
X180927027Y-69572973D01*
X181002131Y-69664488D01*
X181057938Y-69768895D01*
X181092304Y-69882182D01*
X181103907Y-70000000D01*
X181092304Y-70117818D01*
X181057938Y-70231105D01*
X181002131Y-70335512D01*
X180927027Y-70427027D01*
X180835512Y-70502131D01*
X180731105Y-70557938D01*
X180617818Y-70592304D01*
X180529519Y-70601000D01*
X179070481Y-70601000D01*
X178982182Y-70592304D01*
X178868895Y-70557938D01*
X178764488Y-70502131D01*
X178672973Y-70427027D01*
X178597869Y-70335512D01*
X178542062Y-70231105D01*
X178507696Y-70117818D01*
X178496093Y-70000000D01*
X178507696Y-69882182D01*
X178542062Y-69768895D01*
X178597869Y-69664488D01*
X178672973Y-69572973D01*
X178764488Y-69497869D01*
X178868895Y-69442062D01*
X178982182Y-69407696D01*
X179070481Y-69399000D01*
X180529519Y-69399000D01*
X180617818Y-69407696D01*
G37*
G36*
X196017818Y-69407696D02*
G01*
X196131105Y-69442062D01*
X196235512Y-69497869D01*
X196327027Y-69572973D01*
X196402131Y-69664488D01*
X196457938Y-69768895D01*
X196492304Y-69882182D01*
X196503907Y-70000000D01*
X196492304Y-70117818D01*
X196457938Y-70231105D01*
X196402131Y-70335512D01*
X196327027Y-70427027D01*
X196235512Y-70502131D01*
X196131105Y-70557938D01*
X196017818Y-70592304D01*
X195929519Y-70601000D01*
X194470481Y-70601000D01*
X194382182Y-70592304D01*
X194268895Y-70557938D01*
X194164488Y-70502131D01*
X194072973Y-70427027D01*
X193997869Y-70335512D01*
X193942062Y-70231105D01*
X193907696Y-70117818D01*
X193896093Y-70000000D01*
X193907696Y-69882182D01*
X193942062Y-69768895D01*
X193997869Y-69664488D01*
X194072973Y-69572973D01*
X194164488Y-69497869D01*
X194268895Y-69442062D01*
X194382182Y-69407696D01*
X194470481Y-69399000D01*
X195929519Y-69399000D01*
X196017818Y-69407696D01*
G37*
G36*
X175934468Y-68653565D02*
G01*
X175973138Y-68665296D01*
X176008777Y-68684346D01*
X176040017Y-68709983D01*
X176065654Y-68741223D01*
X176084704Y-68776862D01*
X176096435Y-68815532D01*
X176101000Y-68861888D01*
X176101000Y-69938112D01*
X176096435Y-69984468D01*
X176084704Y-70023138D01*
X176065654Y-70058777D01*
X176040017Y-70090017D01*
X176008777Y-70115654D01*
X175973138Y-70134704D01*
X175934468Y-70146435D01*
X175888112Y-70151000D01*
X175236888Y-70151000D01*
X175190532Y-70146435D01*
X175151862Y-70134704D01*
X175116223Y-70115654D01*
X175084983Y-70090017D01*
X175059346Y-70058777D01*
X175040296Y-70023138D01*
X175028565Y-69984468D01*
X175024000Y-69938112D01*
X175024000Y-68861888D01*
X175028565Y-68815532D01*
X175040296Y-68776862D01*
X175059346Y-68741223D01*
X175084983Y-68709983D01*
X175116223Y-68684346D01*
X175151862Y-68665296D01*
X175190532Y-68653565D01*
X175236888Y-68649000D01*
X175888112Y-68649000D01*
X175934468Y-68653565D01*
G37*
G36*
X177809468Y-68653565D02*
G01*
X177848138Y-68665296D01*
X177883777Y-68684346D01*
X177915017Y-68709983D01*
X177940654Y-68741223D01*
X177959704Y-68776862D01*
X177971435Y-68815532D01*
X177976000Y-68861888D01*
X177976000Y-69938112D01*
X177971435Y-69984468D01*
X177959704Y-70023138D01*
X177940654Y-70058777D01*
X177915017Y-70090017D01*
X177883777Y-70115654D01*
X177848138Y-70134704D01*
X177809468Y-70146435D01*
X177763112Y-70151000D01*
X177111888Y-70151000D01*
X177065532Y-70146435D01*
X177026862Y-70134704D01*
X176991223Y-70115654D01*
X176959983Y-70090017D01*
X176934346Y-70058777D01*
X176915296Y-70023138D01*
X176903565Y-69984468D01*
X176899000Y-69938112D01*
X176899000Y-68861888D01*
X176903565Y-68815532D01*
X176915296Y-68776862D01*
X176934346Y-68741223D01*
X176959983Y-68709983D01*
X176991223Y-68684346D01*
X177026862Y-68665296D01*
X177065532Y-68653565D01*
X177111888Y-68649000D01*
X177763112Y-68649000D01*
X177809468Y-68653565D01*
G37*
G36*
X163584468Y-68958565D02*
G01*
X163623138Y-68970296D01*
X163658777Y-68989346D01*
X163690017Y-69014983D01*
X163715654Y-69046223D01*
X163734704Y-69081862D01*
X163746435Y-69120532D01*
X163751000Y-69166888D01*
X163751000Y-69818112D01*
X163746435Y-69864468D01*
X163734704Y-69903138D01*
X163715654Y-69938777D01*
X163690017Y-69970017D01*
X163658777Y-69995654D01*
X163623138Y-70014704D01*
X163584468Y-70026435D01*
X163538112Y-70031000D01*
X162461888Y-70031000D01*
X162415532Y-70026435D01*
X162376862Y-70014704D01*
X162341223Y-69995654D01*
X162309983Y-69970017D01*
X162284346Y-69938777D01*
X162265296Y-69903138D01*
X162253565Y-69864468D01*
X162249000Y-69818112D01*
X162249000Y-69166888D01*
X162253565Y-69120532D01*
X162265296Y-69081862D01*
X162284346Y-69046223D01*
X162309983Y-69014983D01*
X162341223Y-68989346D01*
X162376862Y-68970296D01*
X162415532Y-68958565D01*
X162461888Y-68954000D01*
X163538112Y-68954000D01*
X163584468Y-68958565D01*
G37*
G36*
X156251000Y-70001000D02*
G01*
X155249000Y-70001000D01*
X155249000Y-69099000D01*
X156251000Y-69099000D01*
X156251000Y-70001000D01*
G37*
G36*
X166001000Y-69801000D02*
G01*
X164999000Y-69801000D01*
X164999000Y-68899000D01*
X166001000Y-68899000D01*
X166001000Y-69801000D01*
G37*
G36*
X205101000Y-69401000D02*
G01*
X203299000Y-69401000D01*
X203299000Y-67599000D01*
X205101000Y-67599000D01*
X205101000Y-69401000D01*
G37*
G36*
X196017818Y-67407696D02*
G01*
X196131105Y-67442062D01*
X196235512Y-67497869D01*
X196327027Y-67572973D01*
X196402131Y-67664488D01*
X196457938Y-67768895D01*
X196492304Y-67882182D01*
X196503907Y-68000000D01*
X196492304Y-68117818D01*
X196457938Y-68231105D01*
X196402131Y-68335512D01*
X196327027Y-68427027D01*
X196235512Y-68502131D01*
X196131105Y-68557938D01*
X196017818Y-68592304D01*
X195929519Y-68601000D01*
X194470481Y-68601000D01*
X194382182Y-68592304D01*
X194268895Y-68557938D01*
X194164488Y-68502131D01*
X194072973Y-68427027D01*
X193997869Y-68335512D01*
X193942062Y-68231105D01*
X193907696Y-68117818D01*
X193896093Y-68000000D01*
X193907696Y-67882182D01*
X193942062Y-67768895D01*
X193997869Y-67664488D01*
X194072973Y-67572973D01*
X194164488Y-67497869D01*
X194268895Y-67442062D01*
X194382182Y-67407696D01*
X194470481Y-67399000D01*
X195929519Y-67399000D01*
X196017818Y-67407696D01*
G37*
G36*
X180617818Y-67407696D02*
G01*
X180731105Y-67442062D01*
X180835512Y-67497869D01*
X180927027Y-67572973D01*
X181002131Y-67664488D01*
X181057938Y-67768895D01*
X181092304Y-67882182D01*
X181103907Y-68000000D01*
X181092304Y-68117818D01*
X181057938Y-68231105D01*
X181002131Y-68335512D01*
X180927027Y-68427027D01*
X180835512Y-68502131D01*
X180731105Y-68557938D01*
X180617818Y-68592304D01*
X180529519Y-68601000D01*
X179070481Y-68601000D01*
X178982182Y-68592304D01*
X178868895Y-68557938D01*
X178764488Y-68502131D01*
X178672973Y-68427027D01*
X178597869Y-68335512D01*
X178542062Y-68231105D01*
X178507696Y-68117818D01*
X178496093Y-68000000D01*
X178507696Y-67882182D01*
X178542062Y-67768895D01*
X178597869Y-67664488D01*
X178672973Y-67572973D01*
X178764488Y-67497869D01*
X178868895Y-67442062D01*
X178982182Y-67407696D01*
X179070481Y-67399000D01*
X180529519Y-67399000D01*
X180617818Y-67407696D01*
G37*
G36*
X177809468Y-66753565D02*
G01*
X177848138Y-66765296D01*
X177883777Y-66784346D01*
X177915017Y-66809983D01*
X177940654Y-66841223D01*
X177959704Y-66876862D01*
X177971435Y-66915532D01*
X177976000Y-66961888D01*
X177976000Y-68038112D01*
X177971435Y-68084468D01*
X177959704Y-68123138D01*
X177940654Y-68158777D01*
X177915017Y-68190017D01*
X177883777Y-68215654D01*
X177848138Y-68234704D01*
X177809468Y-68246435D01*
X177763112Y-68251000D01*
X177111888Y-68251000D01*
X177065532Y-68246435D01*
X177026862Y-68234704D01*
X176991223Y-68215654D01*
X176959983Y-68190017D01*
X176934346Y-68158777D01*
X176915296Y-68123138D01*
X176903565Y-68084468D01*
X176899000Y-68038112D01*
X176899000Y-66961888D01*
X176903565Y-66915532D01*
X176915296Y-66876862D01*
X176934346Y-66841223D01*
X176959983Y-66809983D01*
X176991223Y-66784346D01*
X177026862Y-66765296D01*
X177065532Y-66753565D01*
X177111888Y-66749000D01*
X177763112Y-66749000D01*
X177809468Y-66753565D01*
G37*
G36*
X175934468Y-66753565D02*
G01*
X175973138Y-66765296D01*
X176008777Y-66784346D01*
X176040017Y-66809983D01*
X176065654Y-66841223D01*
X176084704Y-66876862D01*
X176096435Y-66915532D01*
X176101000Y-66961888D01*
X176101000Y-68038112D01*
X176096435Y-68084468D01*
X176084704Y-68123138D01*
X176065654Y-68158777D01*
X176040017Y-68190017D01*
X176008777Y-68215654D01*
X175973138Y-68234704D01*
X175934468Y-68246435D01*
X175888112Y-68251000D01*
X175236888Y-68251000D01*
X175190532Y-68246435D01*
X175151862Y-68234704D01*
X175116223Y-68215654D01*
X175084983Y-68190017D01*
X175059346Y-68158777D01*
X175040296Y-68123138D01*
X175028565Y-68084468D01*
X175024000Y-68038112D01*
X175024000Y-66961888D01*
X175028565Y-66915532D01*
X175040296Y-66876862D01*
X175059346Y-66841223D01*
X175084983Y-66809983D01*
X175116223Y-66784346D01*
X175151862Y-66765296D01*
X175190532Y-66753565D01*
X175236888Y-66749000D01*
X175888112Y-66749000D01*
X175934468Y-66753565D01*
G37*
G36*
X165121000Y-68101000D02*
G01*
X163819000Y-68101000D01*
X163819000Y-65799000D01*
X165121000Y-65799000D01*
X165121000Y-68101000D01*
G37*
G36*
X169681000Y-68101000D02*
G01*
X168379000Y-68101000D01*
X168379000Y-65799000D01*
X169681000Y-65799000D01*
X169681000Y-68101000D01*
G37*
G36*
X162884468Y-67023565D02*
G01*
X162923138Y-67035296D01*
X162958777Y-67054346D01*
X162990017Y-67079983D01*
X163015654Y-67111223D01*
X163034704Y-67146862D01*
X163046435Y-67185532D01*
X163051000Y-67231888D01*
X163051000Y-67883112D01*
X163046435Y-67929468D01*
X163034704Y-67968138D01*
X163015654Y-68003777D01*
X162990017Y-68035017D01*
X162958777Y-68060654D01*
X162923138Y-68079704D01*
X162884468Y-68091435D01*
X162838112Y-68096000D01*
X161761888Y-68096000D01*
X161715532Y-68091435D01*
X161676862Y-68079704D01*
X161641223Y-68060654D01*
X161609983Y-68035017D01*
X161584346Y-68003777D01*
X161565296Y-67968138D01*
X161553565Y-67929468D01*
X161549000Y-67883112D01*
X161549000Y-67231888D01*
X161553565Y-67185532D01*
X161565296Y-67146862D01*
X161584346Y-67111223D01*
X161609983Y-67079983D01*
X161641223Y-67054346D01*
X161676862Y-67035296D01*
X161715532Y-67023565D01*
X161761888Y-67019000D01*
X162838112Y-67019000D01*
X162884468Y-67023565D01*
G37*
G36*
X160834468Y-67023565D02*
G01*
X160873138Y-67035296D01*
X160908777Y-67054346D01*
X160940017Y-67079983D01*
X160965654Y-67111223D01*
X160984704Y-67146862D01*
X160996435Y-67185532D01*
X161001000Y-67231888D01*
X161001000Y-67883112D01*
X160996435Y-67929468D01*
X160984704Y-67968138D01*
X160965654Y-68003777D01*
X160940017Y-68035017D01*
X160908777Y-68060654D01*
X160873138Y-68079704D01*
X160834468Y-68091435D01*
X160788112Y-68096000D01*
X159711888Y-68096000D01*
X159665532Y-68091435D01*
X159626862Y-68079704D01*
X159591223Y-68060654D01*
X159559983Y-68035017D01*
X159534346Y-68003777D01*
X159515296Y-67968138D01*
X159503565Y-67929468D01*
X159499000Y-67883112D01*
X159499000Y-67231888D01*
X159503565Y-67185532D01*
X159515296Y-67146862D01*
X159534346Y-67111223D01*
X159559983Y-67079983D01*
X159591223Y-67054346D01*
X159626862Y-67035296D01*
X159665532Y-67023565D01*
X159711888Y-67019000D01*
X160788112Y-67019000D01*
X160834468Y-67023565D01*
G37*
G36*
X155536425Y-66112760D02*
G01*
X155536428Y-66112761D01*
X155536429Y-66112761D01*
X155715693Y-66167140D01*
X155715696Y-66167142D01*
X155715697Y-66167142D01*
X155880903Y-66255446D01*
X156025712Y-66374288D01*
X156144554Y-66519097D01*
X156232858Y-66684303D01*
X156232860Y-66684307D01*
X156280460Y-66841223D01*
X156287240Y-66863575D01*
X156305601Y-67050000D01*
X156287240Y-67236425D01*
X156287239Y-67236428D01*
X156287239Y-67236429D01*
X156232860Y-67415693D01*
X156232858Y-67415696D01*
X156232858Y-67415697D01*
X156144554Y-67580903D01*
X156025712Y-67725712D01*
X155880903Y-67844554D01*
X155715697Y-67932858D01*
X155715693Y-67932860D01*
X155536429Y-67987239D01*
X155536428Y-67987239D01*
X155536425Y-67987240D01*
X155396718Y-68001000D01*
X153103282Y-68001000D01*
X152963575Y-67987240D01*
X152963572Y-67987239D01*
X152963571Y-67987239D01*
X152784307Y-67932860D01*
X152784303Y-67932858D01*
X152619097Y-67844554D01*
X152474288Y-67725712D01*
X152355446Y-67580903D01*
X152267142Y-67415697D01*
X152267142Y-67415696D01*
X152267140Y-67415693D01*
X152212761Y-67236429D01*
X152212761Y-67236428D01*
X152212760Y-67236425D01*
X152194399Y-67050000D01*
X152212760Y-66863575D01*
X152219540Y-66841223D01*
X152267140Y-66684307D01*
X152267142Y-66684303D01*
X152355446Y-66519097D01*
X152474288Y-66374288D01*
X152619097Y-66255446D01*
X152784303Y-66167142D01*
X152784304Y-66167142D01*
X152784307Y-66167140D01*
X152963571Y-66112761D01*
X152963572Y-66112761D01*
X152963575Y-66112760D01*
X153103282Y-66099000D01*
X155396718Y-66099000D01*
X155536425Y-66112760D01*
G37*
G36*
X181101000Y-66601000D02*
G01*
X178499000Y-66601000D01*
X178499000Y-65399000D01*
X181101000Y-65399000D01*
X181101000Y-66601000D01*
G37*
G36*
X196017818Y-65407696D02*
G01*
X196131105Y-65442062D01*
X196235512Y-65497869D01*
X196327027Y-65572973D01*
X196402131Y-65664488D01*
X196457938Y-65768895D01*
X196492304Y-65882182D01*
X196503907Y-66000000D01*
X196492304Y-66117818D01*
X196457938Y-66231105D01*
X196402131Y-66335512D01*
X196327027Y-66427027D01*
X196235512Y-66502131D01*
X196131105Y-66557938D01*
X196017818Y-66592304D01*
X195929519Y-66601000D01*
X194470481Y-66601000D01*
X194382182Y-66592304D01*
X194268895Y-66557938D01*
X194164488Y-66502131D01*
X194072973Y-66427027D01*
X193997869Y-66335512D01*
X193942062Y-66231105D01*
X193907696Y-66117818D01*
X193896093Y-66000000D01*
X193907696Y-65882182D01*
X193942062Y-65768895D01*
X193997869Y-65664488D01*
X194072973Y-65572973D01*
X194164488Y-65497869D01*
X194268895Y-65442062D01*
X194382182Y-65407696D01*
X194470481Y-65399000D01*
X195929519Y-65399000D01*
X196017818Y-65407696D01*
G37*
G36*
X203001000Y-66351000D02*
G01*
X201899000Y-66351000D01*
X201899000Y-64849000D01*
X203001000Y-64849000D01*
X203001000Y-66351000D01*
G37*
G36*
X201381000Y-66351000D02*
G01*
X200079000Y-66351000D01*
X200079000Y-64849000D01*
X201381000Y-64849000D01*
X201381000Y-66351000D01*
G37*
G36*
X162884468Y-65148565D02*
G01*
X162923138Y-65160296D01*
X162958777Y-65179346D01*
X162990017Y-65204983D01*
X163015654Y-65236223D01*
X163034704Y-65271862D01*
X163046435Y-65310532D01*
X163051000Y-65356888D01*
X163051000Y-66008112D01*
X163046435Y-66054468D01*
X163034704Y-66093138D01*
X163015654Y-66128777D01*
X162990017Y-66160017D01*
X162958777Y-66185654D01*
X162923138Y-66204704D01*
X162884468Y-66216435D01*
X162838112Y-66221000D01*
X161761888Y-66221000D01*
X161715532Y-66216435D01*
X161676862Y-66204704D01*
X161641223Y-66185654D01*
X161609983Y-66160017D01*
X161584346Y-66128777D01*
X161565296Y-66093138D01*
X161553565Y-66054468D01*
X161549000Y-66008112D01*
X161549000Y-65356888D01*
X161553565Y-65310532D01*
X161565296Y-65271862D01*
X161584346Y-65236223D01*
X161609983Y-65204983D01*
X161641223Y-65179346D01*
X161676862Y-65160296D01*
X161715532Y-65148565D01*
X161761888Y-65144000D01*
X162838112Y-65144000D01*
X162884468Y-65148565D01*
G37*
G36*
X160834468Y-65148565D02*
G01*
X160873138Y-65160296D01*
X160908777Y-65179346D01*
X160940017Y-65204983D01*
X160965654Y-65236223D01*
X160984704Y-65271862D01*
X160996435Y-65310532D01*
X161001000Y-65356888D01*
X161001000Y-66008112D01*
X160996435Y-66054468D01*
X160984704Y-66093138D01*
X160965654Y-66128777D01*
X160940017Y-66160017D01*
X160908777Y-66185654D01*
X160873138Y-66204704D01*
X160834468Y-66216435D01*
X160788112Y-66221000D01*
X159711888Y-66221000D01*
X159665532Y-66216435D01*
X159626862Y-66204704D01*
X159591223Y-66185654D01*
X159559983Y-66160017D01*
X159534346Y-66128777D01*
X159515296Y-66093138D01*
X159503565Y-66054468D01*
X159499000Y-66008112D01*
X159499000Y-65356888D01*
X159503565Y-65310532D01*
X159515296Y-65271862D01*
X159534346Y-65236223D01*
X159559983Y-65204983D01*
X159591223Y-65179346D01*
X159626862Y-65160296D01*
X159665532Y-65148565D01*
X159711888Y-65144000D01*
X160788112Y-65144000D01*
X160834468Y-65148565D01*
G37*
G36*
X176409999Y-64399737D02*
G01*
X176419608Y-64402652D01*
X176428472Y-64407390D01*
X176436237Y-64413763D01*
X176446884Y-64426737D01*
X176453053Y-64435968D01*
X176470381Y-64453294D01*
X176490756Y-64466907D01*
X176513395Y-64476283D01*
X176537428Y-64481063D01*
X176561932Y-64481062D01*
X176585965Y-64476280D01*
X176608604Y-64466902D01*
X176628978Y-64453287D01*
X176646304Y-64435959D01*
X176653175Y-64426683D01*
X176663726Y-64413800D01*
X176665103Y-64412668D01*
X176671484Y-64407419D01*
X176680339Y-64402674D01*
X176683377Y-64401749D01*
X176689915Y-64399758D01*
X176689918Y-64399758D01*
X176689950Y-64399748D01*
X176700000Y-64398753D01*
X176700065Y-64398753D01*
X176706175Y-64398148D01*
X177693860Y-64398148D01*
X177709999Y-64399737D01*
X177719608Y-64402652D01*
X177728472Y-64407390D01*
X177736237Y-64413763D01*
X177742610Y-64421528D01*
X177747348Y-64430392D01*
X177750263Y-64440001D01*
X177751852Y-64456140D01*
X177751852Y-65943860D01*
X177750263Y-65959999D01*
X177747348Y-65969608D01*
X177742610Y-65978472D01*
X177736237Y-65986237D01*
X177728472Y-65992610D01*
X177719608Y-65997348D01*
X177709999Y-66000263D01*
X177693860Y-66001852D01*
X176706140Y-66001852D01*
X176690001Y-66000263D01*
X176680392Y-65997348D01*
X176671528Y-65992610D01*
X176663788Y-65986258D01*
X176663787Y-65986257D01*
X176663763Y-65986237D01*
X176657360Y-65978427D01*
X176657323Y-65978372D01*
X176649520Y-65968853D01*
X176649489Y-65968878D01*
X176638147Y-65955028D01*
X176619221Y-65939463D01*
X176597623Y-65927889D01*
X176574181Y-65920751D01*
X176549798Y-65918324D01*
X176525409Y-65920700D01*
X176501953Y-65927789D01*
X176480330Y-65939318D01*
X176461372Y-65954843D01*
X176445807Y-65973769D01*
X176443971Y-65976825D01*
X176442582Y-65978514D01*
X176442581Y-65978516D01*
X176437485Y-65984712D01*
X176436200Y-65986274D01*
X176428425Y-65992642D01*
X176422517Y-65995791D01*
X176419562Y-65997367D01*
X176410848Y-66000000D01*
X176409915Y-66000282D01*
X176393887Y-66001852D01*
X175256140Y-66001852D01*
X175240001Y-66000263D01*
X175230392Y-65997348D01*
X175221528Y-65992610D01*
X175213763Y-65986237D01*
X175207390Y-65978472D01*
X175202652Y-65969608D01*
X175199737Y-65959999D01*
X175198148Y-65943860D01*
X175198148Y-64456140D01*
X175199737Y-64440001D01*
X175202652Y-64430392D01*
X175207390Y-64421528D01*
X175213763Y-64413763D01*
X175221528Y-64407390D01*
X175230392Y-64402652D01*
X175240001Y-64399737D01*
X175256140Y-64398148D01*
X176393860Y-64398148D01*
X176409999Y-64399737D01*
G37*
G36*
X204834468Y-64903565D02*
G01*
X204873138Y-64915296D01*
X204908777Y-64934346D01*
X204940017Y-64959983D01*
X204965654Y-64991223D01*
X204984704Y-65026862D01*
X204996435Y-65065532D01*
X205001000Y-65111888D01*
X205001000Y-65763112D01*
X204996435Y-65809468D01*
X204984704Y-65848138D01*
X204965654Y-65883777D01*
X204940017Y-65915017D01*
X204908777Y-65940654D01*
X204873138Y-65959704D01*
X204834468Y-65971435D01*
X204788112Y-65976000D01*
X203711888Y-65976000D01*
X203665532Y-65971435D01*
X203626862Y-65959704D01*
X203591223Y-65940654D01*
X203559983Y-65915017D01*
X203534346Y-65883777D01*
X203515296Y-65848138D01*
X203503565Y-65809468D01*
X203499000Y-65763112D01*
X203499000Y-65111888D01*
X203503565Y-65065532D01*
X203515296Y-65026862D01*
X203534346Y-64991223D01*
X203559983Y-64959983D01*
X203591223Y-64934346D01*
X203626862Y-64915296D01*
X203665532Y-64903565D01*
X203711888Y-64899000D01*
X204788112Y-64899000D01*
X204834468Y-64903565D01*
G37*
G36*
X199334468Y-64903565D02*
G01*
X199373138Y-64915296D01*
X199408777Y-64934346D01*
X199440017Y-64959983D01*
X199465654Y-64991223D01*
X199484704Y-65026862D01*
X199496435Y-65065532D01*
X199501000Y-65111888D01*
X199501000Y-65763112D01*
X199496435Y-65809468D01*
X199484704Y-65848138D01*
X199465654Y-65883777D01*
X199440017Y-65915017D01*
X199408777Y-65940654D01*
X199373138Y-65959704D01*
X199334468Y-65971435D01*
X199288112Y-65976000D01*
X198211888Y-65976000D01*
X198165532Y-65971435D01*
X198126862Y-65959704D01*
X198091223Y-65940654D01*
X198059983Y-65915017D01*
X198034346Y-65883777D01*
X198015296Y-65848138D01*
X198003565Y-65809468D01*
X197999000Y-65763112D01*
X197999000Y-65111888D01*
X198003565Y-65065532D01*
X198015296Y-65026862D01*
X198034346Y-64991223D01*
X198059983Y-64959983D01*
X198091223Y-64934346D01*
X198126862Y-64915296D01*
X198165532Y-64903565D01*
X198211888Y-64899000D01*
X199288112Y-64899000D01*
X199334468Y-64903565D01*
G37*
G36*
X172968766Y-63278821D02*
G01*
X173105257Y-63335358D01*
X173228097Y-63417437D01*
X173332563Y-63521903D01*
X173414642Y-63644743D01*
X173471179Y-63781234D01*
X173500000Y-63926130D01*
X173500000Y-64073870D01*
X173471179Y-64218766D01*
X173414642Y-64355257D01*
X173332563Y-64478097D01*
X173228097Y-64582563D01*
X173105257Y-64664642D01*
X172968766Y-64721179D01*
X172823870Y-64750000D01*
X172676130Y-64750000D01*
X172531234Y-64721179D01*
X172394743Y-64664642D01*
X172271903Y-64582563D01*
X172167437Y-64478097D01*
X172085358Y-64355257D01*
X172028821Y-64218766D01*
X172000000Y-64073870D01*
X172000000Y-63926130D01*
X172028821Y-63781234D01*
X172085358Y-63644743D01*
X172167437Y-63521903D01*
X172271903Y-63417437D01*
X172394743Y-63335358D01*
X172531234Y-63278821D01*
X172676130Y-63250000D01*
X172823870Y-63250000D01*
X172968766Y-63278821D01*
G37*
G36*
X158201000Y-64501000D02*
G01*
X156299000Y-64501000D01*
X156299000Y-59999000D01*
X158201000Y-59999000D01*
X158201000Y-64501000D01*
G37*
G36*
X151636425Y-60212760D02*
G01*
X151636428Y-60212761D01*
X151636429Y-60212761D01*
X151815693Y-60267140D01*
X151815696Y-60267142D01*
X151815697Y-60267142D01*
X151980903Y-60355446D01*
X152125712Y-60474288D01*
X152244554Y-60619097D01*
X152329415Y-60777861D01*
X152332860Y-60784307D01*
X152371561Y-60911888D01*
X152387240Y-60963575D01*
X152401000Y-61103282D01*
X152401000Y-63396718D01*
X152387240Y-63536425D01*
X152387239Y-63536428D01*
X152387239Y-63536429D01*
X152332860Y-63715693D01*
X152332858Y-63715696D01*
X152332858Y-63715697D01*
X152244554Y-63880903D01*
X152125712Y-64025712D01*
X151980903Y-64144554D01*
X151815696Y-64232858D01*
X151815692Y-64232860D01*
X151636428Y-64287239D01*
X151636427Y-64287239D01*
X151636424Y-64287240D01*
X151450000Y-64305601D01*
X151263575Y-64287240D01*
X151263572Y-64287239D01*
X151263571Y-64287239D01*
X151084307Y-64232860D01*
X151084303Y-64232858D01*
X150919097Y-64144554D01*
X150774288Y-64025712D01*
X150655446Y-63880903D01*
X150567142Y-63715696D01*
X150567141Y-63715693D01*
X150567140Y-63715692D01*
X150512761Y-63536428D01*
X150512761Y-63536427D01*
X150512760Y-63536424D01*
X150499000Y-63396717D01*
X150499001Y-61103282D01*
X150512761Y-60963575D01*
X150528440Y-60911888D01*
X150567141Y-60784307D01*
X150570586Y-60777861D01*
X150655447Y-60619097D01*
X150774289Y-60474288D01*
X150919098Y-60355446D01*
X151084304Y-60267142D01*
X151084305Y-60267142D01*
X151084308Y-60267140D01*
X151263572Y-60212761D01*
X151263573Y-60212761D01*
X151263576Y-60212760D01*
X151450000Y-60194399D01*
X151636425Y-60212760D01*
G37*
G36*
X162201000Y-64301000D02*
G01*
X159799000Y-64301000D01*
X159799000Y-61699000D01*
X162201000Y-61699000D01*
X162201000Y-64301000D01*
G37*
G36*
X203001000Y-64151000D02*
G01*
X201899000Y-64151000D01*
X201899000Y-62649000D01*
X203001000Y-62649000D01*
X203001000Y-64151000D01*
G37*
G36*
X201101000Y-64151000D02*
G01*
X199999000Y-64151000D01*
X199999000Y-62649000D01*
X201101000Y-62649000D01*
X201101000Y-64151000D01*
G37*
G36*
X199334468Y-63028565D02*
G01*
X199373138Y-63040296D01*
X199408777Y-63059346D01*
X199440017Y-63084983D01*
X199465654Y-63116223D01*
X199484704Y-63151862D01*
X199496435Y-63190532D01*
X199501000Y-63236888D01*
X199501000Y-63888112D01*
X199496435Y-63934468D01*
X199484704Y-63973138D01*
X199465654Y-64008777D01*
X199440017Y-64040017D01*
X199408777Y-64065654D01*
X199373138Y-64084704D01*
X199334468Y-64096435D01*
X199288112Y-64101000D01*
X198211888Y-64101000D01*
X198165532Y-64096435D01*
X198126862Y-64084704D01*
X198091223Y-64065654D01*
X198059983Y-64040017D01*
X198034346Y-64008777D01*
X198015296Y-63973138D01*
X198003565Y-63934468D01*
X197999000Y-63888112D01*
X197999000Y-63236888D01*
X198003565Y-63190532D01*
X198015296Y-63151862D01*
X198034346Y-63116223D01*
X198059983Y-63084983D01*
X198091223Y-63059346D01*
X198126862Y-63040296D01*
X198165532Y-63028565D01*
X198211888Y-63024000D01*
X199288112Y-63024000D01*
X199334468Y-63028565D01*
G37*
G36*
X204834468Y-63028565D02*
G01*
X204873138Y-63040296D01*
X204908777Y-63059346D01*
X204940017Y-63084983D01*
X204965654Y-63116223D01*
X204984704Y-63151862D01*
X204996435Y-63190532D01*
X205001000Y-63236888D01*
X205001000Y-63888112D01*
X204996435Y-63934468D01*
X204984704Y-63973138D01*
X204965654Y-64008777D01*
X204940017Y-64040017D01*
X204908777Y-64065654D01*
X204873138Y-64084704D01*
X204834468Y-64096435D01*
X204788112Y-64101000D01*
X203711888Y-64101000D01*
X203665532Y-64096435D01*
X203626862Y-64084704D01*
X203591223Y-64065654D01*
X203559983Y-64040017D01*
X203534346Y-64008777D01*
X203515296Y-63973138D01*
X203503565Y-63934468D01*
X203499000Y-63888112D01*
X203499000Y-63236888D01*
X203503565Y-63190532D01*
X203515296Y-63151862D01*
X203534346Y-63116223D01*
X203559983Y-63084983D01*
X203591223Y-63059346D01*
X203626862Y-63040296D01*
X203665532Y-63028565D01*
X203711888Y-63024000D01*
X204788112Y-63024000D01*
X204834468Y-63028565D01*
G37*
G36*
X169701000Y-63901000D02*
G01*
X163799000Y-63901000D01*
X163799000Y-57399000D01*
X169701000Y-57399000D01*
X169701000Y-63901000D01*
G37*
G36*
X171734468Y-60703565D02*
G01*
X171773138Y-60715296D01*
X171808777Y-60734346D01*
X171840017Y-60759983D01*
X171865654Y-60791223D01*
X171884704Y-60826862D01*
X171896435Y-60865532D01*
X171901000Y-60911888D01*
X171901000Y-61988112D01*
X171896435Y-62034468D01*
X171884704Y-62073138D01*
X171865654Y-62108777D01*
X171840017Y-62140017D01*
X171808777Y-62165654D01*
X171773138Y-62184704D01*
X171734468Y-62196435D01*
X171688112Y-62201000D01*
X171036888Y-62201000D01*
X170990532Y-62196435D01*
X170951862Y-62184704D01*
X170916223Y-62165654D01*
X170884983Y-62140017D01*
X170859346Y-62108777D01*
X170840296Y-62073138D01*
X170828565Y-62034468D01*
X170824000Y-61988112D01*
X170824000Y-60911888D01*
X170828565Y-60865532D01*
X170840296Y-60826862D01*
X170859346Y-60791223D01*
X170884983Y-60759983D01*
X170916223Y-60734346D01*
X170951862Y-60715296D01*
X170990532Y-60703565D01*
X171036888Y-60699000D01*
X171688112Y-60699000D01*
X171734468Y-60703565D01*
G37*
G36*
X173609468Y-60703565D02*
G01*
X173648138Y-60715296D01*
X173683777Y-60734346D01*
X173715017Y-60759983D01*
X173740654Y-60791223D01*
X173759704Y-60826862D01*
X173771435Y-60865532D01*
X173776000Y-60911888D01*
X173776000Y-61988112D01*
X173771435Y-62034468D01*
X173759704Y-62073138D01*
X173740654Y-62108777D01*
X173715017Y-62140017D01*
X173683777Y-62165654D01*
X173648138Y-62184704D01*
X173609468Y-62196435D01*
X173563112Y-62201000D01*
X172911888Y-62201000D01*
X172865532Y-62196435D01*
X172826862Y-62184704D01*
X172791223Y-62165654D01*
X172759983Y-62140017D01*
X172734346Y-62108777D01*
X172715296Y-62073138D01*
X172703565Y-62034468D01*
X172699000Y-61988112D01*
X172699000Y-60911888D01*
X172703565Y-60865532D01*
X172715296Y-60826862D01*
X172734346Y-60791223D01*
X172759983Y-60759983D01*
X172791223Y-60734346D01*
X172826862Y-60715296D01*
X172865532Y-60703565D01*
X172911888Y-60699000D01*
X173563112Y-60699000D01*
X173609468Y-60703565D01*
G37*
G36*
X175751000Y-62001000D02*
G01*
X174249000Y-62001000D01*
X174249000Y-60899000D01*
X175751000Y-60899000D01*
X175751000Y-62001000D01*
G37*
G36*
X177951000Y-62001000D02*
G01*
X176449000Y-62001000D01*
X176449000Y-60899000D01*
X177951000Y-60899000D01*
X177951000Y-62001000D01*
G37*
G36*
X199806000Y-60324001D02*
G01*
X199808402Y-60348387D01*
X199815515Y-60371836D01*
X199827066Y-60393447D01*
X199842611Y-60412389D01*
X199861553Y-60427934D01*
X199883164Y-60439485D01*
X199906613Y-60446598D01*
X199930999Y-60449000D01*
X203069001Y-60449000D01*
X203093387Y-60446598D01*
X203116836Y-60439485D01*
X203138447Y-60427934D01*
X203157389Y-60412389D01*
X203172934Y-60393447D01*
X203184485Y-60371836D01*
X203191598Y-60348387D01*
X203194000Y-60324001D01*
X203194000Y-60004000D01*
X204446000Y-60004000D01*
X204446000Y-61556000D01*
X203175999Y-61556000D01*
X203151613Y-61558402D01*
X203128164Y-61565515D01*
X203106553Y-61577066D01*
X203087611Y-61592611D01*
X203072066Y-61611553D01*
X203060515Y-61633164D01*
X203053402Y-61656613D01*
X203051000Y-61680999D01*
X203051000Y-61951000D01*
X199949000Y-61951000D01*
X199949000Y-61680999D01*
X199946598Y-61656613D01*
X199939485Y-61633164D01*
X199927934Y-61611553D01*
X199912389Y-61592611D01*
X199893447Y-61577066D01*
X199871836Y-61565515D01*
X199848387Y-61558402D01*
X199824001Y-61556000D01*
X198554000Y-61556000D01*
X198554000Y-60004000D01*
X199806000Y-60004000D01*
X199806000Y-60324001D01*
G37*
G36*
X175751000Y-60381000D02*
G01*
X174249000Y-60381000D01*
X174249000Y-59079000D01*
X175751000Y-59079000D01*
X175751000Y-60381000D01*
G37*
G36*
X173609468Y-58703565D02*
G01*
X173648138Y-58715296D01*
X173683777Y-58734346D01*
X173715017Y-58759983D01*
X173740654Y-58791223D01*
X173759704Y-58826862D01*
X173771435Y-58865532D01*
X173776000Y-58911888D01*
X173776000Y-59988112D01*
X173771435Y-60034468D01*
X173759704Y-60073138D01*
X173740654Y-60108777D01*
X173715017Y-60140017D01*
X173683777Y-60165654D01*
X173648138Y-60184704D01*
X173609468Y-60196435D01*
X173563112Y-60201000D01*
X172911888Y-60201000D01*
X172865532Y-60196435D01*
X172826862Y-60184704D01*
X172791223Y-60165654D01*
X172759983Y-60140017D01*
X172734346Y-60108777D01*
X172715296Y-60073138D01*
X172703565Y-60034468D01*
X172699000Y-59988112D01*
X172699000Y-58911888D01*
X172703565Y-58865532D01*
X172715296Y-58826862D01*
X172734346Y-58791223D01*
X172759983Y-58759983D01*
X172791223Y-58734346D01*
X172826862Y-58715296D01*
X172865532Y-58703565D01*
X172911888Y-58699000D01*
X173563112Y-58699000D01*
X173609468Y-58703565D01*
G37*
G36*
X171734468Y-58703565D02*
G01*
X171773138Y-58715296D01*
X171808777Y-58734346D01*
X171840017Y-58759983D01*
X171865654Y-58791223D01*
X171884704Y-58826862D01*
X171896435Y-58865532D01*
X171901000Y-58911888D01*
X171901000Y-59988112D01*
X171896435Y-60034468D01*
X171884704Y-60073138D01*
X171865654Y-60108777D01*
X171840017Y-60140017D01*
X171808777Y-60165654D01*
X171773138Y-60184704D01*
X171734468Y-60196435D01*
X171688112Y-60201000D01*
X171036888Y-60201000D01*
X170990532Y-60196435D01*
X170951862Y-60184704D01*
X170916223Y-60165654D01*
X170884983Y-60140017D01*
X170859346Y-60108777D01*
X170840296Y-60073138D01*
X170828565Y-60034468D01*
X170824000Y-59988112D01*
X170824000Y-58911888D01*
X170828565Y-58865532D01*
X170840296Y-58826862D01*
X170859346Y-58791223D01*
X170884983Y-58759983D01*
X170916223Y-58734346D01*
X170951862Y-58715296D01*
X170990532Y-58703565D01*
X171036888Y-58699000D01*
X171688112Y-58699000D01*
X171734468Y-58703565D01*
G37*
G36*
X177951000Y-60101000D02*
G01*
X176449000Y-60101000D01*
X176449000Y-58999000D01*
X177951000Y-58999000D01*
X177951000Y-60101000D01*
G37*
G36*
X162201000Y-60001000D02*
G01*
X159799000Y-60001000D01*
X159799000Y-57399000D01*
X162201000Y-57399000D01*
X162201000Y-60001000D01*
G37*
G36*
X198037916Y-57557334D02*
G01*
X198146492Y-57590271D01*
X198146495Y-57590272D01*
X198182601Y-57609571D01*
X198246557Y-57643756D01*
X198334264Y-57715736D01*
X198406244Y-57803443D01*
X198440429Y-57867399D01*
X198459728Y-57903505D01*
X198459728Y-57903506D01*
X198459729Y-57903508D01*
X198492666Y-58012084D01*
X198501000Y-58096702D01*
X198501000Y-59003298D01*
X198492666Y-59087916D01*
X198459729Y-59196491D01*
X198459728Y-59196495D01*
X198440429Y-59232601D01*
X198406244Y-59296557D01*
X198334264Y-59384264D01*
X198246556Y-59456244D01*
X198182600Y-59490429D01*
X198146494Y-59509728D01*
X198146491Y-59509729D01*
X198037915Y-59542666D01*
X197925000Y-59553787D01*
X197812084Y-59542666D01*
X197703508Y-59509729D01*
X197703505Y-59509728D01*
X197667399Y-59490429D01*
X197603443Y-59456244D01*
X197515736Y-59384264D01*
X197443756Y-59296556D01*
X197390273Y-59196495D01*
X197390272Y-59196494D01*
X197390271Y-59196491D01*
X197357334Y-59087915D01*
X197349000Y-59003297D01*
X197349000Y-58096702D01*
X197357335Y-58012084D01*
X197390272Y-57903508D01*
X197390273Y-57903506D01*
X197390273Y-57903505D01*
X197409572Y-57867399D01*
X197443757Y-57803443D01*
X197515737Y-57715736D01*
X197603444Y-57643756D01*
X197667400Y-57609571D01*
X197703506Y-57590272D01*
X197703509Y-57590271D01*
X197812085Y-57557334D01*
X197925000Y-57546213D01*
X198037916Y-57557334D01*
G37*
G36*
X205187915Y-57557334D02*
G01*
X205296491Y-57590271D01*
X205296494Y-57590272D01*
X205332600Y-57609571D01*
X205396556Y-57643756D01*
X205484264Y-57715736D01*
X205556244Y-57803443D01*
X205590429Y-57867399D01*
X205609728Y-57903505D01*
X205609728Y-57903506D01*
X205609729Y-57903508D01*
X205642666Y-58012084D01*
X205651000Y-58096702D01*
X205651000Y-59003298D01*
X205642666Y-59087916D01*
X205609729Y-59196491D01*
X205609728Y-59196495D01*
X205590429Y-59232601D01*
X205556244Y-59296557D01*
X205484264Y-59384264D01*
X205396557Y-59456244D01*
X205332601Y-59490429D01*
X205296495Y-59509728D01*
X205296492Y-59509729D01*
X205187916Y-59542666D01*
X205075000Y-59553787D01*
X204962085Y-59542666D01*
X204853509Y-59509729D01*
X204853506Y-59509728D01*
X204817400Y-59490429D01*
X204753444Y-59456244D01*
X204665737Y-59384264D01*
X204593757Y-59296557D01*
X204559572Y-59232601D01*
X204540273Y-59196495D01*
X204540272Y-59196491D01*
X204507335Y-59087916D01*
X204499000Y-59003298D01*
X204499000Y-58096703D01*
X204507334Y-58012085D01*
X204540271Y-57903509D01*
X204540272Y-57903506D01*
X204559571Y-57867400D01*
X204593756Y-57803444D01*
X204665736Y-57715736D01*
X204753443Y-57643756D01*
X204817399Y-57609571D01*
X204853505Y-57590272D01*
X204853508Y-57590271D01*
X204962084Y-57557334D01*
X205075000Y-57546213D01*
X205187915Y-57557334D01*
G37*
G36*
X201301000Y-59551000D02*
G01*
X199449000Y-59551000D01*
X199449000Y-57549000D01*
X201301000Y-57549000D01*
X201301000Y-59551000D01*
G37*
G36*
X203551000Y-59551000D02*
G01*
X201699000Y-59551000D01*
X201699000Y-57549000D01*
X203551000Y-57549000D01*
X203551000Y-59551000D01*
G37*
M02*
