G04 #@! TF.GenerationSoftware,KiCad,Pcbnew,(5.1.5)-3*
G04 #@! TF.CreationDate,2022-01-28T21:11:19+01:00*
G04 #@! TF.ProjectId,fanControl,66616e43-6f6e-4747-926f-6c2e6b696361,rev?*
G04 #@! TF.SameCoordinates,Original*
G04 #@! TF.FileFunction,Copper,L1,Top*
G04 #@! TF.FilePolarity,Positive*
%FSLAX46Y46*%
G04 Gerber Fmt 4.6, Leading zero omitted, Abs format (unit mm)*
G04 Created by KiCad (PCBNEW (5.1.5)-3) date 2022-01-28 21:11:19*
%MOMM*%
%LPD*%
G04 APERTURE LIST*
%ADD10C,0.100000*%
%ADD11R,0.800000X0.600000*%
%ADD12R,0.700000X1.000000*%
%ADD13C,1.000000*%
%ADD14C,0.500000*%
%ADD15R,2.300000X2.500000*%
%ADD16R,1.400000X1.000000*%
%ADD17R,1.400000X1.200000*%
%ADD18R,1.050000X1.500000*%
%ADD19O,1.050000X1.500000*%
%ADD20R,2.000000X1.500000*%
%ADD21R,2.000000X3.800000*%
%ADD22R,0.800000X0.900000*%
%ADD23R,5.800000X6.400000*%
%ADD24R,1.200000X2.200000*%
%ADD25R,1.150000X1.450000*%
%ADD26O,1.050000X1.900000*%
%ADD27R,1.750000X1.900000*%
%ADD28R,0.400000X1.400000*%
%ADD29O,1.740000X2.200000*%
%ADD30R,1.000000X1.400000*%
%ADD31R,1.200000X1.400000*%
%ADD32R,0.900000X1.200000*%
%ADD33R,0.900000X0.800000*%
%ADD34C,1.600000*%
%ADD35R,2.500000X1.100000*%
%ADD36O,2.500000X1.100000*%
%ADD37O,1.100000X2.500000*%
%ADD38O,1.700000X1.700000*%
%ADD39R,1.700000X1.700000*%
%ADD40C,2.600000*%
%ADD41O,4.000000X1.800000*%
%ADD42O,1.800000X4.000000*%
%ADD43R,1.800000X4.400000*%
%ADD44O,1.275000X1.800000*%
%ADD45R,1.275000X1.800000*%
%ADD46C,0.800000*%
%ADD47C,0.250000*%
%ADD48C,0.500000*%
G04 APERTURE END LIST*
G04 #@! TA.AperFunction,SMDPad,CuDef*
D10*
G36*
X176880142Y-84976174D02*
G01*
X176903803Y-84979684D01*
X176927007Y-84985496D01*
X176949529Y-84993554D01*
X176971153Y-85003782D01*
X176991670Y-85016079D01*
X177010883Y-85030329D01*
X177028607Y-85046393D01*
X177044671Y-85064117D01*
X177058921Y-85083330D01*
X177071218Y-85103847D01*
X177081446Y-85125471D01*
X177089504Y-85147993D01*
X177095316Y-85171197D01*
X177098826Y-85194858D01*
X177100000Y-85218750D01*
X177100000Y-85706250D01*
X177098826Y-85730142D01*
X177095316Y-85753803D01*
X177089504Y-85777007D01*
X177081446Y-85799529D01*
X177071218Y-85821153D01*
X177058921Y-85841670D01*
X177044671Y-85860883D01*
X177028607Y-85878607D01*
X177010883Y-85894671D01*
X176991670Y-85908921D01*
X176971153Y-85921218D01*
X176949529Y-85931446D01*
X176927007Y-85939504D01*
X176903803Y-85945316D01*
X176880142Y-85948826D01*
X176856250Y-85950000D01*
X175943750Y-85950000D01*
X175919858Y-85948826D01*
X175896197Y-85945316D01*
X175872993Y-85939504D01*
X175850471Y-85931446D01*
X175828847Y-85921218D01*
X175808330Y-85908921D01*
X175789117Y-85894671D01*
X175771393Y-85878607D01*
X175755329Y-85860883D01*
X175741079Y-85841670D01*
X175728782Y-85821153D01*
X175718554Y-85799529D01*
X175710496Y-85777007D01*
X175704684Y-85753803D01*
X175701174Y-85730142D01*
X175700000Y-85706250D01*
X175700000Y-85218750D01*
X175701174Y-85194858D01*
X175704684Y-85171197D01*
X175710496Y-85147993D01*
X175718554Y-85125471D01*
X175728782Y-85103847D01*
X175741079Y-85083330D01*
X175755329Y-85064117D01*
X175771393Y-85046393D01*
X175789117Y-85030329D01*
X175808330Y-85016079D01*
X175828847Y-85003782D01*
X175850471Y-84993554D01*
X175872993Y-84985496D01*
X175896197Y-84979684D01*
X175919858Y-84976174D01*
X175943750Y-84975000D01*
X176856250Y-84975000D01*
X176880142Y-84976174D01*
G37*
G04 #@! TD.AperFunction*
G04 #@! TA.AperFunction,SMDPad,CuDef*
G36*
X176880142Y-86851174D02*
G01*
X176903803Y-86854684D01*
X176927007Y-86860496D01*
X176949529Y-86868554D01*
X176971153Y-86878782D01*
X176991670Y-86891079D01*
X177010883Y-86905329D01*
X177028607Y-86921393D01*
X177044671Y-86939117D01*
X177058921Y-86958330D01*
X177071218Y-86978847D01*
X177081446Y-87000471D01*
X177089504Y-87022993D01*
X177095316Y-87046197D01*
X177098826Y-87069858D01*
X177100000Y-87093750D01*
X177100000Y-87581250D01*
X177098826Y-87605142D01*
X177095316Y-87628803D01*
X177089504Y-87652007D01*
X177081446Y-87674529D01*
X177071218Y-87696153D01*
X177058921Y-87716670D01*
X177044671Y-87735883D01*
X177028607Y-87753607D01*
X177010883Y-87769671D01*
X176991670Y-87783921D01*
X176971153Y-87796218D01*
X176949529Y-87806446D01*
X176927007Y-87814504D01*
X176903803Y-87820316D01*
X176880142Y-87823826D01*
X176856250Y-87825000D01*
X175943750Y-87825000D01*
X175919858Y-87823826D01*
X175896197Y-87820316D01*
X175872993Y-87814504D01*
X175850471Y-87806446D01*
X175828847Y-87796218D01*
X175808330Y-87783921D01*
X175789117Y-87769671D01*
X175771393Y-87753607D01*
X175755329Y-87735883D01*
X175741079Y-87716670D01*
X175728782Y-87696153D01*
X175718554Y-87674529D01*
X175710496Y-87652007D01*
X175704684Y-87628803D01*
X175701174Y-87605142D01*
X175700000Y-87581250D01*
X175700000Y-87093750D01*
X175701174Y-87069858D01*
X175704684Y-87046197D01*
X175710496Y-87022993D01*
X175718554Y-87000471D01*
X175728782Y-86978847D01*
X175741079Y-86958330D01*
X175755329Y-86939117D01*
X175771393Y-86921393D01*
X175789117Y-86905329D01*
X175808330Y-86891079D01*
X175828847Y-86878782D01*
X175850471Y-86868554D01*
X175872993Y-86860496D01*
X175896197Y-86854684D01*
X175919858Y-86851174D01*
X175943750Y-86850000D01*
X176856250Y-86850000D01*
X176880142Y-86851174D01*
G37*
G04 #@! TD.AperFunction*
D11*
X167650000Y-81400000D03*
X167650000Y-80100000D03*
D12*
X165300000Y-80750000D03*
D13*
X172500000Y-82750000D03*
X154300000Y-92300000D03*
X170750000Y-70250000D03*
D14*
X161500000Y-87500000D03*
X172750000Y-64000000D03*
G04 #@! TA.AperFunction,SMDPad,CuDef*
D10*
G36*
X175630142Y-77301174D02*
G01*
X175653803Y-77304684D01*
X175677007Y-77310496D01*
X175699529Y-77318554D01*
X175721153Y-77328782D01*
X175741670Y-77341079D01*
X175760883Y-77355329D01*
X175778607Y-77371393D01*
X175794671Y-77389117D01*
X175808921Y-77408330D01*
X175821218Y-77428847D01*
X175831446Y-77450471D01*
X175839504Y-77472993D01*
X175845316Y-77496197D01*
X175848826Y-77519858D01*
X175850000Y-77543750D01*
X175850000Y-78456250D01*
X175848826Y-78480142D01*
X175845316Y-78503803D01*
X175839504Y-78527007D01*
X175831446Y-78549529D01*
X175821218Y-78571153D01*
X175808921Y-78591670D01*
X175794671Y-78610883D01*
X175778607Y-78628607D01*
X175760883Y-78644671D01*
X175741670Y-78658921D01*
X175721153Y-78671218D01*
X175699529Y-78681446D01*
X175677007Y-78689504D01*
X175653803Y-78695316D01*
X175630142Y-78698826D01*
X175606250Y-78700000D01*
X175118750Y-78700000D01*
X175094858Y-78698826D01*
X175071197Y-78695316D01*
X175047993Y-78689504D01*
X175025471Y-78681446D01*
X175003847Y-78671218D01*
X174983330Y-78658921D01*
X174964117Y-78644671D01*
X174946393Y-78628607D01*
X174930329Y-78610883D01*
X174916079Y-78591670D01*
X174903782Y-78571153D01*
X174893554Y-78549529D01*
X174885496Y-78527007D01*
X174879684Y-78503803D01*
X174876174Y-78480142D01*
X174875000Y-78456250D01*
X174875000Y-77543750D01*
X174876174Y-77519858D01*
X174879684Y-77496197D01*
X174885496Y-77472993D01*
X174893554Y-77450471D01*
X174903782Y-77428847D01*
X174916079Y-77408330D01*
X174930329Y-77389117D01*
X174946393Y-77371393D01*
X174964117Y-77355329D01*
X174983330Y-77341079D01*
X175003847Y-77328782D01*
X175025471Y-77318554D01*
X175047993Y-77310496D01*
X175071197Y-77304684D01*
X175094858Y-77301174D01*
X175118750Y-77300000D01*
X175606250Y-77300000D01*
X175630142Y-77301174D01*
G37*
G04 #@! TD.AperFunction*
G04 #@! TA.AperFunction,SMDPad,CuDef*
G36*
X177505142Y-77301174D02*
G01*
X177528803Y-77304684D01*
X177552007Y-77310496D01*
X177574529Y-77318554D01*
X177596153Y-77328782D01*
X177616670Y-77341079D01*
X177635883Y-77355329D01*
X177653607Y-77371393D01*
X177669671Y-77389117D01*
X177683921Y-77408330D01*
X177696218Y-77428847D01*
X177706446Y-77450471D01*
X177714504Y-77472993D01*
X177720316Y-77496197D01*
X177723826Y-77519858D01*
X177725000Y-77543750D01*
X177725000Y-78456250D01*
X177723826Y-78480142D01*
X177720316Y-78503803D01*
X177714504Y-78527007D01*
X177706446Y-78549529D01*
X177696218Y-78571153D01*
X177683921Y-78591670D01*
X177669671Y-78610883D01*
X177653607Y-78628607D01*
X177635883Y-78644671D01*
X177616670Y-78658921D01*
X177596153Y-78671218D01*
X177574529Y-78681446D01*
X177552007Y-78689504D01*
X177528803Y-78695316D01*
X177505142Y-78698826D01*
X177481250Y-78700000D01*
X176993750Y-78700000D01*
X176969858Y-78698826D01*
X176946197Y-78695316D01*
X176922993Y-78689504D01*
X176900471Y-78681446D01*
X176878847Y-78671218D01*
X176858330Y-78658921D01*
X176839117Y-78644671D01*
X176821393Y-78628607D01*
X176805329Y-78610883D01*
X176791079Y-78591670D01*
X176778782Y-78571153D01*
X176768554Y-78549529D01*
X176760496Y-78527007D01*
X176754684Y-78503803D01*
X176751174Y-78480142D01*
X176750000Y-78456250D01*
X176750000Y-77543750D01*
X176751174Y-77519858D01*
X176754684Y-77496197D01*
X176760496Y-77472993D01*
X176768554Y-77450471D01*
X176778782Y-77428847D01*
X176791079Y-77408330D01*
X176805329Y-77389117D01*
X176821393Y-77371393D01*
X176839117Y-77355329D01*
X176858330Y-77341079D01*
X176878847Y-77328782D01*
X176900471Y-77318554D01*
X176922993Y-77310496D01*
X176946197Y-77304684D01*
X176969858Y-77301174D01*
X176993750Y-77300000D01*
X177481250Y-77300000D01*
X177505142Y-77301174D01*
G37*
G04 #@! TD.AperFunction*
D15*
X157750000Y-88950000D03*
X157750000Y-93250000D03*
X161000000Y-63000000D03*
X161000000Y-58700000D03*
D16*
X177200000Y-59550000D03*
X177200000Y-61450000D03*
X175000000Y-61450000D03*
D17*
X175000000Y-59730000D03*
D18*
X204500000Y-85250000D03*
D19*
X201960000Y-85250000D03*
X203230000Y-85250000D03*
D20*
X164100000Y-88200000D03*
X164100000Y-92800000D03*
X164100000Y-90500000D03*
D21*
X170400000Y-90500000D03*
D22*
X185525000Y-87400000D03*
X184575000Y-85400000D03*
X186475000Y-85400000D03*
D18*
X157930000Y-71480000D03*
D19*
X160470000Y-71480000D03*
X159200000Y-71480000D03*
D23*
X166750000Y-60650000D03*
D24*
X164470000Y-66950000D03*
X169030000Y-66950000D03*
D25*
X203820000Y-60780000D03*
X199180000Y-60780000D03*
D26*
X197925000Y-58550000D03*
X205075000Y-58550000D03*
D27*
X202625000Y-58550000D03*
D28*
X201500000Y-61200000D03*
X200850000Y-61200000D03*
X200200000Y-61200000D03*
X202800000Y-61200000D03*
X202150000Y-61200000D03*
D27*
X200375000Y-58550000D03*
D29*
X199170000Y-91500000D03*
X201710000Y-91500000D03*
G04 #@! TA.AperFunction,ComponentPad*
D10*
G36*
X204894505Y-90401204D02*
G01*
X204918773Y-90404804D01*
X204942572Y-90410765D01*
X204965671Y-90419030D01*
X204987850Y-90429520D01*
X205008893Y-90442132D01*
X205028599Y-90456747D01*
X205046777Y-90473223D01*
X205063253Y-90491401D01*
X205077868Y-90511107D01*
X205090480Y-90532150D01*
X205100970Y-90554329D01*
X205109235Y-90577428D01*
X205115196Y-90601227D01*
X205118796Y-90625495D01*
X205120000Y-90649999D01*
X205120000Y-92350001D01*
X205118796Y-92374505D01*
X205115196Y-92398773D01*
X205109235Y-92422572D01*
X205100970Y-92445671D01*
X205090480Y-92467850D01*
X205077868Y-92488893D01*
X205063253Y-92508599D01*
X205046777Y-92526777D01*
X205028599Y-92543253D01*
X205008893Y-92557868D01*
X204987850Y-92570480D01*
X204965671Y-92580970D01*
X204942572Y-92589235D01*
X204918773Y-92595196D01*
X204894505Y-92598796D01*
X204870001Y-92600000D01*
X203629999Y-92600000D01*
X203605495Y-92598796D01*
X203581227Y-92595196D01*
X203557428Y-92589235D01*
X203534329Y-92580970D01*
X203512150Y-92570480D01*
X203491107Y-92557868D01*
X203471401Y-92543253D01*
X203453223Y-92526777D01*
X203436747Y-92508599D01*
X203422132Y-92488893D01*
X203409520Y-92467850D01*
X203399030Y-92445671D01*
X203390765Y-92422572D01*
X203384804Y-92398773D01*
X203381204Y-92374505D01*
X203380000Y-92350001D01*
X203380000Y-90649999D01*
X203381204Y-90625495D01*
X203384804Y-90601227D01*
X203390765Y-90577428D01*
X203399030Y-90554329D01*
X203409520Y-90532150D01*
X203422132Y-90511107D01*
X203436747Y-90491401D01*
X203453223Y-90473223D01*
X203471401Y-90456747D01*
X203491107Y-90442132D01*
X203512150Y-90429520D01*
X203534329Y-90419030D01*
X203557428Y-90410765D01*
X203581227Y-90404804D01*
X203605495Y-90401204D01*
X203629999Y-90400000D01*
X204870001Y-90400000D01*
X204894505Y-90401204D01*
G37*
G04 #@! TD.AperFunction*
D29*
X179630000Y-91500000D03*
X182170000Y-91500000D03*
X184710000Y-91500000D03*
G04 #@! TA.AperFunction,ComponentPad*
D10*
G36*
X187894505Y-90401204D02*
G01*
X187918773Y-90404804D01*
X187942572Y-90410765D01*
X187965671Y-90419030D01*
X187987850Y-90429520D01*
X188008893Y-90442132D01*
X188028599Y-90456747D01*
X188046777Y-90473223D01*
X188063253Y-90491401D01*
X188077868Y-90511107D01*
X188090480Y-90532150D01*
X188100970Y-90554329D01*
X188109235Y-90577428D01*
X188115196Y-90601227D01*
X188118796Y-90625495D01*
X188120000Y-90649999D01*
X188120000Y-92350001D01*
X188118796Y-92374505D01*
X188115196Y-92398773D01*
X188109235Y-92422572D01*
X188100970Y-92445671D01*
X188090480Y-92467850D01*
X188077868Y-92488893D01*
X188063253Y-92508599D01*
X188046777Y-92526777D01*
X188028599Y-92543253D01*
X188008893Y-92557868D01*
X187987850Y-92570480D01*
X187965671Y-92580970D01*
X187942572Y-92589235D01*
X187918773Y-92595196D01*
X187894505Y-92598796D01*
X187870001Y-92600000D01*
X186629999Y-92600000D01*
X186605495Y-92598796D01*
X186581227Y-92595196D01*
X186557428Y-92589235D01*
X186534329Y-92580970D01*
X186512150Y-92570480D01*
X186491107Y-92557868D01*
X186471401Y-92543253D01*
X186453223Y-92526777D01*
X186436747Y-92508599D01*
X186422132Y-92488893D01*
X186409520Y-92467850D01*
X186399030Y-92445671D01*
X186390765Y-92422572D01*
X186384804Y-92398773D01*
X186381204Y-92374505D01*
X186380000Y-92350001D01*
X186380000Y-90649999D01*
X186381204Y-90625495D01*
X186384804Y-90601227D01*
X186390765Y-90577428D01*
X186399030Y-90554329D01*
X186409520Y-90532150D01*
X186422132Y-90511107D01*
X186436747Y-90491401D01*
X186453223Y-90473223D01*
X186471401Y-90456747D01*
X186491107Y-90442132D01*
X186512150Y-90429520D01*
X186534329Y-90419030D01*
X186557428Y-90410765D01*
X186581227Y-90404804D01*
X186605495Y-90401204D01*
X186629999Y-90400000D01*
X187870001Y-90400000D01*
X187894505Y-90401204D01*
G37*
G04 #@! TD.AperFunction*
D30*
X200550000Y-63400000D03*
X202450000Y-63400000D03*
X202450000Y-65600000D03*
D31*
X200730000Y-65600000D03*
D32*
X149400000Y-81000000D03*
X146100000Y-81000000D03*
D33*
X153750000Y-70500000D03*
X155750000Y-69550000D03*
X155750000Y-71450000D03*
X167500000Y-70300000D03*
X165500000Y-71250000D03*
X165500000Y-69350000D03*
G04 #@! TA.AperFunction,SMDPad,CuDef*
D10*
G36*
X165874505Y-85076204D02*
G01*
X165898773Y-85079804D01*
X165922572Y-85085765D01*
X165945671Y-85094030D01*
X165967850Y-85104520D01*
X165988893Y-85117132D01*
X166008599Y-85131747D01*
X166026777Y-85148223D01*
X166043253Y-85166401D01*
X166057868Y-85186107D01*
X166070480Y-85207150D01*
X166080970Y-85229329D01*
X166089235Y-85252428D01*
X166095196Y-85276227D01*
X166098796Y-85300495D01*
X166100000Y-85324999D01*
X166100000Y-86175001D01*
X166098796Y-86199505D01*
X166095196Y-86223773D01*
X166089235Y-86247572D01*
X166080970Y-86270671D01*
X166070480Y-86292850D01*
X166057868Y-86313893D01*
X166043253Y-86333599D01*
X166026777Y-86351777D01*
X166008599Y-86368253D01*
X165988893Y-86382868D01*
X165967850Y-86395480D01*
X165945671Y-86405970D01*
X165922572Y-86414235D01*
X165898773Y-86420196D01*
X165874505Y-86423796D01*
X165850001Y-86425000D01*
X164774999Y-86425000D01*
X164750495Y-86423796D01*
X164726227Y-86420196D01*
X164702428Y-86414235D01*
X164679329Y-86405970D01*
X164657150Y-86395480D01*
X164636107Y-86382868D01*
X164616401Y-86368253D01*
X164598223Y-86351777D01*
X164581747Y-86333599D01*
X164567132Y-86313893D01*
X164554520Y-86292850D01*
X164544030Y-86270671D01*
X164535765Y-86247572D01*
X164529804Y-86223773D01*
X164526204Y-86199505D01*
X164525000Y-86175001D01*
X164525000Y-85324999D01*
X164526204Y-85300495D01*
X164529804Y-85276227D01*
X164535765Y-85252428D01*
X164544030Y-85229329D01*
X164554520Y-85207150D01*
X164567132Y-85186107D01*
X164581747Y-85166401D01*
X164598223Y-85148223D01*
X164616401Y-85131747D01*
X164636107Y-85117132D01*
X164657150Y-85104520D01*
X164679329Y-85094030D01*
X164702428Y-85085765D01*
X164726227Y-85079804D01*
X164750495Y-85076204D01*
X164774999Y-85075000D01*
X165850001Y-85075000D01*
X165874505Y-85076204D01*
G37*
G04 #@! TD.AperFunction*
G04 #@! TA.AperFunction,SMDPad,CuDef*
G36*
X168749505Y-85076204D02*
G01*
X168773773Y-85079804D01*
X168797572Y-85085765D01*
X168820671Y-85094030D01*
X168842850Y-85104520D01*
X168863893Y-85117132D01*
X168883599Y-85131747D01*
X168901777Y-85148223D01*
X168918253Y-85166401D01*
X168932868Y-85186107D01*
X168945480Y-85207150D01*
X168955970Y-85229329D01*
X168964235Y-85252428D01*
X168970196Y-85276227D01*
X168973796Y-85300495D01*
X168975000Y-85324999D01*
X168975000Y-86175001D01*
X168973796Y-86199505D01*
X168970196Y-86223773D01*
X168964235Y-86247572D01*
X168955970Y-86270671D01*
X168945480Y-86292850D01*
X168932868Y-86313893D01*
X168918253Y-86333599D01*
X168901777Y-86351777D01*
X168883599Y-86368253D01*
X168863893Y-86382868D01*
X168842850Y-86395480D01*
X168820671Y-86405970D01*
X168797572Y-86414235D01*
X168773773Y-86420196D01*
X168749505Y-86423796D01*
X168725001Y-86425000D01*
X167649999Y-86425000D01*
X167625495Y-86423796D01*
X167601227Y-86420196D01*
X167577428Y-86414235D01*
X167554329Y-86405970D01*
X167532150Y-86395480D01*
X167511107Y-86382868D01*
X167491401Y-86368253D01*
X167473223Y-86351777D01*
X167456747Y-86333599D01*
X167442132Y-86313893D01*
X167429520Y-86292850D01*
X167419030Y-86270671D01*
X167410765Y-86247572D01*
X167404804Y-86223773D01*
X167401204Y-86199505D01*
X167400000Y-86175001D01*
X167400000Y-85324999D01*
X167401204Y-85300495D01*
X167404804Y-85276227D01*
X167410765Y-85252428D01*
X167419030Y-85229329D01*
X167429520Y-85207150D01*
X167442132Y-85186107D01*
X167456747Y-85166401D01*
X167473223Y-85148223D01*
X167491401Y-85131747D01*
X167511107Y-85117132D01*
X167532150Y-85104520D01*
X167554329Y-85094030D01*
X167577428Y-85085765D01*
X167601227Y-85079804D01*
X167625495Y-85076204D01*
X167649999Y-85075000D01*
X168725001Y-85075000D01*
X168749505Y-85076204D01*
G37*
G04 #@! TD.AperFunction*
G04 #@! TA.AperFunction,SMDPad,CuDef*
G36*
X162230142Y-89326174D02*
G01*
X162253803Y-89329684D01*
X162277007Y-89335496D01*
X162299529Y-89343554D01*
X162321153Y-89353782D01*
X162341670Y-89366079D01*
X162360883Y-89380329D01*
X162378607Y-89396393D01*
X162394671Y-89414117D01*
X162408921Y-89433330D01*
X162421218Y-89453847D01*
X162431446Y-89475471D01*
X162439504Y-89497993D01*
X162445316Y-89521197D01*
X162448826Y-89544858D01*
X162450000Y-89568750D01*
X162450000Y-90056250D01*
X162448826Y-90080142D01*
X162445316Y-90103803D01*
X162439504Y-90127007D01*
X162431446Y-90149529D01*
X162421218Y-90171153D01*
X162408921Y-90191670D01*
X162394671Y-90210883D01*
X162378607Y-90228607D01*
X162360883Y-90244671D01*
X162341670Y-90258921D01*
X162321153Y-90271218D01*
X162299529Y-90281446D01*
X162277007Y-90289504D01*
X162253803Y-90295316D01*
X162230142Y-90298826D01*
X162206250Y-90300000D01*
X161293750Y-90300000D01*
X161269858Y-90298826D01*
X161246197Y-90295316D01*
X161222993Y-90289504D01*
X161200471Y-90281446D01*
X161178847Y-90271218D01*
X161158330Y-90258921D01*
X161139117Y-90244671D01*
X161121393Y-90228607D01*
X161105329Y-90210883D01*
X161091079Y-90191670D01*
X161078782Y-90171153D01*
X161068554Y-90149529D01*
X161060496Y-90127007D01*
X161054684Y-90103803D01*
X161051174Y-90080142D01*
X161050000Y-90056250D01*
X161050000Y-89568750D01*
X161051174Y-89544858D01*
X161054684Y-89521197D01*
X161060496Y-89497993D01*
X161068554Y-89475471D01*
X161078782Y-89453847D01*
X161091079Y-89433330D01*
X161105329Y-89414117D01*
X161121393Y-89396393D01*
X161139117Y-89380329D01*
X161158330Y-89366079D01*
X161178847Y-89353782D01*
X161200471Y-89343554D01*
X161222993Y-89335496D01*
X161246197Y-89329684D01*
X161269858Y-89326174D01*
X161293750Y-89325000D01*
X162206250Y-89325000D01*
X162230142Y-89326174D01*
G37*
G04 #@! TD.AperFunction*
G04 #@! TA.AperFunction,SMDPad,CuDef*
G36*
X162230142Y-91201174D02*
G01*
X162253803Y-91204684D01*
X162277007Y-91210496D01*
X162299529Y-91218554D01*
X162321153Y-91228782D01*
X162341670Y-91241079D01*
X162360883Y-91255329D01*
X162378607Y-91271393D01*
X162394671Y-91289117D01*
X162408921Y-91308330D01*
X162421218Y-91328847D01*
X162431446Y-91350471D01*
X162439504Y-91372993D01*
X162445316Y-91396197D01*
X162448826Y-91419858D01*
X162450000Y-91443750D01*
X162450000Y-91931250D01*
X162448826Y-91955142D01*
X162445316Y-91978803D01*
X162439504Y-92002007D01*
X162431446Y-92024529D01*
X162421218Y-92046153D01*
X162408921Y-92066670D01*
X162394671Y-92085883D01*
X162378607Y-92103607D01*
X162360883Y-92119671D01*
X162341670Y-92133921D01*
X162321153Y-92146218D01*
X162299529Y-92156446D01*
X162277007Y-92164504D01*
X162253803Y-92170316D01*
X162230142Y-92173826D01*
X162206250Y-92175000D01*
X161293750Y-92175000D01*
X161269858Y-92173826D01*
X161246197Y-92170316D01*
X161222993Y-92164504D01*
X161200471Y-92156446D01*
X161178847Y-92146218D01*
X161158330Y-92133921D01*
X161139117Y-92119671D01*
X161121393Y-92103607D01*
X161105329Y-92085883D01*
X161091079Y-92066670D01*
X161078782Y-92046153D01*
X161068554Y-92024529D01*
X161060496Y-92002007D01*
X161054684Y-91978803D01*
X161051174Y-91955142D01*
X161050000Y-91931250D01*
X161050000Y-91443750D01*
X161051174Y-91419858D01*
X161054684Y-91396197D01*
X161060496Y-91372993D01*
X161068554Y-91350471D01*
X161078782Y-91328847D01*
X161091079Y-91308330D01*
X161105329Y-91289117D01*
X161121393Y-91271393D01*
X161139117Y-91255329D01*
X161158330Y-91241079D01*
X161178847Y-91228782D01*
X161200471Y-91218554D01*
X161222993Y-91210496D01*
X161246197Y-91204684D01*
X161269858Y-91201174D01*
X161293750Y-91200000D01*
X162206250Y-91200000D01*
X162230142Y-91201174D01*
G37*
G04 #@! TD.AperFunction*
D34*
X157500000Y-84750000D03*
X157500000Y-81250000D03*
G04 #@! TA.AperFunction,SMDPad,CuDef*
D10*
G36*
X160730142Y-65196174D02*
G01*
X160753803Y-65199684D01*
X160777007Y-65205496D01*
X160799529Y-65213554D01*
X160821153Y-65223782D01*
X160841670Y-65236079D01*
X160860883Y-65250329D01*
X160878607Y-65266393D01*
X160894671Y-65284117D01*
X160908921Y-65303330D01*
X160921218Y-65323847D01*
X160931446Y-65345471D01*
X160939504Y-65367993D01*
X160945316Y-65391197D01*
X160948826Y-65414858D01*
X160950000Y-65438750D01*
X160950000Y-65926250D01*
X160948826Y-65950142D01*
X160945316Y-65973803D01*
X160939504Y-65997007D01*
X160931446Y-66019529D01*
X160921218Y-66041153D01*
X160908921Y-66061670D01*
X160894671Y-66080883D01*
X160878607Y-66098607D01*
X160860883Y-66114671D01*
X160841670Y-66128921D01*
X160821153Y-66141218D01*
X160799529Y-66151446D01*
X160777007Y-66159504D01*
X160753803Y-66165316D01*
X160730142Y-66168826D01*
X160706250Y-66170000D01*
X159793750Y-66170000D01*
X159769858Y-66168826D01*
X159746197Y-66165316D01*
X159722993Y-66159504D01*
X159700471Y-66151446D01*
X159678847Y-66141218D01*
X159658330Y-66128921D01*
X159639117Y-66114671D01*
X159621393Y-66098607D01*
X159605329Y-66080883D01*
X159591079Y-66061670D01*
X159578782Y-66041153D01*
X159568554Y-66019529D01*
X159560496Y-65997007D01*
X159554684Y-65973803D01*
X159551174Y-65950142D01*
X159550000Y-65926250D01*
X159550000Y-65438750D01*
X159551174Y-65414858D01*
X159554684Y-65391197D01*
X159560496Y-65367993D01*
X159568554Y-65345471D01*
X159578782Y-65323847D01*
X159591079Y-65303330D01*
X159605329Y-65284117D01*
X159621393Y-65266393D01*
X159639117Y-65250329D01*
X159658330Y-65236079D01*
X159678847Y-65223782D01*
X159700471Y-65213554D01*
X159722993Y-65205496D01*
X159746197Y-65199684D01*
X159769858Y-65196174D01*
X159793750Y-65195000D01*
X160706250Y-65195000D01*
X160730142Y-65196174D01*
G37*
G04 #@! TD.AperFunction*
G04 #@! TA.AperFunction,SMDPad,CuDef*
G36*
X160730142Y-67071174D02*
G01*
X160753803Y-67074684D01*
X160777007Y-67080496D01*
X160799529Y-67088554D01*
X160821153Y-67098782D01*
X160841670Y-67111079D01*
X160860883Y-67125329D01*
X160878607Y-67141393D01*
X160894671Y-67159117D01*
X160908921Y-67178330D01*
X160921218Y-67198847D01*
X160931446Y-67220471D01*
X160939504Y-67242993D01*
X160945316Y-67266197D01*
X160948826Y-67289858D01*
X160950000Y-67313750D01*
X160950000Y-67801250D01*
X160948826Y-67825142D01*
X160945316Y-67848803D01*
X160939504Y-67872007D01*
X160931446Y-67894529D01*
X160921218Y-67916153D01*
X160908921Y-67936670D01*
X160894671Y-67955883D01*
X160878607Y-67973607D01*
X160860883Y-67989671D01*
X160841670Y-68003921D01*
X160821153Y-68016218D01*
X160799529Y-68026446D01*
X160777007Y-68034504D01*
X160753803Y-68040316D01*
X160730142Y-68043826D01*
X160706250Y-68045000D01*
X159793750Y-68045000D01*
X159769858Y-68043826D01*
X159746197Y-68040316D01*
X159722993Y-68034504D01*
X159700471Y-68026446D01*
X159678847Y-68016218D01*
X159658330Y-68003921D01*
X159639117Y-67989671D01*
X159621393Y-67973607D01*
X159605329Y-67955883D01*
X159591079Y-67936670D01*
X159578782Y-67916153D01*
X159568554Y-67894529D01*
X159560496Y-67872007D01*
X159554684Y-67848803D01*
X159551174Y-67825142D01*
X159550000Y-67801250D01*
X159550000Y-67313750D01*
X159551174Y-67289858D01*
X159554684Y-67266197D01*
X159560496Y-67242993D01*
X159568554Y-67220471D01*
X159578782Y-67198847D01*
X159591079Y-67178330D01*
X159605329Y-67159117D01*
X159621393Y-67141393D01*
X159639117Y-67125329D01*
X159658330Y-67111079D01*
X159678847Y-67098782D01*
X159700471Y-67088554D01*
X159722993Y-67080496D01*
X159746197Y-67074684D01*
X159769858Y-67071174D01*
X159793750Y-67070000D01*
X160706250Y-67070000D01*
X160730142Y-67071174D01*
G37*
G04 #@! TD.AperFunction*
G04 #@! TA.AperFunction,SMDPad,CuDef*
G36*
X175630142Y-79301174D02*
G01*
X175653803Y-79304684D01*
X175677007Y-79310496D01*
X175699529Y-79318554D01*
X175721153Y-79328782D01*
X175741670Y-79341079D01*
X175760883Y-79355329D01*
X175778607Y-79371393D01*
X175794671Y-79389117D01*
X175808921Y-79408330D01*
X175821218Y-79428847D01*
X175831446Y-79450471D01*
X175839504Y-79472993D01*
X175845316Y-79496197D01*
X175848826Y-79519858D01*
X175850000Y-79543750D01*
X175850000Y-80456250D01*
X175848826Y-80480142D01*
X175845316Y-80503803D01*
X175839504Y-80527007D01*
X175831446Y-80549529D01*
X175821218Y-80571153D01*
X175808921Y-80591670D01*
X175794671Y-80610883D01*
X175778607Y-80628607D01*
X175760883Y-80644671D01*
X175741670Y-80658921D01*
X175721153Y-80671218D01*
X175699529Y-80681446D01*
X175677007Y-80689504D01*
X175653803Y-80695316D01*
X175630142Y-80698826D01*
X175606250Y-80700000D01*
X175118750Y-80700000D01*
X175094858Y-80698826D01*
X175071197Y-80695316D01*
X175047993Y-80689504D01*
X175025471Y-80681446D01*
X175003847Y-80671218D01*
X174983330Y-80658921D01*
X174964117Y-80644671D01*
X174946393Y-80628607D01*
X174930329Y-80610883D01*
X174916079Y-80591670D01*
X174903782Y-80571153D01*
X174893554Y-80549529D01*
X174885496Y-80527007D01*
X174879684Y-80503803D01*
X174876174Y-80480142D01*
X174875000Y-80456250D01*
X174875000Y-79543750D01*
X174876174Y-79519858D01*
X174879684Y-79496197D01*
X174885496Y-79472993D01*
X174893554Y-79450471D01*
X174903782Y-79428847D01*
X174916079Y-79408330D01*
X174930329Y-79389117D01*
X174946393Y-79371393D01*
X174964117Y-79355329D01*
X174983330Y-79341079D01*
X175003847Y-79328782D01*
X175025471Y-79318554D01*
X175047993Y-79310496D01*
X175071197Y-79304684D01*
X175094858Y-79301174D01*
X175118750Y-79300000D01*
X175606250Y-79300000D01*
X175630142Y-79301174D01*
G37*
G04 #@! TD.AperFunction*
G04 #@! TA.AperFunction,SMDPad,CuDef*
G36*
X177505142Y-79301174D02*
G01*
X177528803Y-79304684D01*
X177552007Y-79310496D01*
X177574529Y-79318554D01*
X177596153Y-79328782D01*
X177616670Y-79341079D01*
X177635883Y-79355329D01*
X177653607Y-79371393D01*
X177669671Y-79389117D01*
X177683921Y-79408330D01*
X177696218Y-79428847D01*
X177706446Y-79450471D01*
X177714504Y-79472993D01*
X177720316Y-79496197D01*
X177723826Y-79519858D01*
X177725000Y-79543750D01*
X177725000Y-80456250D01*
X177723826Y-80480142D01*
X177720316Y-80503803D01*
X177714504Y-80527007D01*
X177706446Y-80549529D01*
X177696218Y-80571153D01*
X177683921Y-80591670D01*
X177669671Y-80610883D01*
X177653607Y-80628607D01*
X177635883Y-80644671D01*
X177616670Y-80658921D01*
X177596153Y-80671218D01*
X177574529Y-80681446D01*
X177552007Y-80689504D01*
X177528803Y-80695316D01*
X177505142Y-80698826D01*
X177481250Y-80700000D01*
X176993750Y-80700000D01*
X176969858Y-80698826D01*
X176946197Y-80695316D01*
X176922993Y-80689504D01*
X176900471Y-80681446D01*
X176878847Y-80671218D01*
X176858330Y-80658921D01*
X176839117Y-80644671D01*
X176821393Y-80628607D01*
X176805329Y-80610883D01*
X176791079Y-80591670D01*
X176778782Y-80571153D01*
X176768554Y-80549529D01*
X176760496Y-80527007D01*
X176754684Y-80503803D01*
X176751174Y-80480142D01*
X176750000Y-80456250D01*
X176750000Y-79543750D01*
X176751174Y-79519858D01*
X176754684Y-79496197D01*
X176760496Y-79472993D01*
X176768554Y-79450471D01*
X176778782Y-79428847D01*
X176791079Y-79408330D01*
X176805329Y-79389117D01*
X176821393Y-79371393D01*
X176839117Y-79355329D01*
X176858330Y-79341079D01*
X176878847Y-79328782D01*
X176900471Y-79318554D01*
X176922993Y-79310496D01*
X176946197Y-79304684D01*
X176969858Y-79301174D01*
X176993750Y-79300000D01*
X177481250Y-79300000D01*
X177505142Y-79301174D01*
G37*
G04 #@! TD.AperFunction*
G04 #@! TA.AperFunction,SMDPad,CuDef*
G36*
X198480142Y-77451174D02*
G01*
X198503803Y-77454684D01*
X198527007Y-77460496D01*
X198549529Y-77468554D01*
X198571153Y-77478782D01*
X198591670Y-77491079D01*
X198610883Y-77505329D01*
X198628607Y-77521393D01*
X198644671Y-77539117D01*
X198658921Y-77558330D01*
X198671218Y-77578847D01*
X198681446Y-77600471D01*
X198689504Y-77622993D01*
X198695316Y-77646197D01*
X198698826Y-77669858D01*
X198700000Y-77693750D01*
X198700000Y-78181250D01*
X198698826Y-78205142D01*
X198695316Y-78228803D01*
X198689504Y-78252007D01*
X198681446Y-78274529D01*
X198671218Y-78296153D01*
X198658921Y-78316670D01*
X198644671Y-78335883D01*
X198628607Y-78353607D01*
X198610883Y-78369671D01*
X198591670Y-78383921D01*
X198571153Y-78396218D01*
X198549529Y-78406446D01*
X198527007Y-78414504D01*
X198503803Y-78420316D01*
X198480142Y-78423826D01*
X198456250Y-78425000D01*
X197543750Y-78425000D01*
X197519858Y-78423826D01*
X197496197Y-78420316D01*
X197472993Y-78414504D01*
X197450471Y-78406446D01*
X197428847Y-78396218D01*
X197408330Y-78383921D01*
X197389117Y-78369671D01*
X197371393Y-78353607D01*
X197355329Y-78335883D01*
X197341079Y-78316670D01*
X197328782Y-78296153D01*
X197318554Y-78274529D01*
X197310496Y-78252007D01*
X197304684Y-78228803D01*
X197301174Y-78205142D01*
X197300000Y-78181250D01*
X197300000Y-77693750D01*
X197301174Y-77669858D01*
X197304684Y-77646197D01*
X197310496Y-77622993D01*
X197318554Y-77600471D01*
X197328782Y-77578847D01*
X197341079Y-77558330D01*
X197355329Y-77539117D01*
X197371393Y-77521393D01*
X197389117Y-77505329D01*
X197408330Y-77491079D01*
X197428847Y-77478782D01*
X197450471Y-77468554D01*
X197472993Y-77460496D01*
X197496197Y-77454684D01*
X197519858Y-77451174D01*
X197543750Y-77450000D01*
X198456250Y-77450000D01*
X198480142Y-77451174D01*
G37*
G04 #@! TD.AperFunction*
G04 #@! TA.AperFunction,SMDPad,CuDef*
G36*
X198480142Y-75576174D02*
G01*
X198503803Y-75579684D01*
X198527007Y-75585496D01*
X198549529Y-75593554D01*
X198571153Y-75603782D01*
X198591670Y-75616079D01*
X198610883Y-75630329D01*
X198628607Y-75646393D01*
X198644671Y-75664117D01*
X198658921Y-75683330D01*
X198671218Y-75703847D01*
X198681446Y-75725471D01*
X198689504Y-75747993D01*
X198695316Y-75771197D01*
X198698826Y-75794858D01*
X198700000Y-75818750D01*
X198700000Y-76306250D01*
X198698826Y-76330142D01*
X198695316Y-76353803D01*
X198689504Y-76377007D01*
X198681446Y-76399529D01*
X198671218Y-76421153D01*
X198658921Y-76441670D01*
X198644671Y-76460883D01*
X198628607Y-76478607D01*
X198610883Y-76494671D01*
X198591670Y-76508921D01*
X198571153Y-76521218D01*
X198549529Y-76531446D01*
X198527007Y-76539504D01*
X198503803Y-76545316D01*
X198480142Y-76548826D01*
X198456250Y-76550000D01*
X197543750Y-76550000D01*
X197519858Y-76548826D01*
X197496197Y-76545316D01*
X197472993Y-76539504D01*
X197450471Y-76531446D01*
X197428847Y-76521218D01*
X197408330Y-76508921D01*
X197389117Y-76494671D01*
X197371393Y-76478607D01*
X197355329Y-76460883D01*
X197341079Y-76441670D01*
X197328782Y-76421153D01*
X197318554Y-76399529D01*
X197310496Y-76377007D01*
X197304684Y-76353803D01*
X197301174Y-76330142D01*
X197300000Y-76306250D01*
X197300000Y-75818750D01*
X197301174Y-75794858D01*
X197304684Y-75771197D01*
X197310496Y-75747993D01*
X197318554Y-75725471D01*
X197328782Y-75703847D01*
X197341079Y-75683330D01*
X197355329Y-75664117D01*
X197371393Y-75646393D01*
X197389117Y-75630329D01*
X197408330Y-75616079D01*
X197428847Y-75603782D01*
X197450471Y-75593554D01*
X197472993Y-75585496D01*
X197496197Y-75579684D01*
X197519858Y-75576174D01*
X197543750Y-75575000D01*
X198456250Y-75575000D01*
X198480142Y-75576174D01*
G37*
G04 #@! TD.AperFunction*
D35*
X179800000Y-66000000D03*
D36*
X179800000Y-68000000D03*
X179800000Y-70000000D03*
X179800000Y-72000000D03*
X179800000Y-74000000D03*
X179800000Y-76000000D03*
X179800000Y-78000000D03*
X179800000Y-80000000D03*
X195200000Y-80000000D03*
X195100000Y-78000000D03*
X195200000Y-76000000D03*
X195200000Y-74000000D03*
X195200000Y-72000000D03*
X195200000Y-70000000D03*
X195200000Y-68000000D03*
X195200000Y-66000000D03*
D37*
X182490000Y-81700000D03*
X184490000Y-81700000D03*
X186490000Y-81700000D03*
X188490000Y-81700000D03*
X190490000Y-81700000D03*
X192490000Y-81700000D03*
D38*
X204200000Y-81200000D03*
X204200000Y-78660000D03*
X204200000Y-76120000D03*
X204200000Y-73580000D03*
X204200000Y-71040000D03*
D39*
X204200000Y-68500000D03*
G04 #@! TA.AperFunction,SMDPad,CuDef*
D10*
G36*
X178980142Y-86851174D02*
G01*
X179003803Y-86854684D01*
X179027007Y-86860496D01*
X179049529Y-86868554D01*
X179071153Y-86878782D01*
X179091670Y-86891079D01*
X179110883Y-86905329D01*
X179128607Y-86921393D01*
X179144671Y-86939117D01*
X179158921Y-86958330D01*
X179171218Y-86978847D01*
X179181446Y-87000471D01*
X179189504Y-87022993D01*
X179195316Y-87046197D01*
X179198826Y-87069858D01*
X179200000Y-87093750D01*
X179200000Y-87581250D01*
X179198826Y-87605142D01*
X179195316Y-87628803D01*
X179189504Y-87652007D01*
X179181446Y-87674529D01*
X179171218Y-87696153D01*
X179158921Y-87716670D01*
X179144671Y-87735883D01*
X179128607Y-87753607D01*
X179110883Y-87769671D01*
X179091670Y-87783921D01*
X179071153Y-87796218D01*
X179049529Y-87806446D01*
X179027007Y-87814504D01*
X179003803Y-87820316D01*
X178980142Y-87823826D01*
X178956250Y-87825000D01*
X178043750Y-87825000D01*
X178019858Y-87823826D01*
X177996197Y-87820316D01*
X177972993Y-87814504D01*
X177950471Y-87806446D01*
X177928847Y-87796218D01*
X177908330Y-87783921D01*
X177889117Y-87769671D01*
X177871393Y-87753607D01*
X177855329Y-87735883D01*
X177841079Y-87716670D01*
X177828782Y-87696153D01*
X177818554Y-87674529D01*
X177810496Y-87652007D01*
X177804684Y-87628803D01*
X177801174Y-87605142D01*
X177800000Y-87581250D01*
X177800000Y-87093750D01*
X177801174Y-87069858D01*
X177804684Y-87046197D01*
X177810496Y-87022993D01*
X177818554Y-87000471D01*
X177828782Y-86978847D01*
X177841079Y-86958330D01*
X177855329Y-86939117D01*
X177871393Y-86921393D01*
X177889117Y-86905329D01*
X177908330Y-86891079D01*
X177928847Y-86878782D01*
X177950471Y-86868554D01*
X177972993Y-86860496D01*
X177996197Y-86854684D01*
X178019858Y-86851174D01*
X178043750Y-86850000D01*
X178956250Y-86850000D01*
X178980142Y-86851174D01*
G37*
G04 #@! TD.AperFunction*
G04 #@! TA.AperFunction,SMDPad,CuDef*
G36*
X178980142Y-84976174D02*
G01*
X179003803Y-84979684D01*
X179027007Y-84985496D01*
X179049529Y-84993554D01*
X179071153Y-85003782D01*
X179091670Y-85016079D01*
X179110883Y-85030329D01*
X179128607Y-85046393D01*
X179144671Y-85064117D01*
X179158921Y-85083330D01*
X179171218Y-85103847D01*
X179181446Y-85125471D01*
X179189504Y-85147993D01*
X179195316Y-85171197D01*
X179198826Y-85194858D01*
X179200000Y-85218750D01*
X179200000Y-85706250D01*
X179198826Y-85730142D01*
X179195316Y-85753803D01*
X179189504Y-85777007D01*
X179181446Y-85799529D01*
X179171218Y-85821153D01*
X179158921Y-85841670D01*
X179144671Y-85860883D01*
X179128607Y-85878607D01*
X179110883Y-85894671D01*
X179091670Y-85908921D01*
X179071153Y-85921218D01*
X179049529Y-85931446D01*
X179027007Y-85939504D01*
X179003803Y-85945316D01*
X178980142Y-85948826D01*
X178956250Y-85950000D01*
X178043750Y-85950000D01*
X178019858Y-85948826D01*
X177996197Y-85945316D01*
X177972993Y-85939504D01*
X177950471Y-85931446D01*
X177928847Y-85921218D01*
X177908330Y-85908921D01*
X177889117Y-85894671D01*
X177871393Y-85878607D01*
X177855329Y-85860883D01*
X177841079Y-85841670D01*
X177828782Y-85821153D01*
X177818554Y-85799529D01*
X177810496Y-85777007D01*
X177804684Y-85753803D01*
X177801174Y-85730142D01*
X177800000Y-85706250D01*
X177800000Y-85218750D01*
X177801174Y-85194858D01*
X177804684Y-85171197D01*
X177810496Y-85147993D01*
X177818554Y-85125471D01*
X177828782Y-85103847D01*
X177841079Y-85083330D01*
X177855329Y-85064117D01*
X177871393Y-85046393D01*
X177889117Y-85030329D01*
X177908330Y-85016079D01*
X177928847Y-85003782D01*
X177950471Y-84993554D01*
X177972993Y-84985496D01*
X177996197Y-84979684D01*
X178019858Y-84976174D01*
X178043750Y-84975000D01*
X178956250Y-84975000D01*
X178980142Y-84976174D01*
G37*
G04 #@! TD.AperFunction*
D40*
X146500000Y-88250000D03*
X151500000Y-88250000D03*
D34*
X148250000Y-71000000D03*
X145750000Y-71000000D03*
G04 #@! TA.AperFunction,SMDPad,CuDef*
D10*
G36*
X181055142Y-86851174D02*
G01*
X181078803Y-86854684D01*
X181102007Y-86860496D01*
X181124529Y-86868554D01*
X181146153Y-86878782D01*
X181166670Y-86891079D01*
X181185883Y-86905329D01*
X181203607Y-86921393D01*
X181219671Y-86939117D01*
X181233921Y-86958330D01*
X181246218Y-86978847D01*
X181256446Y-87000471D01*
X181264504Y-87022993D01*
X181270316Y-87046197D01*
X181273826Y-87069858D01*
X181275000Y-87093750D01*
X181275000Y-87581250D01*
X181273826Y-87605142D01*
X181270316Y-87628803D01*
X181264504Y-87652007D01*
X181256446Y-87674529D01*
X181246218Y-87696153D01*
X181233921Y-87716670D01*
X181219671Y-87735883D01*
X181203607Y-87753607D01*
X181185883Y-87769671D01*
X181166670Y-87783921D01*
X181146153Y-87796218D01*
X181124529Y-87806446D01*
X181102007Y-87814504D01*
X181078803Y-87820316D01*
X181055142Y-87823826D01*
X181031250Y-87825000D01*
X180118750Y-87825000D01*
X180094858Y-87823826D01*
X180071197Y-87820316D01*
X180047993Y-87814504D01*
X180025471Y-87806446D01*
X180003847Y-87796218D01*
X179983330Y-87783921D01*
X179964117Y-87769671D01*
X179946393Y-87753607D01*
X179930329Y-87735883D01*
X179916079Y-87716670D01*
X179903782Y-87696153D01*
X179893554Y-87674529D01*
X179885496Y-87652007D01*
X179879684Y-87628803D01*
X179876174Y-87605142D01*
X179875000Y-87581250D01*
X179875000Y-87093750D01*
X179876174Y-87069858D01*
X179879684Y-87046197D01*
X179885496Y-87022993D01*
X179893554Y-87000471D01*
X179903782Y-86978847D01*
X179916079Y-86958330D01*
X179930329Y-86939117D01*
X179946393Y-86921393D01*
X179964117Y-86905329D01*
X179983330Y-86891079D01*
X180003847Y-86878782D01*
X180025471Y-86868554D01*
X180047993Y-86860496D01*
X180071197Y-86854684D01*
X180094858Y-86851174D01*
X180118750Y-86850000D01*
X181031250Y-86850000D01*
X181055142Y-86851174D01*
G37*
G04 #@! TD.AperFunction*
G04 #@! TA.AperFunction,SMDPad,CuDef*
G36*
X181055142Y-84976174D02*
G01*
X181078803Y-84979684D01*
X181102007Y-84985496D01*
X181124529Y-84993554D01*
X181146153Y-85003782D01*
X181166670Y-85016079D01*
X181185883Y-85030329D01*
X181203607Y-85046393D01*
X181219671Y-85064117D01*
X181233921Y-85083330D01*
X181246218Y-85103847D01*
X181256446Y-85125471D01*
X181264504Y-85147993D01*
X181270316Y-85171197D01*
X181273826Y-85194858D01*
X181275000Y-85218750D01*
X181275000Y-85706250D01*
X181273826Y-85730142D01*
X181270316Y-85753803D01*
X181264504Y-85777007D01*
X181256446Y-85799529D01*
X181246218Y-85821153D01*
X181233921Y-85841670D01*
X181219671Y-85860883D01*
X181203607Y-85878607D01*
X181185883Y-85894671D01*
X181166670Y-85908921D01*
X181146153Y-85921218D01*
X181124529Y-85931446D01*
X181102007Y-85939504D01*
X181078803Y-85945316D01*
X181055142Y-85948826D01*
X181031250Y-85950000D01*
X180118750Y-85950000D01*
X180094858Y-85948826D01*
X180071197Y-85945316D01*
X180047993Y-85939504D01*
X180025471Y-85931446D01*
X180003847Y-85921218D01*
X179983330Y-85908921D01*
X179964117Y-85894671D01*
X179946393Y-85878607D01*
X179930329Y-85860883D01*
X179916079Y-85841670D01*
X179903782Y-85821153D01*
X179893554Y-85799529D01*
X179885496Y-85777007D01*
X179879684Y-85753803D01*
X179876174Y-85730142D01*
X179875000Y-85706250D01*
X179875000Y-85218750D01*
X179876174Y-85194858D01*
X179879684Y-85171197D01*
X179885496Y-85147993D01*
X179893554Y-85125471D01*
X179903782Y-85103847D01*
X179916079Y-85083330D01*
X179930329Y-85064117D01*
X179946393Y-85046393D01*
X179964117Y-85030329D01*
X179983330Y-85016079D01*
X180003847Y-85003782D01*
X180025471Y-84993554D01*
X180047993Y-84985496D01*
X180071197Y-84979684D01*
X180094858Y-84976174D01*
X180118750Y-84975000D01*
X181031250Y-84975000D01*
X181055142Y-84976174D01*
G37*
G04 #@! TD.AperFunction*
G04 #@! TA.AperFunction,SMDPad,CuDef*
G36*
X204730142Y-63076174D02*
G01*
X204753803Y-63079684D01*
X204777007Y-63085496D01*
X204799529Y-63093554D01*
X204821153Y-63103782D01*
X204841670Y-63116079D01*
X204860883Y-63130329D01*
X204878607Y-63146393D01*
X204894671Y-63164117D01*
X204908921Y-63183330D01*
X204921218Y-63203847D01*
X204931446Y-63225471D01*
X204939504Y-63247993D01*
X204945316Y-63271197D01*
X204948826Y-63294858D01*
X204950000Y-63318750D01*
X204950000Y-63806250D01*
X204948826Y-63830142D01*
X204945316Y-63853803D01*
X204939504Y-63877007D01*
X204931446Y-63899529D01*
X204921218Y-63921153D01*
X204908921Y-63941670D01*
X204894671Y-63960883D01*
X204878607Y-63978607D01*
X204860883Y-63994671D01*
X204841670Y-64008921D01*
X204821153Y-64021218D01*
X204799529Y-64031446D01*
X204777007Y-64039504D01*
X204753803Y-64045316D01*
X204730142Y-64048826D01*
X204706250Y-64050000D01*
X203793750Y-64050000D01*
X203769858Y-64048826D01*
X203746197Y-64045316D01*
X203722993Y-64039504D01*
X203700471Y-64031446D01*
X203678847Y-64021218D01*
X203658330Y-64008921D01*
X203639117Y-63994671D01*
X203621393Y-63978607D01*
X203605329Y-63960883D01*
X203591079Y-63941670D01*
X203578782Y-63921153D01*
X203568554Y-63899529D01*
X203560496Y-63877007D01*
X203554684Y-63853803D01*
X203551174Y-63830142D01*
X203550000Y-63806250D01*
X203550000Y-63318750D01*
X203551174Y-63294858D01*
X203554684Y-63271197D01*
X203560496Y-63247993D01*
X203568554Y-63225471D01*
X203578782Y-63203847D01*
X203591079Y-63183330D01*
X203605329Y-63164117D01*
X203621393Y-63146393D01*
X203639117Y-63130329D01*
X203658330Y-63116079D01*
X203678847Y-63103782D01*
X203700471Y-63093554D01*
X203722993Y-63085496D01*
X203746197Y-63079684D01*
X203769858Y-63076174D01*
X203793750Y-63075000D01*
X204706250Y-63075000D01*
X204730142Y-63076174D01*
G37*
G04 #@! TD.AperFunction*
G04 #@! TA.AperFunction,SMDPad,CuDef*
G36*
X204730142Y-64951174D02*
G01*
X204753803Y-64954684D01*
X204777007Y-64960496D01*
X204799529Y-64968554D01*
X204821153Y-64978782D01*
X204841670Y-64991079D01*
X204860883Y-65005329D01*
X204878607Y-65021393D01*
X204894671Y-65039117D01*
X204908921Y-65058330D01*
X204921218Y-65078847D01*
X204931446Y-65100471D01*
X204939504Y-65122993D01*
X204945316Y-65146197D01*
X204948826Y-65169858D01*
X204950000Y-65193750D01*
X204950000Y-65681250D01*
X204948826Y-65705142D01*
X204945316Y-65728803D01*
X204939504Y-65752007D01*
X204931446Y-65774529D01*
X204921218Y-65796153D01*
X204908921Y-65816670D01*
X204894671Y-65835883D01*
X204878607Y-65853607D01*
X204860883Y-65869671D01*
X204841670Y-65883921D01*
X204821153Y-65896218D01*
X204799529Y-65906446D01*
X204777007Y-65914504D01*
X204753803Y-65920316D01*
X204730142Y-65923826D01*
X204706250Y-65925000D01*
X203793750Y-65925000D01*
X203769858Y-65923826D01*
X203746197Y-65920316D01*
X203722993Y-65914504D01*
X203700471Y-65906446D01*
X203678847Y-65896218D01*
X203658330Y-65883921D01*
X203639117Y-65869671D01*
X203621393Y-65853607D01*
X203605329Y-65835883D01*
X203591079Y-65816670D01*
X203578782Y-65796153D01*
X203568554Y-65774529D01*
X203560496Y-65752007D01*
X203554684Y-65728803D01*
X203551174Y-65705142D01*
X203550000Y-65681250D01*
X203550000Y-65193750D01*
X203551174Y-65169858D01*
X203554684Y-65146197D01*
X203560496Y-65122993D01*
X203568554Y-65100471D01*
X203578782Y-65078847D01*
X203591079Y-65058330D01*
X203605329Y-65039117D01*
X203621393Y-65021393D01*
X203639117Y-65005329D01*
X203658330Y-64991079D01*
X203678847Y-64978782D01*
X203700471Y-64968554D01*
X203722993Y-64960496D01*
X203746197Y-64954684D01*
X203769858Y-64951174D01*
X203793750Y-64950000D01*
X204706250Y-64950000D01*
X204730142Y-64951174D01*
G37*
G04 #@! TD.AperFunction*
G04 #@! TA.AperFunction,SMDPad,CuDef*
G36*
X199230142Y-64951174D02*
G01*
X199253803Y-64954684D01*
X199277007Y-64960496D01*
X199299529Y-64968554D01*
X199321153Y-64978782D01*
X199341670Y-64991079D01*
X199360883Y-65005329D01*
X199378607Y-65021393D01*
X199394671Y-65039117D01*
X199408921Y-65058330D01*
X199421218Y-65078847D01*
X199431446Y-65100471D01*
X199439504Y-65122993D01*
X199445316Y-65146197D01*
X199448826Y-65169858D01*
X199450000Y-65193750D01*
X199450000Y-65681250D01*
X199448826Y-65705142D01*
X199445316Y-65728803D01*
X199439504Y-65752007D01*
X199431446Y-65774529D01*
X199421218Y-65796153D01*
X199408921Y-65816670D01*
X199394671Y-65835883D01*
X199378607Y-65853607D01*
X199360883Y-65869671D01*
X199341670Y-65883921D01*
X199321153Y-65896218D01*
X199299529Y-65906446D01*
X199277007Y-65914504D01*
X199253803Y-65920316D01*
X199230142Y-65923826D01*
X199206250Y-65925000D01*
X198293750Y-65925000D01*
X198269858Y-65923826D01*
X198246197Y-65920316D01*
X198222993Y-65914504D01*
X198200471Y-65906446D01*
X198178847Y-65896218D01*
X198158330Y-65883921D01*
X198139117Y-65869671D01*
X198121393Y-65853607D01*
X198105329Y-65835883D01*
X198091079Y-65816670D01*
X198078782Y-65796153D01*
X198068554Y-65774529D01*
X198060496Y-65752007D01*
X198054684Y-65728803D01*
X198051174Y-65705142D01*
X198050000Y-65681250D01*
X198050000Y-65193750D01*
X198051174Y-65169858D01*
X198054684Y-65146197D01*
X198060496Y-65122993D01*
X198068554Y-65100471D01*
X198078782Y-65078847D01*
X198091079Y-65058330D01*
X198105329Y-65039117D01*
X198121393Y-65021393D01*
X198139117Y-65005329D01*
X198158330Y-64991079D01*
X198178847Y-64978782D01*
X198200471Y-64968554D01*
X198222993Y-64960496D01*
X198246197Y-64954684D01*
X198269858Y-64951174D01*
X198293750Y-64950000D01*
X199206250Y-64950000D01*
X199230142Y-64951174D01*
G37*
G04 #@! TD.AperFunction*
G04 #@! TA.AperFunction,SMDPad,CuDef*
G36*
X199230142Y-63076174D02*
G01*
X199253803Y-63079684D01*
X199277007Y-63085496D01*
X199299529Y-63093554D01*
X199321153Y-63103782D01*
X199341670Y-63116079D01*
X199360883Y-63130329D01*
X199378607Y-63146393D01*
X199394671Y-63164117D01*
X199408921Y-63183330D01*
X199421218Y-63203847D01*
X199431446Y-63225471D01*
X199439504Y-63247993D01*
X199445316Y-63271197D01*
X199448826Y-63294858D01*
X199450000Y-63318750D01*
X199450000Y-63806250D01*
X199448826Y-63830142D01*
X199445316Y-63853803D01*
X199439504Y-63877007D01*
X199431446Y-63899529D01*
X199421218Y-63921153D01*
X199408921Y-63941670D01*
X199394671Y-63960883D01*
X199378607Y-63978607D01*
X199360883Y-63994671D01*
X199341670Y-64008921D01*
X199321153Y-64021218D01*
X199299529Y-64031446D01*
X199277007Y-64039504D01*
X199253803Y-64045316D01*
X199230142Y-64048826D01*
X199206250Y-64050000D01*
X198293750Y-64050000D01*
X198269858Y-64048826D01*
X198246197Y-64045316D01*
X198222993Y-64039504D01*
X198200471Y-64031446D01*
X198178847Y-64021218D01*
X198158330Y-64008921D01*
X198139117Y-63994671D01*
X198121393Y-63978607D01*
X198105329Y-63960883D01*
X198091079Y-63941670D01*
X198078782Y-63921153D01*
X198068554Y-63899529D01*
X198060496Y-63877007D01*
X198054684Y-63853803D01*
X198051174Y-63830142D01*
X198050000Y-63806250D01*
X198050000Y-63318750D01*
X198051174Y-63294858D01*
X198054684Y-63271197D01*
X198060496Y-63247993D01*
X198068554Y-63225471D01*
X198078782Y-63203847D01*
X198091079Y-63183330D01*
X198105329Y-63164117D01*
X198121393Y-63146393D01*
X198139117Y-63130329D01*
X198158330Y-63116079D01*
X198178847Y-63103782D01*
X198200471Y-63093554D01*
X198222993Y-63085496D01*
X198246197Y-63079684D01*
X198269858Y-63076174D01*
X198293750Y-63075000D01*
X199206250Y-63075000D01*
X199230142Y-63076174D01*
G37*
G04 #@! TD.AperFunction*
G04 #@! TA.AperFunction,SMDPad,CuDef*
G36*
X198480142Y-80951174D02*
G01*
X198503803Y-80954684D01*
X198527007Y-80960496D01*
X198549529Y-80968554D01*
X198571153Y-80978782D01*
X198591670Y-80991079D01*
X198610883Y-81005329D01*
X198628607Y-81021393D01*
X198644671Y-81039117D01*
X198658921Y-81058330D01*
X198671218Y-81078847D01*
X198681446Y-81100471D01*
X198689504Y-81122993D01*
X198695316Y-81146197D01*
X198698826Y-81169858D01*
X198700000Y-81193750D01*
X198700000Y-81681250D01*
X198698826Y-81705142D01*
X198695316Y-81728803D01*
X198689504Y-81752007D01*
X198681446Y-81774529D01*
X198671218Y-81796153D01*
X198658921Y-81816670D01*
X198644671Y-81835883D01*
X198628607Y-81853607D01*
X198610883Y-81869671D01*
X198591670Y-81883921D01*
X198571153Y-81896218D01*
X198549529Y-81906446D01*
X198527007Y-81914504D01*
X198503803Y-81920316D01*
X198480142Y-81923826D01*
X198456250Y-81925000D01*
X197543750Y-81925000D01*
X197519858Y-81923826D01*
X197496197Y-81920316D01*
X197472993Y-81914504D01*
X197450471Y-81906446D01*
X197428847Y-81896218D01*
X197408330Y-81883921D01*
X197389117Y-81869671D01*
X197371393Y-81853607D01*
X197355329Y-81835883D01*
X197341079Y-81816670D01*
X197328782Y-81796153D01*
X197318554Y-81774529D01*
X197310496Y-81752007D01*
X197304684Y-81728803D01*
X197301174Y-81705142D01*
X197300000Y-81681250D01*
X197300000Y-81193750D01*
X197301174Y-81169858D01*
X197304684Y-81146197D01*
X197310496Y-81122993D01*
X197318554Y-81100471D01*
X197328782Y-81078847D01*
X197341079Y-81058330D01*
X197355329Y-81039117D01*
X197371393Y-81021393D01*
X197389117Y-81005329D01*
X197408330Y-80991079D01*
X197428847Y-80978782D01*
X197450471Y-80968554D01*
X197472993Y-80960496D01*
X197496197Y-80954684D01*
X197519858Y-80951174D01*
X197543750Y-80950000D01*
X198456250Y-80950000D01*
X198480142Y-80951174D01*
G37*
G04 #@! TD.AperFunction*
G04 #@! TA.AperFunction,SMDPad,CuDef*
G36*
X198480142Y-79076174D02*
G01*
X198503803Y-79079684D01*
X198527007Y-79085496D01*
X198549529Y-79093554D01*
X198571153Y-79103782D01*
X198591670Y-79116079D01*
X198610883Y-79130329D01*
X198628607Y-79146393D01*
X198644671Y-79164117D01*
X198658921Y-79183330D01*
X198671218Y-79203847D01*
X198681446Y-79225471D01*
X198689504Y-79247993D01*
X198695316Y-79271197D01*
X198698826Y-79294858D01*
X198700000Y-79318750D01*
X198700000Y-79806250D01*
X198698826Y-79830142D01*
X198695316Y-79853803D01*
X198689504Y-79877007D01*
X198681446Y-79899529D01*
X198671218Y-79921153D01*
X198658921Y-79941670D01*
X198644671Y-79960883D01*
X198628607Y-79978607D01*
X198610883Y-79994671D01*
X198591670Y-80008921D01*
X198571153Y-80021218D01*
X198549529Y-80031446D01*
X198527007Y-80039504D01*
X198503803Y-80045316D01*
X198480142Y-80048826D01*
X198456250Y-80050000D01*
X197543750Y-80050000D01*
X197519858Y-80048826D01*
X197496197Y-80045316D01*
X197472993Y-80039504D01*
X197450471Y-80031446D01*
X197428847Y-80021218D01*
X197408330Y-80008921D01*
X197389117Y-79994671D01*
X197371393Y-79978607D01*
X197355329Y-79960883D01*
X197341079Y-79941670D01*
X197328782Y-79921153D01*
X197318554Y-79899529D01*
X197310496Y-79877007D01*
X197304684Y-79853803D01*
X197301174Y-79830142D01*
X197300000Y-79806250D01*
X197300000Y-79318750D01*
X197301174Y-79294858D01*
X197304684Y-79271197D01*
X197310496Y-79247993D01*
X197318554Y-79225471D01*
X197328782Y-79203847D01*
X197341079Y-79183330D01*
X197355329Y-79164117D01*
X197371393Y-79146393D01*
X197389117Y-79130329D01*
X197408330Y-79116079D01*
X197428847Y-79103782D01*
X197450471Y-79093554D01*
X197472993Y-79085496D01*
X197496197Y-79079684D01*
X197519858Y-79076174D01*
X197543750Y-79075000D01*
X198456250Y-79075000D01*
X198480142Y-79076174D01*
G37*
G04 #@! TD.AperFunction*
G04 #@! TA.AperFunction,SMDPad,CuDef*
G36*
X175830142Y-66801174D02*
G01*
X175853803Y-66804684D01*
X175877007Y-66810496D01*
X175899529Y-66818554D01*
X175921153Y-66828782D01*
X175941670Y-66841079D01*
X175960883Y-66855329D01*
X175978607Y-66871393D01*
X175994671Y-66889117D01*
X176008921Y-66908330D01*
X176021218Y-66928847D01*
X176031446Y-66950471D01*
X176039504Y-66972993D01*
X176045316Y-66996197D01*
X176048826Y-67019858D01*
X176050000Y-67043750D01*
X176050000Y-67956250D01*
X176048826Y-67980142D01*
X176045316Y-68003803D01*
X176039504Y-68027007D01*
X176031446Y-68049529D01*
X176021218Y-68071153D01*
X176008921Y-68091670D01*
X175994671Y-68110883D01*
X175978607Y-68128607D01*
X175960883Y-68144671D01*
X175941670Y-68158921D01*
X175921153Y-68171218D01*
X175899529Y-68181446D01*
X175877007Y-68189504D01*
X175853803Y-68195316D01*
X175830142Y-68198826D01*
X175806250Y-68200000D01*
X175318750Y-68200000D01*
X175294858Y-68198826D01*
X175271197Y-68195316D01*
X175247993Y-68189504D01*
X175225471Y-68181446D01*
X175203847Y-68171218D01*
X175183330Y-68158921D01*
X175164117Y-68144671D01*
X175146393Y-68128607D01*
X175130329Y-68110883D01*
X175116079Y-68091670D01*
X175103782Y-68071153D01*
X175093554Y-68049529D01*
X175085496Y-68027007D01*
X175079684Y-68003803D01*
X175076174Y-67980142D01*
X175075000Y-67956250D01*
X175075000Y-67043750D01*
X175076174Y-67019858D01*
X175079684Y-66996197D01*
X175085496Y-66972993D01*
X175093554Y-66950471D01*
X175103782Y-66928847D01*
X175116079Y-66908330D01*
X175130329Y-66889117D01*
X175146393Y-66871393D01*
X175164117Y-66855329D01*
X175183330Y-66841079D01*
X175203847Y-66828782D01*
X175225471Y-66818554D01*
X175247993Y-66810496D01*
X175271197Y-66804684D01*
X175294858Y-66801174D01*
X175318750Y-66800000D01*
X175806250Y-66800000D01*
X175830142Y-66801174D01*
G37*
G04 #@! TD.AperFunction*
G04 #@! TA.AperFunction,SMDPad,CuDef*
G36*
X177705142Y-66801174D02*
G01*
X177728803Y-66804684D01*
X177752007Y-66810496D01*
X177774529Y-66818554D01*
X177796153Y-66828782D01*
X177816670Y-66841079D01*
X177835883Y-66855329D01*
X177853607Y-66871393D01*
X177869671Y-66889117D01*
X177883921Y-66908330D01*
X177896218Y-66928847D01*
X177906446Y-66950471D01*
X177914504Y-66972993D01*
X177920316Y-66996197D01*
X177923826Y-67019858D01*
X177925000Y-67043750D01*
X177925000Y-67956250D01*
X177923826Y-67980142D01*
X177920316Y-68003803D01*
X177914504Y-68027007D01*
X177906446Y-68049529D01*
X177896218Y-68071153D01*
X177883921Y-68091670D01*
X177869671Y-68110883D01*
X177853607Y-68128607D01*
X177835883Y-68144671D01*
X177816670Y-68158921D01*
X177796153Y-68171218D01*
X177774529Y-68181446D01*
X177752007Y-68189504D01*
X177728803Y-68195316D01*
X177705142Y-68198826D01*
X177681250Y-68200000D01*
X177193750Y-68200000D01*
X177169858Y-68198826D01*
X177146197Y-68195316D01*
X177122993Y-68189504D01*
X177100471Y-68181446D01*
X177078847Y-68171218D01*
X177058330Y-68158921D01*
X177039117Y-68144671D01*
X177021393Y-68128607D01*
X177005329Y-68110883D01*
X176991079Y-68091670D01*
X176978782Y-68071153D01*
X176968554Y-68049529D01*
X176960496Y-68027007D01*
X176954684Y-68003803D01*
X176951174Y-67980142D01*
X176950000Y-67956250D01*
X176950000Y-67043750D01*
X176951174Y-67019858D01*
X176954684Y-66996197D01*
X176960496Y-66972993D01*
X176968554Y-66950471D01*
X176978782Y-66928847D01*
X176991079Y-66908330D01*
X177005329Y-66889117D01*
X177021393Y-66871393D01*
X177039117Y-66855329D01*
X177058330Y-66841079D01*
X177078847Y-66828782D01*
X177100471Y-66818554D01*
X177122993Y-66810496D01*
X177146197Y-66804684D01*
X177169858Y-66801174D01*
X177193750Y-66800000D01*
X177681250Y-66800000D01*
X177705142Y-66801174D01*
G37*
G04 #@! TD.AperFunction*
G04 #@! TA.AperFunction,SMDPad,CuDef*
G36*
X188880142Y-84976174D02*
G01*
X188903803Y-84979684D01*
X188927007Y-84985496D01*
X188949529Y-84993554D01*
X188971153Y-85003782D01*
X188991670Y-85016079D01*
X189010883Y-85030329D01*
X189028607Y-85046393D01*
X189044671Y-85064117D01*
X189058921Y-85083330D01*
X189071218Y-85103847D01*
X189081446Y-85125471D01*
X189089504Y-85147993D01*
X189095316Y-85171197D01*
X189098826Y-85194858D01*
X189100000Y-85218750D01*
X189100000Y-85706250D01*
X189098826Y-85730142D01*
X189095316Y-85753803D01*
X189089504Y-85777007D01*
X189081446Y-85799529D01*
X189071218Y-85821153D01*
X189058921Y-85841670D01*
X189044671Y-85860883D01*
X189028607Y-85878607D01*
X189010883Y-85894671D01*
X188991670Y-85908921D01*
X188971153Y-85921218D01*
X188949529Y-85931446D01*
X188927007Y-85939504D01*
X188903803Y-85945316D01*
X188880142Y-85948826D01*
X188856250Y-85950000D01*
X187943750Y-85950000D01*
X187919858Y-85948826D01*
X187896197Y-85945316D01*
X187872993Y-85939504D01*
X187850471Y-85931446D01*
X187828847Y-85921218D01*
X187808330Y-85908921D01*
X187789117Y-85894671D01*
X187771393Y-85878607D01*
X187755329Y-85860883D01*
X187741079Y-85841670D01*
X187728782Y-85821153D01*
X187718554Y-85799529D01*
X187710496Y-85777007D01*
X187704684Y-85753803D01*
X187701174Y-85730142D01*
X187700000Y-85706250D01*
X187700000Y-85218750D01*
X187701174Y-85194858D01*
X187704684Y-85171197D01*
X187710496Y-85147993D01*
X187718554Y-85125471D01*
X187728782Y-85103847D01*
X187741079Y-85083330D01*
X187755329Y-85064117D01*
X187771393Y-85046393D01*
X187789117Y-85030329D01*
X187808330Y-85016079D01*
X187828847Y-85003782D01*
X187850471Y-84993554D01*
X187872993Y-84985496D01*
X187896197Y-84979684D01*
X187919858Y-84976174D01*
X187943750Y-84975000D01*
X188856250Y-84975000D01*
X188880142Y-84976174D01*
G37*
G04 #@! TD.AperFunction*
G04 #@! TA.AperFunction,SMDPad,CuDef*
G36*
X188880142Y-86851174D02*
G01*
X188903803Y-86854684D01*
X188927007Y-86860496D01*
X188949529Y-86868554D01*
X188971153Y-86878782D01*
X188991670Y-86891079D01*
X189010883Y-86905329D01*
X189028607Y-86921393D01*
X189044671Y-86939117D01*
X189058921Y-86958330D01*
X189071218Y-86978847D01*
X189081446Y-87000471D01*
X189089504Y-87022993D01*
X189095316Y-87046197D01*
X189098826Y-87069858D01*
X189100000Y-87093750D01*
X189100000Y-87581250D01*
X189098826Y-87605142D01*
X189095316Y-87628803D01*
X189089504Y-87652007D01*
X189081446Y-87674529D01*
X189071218Y-87696153D01*
X189058921Y-87716670D01*
X189044671Y-87735883D01*
X189028607Y-87753607D01*
X189010883Y-87769671D01*
X188991670Y-87783921D01*
X188971153Y-87796218D01*
X188949529Y-87806446D01*
X188927007Y-87814504D01*
X188903803Y-87820316D01*
X188880142Y-87823826D01*
X188856250Y-87825000D01*
X187943750Y-87825000D01*
X187919858Y-87823826D01*
X187896197Y-87820316D01*
X187872993Y-87814504D01*
X187850471Y-87806446D01*
X187828847Y-87796218D01*
X187808330Y-87783921D01*
X187789117Y-87769671D01*
X187771393Y-87753607D01*
X187755329Y-87735883D01*
X187741079Y-87716670D01*
X187728782Y-87696153D01*
X187718554Y-87674529D01*
X187710496Y-87652007D01*
X187704684Y-87628803D01*
X187701174Y-87605142D01*
X187700000Y-87581250D01*
X187700000Y-87093750D01*
X187701174Y-87069858D01*
X187704684Y-87046197D01*
X187710496Y-87022993D01*
X187718554Y-87000471D01*
X187728782Y-86978847D01*
X187741079Y-86958330D01*
X187755329Y-86939117D01*
X187771393Y-86921393D01*
X187789117Y-86905329D01*
X187808330Y-86891079D01*
X187828847Y-86878782D01*
X187850471Y-86868554D01*
X187872993Y-86860496D01*
X187896197Y-86854684D01*
X187919858Y-86851174D01*
X187943750Y-86850000D01*
X188856250Y-86850000D01*
X188880142Y-86851174D01*
G37*
G04 #@! TD.AperFunction*
G04 #@! TA.AperFunction,SMDPad,CuDef*
G36*
X200580142Y-75576174D02*
G01*
X200603803Y-75579684D01*
X200627007Y-75585496D01*
X200649529Y-75593554D01*
X200671153Y-75603782D01*
X200691670Y-75616079D01*
X200710883Y-75630329D01*
X200728607Y-75646393D01*
X200744671Y-75664117D01*
X200758921Y-75683330D01*
X200771218Y-75703847D01*
X200781446Y-75725471D01*
X200789504Y-75747993D01*
X200795316Y-75771197D01*
X200798826Y-75794858D01*
X200800000Y-75818750D01*
X200800000Y-76306250D01*
X200798826Y-76330142D01*
X200795316Y-76353803D01*
X200789504Y-76377007D01*
X200781446Y-76399529D01*
X200771218Y-76421153D01*
X200758921Y-76441670D01*
X200744671Y-76460883D01*
X200728607Y-76478607D01*
X200710883Y-76494671D01*
X200691670Y-76508921D01*
X200671153Y-76521218D01*
X200649529Y-76531446D01*
X200627007Y-76539504D01*
X200603803Y-76545316D01*
X200580142Y-76548826D01*
X200556250Y-76550000D01*
X199643750Y-76550000D01*
X199619858Y-76548826D01*
X199596197Y-76545316D01*
X199572993Y-76539504D01*
X199550471Y-76531446D01*
X199528847Y-76521218D01*
X199508330Y-76508921D01*
X199489117Y-76494671D01*
X199471393Y-76478607D01*
X199455329Y-76460883D01*
X199441079Y-76441670D01*
X199428782Y-76421153D01*
X199418554Y-76399529D01*
X199410496Y-76377007D01*
X199404684Y-76353803D01*
X199401174Y-76330142D01*
X199400000Y-76306250D01*
X199400000Y-75818750D01*
X199401174Y-75794858D01*
X199404684Y-75771197D01*
X199410496Y-75747993D01*
X199418554Y-75725471D01*
X199428782Y-75703847D01*
X199441079Y-75683330D01*
X199455329Y-75664117D01*
X199471393Y-75646393D01*
X199489117Y-75630329D01*
X199508330Y-75616079D01*
X199528847Y-75603782D01*
X199550471Y-75593554D01*
X199572993Y-75585496D01*
X199596197Y-75579684D01*
X199619858Y-75576174D01*
X199643750Y-75575000D01*
X200556250Y-75575000D01*
X200580142Y-75576174D01*
G37*
G04 #@! TD.AperFunction*
G04 #@! TA.AperFunction,SMDPad,CuDef*
G36*
X200580142Y-77451174D02*
G01*
X200603803Y-77454684D01*
X200627007Y-77460496D01*
X200649529Y-77468554D01*
X200671153Y-77478782D01*
X200691670Y-77491079D01*
X200710883Y-77505329D01*
X200728607Y-77521393D01*
X200744671Y-77539117D01*
X200758921Y-77558330D01*
X200771218Y-77578847D01*
X200781446Y-77600471D01*
X200789504Y-77622993D01*
X200795316Y-77646197D01*
X200798826Y-77669858D01*
X200800000Y-77693750D01*
X200800000Y-78181250D01*
X200798826Y-78205142D01*
X200795316Y-78228803D01*
X200789504Y-78252007D01*
X200781446Y-78274529D01*
X200771218Y-78296153D01*
X200758921Y-78316670D01*
X200744671Y-78335883D01*
X200728607Y-78353607D01*
X200710883Y-78369671D01*
X200691670Y-78383921D01*
X200671153Y-78396218D01*
X200649529Y-78406446D01*
X200627007Y-78414504D01*
X200603803Y-78420316D01*
X200580142Y-78423826D01*
X200556250Y-78425000D01*
X199643750Y-78425000D01*
X199619858Y-78423826D01*
X199596197Y-78420316D01*
X199572993Y-78414504D01*
X199550471Y-78406446D01*
X199528847Y-78396218D01*
X199508330Y-78383921D01*
X199489117Y-78369671D01*
X199471393Y-78353607D01*
X199455329Y-78335883D01*
X199441079Y-78316670D01*
X199428782Y-78296153D01*
X199418554Y-78274529D01*
X199410496Y-78252007D01*
X199404684Y-78228803D01*
X199401174Y-78205142D01*
X199400000Y-78181250D01*
X199400000Y-77693750D01*
X199401174Y-77669858D01*
X199404684Y-77646197D01*
X199410496Y-77622993D01*
X199418554Y-77600471D01*
X199428782Y-77578847D01*
X199441079Y-77558330D01*
X199455329Y-77539117D01*
X199471393Y-77521393D01*
X199489117Y-77505329D01*
X199508330Y-77491079D01*
X199528847Y-77478782D01*
X199550471Y-77468554D01*
X199572993Y-77460496D01*
X199596197Y-77454684D01*
X199619858Y-77451174D01*
X199643750Y-77450000D01*
X200556250Y-77450000D01*
X200580142Y-77451174D01*
G37*
G04 #@! TD.AperFunction*
G04 #@! TA.AperFunction,SMDPad,CuDef*
G36*
X176500000Y-91275000D02*
G01*
X175750000Y-90775000D01*
X175750000Y-89775000D01*
X177250000Y-89775000D01*
X177250000Y-90775000D01*
X176500000Y-91275000D01*
G37*
G04 #@! TD.AperFunction*
G04 #@! TA.AperFunction,SMDPad,CuDef*
G36*
X175750000Y-92225000D02*
G01*
X175750000Y-91075000D01*
X176500000Y-91575000D01*
X177250000Y-91075000D01*
X177250000Y-92225000D01*
X175750000Y-92225000D01*
G37*
G04 #@! TD.AperFunction*
G04 #@! TA.AperFunction,SMDPad,CuDef*
G36*
X171630142Y-58751174D02*
G01*
X171653803Y-58754684D01*
X171677007Y-58760496D01*
X171699529Y-58768554D01*
X171721153Y-58778782D01*
X171741670Y-58791079D01*
X171760883Y-58805329D01*
X171778607Y-58821393D01*
X171794671Y-58839117D01*
X171808921Y-58858330D01*
X171821218Y-58878847D01*
X171831446Y-58900471D01*
X171839504Y-58922993D01*
X171845316Y-58946197D01*
X171848826Y-58969858D01*
X171850000Y-58993750D01*
X171850000Y-59906250D01*
X171848826Y-59930142D01*
X171845316Y-59953803D01*
X171839504Y-59977007D01*
X171831446Y-59999529D01*
X171821218Y-60021153D01*
X171808921Y-60041670D01*
X171794671Y-60060883D01*
X171778607Y-60078607D01*
X171760883Y-60094671D01*
X171741670Y-60108921D01*
X171721153Y-60121218D01*
X171699529Y-60131446D01*
X171677007Y-60139504D01*
X171653803Y-60145316D01*
X171630142Y-60148826D01*
X171606250Y-60150000D01*
X171118750Y-60150000D01*
X171094858Y-60148826D01*
X171071197Y-60145316D01*
X171047993Y-60139504D01*
X171025471Y-60131446D01*
X171003847Y-60121218D01*
X170983330Y-60108921D01*
X170964117Y-60094671D01*
X170946393Y-60078607D01*
X170930329Y-60060883D01*
X170916079Y-60041670D01*
X170903782Y-60021153D01*
X170893554Y-59999529D01*
X170885496Y-59977007D01*
X170879684Y-59953803D01*
X170876174Y-59930142D01*
X170875000Y-59906250D01*
X170875000Y-58993750D01*
X170876174Y-58969858D01*
X170879684Y-58946197D01*
X170885496Y-58922993D01*
X170893554Y-58900471D01*
X170903782Y-58878847D01*
X170916079Y-58858330D01*
X170930329Y-58839117D01*
X170946393Y-58821393D01*
X170964117Y-58805329D01*
X170983330Y-58791079D01*
X171003847Y-58778782D01*
X171025471Y-58768554D01*
X171047993Y-58760496D01*
X171071197Y-58754684D01*
X171094858Y-58751174D01*
X171118750Y-58750000D01*
X171606250Y-58750000D01*
X171630142Y-58751174D01*
G37*
G04 #@! TD.AperFunction*
G04 #@! TA.AperFunction,SMDPad,CuDef*
G36*
X173505142Y-58751174D02*
G01*
X173528803Y-58754684D01*
X173552007Y-58760496D01*
X173574529Y-58768554D01*
X173596153Y-58778782D01*
X173616670Y-58791079D01*
X173635883Y-58805329D01*
X173653607Y-58821393D01*
X173669671Y-58839117D01*
X173683921Y-58858330D01*
X173696218Y-58878847D01*
X173706446Y-58900471D01*
X173714504Y-58922993D01*
X173720316Y-58946197D01*
X173723826Y-58969858D01*
X173725000Y-58993750D01*
X173725000Y-59906250D01*
X173723826Y-59930142D01*
X173720316Y-59953803D01*
X173714504Y-59977007D01*
X173706446Y-59999529D01*
X173696218Y-60021153D01*
X173683921Y-60041670D01*
X173669671Y-60060883D01*
X173653607Y-60078607D01*
X173635883Y-60094671D01*
X173616670Y-60108921D01*
X173596153Y-60121218D01*
X173574529Y-60131446D01*
X173552007Y-60139504D01*
X173528803Y-60145316D01*
X173505142Y-60148826D01*
X173481250Y-60150000D01*
X172993750Y-60150000D01*
X172969858Y-60148826D01*
X172946197Y-60145316D01*
X172922993Y-60139504D01*
X172900471Y-60131446D01*
X172878847Y-60121218D01*
X172858330Y-60108921D01*
X172839117Y-60094671D01*
X172821393Y-60078607D01*
X172805329Y-60060883D01*
X172791079Y-60041670D01*
X172778782Y-60021153D01*
X172768554Y-59999529D01*
X172760496Y-59977007D01*
X172754684Y-59953803D01*
X172751174Y-59930142D01*
X172750000Y-59906250D01*
X172750000Y-58993750D01*
X172751174Y-58969858D01*
X172754684Y-58946197D01*
X172760496Y-58922993D01*
X172768554Y-58900471D01*
X172778782Y-58878847D01*
X172791079Y-58858330D01*
X172805329Y-58839117D01*
X172821393Y-58821393D01*
X172839117Y-58805329D01*
X172858330Y-58791079D01*
X172878847Y-58778782D01*
X172900471Y-58768554D01*
X172922993Y-58760496D01*
X172946197Y-58754684D01*
X172969858Y-58751174D01*
X172993750Y-58750000D01*
X173481250Y-58750000D01*
X173505142Y-58751174D01*
G37*
G04 #@! TD.AperFunction*
G04 #@! TA.AperFunction,SMDPad,CuDef*
G36*
X183130142Y-84976174D02*
G01*
X183153803Y-84979684D01*
X183177007Y-84985496D01*
X183199529Y-84993554D01*
X183221153Y-85003782D01*
X183241670Y-85016079D01*
X183260883Y-85030329D01*
X183278607Y-85046393D01*
X183294671Y-85064117D01*
X183308921Y-85083330D01*
X183321218Y-85103847D01*
X183331446Y-85125471D01*
X183339504Y-85147993D01*
X183345316Y-85171197D01*
X183348826Y-85194858D01*
X183350000Y-85218750D01*
X183350000Y-85706250D01*
X183348826Y-85730142D01*
X183345316Y-85753803D01*
X183339504Y-85777007D01*
X183331446Y-85799529D01*
X183321218Y-85821153D01*
X183308921Y-85841670D01*
X183294671Y-85860883D01*
X183278607Y-85878607D01*
X183260883Y-85894671D01*
X183241670Y-85908921D01*
X183221153Y-85921218D01*
X183199529Y-85931446D01*
X183177007Y-85939504D01*
X183153803Y-85945316D01*
X183130142Y-85948826D01*
X183106250Y-85950000D01*
X182193750Y-85950000D01*
X182169858Y-85948826D01*
X182146197Y-85945316D01*
X182122993Y-85939504D01*
X182100471Y-85931446D01*
X182078847Y-85921218D01*
X182058330Y-85908921D01*
X182039117Y-85894671D01*
X182021393Y-85878607D01*
X182005329Y-85860883D01*
X181991079Y-85841670D01*
X181978782Y-85821153D01*
X181968554Y-85799529D01*
X181960496Y-85777007D01*
X181954684Y-85753803D01*
X181951174Y-85730142D01*
X181950000Y-85706250D01*
X181950000Y-85218750D01*
X181951174Y-85194858D01*
X181954684Y-85171197D01*
X181960496Y-85147993D01*
X181968554Y-85125471D01*
X181978782Y-85103847D01*
X181991079Y-85083330D01*
X182005329Y-85064117D01*
X182021393Y-85046393D01*
X182039117Y-85030329D01*
X182058330Y-85016079D01*
X182078847Y-85003782D01*
X182100471Y-84993554D01*
X182122993Y-84985496D01*
X182146197Y-84979684D01*
X182169858Y-84976174D01*
X182193750Y-84975000D01*
X183106250Y-84975000D01*
X183130142Y-84976174D01*
G37*
G04 #@! TD.AperFunction*
G04 #@! TA.AperFunction,SMDPad,CuDef*
G36*
X183130142Y-86851174D02*
G01*
X183153803Y-86854684D01*
X183177007Y-86860496D01*
X183199529Y-86868554D01*
X183221153Y-86878782D01*
X183241670Y-86891079D01*
X183260883Y-86905329D01*
X183278607Y-86921393D01*
X183294671Y-86939117D01*
X183308921Y-86958330D01*
X183321218Y-86978847D01*
X183331446Y-87000471D01*
X183339504Y-87022993D01*
X183345316Y-87046197D01*
X183348826Y-87069858D01*
X183350000Y-87093750D01*
X183350000Y-87581250D01*
X183348826Y-87605142D01*
X183345316Y-87628803D01*
X183339504Y-87652007D01*
X183331446Y-87674529D01*
X183321218Y-87696153D01*
X183308921Y-87716670D01*
X183294671Y-87735883D01*
X183278607Y-87753607D01*
X183260883Y-87769671D01*
X183241670Y-87783921D01*
X183221153Y-87796218D01*
X183199529Y-87806446D01*
X183177007Y-87814504D01*
X183153803Y-87820316D01*
X183130142Y-87823826D01*
X183106250Y-87825000D01*
X182193750Y-87825000D01*
X182169858Y-87823826D01*
X182146197Y-87820316D01*
X182122993Y-87814504D01*
X182100471Y-87806446D01*
X182078847Y-87796218D01*
X182058330Y-87783921D01*
X182039117Y-87769671D01*
X182021393Y-87753607D01*
X182005329Y-87735883D01*
X181991079Y-87716670D01*
X181978782Y-87696153D01*
X181968554Y-87674529D01*
X181960496Y-87652007D01*
X181954684Y-87628803D01*
X181951174Y-87605142D01*
X181950000Y-87581250D01*
X181950000Y-87093750D01*
X181951174Y-87069858D01*
X181954684Y-87046197D01*
X181960496Y-87022993D01*
X181968554Y-87000471D01*
X181978782Y-86978847D01*
X181991079Y-86958330D01*
X182005329Y-86939117D01*
X182021393Y-86921393D01*
X182039117Y-86905329D01*
X182058330Y-86891079D01*
X182078847Y-86878782D01*
X182100471Y-86868554D01*
X182122993Y-86860496D01*
X182146197Y-86854684D01*
X182169858Y-86851174D01*
X182193750Y-86850000D01*
X183106250Y-86850000D01*
X183130142Y-86851174D01*
G37*
G04 #@! TD.AperFunction*
G04 #@! TA.AperFunction,SMDPad,CuDef*
G36*
X200580142Y-80951174D02*
G01*
X200603803Y-80954684D01*
X200627007Y-80960496D01*
X200649529Y-80968554D01*
X200671153Y-80978782D01*
X200691670Y-80991079D01*
X200710883Y-81005329D01*
X200728607Y-81021393D01*
X200744671Y-81039117D01*
X200758921Y-81058330D01*
X200771218Y-81078847D01*
X200781446Y-81100471D01*
X200789504Y-81122993D01*
X200795316Y-81146197D01*
X200798826Y-81169858D01*
X200800000Y-81193750D01*
X200800000Y-81681250D01*
X200798826Y-81705142D01*
X200795316Y-81728803D01*
X200789504Y-81752007D01*
X200781446Y-81774529D01*
X200771218Y-81796153D01*
X200758921Y-81816670D01*
X200744671Y-81835883D01*
X200728607Y-81853607D01*
X200710883Y-81869671D01*
X200691670Y-81883921D01*
X200671153Y-81896218D01*
X200649529Y-81906446D01*
X200627007Y-81914504D01*
X200603803Y-81920316D01*
X200580142Y-81923826D01*
X200556250Y-81925000D01*
X199643750Y-81925000D01*
X199619858Y-81923826D01*
X199596197Y-81920316D01*
X199572993Y-81914504D01*
X199550471Y-81906446D01*
X199528847Y-81896218D01*
X199508330Y-81883921D01*
X199489117Y-81869671D01*
X199471393Y-81853607D01*
X199455329Y-81835883D01*
X199441079Y-81816670D01*
X199428782Y-81796153D01*
X199418554Y-81774529D01*
X199410496Y-81752007D01*
X199404684Y-81728803D01*
X199401174Y-81705142D01*
X199400000Y-81681250D01*
X199400000Y-81193750D01*
X199401174Y-81169858D01*
X199404684Y-81146197D01*
X199410496Y-81122993D01*
X199418554Y-81100471D01*
X199428782Y-81078847D01*
X199441079Y-81058330D01*
X199455329Y-81039117D01*
X199471393Y-81021393D01*
X199489117Y-81005329D01*
X199508330Y-80991079D01*
X199528847Y-80978782D01*
X199550471Y-80968554D01*
X199572993Y-80960496D01*
X199596197Y-80954684D01*
X199619858Y-80951174D01*
X199643750Y-80950000D01*
X200556250Y-80950000D01*
X200580142Y-80951174D01*
G37*
G04 #@! TD.AperFunction*
G04 #@! TA.AperFunction,SMDPad,CuDef*
G36*
X200580142Y-79076174D02*
G01*
X200603803Y-79079684D01*
X200627007Y-79085496D01*
X200649529Y-79093554D01*
X200671153Y-79103782D01*
X200691670Y-79116079D01*
X200710883Y-79130329D01*
X200728607Y-79146393D01*
X200744671Y-79164117D01*
X200758921Y-79183330D01*
X200771218Y-79203847D01*
X200781446Y-79225471D01*
X200789504Y-79247993D01*
X200795316Y-79271197D01*
X200798826Y-79294858D01*
X200800000Y-79318750D01*
X200800000Y-79806250D01*
X200798826Y-79830142D01*
X200795316Y-79853803D01*
X200789504Y-79877007D01*
X200781446Y-79899529D01*
X200771218Y-79921153D01*
X200758921Y-79941670D01*
X200744671Y-79960883D01*
X200728607Y-79978607D01*
X200710883Y-79994671D01*
X200691670Y-80008921D01*
X200671153Y-80021218D01*
X200649529Y-80031446D01*
X200627007Y-80039504D01*
X200603803Y-80045316D01*
X200580142Y-80048826D01*
X200556250Y-80050000D01*
X199643750Y-80050000D01*
X199619858Y-80048826D01*
X199596197Y-80045316D01*
X199572993Y-80039504D01*
X199550471Y-80031446D01*
X199528847Y-80021218D01*
X199508330Y-80008921D01*
X199489117Y-79994671D01*
X199471393Y-79978607D01*
X199455329Y-79960883D01*
X199441079Y-79941670D01*
X199428782Y-79921153D01*
X199418554Y-79899529D01*
X199410496Y-79877007D01*
X199404684Y-79853803D01*
X199401174Y-79830142D01*
X199400000Y-79806250D01*
X199400000Y-79318750D01*
X199401174Y-79294858D01*
X199404684Y-79271197D01*
X199410496Y-79247993D01*
X199418554Y-79225471D01*
X199428782Y-79203847D01*
X199441079Y-79183330D01*
X199455329Y-79164117D01*
X199471393Y-79146393D01*
X199489117Y-79130329D01*
X199508330Y-79116079D01*
X199528847Y-79103782D01*
X199550471Y-79093554D01*
X199572993Y-79085496D01*
X199596197Y-79079684D01*
X199619858Y-79076174D01*
X199643750Y-79075000D01*
X200556250Y-79075000D01*
X200580142Y-79076174D01*
G37*
G04 #@! TD.AperFunction*
G04 #@! TA.AperFunction,SMDPad,CuDef*
G36*
X177680142Y-70976174D02*
G01*
X177703803Y-70979684D01*
X177727007Y-70985496D01*
X177749529Y-70993554D01*
X177771153Y-71003782D01*
X177791670Y-71016079D01*
X177810883Y-71030329D01*
X177828607Y-71046393D01*
X177844671Y-71064117D01*
X177858921Y-71083330D01*
X177871218Y-71103847D01*
X177881446Y-71125471D01*
X177889504Y-71147993D01*
X177895316Y-71171197D01*
X177898826Y-71194858D01*
X177900000Y-71218750D01*
X177900000Y-71706250D01*
X177898826Y-71730142D01*
X177895316Y-71753803D01*
X177889504Y-71777007D01*
X177881446Y-71799529D01*
X177871218Y-71821153D01*
X177858921Y-71841670D01*
X177844671Y-71860883D01*
X177828607Y-71878607D01*
X177810883Y-71894671D01*
X177791670Y-71908921D01*
X177771153Y-71921218D01*
X177749529Y-71931446D01*
X177727007Y-71939504D01*
X177703803Y-71945316D01*
X177680142Y-71948826D01*
X177656250Y-71950000D01*
X176743750Y-71950000D01*
X176719858Y-71948826D01*
X176696197Y-71945316D01*
X176672993Y-71939504D01*
X176650471Y-71931446D01*
X176628847Y-71921218D01*
X176608330Y-71908921D01*
X176589117Y-71894671D01*
X176571393Y-71878607D01*
X176555329Y-71860883D01*
X176541079Y-71841670D01*
X176528782Y-71821153D01*
X176518554Y-71799529D01*
X176510496Y-71777007D01*
X176504684Y-71753803D01*
X176501174Y-71730142D01*
X176500000Y-71706250D01*
X176500000Y-71218750D01*
X176501174Y-71194858D01*
X176504684Y-71171197D01*
X176510496Y-71147993D01*
X176518554Y-71125471D01*
X176528782Y-71103847D01*
X176541079Y-71083330D01*
X176555329Y-71064117D01*
X176571393Y-71046393D01*
X176589117Y-71030329D01*
X176608330Y-71016079D01*
X176628847Y-71003782D01*
X176650471Y-70993554D01*
X176672993Y-70985496D01*
X176696197Y-70979684D01*
X176719858Y-70976174D01*
X176743750Y-70975000D01*
X177656250Y-70975000D01*
X177680142Y-70976174D01*
G37*
G04 #@! TD.AperFunction*
G04 #@! TA.AperFunction,SMDPad,CuDef*
G36*
X177680142Y-72851174D02*
G01*
X177703803Y-72854684D01*
X177727007Y-72860496D01*
X177749529Y-72868554D01*
X177771153Y-72878782D01*
X177791670Y-72891079D01*
X177810883Y-72905329D01*
X177828607Y-72921393D01*
X177844671Y-72939117D01*
X177858921Y-72958330D01*
X177871218Y-72978847D01*
X177881446Y-73000471D01*
X177889504Y-73022993D01*
X177895316Y-73046197D01*
X177898826Y-73069858D01*
X177900000Y-73093750D01*
X177900000Y-73581250D01*
X177898826Y-73605142D01*
X177895316Y-73628803D01*
X177889504Y-73652007D01*
X177881446Y-73674529D01*
X177871218Y-73696153D01*
X177858921Y-73716670D01*
X177844671Y-73735883D01*
X177828607Y-73753607D01*
X177810883Y-73769671D01*
X177791670Y-73783921D01*
X177771153Y-73796218D01*
X177749529Y-73806446D01*
X177727007Y-73814504D01*
X177703803Y-73820316D01*
X177680142Y-73823826D01*
X177656250Y-73825000D01*
X176743750Y-73825000D01*
X176719858Y-73823826D01*
X176696197Y-73820316D01*
X176672993Y-73814504D01*
X176650471Y-73806446D01*
X176628847Y-73796218D01*
X176608330Y-73783921D01*
X176589117Y-73769671D01*
X176571393Y-73753607D01*
X176555329Y-73735883D01*
X176541079Y-73716670D01*
X176528782Y-73696153D01*
X176518554Y-73674529D01*
X176510496Y-73652007D01*
X176504684Y-73628803D01*
X176501174Y-73605142D01*
X176500000Y-73581250D01*
X176500000Y-73093750D01*
X176501174Y-73069858D01*
X176504684Y-73046197D01*
X176510496Y-73022993D01*
X176518554Y-73000471D01*
X176528782Y-72978847D01*
X176541079Y-72958330D01*
X176555329Y-72939117D01*
X176571393Y-72921393D01*
X176589117Y-72905329D01*
X176608330Y-72891079D01*
X176628847Y-72878782D01*
X176650471Y-72868554D01*
X176672993Y-72860496D01*
X176696197Y-72854684D01*
X176719858Y-72851174D01*
X176743750Y-72850000D01*
X177656250Y-72850000D01*
X177680142Y-72851174D01*
G37*
G04 #@! TD.AperFunction*
G04 #@! TA.AperFunction,SMDPad,CuDef*
G36*
X175830142Y-68701174D02*
G01*
X175853803Y-68704684D01*
X175877007Y-68710496D01*
X175899529Y-68718554D01*
X175921153Y-68728782D01*
X175941670Y-68741079D01*
X175960883Y-68755329D01*
X175978607Y-68771393D01*
X175994671Y-68789117D01*
X176008921Y-68808330D01*
X176021218Y-68828847D01*
X176031446Y-68850471D01*
X176039504Y-68872993D01*
X176045316Y-68896197D01*
X176048826Y-68919858D01*
X176050000Y-68943750D01*
X176050000Y-69856250D01*
X176048826Y-69880142D01*
X176045316Y-69903803D01*
X176039504Y-69927007D01*
X176031446Y-69949529D01*
X176021218Y-69971153D01*
X176008921Y-69991670D01*
X175994671Y-70010883D01*
X175978607Y-70028607D01*
X175960883Y-70044671D01*
X175941670Y-70058921D01*
X175921153Y-70071218D01*
X175899529Y-70081446D01*
X175877007Y-70089504D01*
X175853803Y-70095316D01*
X175830142Y-70098826D01*
X175806250Y-70100000D01*
X175318750Y-70100000D01*
X175294858Y-70098826D01*
X175271197Y-70095316D01*
X175247993Y-70089504D01*
X175225471Y-70081446D01*
X175203847Y-70071218D01*
X175183330Y-70058921D01*
X175164117Y-70044671D01*
X175146393Y-70028607D01*
X175130329Y-70010883D01*
X175116079Y-69991670D01*
X175103782Y-69971153D01*
X175093554Y-69949529D01*
X175085496Y-69927007D01*
X175079684Y-69903803D01*
X175076174Y-69880142D01*
X175075000Y-69856250D01*
X175075000Y-68943750D01*
X175076174Y-68919858D01*
X175079684Y-68896197D01*
X175085496Y-68872993D01*
X175093554Y-68850471D01*
X175103782Y-68828847D01*
X175116079Y-68808330D01*
X175130329Y-68789117D01*
X175146393Y-68771393D01*
X175164117Y-68755329D01*
X175183330Y-68741079D01*
X175203847Y-68728782D01*
X175225471Y-68718554D01*
X175247993Y-68710496D01*
X175271197Y-68704684D01*
X175294858Y-68701174D01*
X175318750Y-68700000D01*
X175806250Y-68700000D01*
X175830142Y-68701174D01*
G37*
G04 #@! TD.AperFunction*
G04 #@! TA.AperFunction,SMDPad,CuDef*
G36*
X177705142Y-68701174D02*
G01*
X177728803Y-68704684D01*
X177752007Y-68710496D01*
X177774529Y-68718554D01*
X177796153Y-68728782D01*
X177816670Y-68741079D01*
X177835883Y-68755329D01*
X177853607Y-68771393D01*
X177869671Y-68789117D01*
X177883921Y-68808330D01*
X177896218Y-68828847D01*
X177906446Y-68850471D01*
X177914504Y-68872993D01*
X177920316Y-68896197D01*
X177923826Y-68919858D01*
X177925000Y-68943750D01*
X177925000Y-69856250D01*
X177923826Y-69880142D01*
X177920316Y-69903803D01*
X177914504Y-69927007D01*
X177906446Y-69949529D01*
X177896218Y-69971153D01*
X177883921Y-69991670D01*
X177869671Y-70010883D01*
X177853607Y-70028607D01*
X177835883Y-70044671D01*
X177816670Y-70058921D01*
X177796153Y-70071218D01*
X177774529Y-70081446D01*
X177752007Y-70089504D01*
X177728803Y-70095316D01*
X177705142Y-70098826D01*
X177681250Y-70100000D01*
X177193750Y-70100000D01*
X177169858Y-70098826D01*
X177146197Y-70095316D01*
X177122993Y-70089504D01*
X177100471Y-70081446D01*
X177078847Y-70071218D01*
X177058330Y-70058921D01*
X177039117Y-70044671D01*
X177021393Y-70028607D01*
X177005329Y-70010883D01*
X176991079Y-69991670D01*
X176978782Y-69971153D01*
X176968554Y-69949529D01*
X176960496Y-69927007D01*
X176954684Y-69903803D01*
X176951174Y-69880142D01*
X176950000Y-69856250D01*
X176950000Y-68943750D01*
X176951174Y-68919858D01*
X176954684Y-68896197D01*
X176960496Y-68872993D01*
X176968554Y-68850471D01*
X176978782Y-68828847D01*
X176991079Y-68808330D01*
X177005329Y-68789117D01*
X177021393Y-68771393D01*
X177039117Y-68755329D01*
X177058330Y-68741079D01*
X177078847Y-68728782D01*
X177100471Y-68718554D01*
X177122993Y-68710496D01*
X177146197Y-68704684D01*
X177169858Y-68701174D01*
X177193750Y-68700000D01*
X177681250Y-68700000D01*
X177705142Y-68701174D01*
G37*
G04 #@! TD.AperFunction*
G04 #@! TA.AperFunction,SMDPad,CuDef*
G36*
X173505142Y-60751174D02*
G01*
X173528803Y-60754684D01*
X173552007Y-60760496D01*
X173574529Y-60768554D01*
X173596153Y-60778782D01*
X173616670Y-60791079D01*
X173635883Y-60805329D01*
X173653607Y-60821393D01*
X173669671Y-60839117D01*
X173683921Y-60858330D01*
X173696218Y-60878847D01*
X173706446Y-60900471D01*
X173714504Y-60922993D01*
X173720316Y-60946197D01*
X173723826Y-60969858D01*
X173725000Y-60993750D01*
X173725000Y-61906250D01*
X173723826Y-61930142D01*
X173720316Y-61953803D01*
X173714504Y-61977007D01*
X173706446Y-61999529D01*
X173696218Y-62021153D01*
X173683921Y-62041670D01*
X173669671Y-62060883D01*
X173653607Y-62078607D01*
X173635883Y-62094671D01*
X173616670Y-62108921D01*
X173596153Y-62121218D01*
X173574529Y-62131446D01*
X173552007Y-62139504D01*
X173528803Y-62145316D01*
X173505142Y-62148826D01*
X173481250Y-62150000D01*
X172993750Y-62150000D01*
X172969858Y-62148826D01*
X172946197Y-62145316D01*
X172922993Y-62139504D01*
X172900471Y-62131446D01*
X172878847Y-62121218D01*
X172858330Y-62108921D01*
X172839117Y-62094671D01*
X172821393Y-62078607D01*
X172805329Y-62060883D01*
X172791079Y-62041670D01*
X172778782Y-62021153D01*
X172768554Y-61999529D01*
X172760496Y-61977007D01*
X172754684Y-61953803D01*
X172751174Y-61930142D01*
X172750000Y-61906250D01*
X172750000Y-60993750D01*
X172751174Y-60969858D01*
X172754684Y-60946197D01*
X172760496Y-60922993D01*
X172768554Y-60900471D01*
X172778782Y-60878847D01*
X172791079Y-60858330D01*
X172805329Y-60839117D01*
X172821393Y-60821393D01*
X172839117Y-60805329D01*
X172858330Y-60791079D01*
X172878847Y-60778782D01*
X172900471Y-60768554D01*
X172922993Y-60760496D01*
X172946197Y-60754684D01*
X172969858Y-60751174D01*
X172993750Y-60750000D01*
X173481250Y-60750000D01*
X173505142Y-60751174D01*
G37*
G04 #@! TD.AperFunction*
G04 #@! TA.AperFunction,SMDPad,CuDef*
G36*
X171630142Y-60751174D02*
G01*
X171653803Y-60754684D01*
X171677007Y-60760496D01*
X171699529Y-60768554D01*
X171721153Y-60778782D01*
X171741670Y-60791079D01*
X171760883Y-60805329D01*
X171778607Y-60821393D01*
X171794671Y-60839117D01*
X171808921Y-60858330D01*
X171821218Y-60878847D01*
X171831446Y-60900471D01*
X171839504Y-60922993D01*
X171845316Y-60946197D01*
X171848826Y-60969858D01*
X171850000Y-60993750D01*
X171850000Y-61906250D01*
X171848826Y-61930142D01*
X171845316Y-61953803D01*
X171839504Y-61977007D01*
X171831446Y-61999529D01*
X171821218Y-62021153D01*
X171808921Y-62041670D01*
X171794671Y-62060883D01*
X171778607Y-62078607D01*
X171760883Y-62094671D01*
X171741670Y-62108921D01*
X171721153Y-62121218D01*
X171699529Y-62131446D01*
X171677007Y-62139504D01*
X171653803Y-62145316D01*
X171630142Y-62148826D01*
X171606250Y-62150000D01*
X171118750Y-62150000D01*
X171094858Y-62148826D01*
X171071197Y-62145316D01*
X171047993Y-62139504D01*
X171025471Y-62131446D01*
X171003847Y-62121218D01*
X170983330Y-62108921D01*
X170964117Y-62094671D01*
X170946393Y-62078607D01*
X170930329Y-62060883D01*
X170916079Y-62041670D01*
X170903782Y-62021153D01*
X170893554Y-61999529D01*
X170885496Y-61977007D01*
X170879684Y-61953803D01*
X170876174Y-61930142D01*
X170875000Y-61906250D01*
X170875000Y-60993750D01*
X170876174Y-60969858D01*
X170879684Y-60946197D01*
X170885496Y-60922993D01*
X170893554Y-60900471D01*
X170903782Y-60878847D01*
X170916079Y-60858330D01*
X170930329Y-60839117D01*
X170946393Y-60821393D01*
X170964117Y-60805329D01*
X170983330Y-60791079D01*
X171003847Y-60778782D01*
X171025471Y-60768554D01*
X171047993Y-60760496D01*
X171071197Y-60754684D01*
X171094858Y-60751174D01*
X171118750Y-60750000D01*
X171606250Y-60750000D01*
X171630142Y-60751174D01*
G37*
G04 #@! TD.AperFunction*
G04 #@! TA.AperFunction,SMDPad,CuDef*
G36*
X199955142Y-86331174D02*
G01*
X199978803Y-86334684D01*
X200002007Y-86340496D01*
X200024529Y-86348554D01*
X200046153Y-86358782D01*
X200066670Y-86371079D01*
X200085883Y-86385329D01*
X200103607Y-86401393D01*
X200119671Y-86419117D01*
X200133921Y-86438330D01*
X200146218Y-86458847D01*
X200156446Y-86480471D01*
X200164504Y-86502993D01*
X200170316Y-86526197D01*
X200173826Y-86549858D01*
X200175000Y-86573750D01*
X200175000Y-87486250D01*
X200173826Y-87510142D01*
X200170316Y-87533803D01*
X200164504Y-87557007D01*
X200156446Y-87579529D01*
X200146218Y-87601153D01*
X200133921Y-87621670D01*
X200119671Y-87640883D01*
X200103607Y-87658607D01*
X200085883Y-87674671D01*
X200066670Y-87688921D01*
X200046153Y-87701218D01*
X200024529Y-87711446D01*
X200002007Y-87719504D01*
X199978803Y-87725316D01*
X199955142Y-87728826D01*
X199931250Y-87730000D01*
X199443750Y-87730000D01*
X199419858Y-87728826D01*
X199396197Y-87725316D01*
X199372993Y-87719504D01*
X199350471Y-87711446D01*
X199328847Y-87701218D01*
X199308330Y-87688921D01*
X199289117Y-87674671D01*
X199271393Y-87658607D01*
X199255329Y-87640883D01*
X199241079Y-87621670D01*
X199228782Y-87601153D01*
X199218554Y-87579529D01*
X199210496Y-87557007D01*
X199204684Y-87533803D01*
X199201174Y-87510142D01*
X199200000Y-87486250D01*
X199200000Y-86573750D01*
X199201174Y-86549858D01*
X199204684Y-86526197D01*
X199210496Y-86502993D01*
X199218554Y-86480471D01*
X199228782Y-86458847D01*
X199241079Y-86438330D01*
X199255329Y-86419117D01*
X199271393Y-86401393D01*
X199289117Y-86385329D01*
X199308330Y-86371079D01*
X199328847Y-86358782D01*
X199350471Y-86348554D01*
X199372993Y-86340496D01*
X199396197Y-86334684D01*
X199419858Y-86331174D01*
X199443750Y-86330000D01*
X199931250Y-86330000D01*
X199955142Y-86331174D01*
G37*
G04 #@! TD.AperFunction*
G04 #@! TA.AperFunction,SMDPad,CuDef*
G36*
X198080142Y-86331174D02*
G01*
X198103803Y-86334684D01*
X198127007Y-86340496D01*
X198149529Y-86348554D01*
X198171153Y-86358782D01*
X198191670Y-86371079D01*
X198210883Y-86385329D01*
X198228607Y-86401393D01*
X198244671Y-86419117D01*
X198258921Y-86438330D01*
X198271218Y-86458847D01*
X198281446Y-86480471D01*
X198289504Y-86502993D01*
X198295316Y-86526197D01*
X198298826Y-86549858D01*
X198300000Y-86573750D01*
X198300000Y-87486250D01*
X198298826Y-87510142D01*
X198295316Y-87533803D01*
X198289504Y-87557007D01*
X198281446Y-87579529D01*
X198271218Y-87601153D01*
X198258921Y-87621670D01*
X198244671Y-87640883D01*
X198228607Y-87658607D01*
X198210883Y-87674671D01*
X198191670Y-87688921D01*
X198171153Y-87701218D01*
X198149529Y-87711446D01*
X198127007Y-87719504D01*
X198103803Y-87725316D01*
X198080142Y-87728826D01*
X198056250Y-87730000D01*
X197568750Y-87730000D01*
X197544858Y-87728826D01*
X197521197Y-87725316D01*
X197497993Y-87719504D01*
X197475471Y-87711446D01*
X197453847Y-87701218D01*
X197433330Y-87688921D01*
X197414117Y-87674671D01*
X197396393Y-87658607D01*
X197380329Y-87640883D01*
X197366079Y-87621670D01*
X197353782Y-87601153D01*
X197343554Y-87579529D01*
X197335496Y-87557007D01*
X197329684Y-87533803D01*
X197326174Y-87510142D01*
X197325000Y-87486250D01*
X197325000Y-86573750D01*
X197326174Y-86549858D01*
X197329684Y-86526197D01*
X197335496Y-86502993D01*
X197343554Y-86480471D01*
X197353782Y-86458847D01*
X197366079Y-86438330D01*
X197380329Y-86419117D01*
X197396393Y-86401393D01*
X197414117Y-86385329D01*
X197433330Y-86371079D01*
X197453847Y-86358782D01*
X197475471Y-86348554D01*
X197497993Y-86340496D01*
X197521197Y-86334684D01*
X197544858Y-86331174D01*
X197568750Y-86330000D01*
X198056250Y-86330000D01*
X198080142Y-86331174D01*
G37*
G04 #@! TD.AperFunction*
G04 #@! TA.AperFunction,SMDPad,CuDef*
G36*
X163480142Y-70881174D02*
G01*
X163503803Y-70884684D01*
X163527007Y-70890496D01*
X163549529Y-70898554D01*
X163571153Y-70908782D01*
X163591670Y-70921079D01*
X163610883Y-70935329D01*
X163628607Y-70951393D01*
X163644671Y-70969117D01*
X163658921Y-70988330D01*
X163671218Y-71008847D01*
X163681446Y-71030471D01*
X163689504Y-71052993D01*
X163695316Y-71076197D01*
X163698826Y-71099858D01*
X163700000Y-71123750D01*
X163700000Y-71611250D01*
X163698826Y-71635142D01*
X163695316Y-71658803D01*
X163689504Y-71682007D01*
X163681446Y-71704529D01*
X163671218Y-71726153D01*
X163658921Y-71746670D01*
X163644671Y-71765883D01*
X163628607Y-71783607D01*
X163610883Y-71799671D01*
X163591670Y-71813921D01*
X163571153Y-71826218D01*
X163549529Y-71836446D01*
X163527007Y-71844504D01*
X163503803Y-71850316D01*
X163480142Y-71853826D01*
X163456250Y-71855000D01*
X162543750Y-71855000D01*
X162519858Y-71853826D01*
X162496197Y-71850316D01*
X162472993Y-71844504D01*
X162450471Y-71836446D01*
X162428847Y-71826218D01*
X162408330Y-71813921D01*
X162389117Y-71799671D01*
X162371393Y-71783607D01*
X162355329Y-71765883D01*
X162341079Y-71746670D01*
X162328782Y-71726153D01*
X162318554Y-71704529D01*
X162310496Y-71682007D01*
X162304684Y-71658803D01*
X162301174Y-71635142D01*
X162300000Y-71611250D01*
X162300000Y-71123750D01*
X162301174Y-71099858D01*
X162304684Y-71076197D01*
X162310496Y-71052993D01*
X162318554Y-71030471D01*
X162328782Y-71008847D01*
X162341079Y-70988330D01*
X162355329Y-70969117D01*
X162371393Y-70951393D01*
X162389117Y-70935329D01*
X162408330Y-70921079D01*
X162428847Y-70908782D01*
X162450471Y-70898554D01*
X162472993Y-70890496D01*
X162496197Y-70884684D01*
X162519858Y-70881174D01*
X162543750Y-70880000D01*
X163456250Y-70880000D01*
X163480142Y-70881174D01*
G37*
G04 #@! TD.AperFunction*
G04 #@! TA.AperFunction,SMDPad,CuDef*
G36*
X163480142Y-69006174D02*
G01*
X163503803Y-69009684D01*
X163527007Y-69015496D01*
X163549529Y-69023554D01*
X163571153Y-69033782D01*
X163591670Y-69046079D01*
X163610883Y-69060329D01*
X163628607Y-69076393D01*
X163644671Y-69094117D01*
X163658921Y-69113330D01*
X163671218Y-69133847D01*
X163681446Y-69155471D01*
X163689504Y-69177993D01*
X163695316Y-69201197D01*
X163698826Y-69224858D01*
X163700000Y-69248750D01*
X163700000Y-69736250D01*
X163698826Y-69760142D01*
X163695316Y-69783803D01*
X163689504Y-69807007D01*
X163681446Y-69829529D01*
X163671218Y-69851153D01*
X163658921Y-69871670D01*
X163644671Y-69890883D01*
X163628607Y-69908607D01*
X163610883Y-69924671D01*
X163591670Y-69938921D01*
X163571153Y-69951218D01*
X163549529Y-69961446D01*
X163527007Y-69969504D01*
X163503803Y-69975316D01*
X163480142Y-69978826D01*
X163456250Y-69980000D01*
X162543750Y-69980000D01*
X162519858Y-69978826D01*
X162496197Y-69975316D01*
X162472993Y-69969504D01*
X162450471Y-69961446D01*
X162428847Y-69951218D01*
X162408330Y-69938921D01*
X162389117Y-69924671D01*
X162371393Y-69908607D01*
X162355329Y-69890883D01*
X162341079Y-69871670D01*
X162328782Y-69851153D01*
X162318554Y-69829529D01*
X162310496Y-69807007D01*
X162304684Y-69783803D01*
X162301174Y-69760142D01*
X162300000Y-69736250D01*
X162300000Y-69248750D01*
X162301174Y-69224858D01*
X162304684Y-69201197D01*
X162310496Y-69177993D01*
X162318554Y-69155471D01*
X162328782Y-69133847D01*
X162341079Y-69113330D01*
X162355329Y-69094117D01*
X162371393Y-69076393D01*
X162389117Y-69060329D01*
X162408330Y-69046079D01*
X162428847Y-69033782D01*
X162450471Y-69023554D01*
X162472993Y-69015496D01*
X162496197Y-69009684D01*
X162519858Y-69006174D01*
X162543750Y-69005000D01*
X163456250Y-69005000D01*
X163480142Y-69006174D01*
G37*
G04 #@! TD.AperFunction*
G04 #@! TA.AperFunction,SMDPad,CuDef*
G36*
X162780142Y-65196174D02*
G01*
X162803803Y-65199684D01*
X162827007Y-65205496D01*
X162849529Y-65213554D01*
X162871153Y-65223782D01*
X162891670Y-65236079D01*
X162910883Y-65250329D01*
X162928607Y-65266393D01*
X162944671Y-65284117D01*
X162958921Y-65303330D01*
X162971218Y-65323847D01*
X162981446Y-65345471D01*
X162989504Y-65367993D01*
X162995316Y-65391197D01*
X162998826Y-65414858D01*
X163000000Y-65438750D01*
X163000000Y-65926250D01*
X162998826Y-65950142D01*
X162995316Y-65973803D01*
X162989504Y-65997007D01*
X162981446Y-66019529D01*
X162971218Y-66041153D01*
X162958921Y-66061670D01*
X162944671Y-66080883D01*
X162928607Y-66098607D01*
X162910883Y-66114671D01*
X162891670Y-66128921D01*
X162871153Y-66141218D01*
X162849529Y-66151446D01*
X162827007Y-66159504D01*
X162803803Y-66165316D01*
X162780142Y-66168826D01*
X162756250Y-66170000D01*
X161843750Y-66170000D01*
X161819858Y-66168826D01*
X161796197Y-66165316D01*
X161772993Y-66159504D01*
X161750471Y-66151446D01*
X161728847Y-66141218D01*
X161708330Y-66128921D01*
X161689117Y-66114671D01*
X161671393Y-66098607D01*
X161655329Y-66080883D01*
X161641079Y-66061670D01*
X161628782Y-66041153D01*
X161618554Y-66019529D01*
X161610496Y-65997007D01*
X161604684Y-65973803D01*
X161601174Y-65950142D01*
X161600000Y-65926250D01*
X161600000Y-65438750D01*
X161601174Y-65414858D01*
X161604684Y-65391197D01*
X161610496Y-65367993D01*
X161618554Y-65345471D01*
X161628782Y-65323847D01*
X161641079Y-65303330D01*
X161655329Y-65284117D01*
X161671393Y-65266393D01*
X161689117Y-65250329D01*
X161708330Y-65236079D01*
X161728847Y-65223782D01*
X161750471Y-65213554D01*
X161772993Y-65205496D01*
X161796197Y-65199684D01*
X161819858Y-65196174D01*
X161843750Y-65195000D01*
X162756250Y-65195000D01*
X162780142Y-65196174D01*
G37*
G04 #@! TD.AperFunction*
G04 #@! TA.AperFunction,SMDPad,CuDef*
G36*
X162780142Y-67071174D02*
G01*
X162803803Y-67074684D01*
X162827007Y-67080496D01*
X162849529Y-67088554D01*
X162871153Y-67098782D01*
X162891670Y-67111079D01*
X162910883Y-67125329D01*
X162928607Y-67141393D01*
X162944671Y-67159117D01*
X162958921Y-67178330D01*
X162971218Y-67198847D01*
X162981446Y-67220471D01*
X162989504Y-67242993D01*
X162995316Y-67266197D01*
X162998826Y-67289858D01*
X163000000Y-67313750D01*
X163000000Y-67801250D01*
X162998826Y-67825142D01*
X162995316Y-67848803D01*
X162989504Y-67872007D01*
X162981446Y-67894529D01*
X162971218Y-67916153D01*
X162958921Y-67936670D01*
X162944671Y-67955883D01*
X162928607Y-67973607D01*
X162910883Y-67989671D01*
X162891670Y-68003921D01*
X162871153Y-68016218D01*
X162849529Y-68026446D01*
X162827007Y-68034504D01*
X162803803Y-68040316D01*
X162780142Y-68043826D01*
X162756250Y-68045000D01*
X161843750Y-68045000D01*
X161819858Y-68043826D01*
X161796197Y-68040316D01*
X161772993Y-68034504D01*
X161750471Y-68026446D01*
X161728847Y-68016218D01*
X161708330Y-68003921D01*
X161689117Y-67989671D01*
X161671393Y-67973607D01*
X161655329Y-67955883D01*
X161641079Y-67936670D01*
X161628782Y-67916153D01*
X161618554Y-67894529D01*
X161610496Y-67872007D01*
X161604684Y-67848803D01*
X161601174Y-67825142D01*
X161600000Y-67801250D01*
X161600000Y-67313750D01*
X161601174Y-67289858D01*
X161604684Y-67266197D01*
X161610496Y-67242993D01*
X161618554Y-67220471D01*
X161628782Y-67198847D01*
X161641079Y-67178330D01*
X161655329Y-67159117D01*
X161671393Y-67141393D01*
X161689117Y-67125329D01*
X161708330Y-67111079D01*
X161728847Y-67098782D01*
X161750471Y-67088554D01*
X161772993Y-67080496D01*
X161796197Y-67074684D01*
X161819858Y-67071174D01*
X161843750Y-67070000D01*
X162756250Y-67070000D01*
X162780142Y-67071174D01*
G37*
G04 #@! TD.AperFunction*
G04 #@! TA.AperFunction,SMDPad,CuDef*
G36*
X159355142Y-73801174D02*
G01*
X159378803Y-73804684D01*
X159402007Y-73810496D01*
X159424529Y-73818554D01*
X159446153Y-73828782D01*
X159466670Y-73841079D01*
X159485883Y-73855329D01*
X159503607Y-73871393D01*
X159519671Y-73889117D01*
X159533921Y-73908330D01*
X159546218Y-73928847D01*
X159556446Y-73950471D01*
X159564504Y-73972993D01*
X159570316Y-73996197D01*
X159573826Y-74019858D01*
X159575000Y-74043750D01*
X159575000Y-74956250D01*
X159573826Y-74980142D01*
X159570316Y-75003803D01*
X159564504Y-75027007D01*
X159556446Y-75049529D01*
X159546218Y-75071153D01*
X159533921Y-75091670D01*
X159519671Y-75110883D01*
X159503607Y-75128607D01*
X159485883Y-75144671D01*
X159466670Y-75158921D01*
X159446153Y-75171218D01*
X159424529Y-75181446D01*
X159402007Y-75189504D01*
X159378803Y-75195316D01*
X159355142Y-75198826D01*
X159331250Y-75200000D01*
X158843750Y-75200000D01*
X158819858Y-75198826D01*
X158796197Y-75195316D01*
X158772993Y-75189504D01*
X158750471Y-75181446D01*
X158728847Y-75171218D01*
X158708330Y-75158921D01*
X158689117Y-75144671D01*
X158671393Y-75128607D01*
X158655329Y-75110883D01*
X158641079Y-75091670D01*
X158628782Y-75071153D01*
X158618554Y-75049529D01*
X158610496Y-75027007D01*
X158604684Y-75003803D01*
X158601174Y-74980142D01*
X158600000Y-74956250D01*
X158600000Y-74043750D01*
X158601174Y-74019858D01*
X158604684Y-73996197D01*
X158610496Y-73972993D01*
X158618554Y-73950471D01*
X158628782Y-73928847D01*
X158641079Y-73908330D01*
X158655329Y-73889117D01*
X158671393Y-73871393D01*
X158689117Y-73855329D01*
X158708330Y-73841079D01*
X158728847Y-73828782D01*
X158750471Y-73818554D01*
X158772993Y-73810496D01*
X158796197Y-73804684D01*
X158819858Y-73801174D01*
X158843750Y-73800000D01*
X159331250Y-73800000D01*
X159355142Y-73801174D01*
G37*
G04 #@! TD.AperFunction*
G04 #@! TA.AperFunction,SMDPad,CuDef*
G36*
X157480142Y-73801174D02*
G01*
X157503803Y-73804684D01*
X157527007Y-73810496D01*
X157549529Y-73818554D01*
X157571153Y-73828782D01*
X157591670Y-73841079D01*
X157610883Y-73855329D01*
X157628607Y-73871393D01*
X157644671Y-73889117D01*
X157658921Y-73908330D01*
X157671218Y-73928847D01*
X157681446Y-73950471D01*
X157689504Y-73972993D01*
X157695316Y-73996197D01*
X157698826Y-74019858D01*
X157700000Y-74043750D01*
X157700000Y-74956250D01*
X157698826Y-74980142D01*
X157695316Y-75003803D01*
X157689504Y-75027007D01*
X157681446Y-75049529D01*
X157671218Y-75071153D01*
X157658921Y-75091670D01*
X157644671Y-75110883D01*
X157628607Y-75128607D01*
X157610883Y-75144671D01*
X157591670Y-75158921D01*
X157571153Y-75171218D01*
X157549529Y-75181446D01*
X157527007Y-75189504D01*
X157503803Y-75195316D01*
X157480142Y-75198826D01*
X157456250Y-75200000D01*
X156968750Y-75200000D01*
X156944858Y-75198826D01*
X156921197Y-75195316D01*
X156897993Y-75189504D01*
X156875471Y-75181446D01*
X156853847Y-75171218D01*
X156833330Y-75158921D01*
X156814117Y-75144671D01*
X156796393Y-75128607D01*
X156780329Y-75110883D01*
X156766079Y-75091670D01*
X156753782Y-75071153D01*
X156743554Y-75049529D01*
X156735496Y-75027007D01*
X156729684Y-75003803D01*
X156726174Y-74980142D01*
X156725000Y-74956250D01*
X156725000Y-74043750D01*
X156726174Y-74019858D01*
X156729684Y-73996197D01*
X156735496Y-73972993D01*
X156743554Y-73950471D01*
X156753782Y-73928847D01*
X156766079Y-73908330D01*
X156780329Y-73889117D01*
X156796393Y-73871393D01*
X156814117Y-73855329D01*
X156833330Y-73841079D01*
X156853847Y-73828782D01*
X156875471Y-73818554D01*
X156897993Y-73810496D01*
X156921197Y-73804684D01*
X156944858Y-73801174D01*
X156968750Y-73800000D01*
X157456250Y-73800000D01*
X157480142Y-73801174D01*
G37*
G04 #@! TD.AperFunction*
G04 #@! TA.AperFunction,SMDPad,CuDef*
G36*
X155955142Y-72551174D02*
G01*
X155978803Y-72554684D01*
X156002007Y-72560496D01*
X156024529Y-72568554D01*
X156046153Y-72578782D01*
X156066670Y-72591079D01*
X156085883Y-72605329D01*
X156103607Y-72621393D01*
X156119671Y-72639117D01*
X156133921Y-72658330D01*
X156146218Y-72678847D01*
X156156446Y-72700471D01*
X156164504Y-72722993D01*
X156170316Y-72746197D01*
X156173826Y-72769858D01*
X156175000Y-72793750D01*
X156175000Y-73706250D01*
X156173826Y-73730142D01*
X156170316Y-73753803D01*
X156164504Y-73777007D01*
X156156446Y-73799529D01*
X156146218Y-73821153D01*
X156133921Y-73841670D01*
X156119671Y-73860883D01*
X156103607Y-73878607D01*
X156085883Y-73894671D01*
X156066670Y-73908921D01*
X156046153Y-73921218D01*
X156024529Y-73931446D01*
X156002007Y-73939504D01*
X155978803Y-73945316D01*
X155955142Y-73948826D01*
X155931250Y-73950000D01*
X155443750Y-73950000D01*
X155419858Y-73948826D01*
X155396197Y-73945316D01*
X155372993Y-73939504D01*
X155350471Y-73931446D01*
X155328847Y-73921218D01*
X155308330Y-73908921D01*
X155289117Y-73894671D01*
X155271393Y-73878607D01*
X155255329Y-73860883D01*
X155241079Y-73841670D01*
X155228782Y-73821153D01*
X155218554Y-73799529D01*
X155210496Y-73777007D01*
X155204684Y-73753803D01*
X155201174Y-73730142D01*
X155200000Y-73706250D01*
X155200000Y-72793750D01*
X155201174Y-72769858D01*
X155204684Y-72746197D01*
X155210496Y-72722993D01*
X155218554Y-72700471D01*
X155228782Y-72678847D01*
X155241079Y-72658330D01*
X155255329Y-72639117D01*
X155271393Y-72621393D01*
X155289117Y-72605329D01*
X155308330Y-72591079D01*
X155328847Y-72578782D01*
X155350471Y-72568554D01*
X155372993Y-72560496D01*
X155396197Y-72554684D01*
X155419858Y-72551174D01*
X155443750Y-72550000D01*
X155931250Y-72550000D01*
X155955142Y-72551174D01*
G37*
G04 #@! TD.AperFunction*
G04 #@! TA.AperFunction,SMDPad,CuDef*
G36*
X154080142Y-72551174D02*
G01*
X154103803Y-72554684D01*
X154127007Y-72560496D01*
X154149529Y-72568554D01*
X154171153Y-72578782D01*
X154191670Y-72591079D01*
X154210883Y-72605329D01*
X154228607Y-72621393D01*
X154244671Y-72639117D01*
X154258921Y-72658330D01*
X154271218Y-72678847D01*
X154281446Y-72700471D01*
X154289504Y-72722993D01*
X154295316Y-72746197D01*
X154298826Y-72769858D01*
X154300000Y-72793750D01*
X154300000Y-73706250D01*
X154298826Y-73730142D01*
X154295316Y-73753803D01*
X154289504Y-73777007D01*
X154281446Y-73799529D01*
X154271218Y-73821153D01*
X154258921Y-73841670D01*
X154244671Y-73860883D01*
X154228607Y-73878607D01*
X154210883Y-73894671D01*
X154191670Y-73908921D01*
X154171153Y-73921218D01*
X154149529Y-73931446D01*
X154127007Y-73939504D01*
X154103803Y-73945316D01*
X154080142Y-73948826D01*
X154056250Y-73950000D01*
X153568750Y-73950000D01*
X153544858Y-73948826D01*
X153521197Y-73945316D01*
X153497993Y-73939504D01*
X153475471Y-73931446D01*
X153453847Y-73921218D01*
X153433330Y-73908921D01*
X153414117Y-73894671D01*
X153396393Y-73878607D01*
X153380329Y-73860883D01*
X153366079Y-73841670D01*
X153353782Y-73821153D01*
X153343554Y-73799529D01*
X153335496Y-73777007D01*
X153329684Y-73753803D01*
X153326174Y-73730142D01*
X153325000Y-73706250D01*
X153325000Y-72793750D01*
X153326174Y-72769858D01*
X153329684Y-72746197D01*
X153335496Y-72722993D01*
X153343554Y-72700471D01*
X153353782Y-72678847D01*
X153366079Y-72658330D01*
X153380329Y-72639117D01*
X153396393Y-72621393D01*
X153414117Y-72605329D01*
X153433330Y-72591079D01*
X153453847Y-72578782D01*
X153475471Y-72568554D01*
X153497993Y-72560496D01*
X153521197Y-72554684D01*
X153544858Y-72551174D01*
X153568750Y-72550000D01*
X154056250Y-72550000D01*
X154080142Y-72551174D01*
G37*
G04 #@! TD.AperFunction*
G04 #@! TA.AperFunction,SMDPad,CuDef*
G36*
X166455142Y-77551174D02*
G01*
X166478803Y-77554684D01*
X166502007Y-77560496D01*
X166524529Y-77568554D01*
X166546153Y-77578782D01*
X166566670Y-77591079D01*
X166585883Y-77605329D01*
X166603607Y-77621393D01*
X166619671Y-77639117D01*
X166633921Y-77658330D01*
X166646218Y-77678847D01*
X166656446Y-77700471D01*
X166664504Y-77722993D01*
X166670316Y-77746197D01*
X166673826Y-77769858D01*
X166675000Y-77793750D01*
X166675000Y-78706250D01*
X166673826Y-78730142D01*
X166670316Y-78753803D01*
X166664504Y-78777007D01*
X166656446Y-78799529D01*
X166646218Y-78821153D01*
X166633921Y-78841670D01*
X166619671Y-78860883D01*
X166603607Y-78878607D01*
X166585883Y-78894671D01*
X166566670Y-78908921D01*
X166546153Y-78921218D01*
X166524529Y-78931446D01*
X166502007Y-78939504D01*
X166478803Y-78945316D01*
X166455142Y-78948826D01*
X166431250Y-78950000D01*
X165943750Y-78950000D01*
X165919858Y-78948826D01*
X165896197Y-78945316D01*
X165872993Y-78939504D01*
X165850471Y-78931446D01*
X165828847Y-78921218D01*
X165808330Y-78908921D01*
X165789117Y-78894671D01*
X165771393Y-78878607D01*
X165755329Y-78860883D01*
X165741079Y-78841670D01*
X165728782Y-78821153D01*
X165718554Y-78799529D01*
X165710496Y-78777007D01*
X165704684Y-78753803D01*
X165701174Y-78730142D01*
X165700000Y-78706250D01*
X165700000Y-77793750D01*
X165701174Y-77769858D01*
X165704684Y-77746197D01*
X165710496Y-77722993D01*
X165718554Y-77700471D01*
X165728782Y-77678847D01*
X165741079Y-77658330D01*
X165755329Y-77639117D01*
X165771393Y-77621393D01*
X165789117Y-77605329D01*
X165808330Y-77591079D01*
X165828847Y-77578782D01*
X165850471Y-77568554D01*
X165872993Y-77560496D01*
X165896197Y-77554684D01*
X165919858Y-77551174D01*
X165943750Y-77550000D01*
X166431250Y-77550000D01*
X166455142Y-77551174D01*
G37*
G04 #@! TD.AperFunction*
G04 #@! TA.AperFunction,SMDPad,CuDef*
G36*
X164580142Y-77551174D02*
G01*
X164603803Y-77554684D01*
X164627007Y-77560496D01*
X164649529Y-77568554D01*
X164671153Y-77578782D01*
X164691670Y-77591079D01*
X164710883Y-77605329D01*
X164728607Y-77621393D01*
X164744671Y-77639117D01*
X164758921Y-77658330D01*
X164771218Y-77678847D01*
X164781446Y-77700471D01*
X164789504Y-77722993D01*
X164795316Y-77746197D01*
X164798826Y-77769858D01*
X164800000Y-77793750D01*
X164800000Y-78706250D01*
X164798826Y-78730142D01*
X164795316Y-78753803D01*
X164789504Y-78777007D01*
X164781446Y-78799529D01*
X164771218Y-78821153D01*
X164758921Y-78841670D01*
X164744671Y-78860883D01*
X164728607Y-78878607D01*
X164710883Y-78894671D01*
X164691670Y-78908921D01*
X164671153Y-78921218D01*
X164649529Y-78931446D01*
X164627007Y-78939504D01*
X164603803Y-78945316D01*
X164580142Y-78948826D01*
X164556250Y-78950000D01*
X164068750Y-78950000D01*
X164044858Y-78948826D01*
X164021197Y-78945316D01*
X163997993Y-78939504D01*
X163975471Y-78931446D01*
X163953847Y-78921218D01*
X163933330Y-78908921D01*
X163914117Y-78894671D01*
X163896393Y-78878607D01*
X163880329Y-78860883D01*
X163866079Y-78841670D01*
X163853782Y-78821153D01*
X163843554Y-78799529D01*
X163835496Y-78777007D01*
X163829684Y-78753803D01*
X163826174Y-78730142D01*
X163825000Y-78706250D01*
X163825000Y-77793750D01*
X163826174Y-77769858D01*
X163829684Y-77746197D01*
X163835496Y-77722993D01*
X163843554Y-77700471D01*
X163853782Y-77678847D01*
X163866079Y-77658330D01*
X163880329Y-77639117D01*
X163896393Y-77621393D01*
X163914117Y-77605329D01*
X163933330Y-77591079D01*
X163953847Y-77578782D01*
X163975471Y-77568554D01*
X163997993Y-77560496D01*
X164021197Y-77554684D01*
X164044858Y-77551174D01*
X164068750Y-77550000D01*
X164556250Y-77550000D01*
X164580142Y-77551174D01*
G37*
G04 #@! TD.AperFunction*
G04 #@! TA.AperFunction,SMDPad,CuDef*
G36*
X164580142Y-75551174D02*
G01*
X164603803Y-75554684D01*
X164627007Y-75560496D01*
X164649529Y-75568554D01*
X164671153Y-75578782D01*
X164691670Y-75591079D01*
X164710883Y-75605329D01*
X164728607Y-75621393D01*
X164744671Y-75639117D01*
X164758921Y-75658330D01*
X164771218Y-75678847D01*
X164781446Y-75700471D01*
X164789504Y-75722993D01*
X164795316Y-75746197D01*
X164798826Y-75769858D01*
X164800000Y-75793750D01*
X164800000Y-76706250D01*
X164798826Y-76730142D01*
X164795316Y-76753803D01*
X164789504Y-76777007D01*
X164781446Y-76799529D01*
X164771218Y-76821153D01*
X164758921Y-76841670D01*
X164744671Y-76860883D01*
X164728607Y-76878607D01*
X164710883Y-76894671D01*
X164691670Y-76908921D01*
X164671153Y-76921218D01*
X164649529Y-76931446D01*
X164627007Y-76939504D01*
X164603803Y-76945316D01*
X164580142Y-76948826D01*
X164556250Y-76950000D01*
X164068750Y-76950000D01*
X164044858Y-76948826D01*
X164021197Y-76945316D01*
X163997993Y-76939504D01*
X163975471Y-76931446D01*
X163953847Y-76921218D01*
X163933330Y-76908921D01*
X163914117Y-76894671D01*
X163896393Y-76878607D01*
X163880329Y-76860883D01*
X163866079Y-76841670D01*
X163853782Y-76821153D01*
X163843554Y-76799529D01*
X163835496Y-76777007D01*
X163829684Y-76753803D01*
X163826174Y-76730142D01*
X163825000Y-76706250D01*
X163825000Y-75793750D01*
X163826174Y-75769858D01*
X163829684Y-75746197D01*
X163835496Y-75722993D01*
X163843554Y-75700471D01*
X163853782Y-75678847D01*
X163866079Y-75658330D01*
X163880329Y-75639117D01*
X163896393Y-75621393D01*
X163914117Y-75605329D01*
X163933330Y-75591079D01*
X163953847Y-75578782D01*
X163975471Y-75568554D01*
X163997993Y-75560496D01*
X164021197Y-75554684D01*
X164044858Y-75551174D01*
X164068750Y-75550000D01*
X164556250Y-75550000D01*
X164580142Y-75551174D01*
G37*
G04 #@! TD.AperFunction*
G04 #@! TA.AperFunction,SMDPad,CuDef*
G36*
X166455142Y-75551174D02*
G01*
X166478803Y-75554684D01*
X166502007Y-75560496D01*
X166524529Y-75568554D01*
X166546153Y-75578782D01*
X166566670Y-75591079D01*
X166585883Y-75605329D01*
X166603607Y-75621393D01*
X166619671Y-75639117D01*
X166633921Y-75658330D01*
X166646218Y-75678847D01*
X166656446Y-75700471D01*
X166664504Y-75722993D01*
X166670316Y-75746197D01*
X166673826Y-75769858D01*
X166675000Y-75793750D01*
X166675000Y-76706250D01*
X166673826Y-76730142D01*
X166670316Y-76753803D01*
X166664504Y-76777007D01*
X166656446Y-76799529D01*
X166646218Y-76821153D01*
X166633921Y-76841670D01*
X166619671Y-76860883D01*
X166603607Y-76878607D01*
X166585883Y-76894671D01*
X166566670Y-76908921D01*
X166546153Y-76921218D01*
X166524529Y-76931446D01*
X166502007Y-76939504D01*
X166478803Y-76945316D01*
X166455142Y-76948826D01*
X166431250Y-76950000D01*
X165943750Y-76950000D01*
X165919858Y-76948826D01*
X165896197Y-76945316D01*
X165872993Y-76939504D01*
X165850471Y-76931446D01*
X165828847Y-76921218D01*
X165808330Y-76908921D01*
X165789117Y-76894671D01*
X165771393Y-76878607D01*
X165755329Y-76860883D01*
X165741079Y-76841670D01*
X165728782Y-76821153D01*
X165718554Y-76799529D01*
X165710496Y-76777007D01*
X165704684Y-76753803D01*
X165701174Y-76730142D01*
X165700000Y-76706250D01*
X165700000Y-75793750D01*
X165701174Y-75769858D01*
X165704684Y-75746197D01*
X165710496Y-75722993D01*
X165718554Y-75700471D01*
X165728782Y-75678847D01*
X165741079Y-75658330D01*
X165755329Y-75639117D01*
X165771393Y-75621393D01*
X165789117Y-75605329D01*
X165808330Y-75591079D01*
X165828847Y-75578782D01*
X165850471Y-75568554D01*
X165872993Y-75560496D01*
X165896197Y-75554684D01*
X165919858Y-75551174D01*
X165943750Y-75550000D01*
X166431250Y-75550000D01*
X166455142Y-75551174D01*
G37*
G04 #@! TD.AperFunction*
G04 #@! TA.AperFunction,SMDPad,CuDef*
G36*
X166455142Y-73551174D02*
G01*
X166478803Y-73554684D01*
X166502007Y-73560496D01*
X166524529Y-73568554D01*
X166546153Y-73578782D01*
X166566670Y-73591079D01*
X166585883Y-73605329D01*
X166603607Y-73621393D01*
X166619671Y-73639117D01*
X166633921Y-73658330D01*
X166646218Y-73678847D01*
X166656446Y-73700471D01*
X166664504Y-73722993D01*
X166670316Y-73746197D01*
X166673826Y-73769858D01*
X166675000Y-73793750D01*
X166675000Y-74706250D01*
X166673826Y-74730142D01*
X166670316Y-74753803D01*
X166664504Y-74777007D01*
X166656446Y-74799529D01*
X166646218Y-74821153D01*
X166633921Y-74841670D01*
X166619671Y-74860883D01*
X166603607Y-74878607D01*
X166585883Y-74894671D01*
X166566670Y-74908921D01*
X166546153Y-74921218D01*
X166524529Y-74931446D01*
X166502007Y-74939504D01*
X166478803Y-74945316D01*
X166455142Y-74948826D01*
X166431250Y-74950000D01*
X165943750Y-74950000D01*
X165919858Y-74948826D01*
X165896197Y-74945316D01*
X165872993Y-74939504D01*
X165850471Y-74931446D01*
X165828847Y-74921218D01*
X165808330Y-74908921D01*
X165789117Y-74894671D01*
X165771393Y-74878607D01*
X165755329Y-74860883D01*
X165741079Y-74841670D01*
X165728782Y-74821153D01*
X165718554Y-74799529D01*
X165710496Y-74777007D01*
X165704684Y-74753803D01*
X165701174Y-74730142D01*
X165700000Y-74706250D01*
X165700000Y-73793750D01*
X165701174Y-73769858D01*
X165704684Y-73746197D01*
X165710496Y-73722993D01*
X165718554Y-73700471D01*
X165728782Y-73678847D01*
X165741079Y-73658330D01*
X165755329Y-73639117D01*
X165771393Y-73621393D01*
X165789117Y-73605329D01*
X165808330Y-73591079D01*
X165828847Y-73578782D01*
X165850471Y-73568554D01*
X165872993Y-73560496D01*
X165896197Y-73554684D01*
X165919858Y-73551174D01*
X165943750Y-73550000D01*
X166431250Y-73550000D01*
X166455142Y-73551174D01*
G37*
G04 #@! TD.AperFunction*
G04 #@! TA.AperFunction,SMDPad,CuDef*
G36*
X164580142Y-73551174D02*
G01*
X164603803Y-73554684D01*
X164627007Y-73560496D01*
X164649529Y-73568554D01*
X164671153Y-73578782D01*
X164691670Y-73591079D01*
X164710883Y-73605329D01*
X164728607Y-73621393D01*
X164744671Y-73639117D01*
X164758921Y-73658330D01*
X164771218Y-73678847D01*
X164781446Y-73700471D01*
X164789504Y-73722993D01*
X164795316Y-73746197D01*
X164798826Y-73769858D01*
X164800000Y-73793750D01*
X164800000Y-74706250D01*
X164798826Y-74730142D01*
X164795316Y-74753803D01*
X164789504Y-74777007D01*
X164781446Y-74799529D01*
X164771218Y-74821153D01*
X164758921Y-74841670D01*
X164744671Y-74860883D01*
X164728607Y-74878607D01*
X164710883Y-74894671D01*
X164691670Y-74908921D01*
X164671153Y-74921218D01*
X164649529Y-74931446D01*
X164627007Y-74939504D01*
X164603803Y-74945316D01*
X164580142Y-74948826D01*
X164556250Y-74950000D01*
X164068750Y-74950000D01*
X164044858Y-74948826D01*
X164021197Y-74945316D01*
X163997993Y-74939504D01*
X163975471Y-74931446D01*
X163953847Y-74921218D01*
X163933330Y-74908921D01*
X163914117Y-74894671D01*
X163896393Y-74878607D01*
X163880329Y-74860883D01*
X163866079Y-74841670D01*
X163853782Y-74821153D01*
X163843554Y-74799529D01*
X163835496Y-74777007D01*
X163829684Y-74753803D01*
X163826174Y-74730142D01*
X163825000Y-74706250D01*
X163825000Y-73793750D01*
X163826174Y-73769858D01*
X163829684Y-73746197D01*
X163835496Y-73722993D01*
X163843554Y-73700471D01*
X163853782Y-73678847D01*
X163866079Y-73658330D01*
X163880329Y-73639117D01*
X163896393Y-73621393D01*
X163914117Y-73605329D01*
X163933330Y-73591079D01*
X163953847Y-73578782D01*
X163975471Y-73568554D01*
X163997993Y-73560496D01*
X164021197Y-73554684D01*
X164044858Y-73551174D01*
X164068750Y-73550000D01*
X164556250Y-73550000D01*
X164580142Y-73551174D01*
G37*
G04 #@! TD.AperFunction*
D41*
X154250000Y-67050000D03*
D42*
X151450000Y-62250000D03*
D43*
X157250000Y-62250000D03*
G04 #@! TA.AperFunction,SMDPad,CuDef*
D10*
G36*
X176200000Y-65200000D02*
G01*
X176700000Y-64450000D01*
X177700000Y-64450000D01*
X177700000Y-65950000D01*
X176700000Y-65950000D01*
X176200000Y-65200000D01*
G37*
G04 #@! TD.AperFunction*
G04 #@! TA.AperFunction,SMDPad,CuDef*
G36*
X175250000Y-64450000D02*
G01*
X176400000Y-64450000D01*
X175900000Y-65200000D01*
X176400000Y-65950000D01*
X175250000Y-65950000D01*
X175250000Y-64450000D01*
G37*
G04 #@! TD.AperFunction*
D44*
X152300000Y-78250000D03*
X150600000Y-78250000D03*
X148900000Y-78250000D03*
X147200000Y-78250000D03*
D45*
X145500000Y-78250000D03*
D46*
X171362500Y-58062500D03*
X174550000Y-65200000D03*
X173400000Y-86000000D03*
X167500000Y-90500000D03*
X199250000Y-71040000D03*
X171300000Y-65750000D03*
X185000000Y-84250000D03*
D47*
X200375000Y-58550000D02*
X202625000Y-58550000D01*
X202625000Y-58550000D02*
X205075000Y-58550000D01*
X200375000Y-58550000D02*
X197925000Y-58550000D01*
X197925000Y-59750000D02*
X197925000Y-58550000D01*
X198355000Y-60780000D02*
X197925000Y-60350000D01*
X197925000Y-60350000D02*
X197925000Y-59750000D01*
X199180000Y-60780000D02*
X198355000Y-60780000D01*
X205075000Y-59750000D02*
X205075000Y-58550000D01*
X205075000Y-60350000D02*
X205075000Y-59750000D01*
X204645000Y-60780000D02*
X205075000Y-60350000D01*
X203820000Y-60780000D02*
X204645000Y-60780000D01*
X203820000Y-63132500D02*
X204250000Y-63562500D01*
X203820000Y-60780000D02*
X203820000Y-63132500D01*
X202612500Y-63562500D02*
X202450000Y-63400000D01*
X204250000Y-63562500D02*
X202612500Y-63562500D01*
X161750000Y-89812500D02*
X161750000Y-89325000D01*
X161750000Y-89300000D02*
X161750000Y-89325000D01*
X162850000Y-88200000D02*
X161750000Y-89300000D01*
X164100000Y-88200000D02*
X162850000Y-88200000D01*
X160250000Y-65682500D02*
X162300000Y-65682500D01*
X154250000Y-65900000D02*
X154250000Y-67050000D01*
X154467500Y-65682500D02*
X154250000Y-65900000D01*
X160250000Y-65682500D02*
X154467500Y-65682500D01*
X162887500Y-71480000D02*
X163000000Y-71367500D01*
X160470000Y-71480000D02*
X162887500Y-71480000D01*
X163305000Y-71367500D02*
X163000000Y-71367500D01*
X166187500Y-74250000D02*
X163305000Y-71367500D01*
X161650000Y-84750000D02*
X164100000Y-87200000D01*
X164100000Y-87200000D02*
X164100000Y-88200000D01*
X157500000Y-84750000D02*
X161650000Y-84750000D01*
X148900000Y-80500000D02*
X149400000Y-81000000D01*
X148900000Y-78250000D02*
X148900000Y-80500000D01*
X171362500Y-59450000D02*
X171362500Y-58062500D01*
X171362500Y-58062500D02*
X171362500Y-58062500D01*
X174875000Y-80000000D02*
X175362500Y-80000000D01*
X188120000Y-91500000D02*
X187250000Y-91500000D01*
X189425010Y-90194990D02*
X188120000Y-91500000D01*
X189425010Y-86858160D02*
X189425010Y-90194990D01*
X188400000Y-85833150D02*
X189425010Y-86858160D01*
X188400000Y-85462500D02*
X188400000Y-85833150D01*
X175362500Y-80000000D02*
X172300000Y-80000000D01*
X172300000Y-80000000D02*
X172350000Y-80000000D01*
X175750000Y-65200000D02*
X174550000Y-65200000D01*
X174550000Y-65200000D02*
X174550000Y-65200000D01*
X197300000Y-81437500D02*
X195862500Y-80000000D01*
X195862500Y-80000000D02*
X194500000Y-80000000D01*
X198000000Y-81437500D02*
X197300000Y-81437500D01*
X199600000Y-61200000D02*
X199180000Y-60780000D01*
X200200000Y-61200000D02*
X199600000Y-61200000D01*
X175750000Y-63650000D02*
X175750000Y-64450000D01*
X175750000Y-64450000D02*
X175750000Y-65200000D01*
X177200000Y-62200000D02*
X175750000Y-63650000D01*
X177200000Y-61450000D02*
X177200000Y-62200000D01*
X164525000Y-85750000D02*
X165312500Y-85750000D01*
X164100000Y-86175000D02*
X164525000Y-85750000D01*
X164100000Y-87200000D02*
X164100000Y-86175000D01*
X172075001Y-80000000D02*
X172300000Y-80000000D01*
X166325001Y-85750000D02*
X172075001Y-80000000D01*
X165312500Y-85750000D02*
X166325001Y-85750000D01*
D48*
X152850000Y-62250000D02*
X154000000Y-63400000D01*
X151450000Y-62250000D02*
X152850000Y-62250000D01*
X154000000Y-63400000D02*
X154000000Y-64250000D01*
X154000000Y-64250000D02*
X154750000Y-65000000D01*
X154750000Y-65000000D02*
X158750000Y-65000000D01*
X158750000Y-65000000D02*
X159250000Y-65000000D01*
X159250000Y-65000000D02*
X160000000Y-64250000D01*
D47*
X175362500Y-78000000D02*
X175362500Y-80000000D01*
X176400000Y-85462500D02*
X173937500Y-85462500D01*
X173937500Y-85462500D02*
X173400000Y-86000000D01*
X173400000Y-86000000D02*
X173400000Y-86000000D01*
X164800000Y-58700000D02*
X166750000Y-60650000D01*
X161000000Y-58700000D02*
X164800000Y-58700000D01*
D48*
X158100000Y-58700000D02*
X159350000Y-58700000D01*
X159350000Y-58700000D02*
X161000000Y-58700000D01*
X157250000Y-59550000D02*
X158100000Y-58700000D01*
X157250000Y-62250000D02*
X157250000Y-59550000D01*
D47*
X161750000Y-91687500D02*
X161750000Y-92500000D01*
X162050000Y-92800000D02*
X164100000Y-92800000D01*
X161750000Y-92500000D02*
X162050000Y-92800000D01*
X157500000Y-82250000D02*
X157500000Y-81250000D01*
X151500000Y-88250000D02*
X157500000Y-82250000D01*
X158150000Y-80600000D02*
X157500000Y-81250000D01*
X163750000Y-80600000D02*
X158150000Y-80600000D01*
X164312500Y-80037500D02*
X163750000Y-80600000D01*
X164312500Y-78250000D02*
X164312500Y-80037500D01*
X163750000Y-80600000D02*
X162500000Y-80600000D01*
X174975000Y-90275000D02*
X176500000Y-90275000D01*
X174250000Y-91000000D02*
X174975000Y-90275000D01*
X173000000Y-94500000D02*
X174250000Y-93250000D01*
X160250000Y-94500000D02*
X173000000Y-94500000D01*
X174250000Y-93250000D02*
X174250000Y-91000000D01*
X164312500Y-80362500D02*
X164312500Y-80037500D01*
X164700000Y-80750000D02*
X164312500Y-80362500D01*
X165300000Y-80750000D02*
X164700000Y-80750000D01*
X153338477Y-88250000D02*
X151500000Y-88250000D01*
X154000000Y-88911523D02*
X153338477Y-88250000D01*
X157750000Y-93250000D02*
X157750000Y-91750000D01*
X157750000Y-91750000D02*
X157200000Y-91200000D01*
X154000000Y-88911523D02*
X154011523Y-88911523D01*
X156300000Y-91200000D02*
X157200000Y-91200000D01*
X154011523Y-88911523D02*
X156300000Y-91200000D01*
X154799999Y-91800001D02*
X155699999Y-91800001D01*
X155699999Y-91800001D02*
X156300000Y-91200000D01*
X154300000Y-92300000D02*
X154799999Y-91800001D01*
X160950000Y-93250000D02*
X161000000Y-93200000D01*
X161000000Y-93200000D02*
X161750000Y-92500000D01*
X159050000Y-93300000D02*
X160250000Y-94500000D01*
X159050000Y-93250000D02*
X159050000Y-93300000D01*
X159050000Y-93250000D02*
X160950000Y-93250000D01*
X157750000Y-93250000D02*
X159050000Y-93250000D01*
X176625000Y-87337500D02*
X176400000Y-87337500D01*
X178500000Y-85462500D02*
X176625000Y-87337500D01*
X177100000Y-88800000D02*
X176400000Y-88100000D01*
X178280000Y-88800000D02*
X177100000Y-88800000D01*
X179630000Y-91500000D02*
X179630000Y-90150000D01*
X176400000Y-88100000D02*
X176400000Y-87337500D01*
X179630000Y-90150000D02*
X178280000Y-88800000D01*
X182170000Y-88932500D02*
X182170000Y-91500000D01*
X180575000Y-87337500D02*
X182170000Y-88932500D01*
X185365010Y-82762441D02*
X185365010Y-78865010D01*
X183849999Y-84277452D02*
X185365010Y-82762441D01*
X183849999Y-85766851D02*
X183849999Y-84277452D01*
X185365010Y-78865010D02*
X180500000Y-74000000D01*
X181060527Y-86851973D02*
X181548027Y-86851973D01*
X180575000Y-87337500D02*
X181060527Y-86851973D01*
X181548027Y-86851973D02*
X182124990Y-86275010D01*
X182124990Y-86275010D02*
X183341840Y-86275010D01*
X183341840Y-86275010D02*
X183849999Y-85766851D01*
X181600000Y-79100000D02*
X180500000Y-78000000D01*
X181600000Y-85941850D02*
X181600000Y-79100000D01*
X181266840Y-86275010D02*
X181600000Y-85941850D01*
X178500000Y-87337500D02*
X179562490Y-86275010D01*
X179562490Y-86275010D02*
X181266840Y-86275010D01*
X200175000Y-87030000D02*
X199687500Y-87030000D01*
X201607095Y-87030000D02*
X200175000Y-87030000D01*
X203230000Y-85407095D02*
X201607095Y-87030000D01*
X203230000Y-85250000D02*
X203230000Y-85407095D01*
X201607095Y-90047095D02*
X201607095Y-87030000D01*
X201710000Y-90150000D02*
X201607095Y-90047095D01*
X201710000Y-91500000D02*
X201710000Y-90150000D01*
X173237500Y-61450000D02*
X173237500Y-59450000D01*
X173237500Y-61450000D02*
X175000000Y-61450000D01*
X173517500Y-59730000D02*
X173237500Y-59450000D01*
X175000000Y-59730000D02*
X173517500Y-59730000D01*
X178160001Y-58724999D02*
X176105001Y-58724999D01*
X175100000Y-59730000D02*
X175000000Y-59730000D01*
X178400000Y-58964998D02*
X178160001Y-58724999D01*
X176105001Y-58724999D02*
X175100000Y-59730000D01*
X178400000Y-63900000D02*
X178400000Y-58964998D01*
X181375001Y-67124999D02*
X181375001Y-65189999D01*
X179200000Y-64700000D02*
X178400000Y-63900000D01*
X180500000Y-68000000D02*
X181375001Y-67124999D01*
X181375001Y-65189999D02*
X180885002Y-64700000D01*
X180885002Y-64700000D02*
X179200000Y-64700000D01*
X164100000Y-90500000D02*
X167500000Y-90500000D01*
X177200000Y-79962500D02*
X177100000Y-80062500D01*
X180500000Y-80000000D02*
X180437500Y-80062500D01*
X180575000Y-80075000D02*
X180500000Y-80000000D01*
X180575000Y-85462500D02*
X180575000Y-80075000D01*
X177237500Y-80000000D02*
X180500000Y-80000000D01*
X201750000Y-64500000D02*
X200650000Y-63400000D01*
X204200000Y-67400000D02*
X205275010Y-66324990D01*
X204200000Y-68500000D02*
X204200000Y-67400000D01*
X205275010Y-66324990D02*
X205275010Y-64958160D01*
X200650000Y-63400000D02*
X200550000Y-63400000D01*
X204816850Y-64500000D02*
X201750000Y-64500000D01*
X205275010Y-64958160D02*
X204816850Y-64500000D01*
X204200000Y-68700000D02*
X204200000Y-68500000D01*
X205375001Y-69875001D02*
X204200000Y-68700000D01*
X204764001Y-82375001D02*
X205375001Y-81764001D01*
X205375001Y-81764001D02*
X205375001Y-69875001D01*
X202000000Y-85250000D02*
X202379990Y-84870010D01*
X202379990Y-84870010D02*
X202379990Y-84672915D01*
X201960000Y-85250000D02*
X202000000Y-85250000D01*
X202379990Y-84672915D02*
X204677904Y-82375001D01*
X204677904Y-82375001D02*
X204764001Y-82375001D01*
X199592500Y-85250000D02*
X201960000Y-85250000D01*
X197812500Y-87030000D02*
X199500000Y-85250000D01*
X199500000Y-85250000D02*
X199592500Y-85250000D01*
X199287490Y-78749990D02*
X199614473Y-79076973D01*
X199614473Y-79076973D02*
X200100000Y-79562500D01*
X198324990Y-78749990D02*
X199287490Y-78749990D01*
X198000000Y-78425000D02*
X198324990Y-78749990D01*
X198000000Y-77937500D02*
X198000000Y-78425000D01*
X199074990Y-84824990D02*
X199500000Y-85250000D01*
X199074990Y-80587510D02*
X199074990Y-84824990D01*
X200100000Y-79562500D02*
X199074990Y-80587510D01*
X167500000Y-90500000D02*
X170400000Y-90500000D01*
X199170000Y-88387500D02*
X197812500Y-87030000D01*
X199170000Y-91500000D02*
X199170000Y-88387500D01*
X168975000Y-85750000D02*
X168187500Y-85750000D01*
X170400000Y-87175000D02*
X168975000Y-85750000D01*
X170400000Y-90500000D02*
X170400000Y-87175000D01*
X170400000Y-87175000D02*
X170400000Y-86837500D01*
X174737500Y-82500000D02*
X176750000Y-82500000D01*
X177237500Y-82012500D02*
X177237500Y-80000000D01*
X176750000Y-82500000D02*
X177237500Y-82012500D01*
X172500000Y-84737500D02*
X172500000Y-82750000D01*
X172243750Y-84993750D02*
X174737500Y-82500000D01*
X172243750Y-84993750D02*
X172500000Y-84737500D01*
X170400000Y-86837500D02*
X172243750Y-84993750D01*
X162850000Y-90500000D02*
X164100000Y-90500000D01*
X162475010Y-90874990D02*
X162850000Y-90500000D01*
X158950000Y-88950000D02*
X160874990Y-90874990D01*
X160874990Y-90874990D02*
X162475010Y-90874990D01*
X158950000Y-88950000D02*
X157750000Y-88950000D01*
X177237500Y-80000000D02*
X177237500Y-78000000D01*
X173824999Y-68149999D02*
X175075000Y-69400000D01*
X176700000Y-59550000D02*
X176174999Y-60075001D01*
X176174999Y-60075001D02*
X176174999Y-62501999D01*
X177200000Y-59550000D02*
X176700000Y-59550000D01*
X176174999Y-62501999D02*
X173824999Y-64851999D01*
X175075000Y-69400000D02*
X175562500Y-69400000D01*
X173824999Y-64851999D02*
X173824999Y-68149999D01*
X175562500Y-71700000D02*
X177200000Y-73337500D01*
X175562500Y-69400000D02*
X175562500Y-71700000D01*
X177200000Y-77962500D02*
X177237500Y-78000000D01*
X177200000Y-73337500D02*
X177200000Y-77962500D01*
X200567500Y-65437500D02*
X200730000Y-65600000D01*
X200730000Y-65600000D02*
X202450000Y-65600000D01*
X202612500Y-65437500D02*
X202450000Y-65600000D01*
X204250000Y-65437500D02*
X202612500Y-65437500D01*
X194500000Y-69750000D02*
X194500000Y-70000000D01*
X193624990Y-68874990D02*
X194500000Y-69750000D01*
X194137559Y-65124990D02*
X193624990Y-65637559D01*
X193624990Y-65637559D02*
X193624990Y-68874990D01*
X198750000Y-65437500D02*
X200567500Y-65437500D01*
X198750000Y-65437500D02*
X198050000Y-65437500D01*
X198050000Y-65437500D02*
X197737490Y-65124990D01*
X197737490Y-65124990D02*
X194137559Y-65124990D01*
X155687500Y-73950000D02*
X155687500Y-73250000D01*
X155687500Y-75750000D02*
X155687500Y-73950000D01*
X153187500Y-78250000D02*
X155687500Y-75750000D01*
X152300000Y-78250000D02*
X153187500Y-78250000D01*
X157155000Y-71480000D02*
X156175000Y-70500000D01*
X157930000Y-71480000D02*
X157155000Y-71480000D01*
X156175000Y-70500000D02*
X155000000Y-70500000D01*
X154750000Y-72312500D02*
X155687500Y-73250000D01*
X155000000Y-70500000D02*
X154750000Y-70750000D01*
X154750000Y-70750000D02*
X154750000Y-72312500D01*
X183365010Y-78865010D02*
X180500000Y-76000000D01*
X182650000Y-85462500D02*
X183365010Y-84747490D01*
X183365010Y-84747490D02*
X183365010Y-78865010D01*
X185525000Y-90685000D02*
X184710000Y-91500000D01*
X185525000Y-87400000D02*
X185525000Y-90685000D01*
X177300000Y-93400000D02*
X176500000Y-92600000D01*
X184160000Y-93400000D02*
X177300000Y-93400000D01*
X184710000Y-91500000D02*
X184710000Y-92850000D01*
X176500000Y-92600000D02*
X176500000Y-91725000D01*
X184710000Y-92850000D02*
X184160000Y-93400000D01*
X202877500Y-78660000D02*
X204200000Y-78660000D01*
X200100000Y-81437500D02*
X202877500Y-78660000D01*
X202155000Y-77937500D02*
X202877500Y-78660000D01*
X200100000Y-77937500D02*
X202155000Y-77937500D01*
X198000000Y-69000000D02*
X197000000Y-68000000D01*
X197000000Y-68000000D02*
X194500000Y-68000000D01*
X198000000Y-71499412D02*
X198000000Y-69000000D01*
X201750578Y-75249990D02*
X198000000Y-71499412D01*
X203329990Y-75249990D02*
X201750578Y-75249990D01*
X204200000Y-76120000D02*
X203329990Y-75249990D01*
X204200000Y-73580000D02*
X203350001Y-72730001D01*
X198500000Y-68250000D02*
X196250000Y-66000000D01*
X198500000Y-71363002D02*
X198500000Y-68250000D01*
X203350001Y-72730001D02*
X199866999Y-72730001D01*
X199866999Y-72730001D02*
X198500000Y-71363002D01*
X196250000Y-66000000D02*
X194500000Y-66000000D01*
X177200000Y-67262500D02*
X177437500Y-67500000D01*
X177200000Y-65200000D02*
X177200000Y-67262500D01*
X177437500Y-67500000D02*
X177437500Y-69400000D01*
X178500000Y-66000000D02*
X180500000Y-66000000D01*
X177700000Y-65200000D02*
X178500000Y-66000000D01*
X177200000Y-65200000D02*
X177700000Y-65200000D01*
X199250000Y-71040000D02*
X204200000Y-71040000D01*
X179862549Y-72000000D02*
X180500000Y-72000000D01*
X176375010Y-69841860D02*
X177033150Y-70500000D01*
X177033150Y-70500000D02*
X178362549Y-70500000D01*
X176375010Y-68708160D02*
X176375010Y-69841860D01*
X178362549Y-70500000D02*
X179862549Y-72000000D01*
X175562500Y-67895650D02*
X176375010Y-68708160D01*
X175562500Y-67500000D02*
X175562500Y-67895650D01*
X196437500Y-78000000D02*
X198000000Y-79562500D01*
X194500000Y-78000000D02*
X196437500Y-78000000D01*
X162907500Y-66950000D02*
X162300000Y-67557500D01*
X164470000Y-66950000D02*
X162907500Y-66950000D01*
X160250000Y-67557500D02*
X162300000Y-67557500D01*
X165320000Y-66950000D02*
X164470000Y-66950000D01*
X165500000Y-67130000D02*
X165320000Y-66950000D01*
X165500000Y-69350000D02*
X165500000Y-67130000D01*
X159087500Y-71592500D02*
X159200000Y-71480000D01*
X159087500Y-74500000D02*
X159087500Y-71592500D01*
X160187500Y-69492500D02*
X159200000Y-70480000D01*
X159200000Y-70480000D02*
X159200000Y-71480000D01*
X163000000Y-69492500D02*
X160187500Y-69492500D01*
X187712500Y-87337500D02*
X188400000Y-87337500D01*
X186475000Y-85400000D02*
X186475000Y-86100000D01*
X186475000Y-86100000D02*
X186600000Y-86300000D01*
X182650000Y-87337500D02*
X184062501Y-87337500D01*
X186600000Y-86300000D02*
X186900000Y-86600000D01*
X184800001Y-86600000D02*
X186900000Y-86600000D01*
X184062501Y-87337500D02*
X184800001Y-86600000D01*
X186900000Y-86600000D02*
X187712500Y-87337500D01*
X156726973Y-74014473D02*
X157212500Y-74500000D01*
X156450000Y-71450000D02*
X156726973Y-71726973D01*
X156726973Y-71726973D02*
X156726973Y-74014473D01*
X155750000Y-71450000D02*
X156450000Y-71450000D01*
X146800000Y-81000000D02*
X146100000Y-81000000D01*
X147200000Y-80600000D02*
X146800000Y-81000000D01*
X147200000Y-78250000D02*
X147200000Y-80600000D01*
X146100000Y-87850000D02*
X146500000Y-88250000D01*
X146100000Y-81000000D02*
X146100000Y-87850000D01*
X202724999Y-62225001D02*
X202800000Y-62150000D01*
X202800000Y-62150000D02*
X202800000Y-61200000D01*
X198750000Y-63562500D02*
X198750000Y-63075000D01*
X198750000Y-63075000D02*
X199599999Y-62225001D01*
X199599999Y-62225001D02*
X202724999Y-62225001D01*
X164312500Y-76250000D02*
X164312500Y-74250000D01*
X161087490Y-79475010D02*
X151725010Y-79475010D01*
X164312500Y-76250000D02*
X161087490Y-79475010D01*
X151500000Y-79150000D02*
X150600000Y-78250000D01*
X151500000Y-79250000D02*
X151500000Y-79150000D01*
X151725010Y-79475010D02*
X151500000Y-79250000D01*
X166187500Y-76250000D02*
X166187500Y-78250000D01*
X167650000Y-81400000D02*
X167650000Y-80100000D01*
X166187500Y-78950000D02*
X166187500Y-78250000D01*
X166187500Y-79287500D02*
X166187500Y-78950000D01*
X167000000Y-80100000D02*
X166187500Y-79287500D01*
X167650000Y-80100000D02*
X167000000Y-80100000D01*
X181375010Y-70875010D02*
X180500000Y-70000000D01*
X181375010Y-72362441D02*
X181375010Y-70875010D01*
X180862441Y-72875010D02*
X181375010Y-72362441D01*
X178612510Y-72875010D02*
X180862441Y-72875010D01*
X177200000Y-71462500D02*
X178612510Y-72875010D01*
X197237500Y-76000000D02*
X194500000Y-76000000D01*
X197300000Y-76062500D02*
X197237500Y-76000000D01*
X198000000Y-76062500D02*
X197300000Y-76062500D01*
X200100000Y-76062500D02*
X199537500Y-75500000D01*
X197441850Y-74000000D02*
X194500000Y-74000000D01*
X199537500Y-75500000D02*
X198941850Y-75500000D01*
X198941850Y-75500000D02*
X197441850Y-74000000D01*
X184575000Y-84700000D02*
X184975000Y-84300000D01*
X184575000Y-85400000D02*
X184575000Y-84700000D01*
X184975000Y-84300000D02*
X184975000Y-84300000D01*
X169030000Y-69470000D02*
X169030000Y-68300000D01*
X169030000Y-68300000D02*
X169030000Y-66950000D01*
X168200000Y-70300000D02*
X169030000Y-69470000D01*
X167500000Y-70300000D02*
X168200000Y-70300000D01*
X163691840Y-68679990D02*
X154920010Y-68679990D01*
X153750000Y-69850000D02*
X153750000Y-70500000D01*
X164025010Y-69013160D02*
X163691840Y-68679990D01*
X164025010Y-69310012D02*
X164025010Y-69013160D01*
X154920010Y-68679990D02*
X153750000Y-69850000D01*
X165014998Y-70300000D02*
X164025010Y-69310012D01*
X167500000Y-70300000D02*
X165014998Y-70300000D01*
X153812500Y-70562500D02*
X153750000Y-70500000D01*
X153812500Y-73250000D02*
X153812500Y-70562500D01*
X152424999Y-69874999D02*
X153050000Y-70500000D01*
X153050000Y-70500000D02*
X153750000Y-70500000D01*
X146875001Y-69874999D02*
X152424999Y-69874999D01*
X145750000Y-71000000D02*
X146875001Y-69874999D01*
X145750000Y-78000000D02*
X145500000Y-78250000D01*
X145750000Y-71000000D02*
X145750000Y-78000000D01*
X170100000Y-66950000D02*
X171300000Y-65750000D01*
X169030000Y-66950000D02*
X170100000Y-66950000D01*
X171300000Y-61512500D02*
X171362500Y-61450000D01*
X171300000Y-65750000D02*
X171300000Y-61512500D01*
X169970000Y-69470000D02*
X170750000Y-70250000D01*
X169030000Y-69470000D02*
X169970000Y-69470000D01*
M02*
