M48
; DRILL file {KiCad (5.1.5)-3} date 28/01/2022 21:11:27
; FORMAT={-:-/ absolute / inch / decimal}
; #@! TF.CreationDate,2022-01-28T21:11:27+01:00
; #@! TF.GenerationSoftware,Kicad,Pcbnew,(5.1.5)-3
FMAT,2
INCH
T1C0.0157
T2C0.0177
T3C0.0256
T4C0.0295
T5C0.0315
T6C0.0394
T7C0.0433
T8C0.0472
T9C0.0512
T10C0.1260
%
G90
G05
T1
X6.5945Y-3.563
X6.7441Y-2.5886
X6.7466Y-2.2859
X6.8268Y-3.3858
X6.872Y-2.5669
X7.2835Y-3.3169
X7.8445Y-2.7969
T3
X7.1063Y-2.5984
X7.1063Y-2.6772
X7.1063Y-2.7559
X7.1063Y-2.8346
X7.1063Y-2.9134
X7.1063Y-2.9921
X7.1063Y-3.0709
X7.1063Y-3.1496
X7.1846Y-3.189
X7.2634Y-3.189
X7.3421Y-3.189
X7.4209Y-3.189
X7.4996Y-3.189
X7.5783Y-3.189
X7.6575Y-2.5984
X7.6575Y-2.6772
X7.6575Y-2.7559
X7.6575Y-2.8346
X7.6575Y-2.9134
X7.6575Y-2.9921
X7.6575Y-3.0709
X7.6575Y-3.1496
T4
X6.2177Y-2.8142
X6.2677Y-2.8142
X6.3177Y-2.8142
X7.9512Y-3.3563
X8.0012Y-3.3563
X8.0512Y-3.3563
T5
X6.2008Y-3.1988
X6.2008Y-3.3366
X5.7382Y-2.7953
X5.8366Y-2.7953
T6
X8.0394Y-2.6969
X8.0394Y-2.7969
X8.0394Y-2.8969
X8.0394Y-2.9969
X8.0394Y-3.0969
X8.0394Y-3.1969
T7
X5.7283Y-3.0807
X5.7953Y-3.0807
X5.8622Y-3.0807
X5.9291Y-3.0807
X5.9961Y-3.0807
T8
X7.8413Y-3.6024
X7.9413Y-3.6024
X8.0413Y-3.6024
X7.072Y-3.6024
X7.172Y-3.6024
X7.272Y-3.6024
X7.372Y-3.6024
T9
X5.7677Y-3.4744
X5.9646Y-3.4744
T10
X6.7323Y-2.9823
X7.6181Y-3.5925
T2
G00X7.7923Y-2.3209
M15
G01X7.7923Y-2.2894
M16
G05
G00X8.0738Y-2.2894
M15
G01X8.0738Y-2.3209
M16
G05
T5
G00X5.9626Y-2.4075
M15
G01X5.9626Y-2.4941
M16
G05
G00X6.0295Y-2.6398
M15
G01X6.1161Y-2.6398
M16
G05
G00X6.1909Y-2.3996
M15
G01X6.1909Y-2.502
M16
G05
T0
M30
